<svg width="332" height="331" viewBox="0 0 332 331" fill="none" xmlns="http://www.w3.org/2000/svg">
<path d="M165.675 330.965C257.026 330.965 331.071 256.91 331.057 165.558C331.044 74.2066 256.978 0.151367 165.626 0.151367C74.274 0.151367 0.229674 74.2066 0.24315 165.558C0.256626 256.91 74.3228 330.965 165.675 330.965Z" fill="url(#paint0_radial_602_102727)"/>
<path style="mix-blend-mode:multiply" opacity="0.1" d="M16.8383 155.324C16.1702 156.637 15.5712 157.996 15.0413 159.378C13.3133 163.801 16.654 169.514 21.8377 168.754C24.0725 168.431 25.8465 166.796 27.7818 165.644C29.717 164.492 32.4356 163.893 34.0483 165.437C35.4076 166.75 35.3385 168.915 35.2464 170.804C34.9469 177.784 36.214 185.247 40.9139 190.407C45.6139 195.567 54.5069 197.249 59.6446 192.503C61.3955 190.891 62.5935 188.426 61.9484 186.146C61.0269 182.875 56.8108 181.193 56.373 177.83C56.0275 175.181 58.3083 172.9 60.6813 171.656C63.0543 170.435 65.7729 169.767 67.7773 167.994C70.8184 165.322 71.4635 160.83 71.187 156.775C71.0949 155.278 70.8645 153.689 69.8738 152.56C67.4778 149.796 63.0313 151.569 59.8289 153.297C56.6034 155.025 51.6731 156.038 50.1065 152.721C49.231 150.878 50.1064 148.759 50.5672 146.778C51.051 144.797 50.8206 142.194 48.9314 141.457C47.9638 141.088 46.858 141.365 45.9134 141.802C41.2365 143.991 39.0708 149.773 34.44 152.099C34.0023 152.33 33.4954 152.514 33.0116 152.468C32.1131 152.399 31.445 151.592 31.1455 150.74C30.3161 148.367 31.7675 145.903 31.3297 143.438C31.2606 143 31.1224 142.539 30.7538 142.286C30.5003 142.102 30.1778 142.056 29.8553 142.056C26.5837 141.94 23.9112 144.544 21.9299 147.123C19.9716 149.68 18.2667 152.399 16.8153 155.278L16.8383 155.324Z" fill="url(#paint1_linear_602_102727)"/>
<path style="mix-blend-mode:multiply" opacity="0.1" d="M77.7518 173.408C80.4473 169.63 81.0002 164.723 80.7238 160.093C80.4473 155.463 79.4566 150.879 79.4566 146.249C79.4566 136.067 84.5943 126.001 92.8423 120.034C95.6991 117.961 99.4083 116.349 102.657 117.731C108.9 120.403 107.172 130.815 112.656 134.823C114.983 136.505 118.139 136.62 120.904 135.814C123.668 135.031 126.11 133.441 128.529 131.921C140.878 124.25 154.264 117.892 168.548 115.22C173.156 114.345 177.994 113.884 182.487 115.243C186.979 116.602 191.057 120.127 191.886 124.757C192.532 128.419 191.103 132.128 189.352 135.399C186.749 140.214 183.293 144.659 178.823 147.838C174.354 151.017 168.825 152.86 163.364 152.353C158.019 151.846 153.158 149.22 148.02 147.723C143.251 146.341 137.998 145.949 133.391 147.815C128.783 149.681 125.028 154.15 125.051 159.103C125.051 163.364 127.677 167.257 127.93 171.519C128.161 175.343 126.226 179.282 122.977 181.309C119.729 183.336 115.236 183.29 112.126 181.032C109.269 178.959 107.794 175.435 107.265 171.933C106.735 168.432 107.034 164.885 106.919 161.36C106.781 157.122 105.352 152.031 101.251 150.925C97.3579 149.865 93.6025 153.183 91.6212 156.707C89.4325 160.646 88.3497 165.184 88.557 169.676C88.7413 173.891 90.0085 177.992 90.2849 182.207C90.5614 186.423 89.6168 191.076 86.2992 193.702C82.5669 196.65 76.9685 195.982 72.9597 193.449C68.9509 190.915 66.1863 186.86 63.5368 182.921C62.7995 181.839 61.3711 179.259 63.1912 178.383C64.1358 177.923 66.624 178.982 67.799 178.89C71.6925 178.614 75.4709 176.61 77.7518 173.431V173.408Z" fill="url(#paint2_linear_602_102727)"/>
<path style="mix-blend-mode:multiply" opacity="0.1" d="M202.627 127.545C204.931 136.528 203.756 146.572 198.388 154.127C193.02 161.683 183.229 166.198 174.174 164.286C171.847 163.779 169.567 162.904 167.194 162.766C160.697 162.42 155.259 167.834 152.195 173.593C146.781 183.797 146.251 196.835 152.195 206.764C158.116 216.692 170.811 222.543 181.892 219.226C191.315 216.416 197.973 208.054 202.766 199.484C207.558 190.892 211.152 181.54 217.487 174.03C221.312 169.492 227.026 165.507 232.808 166.889C236.541 167.788 239.374 170.69 242.093 173.385C247 178.246 252.299 182.876 258.497 185.94C264.694 189.003 271.951 190.385 278.633 188.566C285.452 186.7 291.074 181.678 294.829 175.712C298.584 169.746 300.681 162.881 302.271 155.993C305.68 141.251 306.763 124.965 299.529 111.673C297.778 108.471 295.013 105.177 291.35 105.246C289.231 105.269 287.318 106.444 285.613 107.734C278.587 113.032 273.656 120.588 267.62 126.969C265.27 129.456 262.667 131.829 259.51 133.142C256.354 134.455 252.507 134.57 249.65 132.705C245.987 130.309 244.812 125.31 245.572 121.002C246.332 116.695 248.636 112.848 250.64 108.955C257.253 96.1932 261.123 81.4275 258.128 67.3758C257.345 63.7362 256.031 60.0275 253.382 57.4245C250.71 54.7984 246.447 53.5545 243.13 55.2822C239.605 57.125 238.315 61.4787 237.6 65.3948C235.596 76.2906 235.089 87.9235 229.214 97.2989C227.786 99.5794 225.758 101.86 223.086 102.182C220.229 102.528 217.649 100.616 215.345 98.8653C211.797 96.1702 207.972 93.6593 203.641 92.6227C196.591 90.9181 184.887 95.8016 188.758 104.624C190.094 107.688 193.596 110.176 195.554 112.848C198.78 117.248 201.291 122.269 202.65 127.568L202.627 127.545Z" fill="url(#paint3_linear_602_102727)"/>
<path style="mix-blend-mode:multiply" opacity="0.1" d="M111.897 114.138C112.266 112.018 114.362 109.6 116.159 110.798C116.92 111.304 117.219 112.249 117.542 113.101C118.878 116.579 122.172 119.689 125.859 119.298C127.909 119.09 129.683 117.869 131.388 116.718C140.235 110.798 149.773 105.914 159.726 102.136C162.191 101.215 165.509 100.593 166.983 102.781C168.066 104.371 167.329 106.674 165.9 107.964C164.472 109.254 162.537 109.807 160.693 110.383C151.708 113.124 143.092 117.017 135.12 121.947C130.766 124.642 124.822 128.673 119.477 127.084C114.362 125.563 111.022 119.182 111.897 114.138Z" fill="url(#paint4_linear_602_102727)"/>
<path style="mix-blend-mode:multiply" opacity="0.1" d="M210.66 83.6841C213.033 85.0202 215.222 86.9551 217.941 87.1855C222.203 87.554 225.682 83.4537 226.603 79.2843C227.525 75.1149 226.718 70.7842 226.765 66.4996C226.834 61.3857 228.17 56.3179 230.635 51.826C232.939 47.6566 236.902 43.7175 241.671 43.9709C244.481 44.1322 247.546 45.6986 249.919 44.2013C251.762 43.0495 252.223 40.3543 251.301 38.3733C250.402 36.3922 248.444 35.0562 246.417 34.2499C242.754 32.8448 238.514 32.9599 234.943 34.5954C229.829 36.922 226.442 42.0359 224.668 47.3571C222.894 52.7014 222.502 58.3681 221.742 63.9427C221.304 67.2137 220.498 70.8303 217.802 72.7192C214.139 75.2761 208.794 73.4333 204.808 75.4374C202.62 76.5431 198.381 82.2789 202.412 83.4537C203.403 83.7532 204.878 82.5093 205.937 82.4171C207.573 82.2789 209.301 82.8778 210.683 83.6611L210.66 83.6841Z" fill="url(#paint5_linear_602_102727)"/>
<path style="mix-blend-mode:multiply" opacity="0.1" d="M261.577 106.628C261.393 109.185 263.006 112.111 265.563 112.318C267.498 112.479 269.203 111.097 270.655 109.807C274.871 106.052 279.11 102.298 283.326 98.5428C285.883 96.2623 289.178 93.8205 292.426 94.9032C293.947 95.41 295.099 96.6078 296.481 97.391C297.864 98.1742 299.845 98.4507 300.882 97.2528C301.481 96.5848 301.596 95.6173 301.642 94.7419C301.918 89.1673 299.707 83.7079 296.481 79.1699C293.256 74.6319 289.063 70.8772 284.87 67.1915C283.51 65.9936 282.082 64.7728 280.354 64.1738C278.626 63.5749 276.53 63.7361 275.262 65.0492C272.935 67.4449 274.802 71.3609 276.322 74.3325C277.935 77.4883 279.018 81.2431 277.705 84.5142C275.769 89.3516 270.171 87.1863 267.867 91.3557C265.701 95.3178 261.854 102.09 261.531 106.628H261.577Z" fill="url(#paint6_linear_602_102727)"/>
<path style="mix-blend-mode:multiply" opacity="0.1" d="M33.4939 204.552C35.7978 208.353 38.6776 211.901 42.456 214.25C46.2344 216.577 51.0265 217.544 55.1965 216.001C58.6063 214.734 61.4631 211.924 65.0802 211.624C68.7204 211.302 72.061 213.674 74.5492 216.347C77.0374 219.019 79.1109 222.174 82.129 224.248C85.2623 226.413 89.3402 227.219 93.0033 226.229C96.6665 225.238 99.8459 222.405 101.067 218.811C102.91 213.398 100.376 207.248 102.173 201.811C103.762 197.066 109.015 193.749 113.969 194.647C120.581 195.822 124.152 202.848 127.239 208.837C132.1 218.212 138.759 227.427 148.573 231.32C151.845 232.61 155.738 233.577 157.397 236.687C159.447 240.603 156.614 245.256 153.596 248.481C146.546 255.991 137.146 261.957 126.871 262.348C112.863 262.878 100.376 253.111 92.197 241.732C89.7318 238.322 87.474 234.637 84.0873 232.149C80.7697 229.684 76.6918 228.578 72.7061 227.519C69.1351 226.574 65.4027 225.607 61.7856 226.39C57.8921 227.242 54.6897 230.007 51.0265 231.55C45.5432 233.853 38.908 233.232 33.9547 229.937C31.3513 228.21 29.2317 225.814 27.2734 223.372C23.9328 219.203 20.9147 214.78 18.2652 210.127C15.7309 205.658 13.5192 200.867 12.8971 195.776C12.2751 190.662 13.4501 185.156 16.952 181.379C18.4956 179.72 20.7073 178.384 22.9421 178.707C27.3425 179.352 26.467 186.239 27.2273 189.441C28.5175 194.785 30.6371 199.899 33.4939 204.598V204.552Z" fill="url(#paint7_linear_602_102727)"/>
<path style="mix-blend-mode:multiply" opacity="0.1" d="M49.8541 115.658C50.983 115.082 52.2271 114.644 53.4942 114.782C56.5123 115.082 58.2633 118.376 58.8623 121.347C59.4613 124.319 59.5995 127.613 61.5808 129.917C64.3686 133.165 69.7366 132.888 73.3307 130.539C76.9248 128.189 79.2056 124.388 81.6247 120.841C85.8869 114.552 90.8402 108.747 96.3465 103.518C100.286 99.8092 105.447 96.1696 110.677 97.5287C113.741 98.335 116.114 100.708 119.017 101.929C126.182 104.969 134.269 100.523 140.143 95.4325C146.018 90.3186 151.732 84.099 159.427 82.8781C167.145 81.6342 175.301 85.8036 182.673 83.2236C187.419 81.5651 191.059 77.0502 191.612 72.0515C192.142 67.3292 190.276 62.031 192.926 58.0919C195.598 54.0838 201.243 53.8534 205.92 52.5865C214.444 50.3059 221.54 42.5199 221.816 33.6973C222.093 24.8978 214.467 16.2364 205.643 16.4898C202.579 16.5819 199.607 17.6416 196.865 19.0698C186.982 24.2298 180.001 34.6187 178.941 45.7219C178.227 53.1163 179.886 61.0635 176.476 67.6517C174.679 71.13 171.545 73.8713 167.859 75.1843C162.491 77.1193 156.409 75.9905 150.972 77.7642C143.069 80.3442 138.393 88.1993 132.564 94.1425C131.043 95.7089 129.269 97.2292 127.103 97.6208C125.399 97.9433 123.648 97.5057 122.035 96.8146C114.225 93.4975 108.649 84.3524 100.171 84.7901C92.7294 85.1817 87.9834 92.9447 85.979 100.132C83.9746 107.319 83.0531 115.335 77.8233 120.656C76.3257 122.177 74.1831 123.467 72.1557 122.822C69.4832 121.969 68.792 118.56 68.5847 115.75C68.3313 112.456 68.0778 109.139 67.8244 105.845C67.5479 102.09 67.1102 97.9664 64.4377 95.3173C61.9495 92.8525 58.0559 92.2766 54.6462 93.0598C51.2364 93.843 48.2183 95.755 45.3384 97.736C39.3253 101.882 25.8706 111.672 26.6539 120.472C27.0916 125.24 32.068 127.291 36.0998 125.609C41.3988 123.421 44.7394 118.145 49.831 115.589L49.8541 115.658Z" fill="url(#paint8_linear_602_102727)"/>
<path style="mix-blend-mode:multiply" opacity="0.1" d="M71.7578 29.3899C53.2115 42.1746 38.0749 58.0921 26.6016 75.9216C27.2006 76.6357 28.076 77.1425 28.9515 77.488C32.4534 78.778 36.4392 77.9487 39.7798 76.2671C43.1205 74.5855 45.9773 72.0977 48.9723 69.8863C53.1193 66.7995 57.6119 64.1504 62.3118 61.9851C66.2745 60.1653 71.8269 59.1287 74.223 62.7683C75.444 64.6342 75.2597 67.0299 75.0524 69.2413C74.3842 75.9907 73.7161 82.7401 73.0479 89.4895C72.8176 91.9082 72.7024 94.7185 74.4533 96.4232C77.195 99.0953 81.8488 96.7917 84.337 93.8893C90.9031 86.2645 92.7462 75.0692 100.464 68.6193C102.492 66.9147 105.233 65.5556 107.768 66.3618C110.601 67.2602 112.007 70.347 113.32 73.0191C114.956 76.3592 116.96 79.5151 119.287 82.4176C124.839 89.3743 129.747 86.2184 132.12 79.0544C134.401 72.1437 140.575 67.8361 147.602 66.8686C152.809 66.1545 158.061 64.4038 161.863 60.603C165.641 56.8482 166.194 51.3197 166.125 46.2519C166.033 39.7328 166.563 33.7666 170.733 28.4454C174.765 23.2854 180.709 18.9548 186.906 16.7894C190.385 15.5686 194.21 15.3382 197.481 13.6336C200.868 11.8599 203.01 8.38148 203.702 4.6267C159.789 -5.71624 111.845 1.81635 71.7808 29.4129L71.7578 29.3899Z" fill="url(#paint9_linear_602_102727)"/>
<path style="mix-blend-mode:multiply" opacity="0.1" d="M53.8349 86.61C42.9145 89.9732 34.4132 98.8879 29.0681 108.977C26.6721 113.515 24.6447 118.514 20.5438 121.624C19.6683 122.292 18.5855 122.868 17.5257 122.615C16.3737 122.361 15.6365 121.209 15.2448 120.104C14.3002 117.478 14.5536 114.552 15.5213 111.949C16.4889 109.346 18.1247 107.042 19.9217 104.923C25.451 98.4272 32.5931 93.5898 39.1592 88.1304C43.8822 84.2143 48.3056 79.9528 52.4065 75.3917C54.5952 72.95 56.7839 70.347 59.7329 68.8497C62.6588 67.3524 66.6215 67.2832 68.9254 69.6329C71.022 71.7521 71.1602 75.0923 70.9529 78.0639C70.7225 81.1045 70.2617 84.1222 69.5705 87.0938C69.0637 89.2591 68.096 92.1385 65.9995 89.2591C64.6402 87.3702 64.4098 86.3566 61.7834 85.8959C59.1569 85.4352 56.3692 85.8729 53.8349 86.6561V86.61Z" fill="url(#paint10_linear_602_102727)"/>
<path style="mix-blend-mode:screen" opacity="0.5" d="M165.675 330.965C257.026 330.965 331.071 256.91 331.057 165.558C331.044 74.2066 256.978 0.151367 165.626 0.151367C74.274 0.151367 0.229674 74.2066 0.24315 165.558C0.256626 256.91 74.3228 330.965 165.675 330.965Z" fill="url(#paint11_radial_602_102727)"/>
<defs>
<radialGradient id="paint0_radial_602_102727" cx="0" cy="0" r="1" gradientUnits="userSpaceOnUse" gradientTransform="translate(262.965 26.2157) rotate(10.4197) scale(344.461 344.443)">
<stop stop-color="#26FFEF"/>
<stop offset="0.09" stop-color="#26F5E9" stop-opacity="0.96"/>
<stop offset="0.23" stop-color="#27DBDA" stop-opacity="0.86"/>
<stop offset="0.41" stop-color="#29B2C2" stop-opacity="0.69"/>
<stop offset="0.63" stop-color="#2C78A1" stop-opacity="0.45"/>
<stop offset="0.88" stop-color="#302F78" stop-opacity="0.16"/>
<stop offset="1" stop-color="#320962" stop-opacity="0"/>
</radialGradient>
<linearGradient id="paint1_linear_602_102727" x1="30.4528" y1="180.521" x2="63.615" y2="146.51" gradientUnits="userSpaceOnUse">
<stop stop-color="#FC49EF"/>
<stop offset="0.1" stop-color="#F54EEF"/>
<stop offset="0.24" stop-color="#E25EEF"/>
<stop offset="0.41" stop-color="#C478EF"/>
<stop offset="0.6" stop-color="#999CEF"/>
<stop offset="0.8" stop-color="#63CAEF"/>
<stop offset="1" stop-color="#26FFEF"/>
</linearGradient>
<linearGradient id="paint2_linear_602_102727" x1="75.2247" y1="196.249" x2="169.147" y2="99.9219" gradientUnits="userSpaceOnUse">
<stop stop-color="#FC49EF"/>
<stop offset="0.1" stop-color="#F54EEF"/>
<stop offset="0.24" stop-color="#E25EEF"/>
<stop offset="0.41" stop-color="#C478EF"/>
<stop offset="0.6" stop-color="#999CEF"/>
<stop offset="0.8" stop-color="#63CAEF"/>
<stop offset="1" stop-color="#26FFEF"/>
</linearGradient>
<linearGradient id="paint3_linear_602_102727" x1="162.785" y1="218.395" x2="287.393" y2="90.5967" gradientUnits="userSpaceOnUse">
<stop stop-color="#FC49EF"/>
<stop offset="0.1" stop-color="#F54EEF"/>
<stop offset="0.24" stop-color="#E25EEF"/>
<stop offset="0.41" stop-color="#C478EF"/>
<stop offset="0.6" stop-color="#999CEF"/>
<stop offset="0.8" stop-color="#63CAEF"/>
<stop offset="1" stop-color="#26FFEF"/>
</linearGradient>
<linearGradient id="paint4_linear_602_102727" x1="120.446" y1="129.528" x2="156.519" y2="92.5311" gradientUnits="userSpaceOnUse">
<stop stop-color="#FC49EF"/>
<stop offset="0.1" stop-color="#F54EEF"/>
<stop offset="0.24" stop-color="#E25EEF"/>
<stop offset="0.41" stop-color="#C478EF"/>
<stop offset="0.6" stop-color="#999CEF"/>
<stop offset="0.8" stop-color="#63CAEF"/>
<stop offset="1" stop-color="#26FFEF"/>
</linearGradient>
<linearGradient id="paint5_linear_602_102727" x1="203.742" y1="85.3287" x2="250.655" y2="37.2148" gradientUnits="userSpaceOnUse">
<stop stop-color="#FC49EF"/>
<stop offset="0.1" stop-color="#F54EEF"/>
<stop offset="0.24" stop-color="#E25EEF"/>
<stop offset="0.41" stop-color="#C478EF"/>
<stop offset="0.6" stop-color="#999CEF"/>
<stop offset="0.8" stop-color="#63CAEF"/>
<stop offset="1" stop-color="#26FFEF"/>
</linearGradient>
<linearGradient id="paint6_linear_602_102727" x1="261.016" y1="109.094" x2="293.76" y2="75.5111" gradientUnits="userSpaceOnUse">
<stop stop-color="#FC49EF"/>
<stop offset="0.1" stop-color="#F54EEF"/>
<stop offset="0.24" stop-color="#E25EEF"/>
<stop offset="0.41" stop-color="#C478EF"/>
<stop offset="0.6" stop-color="#999CEF"/>
<stop offset="0.8" stop-color="#63CAEF"/>
<stop offset="1" stop-color="#26FFEF"/>
</linearGradient>
<linearGradient id="paint7_linear_602_102727" x1="52.5685" y1="248.613" x2="110.803" y2="188.887" gradientUnits="userSpaceOnUse">
<stop stop-color="#FC49EF"/>
<stop offset="0.1" stop-color="#F54EEF"/>
<stop offset="0.24" stop-color="#E25EEF"/>
<stop offset="0.41" stop-color="#C478EF"/>
<stop offset="0.6" stop-color="#999CEF"/>
<stop offset="0.8" stop-color="#63CAEF"/>
<stop offset="1" stop-color="#26FFEF"/>
</linearGradient>
<linearGradient id="paint8_linear_602_102727" x1="55.282" y1="150.611" x2="198.577" y2="3.64645" gradientUnits="userSpaceOnUse">
<stop stop-color="#FC49EF"/>
<stop offset="0.1" stop-color="#F54EEF"/>
<stop offset="0.24" stop-color="#E25EEF"/>
<stop offset="0.41" stop-color="#C478EF"/>
<stop offset="0.6" stop-color="#999CEF"/>
<stop offset="0.8" stop-color="#63CAEF"/>
<stop offset="1" stop-color="#26FFEF"/>
</linearGradient>
<linearGradient id="paint9_linear_602_102727" x1="56.2824" y1="104.971" x2="178.252" y2="-20.1224" gradientUnits="userSpaceOnUse">
<stop stop-color="#FC49EF"/>
<stop offset="0.1" stop-color="#F54EEF"/>
<stop offset="0.24" stop-color="#E25EEF"/>
<stop offset="0.41" stop-color="#C478EF"/>
<stop offset="0.6" stop-color="#999CEF"/>
<stop offset="0.8" stop-color="#63CAEF"/>
<stop offset="1" stop-color="#26FFEF"/>
</linearGradient>
<linearGradient id="paint10_linear_602_102727" x1="18.3825" y1="123.968" x2="70.1682" y2="70.8565" gradientUnits="userSpaceOnUse">
<stop stop-color="#FC49EF"/>
<stop offset="0.1" stop-color="#F54EEF"/>
<stop offset="0.24" stop-color="#E25EEF"/>
<stop offset="0.41" stop-color="#C478EF"/>
<stop offset="0.6" stop-color="#999CEF"/>
<stop offset="0.8" stop-color="#63CAEF"/>
<stop offset="1" stop-color="#26FFEF"/>
</linearGradient>
<radialGradient id="paint11_radial_602_102727" cx="0" cy="0" r="1" gradientUnits="userSpaceOnUse" gradientTransform="translate(214.219 14.7496) rotate(15.4394) scale(165.667 72.8878)">
<stop stop-color="white"/>
<stop offset="0.12" stop-color="#DEFFFC" stop-opacity="0.85"/>
<stop offset="0.36" stop-color="#9DFFF7" stop-opacity="0.55"/>
<stop offset="0.58" stop-color="#6AFFF4" stop-opacity="0.32"/>
<stop offset="0.77" stop-color="#45FFF1" stop-opacity="0.14"/>
<stop offset="0.91" stop-color="#2EFFEF" stop-opacity="0.03"/>
<stop offset="1" stop-color="#26FFEF" stop-opacity="0"/>
</radialGradient>
</defs>
</svg>
