<svg width="1728" height="318" viewBox="0 0 1728 318" fill="none" xmlns="http://www.w3.org/2000/svg">
<g clip-path="url(#clip0_223_4215)">
<rect width="1861.22" height="210.034" transform="matrix(-1 0 0 1 1790.61 264.966)" fill="#071F4D"/>
<path d="M1253.18 363.306H1794.97C1799.75 363.306 1806.3 364.077 1811.08 364.077V74.4791C1811.08 72.0799 1808.31 68.2973 1808.31 65.9157C1759.29 62.746 1710.43 57.1771 1661.95 49.2441C1661.83 49.3317 1661.69 49.4017 1661.57 49.4893C1615.7 78.2617 1566.19 100.45 1516.56 122.112C1516.03 122.007 1515.51 121.902 1514.97 121.779C1483.82 115.352 1451.28 105.09 1422.16 92.429C1421.44 92.6216 1420.71 92.8142 1419.99 93.0244C1374.63 105.598 1334.45 136.209 1290.51 153.459C1281.25 157.084 1271.83 160.131 1262.17 162.285L1253.18 363.306Z" fill="url(#paint0_linear_223_4215)"/>
<path d="M1513.57 133.11C1513.88 134.878 1514.18 136.77 1515.18 138.258C1519.24 144.335 1529.22 141.796 1534.89 140.5C1543.96 138.451 1553.2 137.207 1562.48 136.787C1549.59 144.58 1535.54 150.482 1520.95 154.229C1520.43 159.728 1520.87 165.297 1522.18 170.655C1522.84 173.37 1523.74 176.049 1524.86 178.606C1526.03 181.338 1527.47 183.334 1529.22 185.681C1532.46 190.041 1539.76 189.481 1544.43 189.498C1562.69 189.551 1580.16 182.248 1596.67 175.174C1614.67 167.451 1632.67 159.745 1650.66 152.023C1639.2 151.83 1627.69 153.896 1617.03 158.099C1606.88 162.092 1597.51 167.959 1587.2 171.479C1578.22 174.543 1568.62 175.769 1559.17 175.068C1565.11 172.004 1571.13 169.079 1577.22 166.312C1580.27 164.929 1583.33 163.598 1586.41 162.285C1589 161.199 1592.63 160.411 1594.75 158.555C1596.71 156.821 1598.25 154.667 1600.22 152.951C1603.2 150.341 1607 148.8 1610.59 147.189C1614.84 145.28 1619.2 143.547 1623.61 141.988C1627.59 140.587 1631.6 139.344 1635.66 138.241C1644.97 135.719 1654.76 133.863 1662.64 128.329C1663.28 127.873 1663.93 127.383 1664.3 126.683C1664.84 125.667 1664.69 124.441 1664.51 123.303C1663.35 116.053 1661.76 108.89 1659.73 101.833C1658.1 104.425 1655.67 107.244 1653.17 109.013C1651.54 110.169 1649.26 110.852 1647.44 111.692C1645.59 112.55 1643.71 113.426 1641.86 114.284C1626.64 121.359 1611.43 128.416 1596.23 135.491C1614.2 121.341 1632.14 107.192 1650.1 93.0418C1652.36 91.2556 1654.71 89.3643 1655.84 86.72C1656.81 84.4609 1656.37 82.2894 1655.21 80.2405C1653.87 77.8063 1652.97 74.8468 1653.45 72.0623C1654.02 68.735 1656.37 65.828 1657.79 62.851C1659.8 58.6481 1661.1 54.1125 1661.62 49.4893C1615.75 78.2616 1566.24 100.449 1516.61 122.112C1516.09 122.007 1515.56 121.902 1515.02 121.779C1514.28 121.622 1512.95 126.122 1512.87 126.7C1512.57 128.486 1512.97 130.115 1513.36 131.831C1513.44 132.251 1513.53 132.672 1513.6 133.092L1513.57 133.11Z" fill="url(#paint1_linear_223_4215)"/>
<path d="M1290.51 153.459C1290.84 155.402 1291.42 157.346 1292 159.238C1293.24 163.335 1294.48 167.416 1295.73 171.513C1296.3 173.405 1296.95 175.401 1298.46 176.662C1299.82 177.8 1301.64 178.151 1303.38 178.466C1305.62 178.466 1308.14 179.324 1310.35 179.709C1312.76 180.129 1315.19 180.55 1317.63 180.953C1322.39 181.741 1327.15 182.459 1331.93 183.071C1334.36 183.387 1336.82 183.684 1339.25 183.895C1340.98 184.035 1342.59 183.579 1344.33 183.719C1349.11 184.122 1353.89 184.665 1358.66 185.12C1360.77 185.331 1362.92 185.523 1364.93 184.893C1367.26 184.175 1369.1 182.441 1370.94 180.847C1391.82 162.652 1421.02 156.103 1441.4 137.347C1434.35 139.887 1427.27 142.321 1420.15 144.632C1416.75 145.736 1413.34 146.962 1409.85 147.68C1406.76 148.327 1403.69 149.606 1400.68 150.622C1396.5 152.023 1392.31 153.441 1388.13 154.877C1379.31 157.889 1370.48 160.954 1361.69 164.053C1362.67 163.703 1363.88 162.145 1364.65 161.479C1365.98 160.341 1367.33 159.238 1368.7 158.134C1371.41 155.963 1374.19 153.844 1377.03 151.812C1383.05 147.504 1389.32 143.529 1395.81 139.957C1401.35 136.892 1407.3 134.598 1412.74 131.428C1416.49 129.257 1421.11 127.12 1423.42 123.338L1419.48 115.457C1419.2 114.932 1418.89 114.337 1418.31 114.161C1417.8 114.021 1417.28 114.231 1416.81 114.442C1407.63 118.487 1398.44 122.55 1389.25 126.595C1400.23 119.31 1411.2 112.007 1422.18 104.722C1422.46 104.547 1420.97 98.8033 1420.85 98.1553C1420.53 96.4391 1420.25 94.723 1419.99 92.9893C1374.63 105.563 1334.45 136.174 1290.51 153.423V153.459Z" fill="url(#paint2_linear_223_4215)"/>
<path d="M-89.9997 74.2163L-86.1656 364.007H591.247C592.595 364.444 597.882 362.816 599.301 362.816V148.047C599.301 146.699 600.421 145.946 600.421 144.597C536.03 121.201 473.356 93.0769 413.079 60.5219C412.607 60.662 412.151 60.8021 411.679 60.9422C386.976 68.4899 360.454 76.1952 335.296 81.764C335.226 81.729 335.174 81.6765 335.103 81.6415C291.564 54.1124 248.899 27.5641 205.342 0.0175781C205.01 0.105139 204.677 0.192699 204.344 0.297772C145.714 15.9536 93.4204 52.8165 34.4045 67.0889C34.387 67.1064 34.3696 67.1064 34.352 67.1064C16.7751 57.2821 1.22884 45.0237 -12.1464 29.9808C-37.1638 45.1988 -64.9648 58.9983 -89.9997 74.2163Z" fill="url(#paint3_linear_223_4215)"/>
<path d="M335.104 81.6412C335.157 83.9178 335.192 86.1943 335.244 88.4709C335.349 92.954 335.472 97.5597 337.1 101.745C337.1 102.095 337.467 102.638 337.607 102.953C338.518 104.95 339.743 106.789 341.056 108.54C342.124 109.976 342.807 111.272 343.56 112.865C344.488 114.809 346.238 116.473 347.586 118.119C349.145 120.01 350.703 121.919 352.261 123.81C352.716 124.371 353.224 124.966 353.906 125.211C354.589 125.456 355.325 125.351 356.042 125.211C364.778 123.653 373.287 120.886 381.27 117.016C374.197 121.148 367.544 126.034 361.522 131.568C363.728 133.862 365.794 136.279 368.087 138.468C368.857 139.186 369.645 139.816 370.275 140.639C371.011 141.585 372.044 142.251 372.989 142.986C375.212 144.72 377.453 146.471 379.677 148.205C380.85 149.133 382.11 150.078 383.598 150.271C385.489 150.499 387.275 149.448 388.85 148.397C395.065 144.212 400.79 139.273 405.832 133.722C402.768 139.956 400.825 146.734 400.107 153.651C400.09 153.861 402.891 154.719 403.188 154.824C404.274 155.174 405.377 155.472 406.497 155.717C408.721 156.208 411.014 156.488 413.29 156.523C417.422 156.61 421.763 157.399 425.807 158.222C431.059 159.29 436.294 161.024 440.653 164.228C435.436 159.728 432.933 152.915 428.924 147.312C424.197 140.657 418.507 137.855 417.824 129.712C417.719 128.451 417.719 127.47 417.212 126.385C416.879 125.667 416.686 124.879 416.441 124.126C415.916 122.532 415.408 120.938 414.883 119.345C414.743 118.907 414.585 118.452 414.235 118.171C413.85 117.874 413.325 117.821 412.835 117.839C411.067 117.874 409.298 118.329 407.74 119.17C410.051 116.963 412.257 114.616 414.358 112.182C414.901 111.552 415.443 110.886 415.688 110.081C415.916 109.328 415.846 108.522 415.758 107.734C415.583 105.878 415.408 104.039 415.233 102.183C415.076 100.519 415.163 98.9431 414.48 97.3846C413.237 94.6001 413.062 91.6406 412.677 88.646C412.59 87.928 412.467 87.1575 412.012 86.5796C411.137 85.4763 409.456 85.5639 408.055 85.7565C392.737 87.9105 377.278 90.0995 362.712 95.3006C379.939 89.2414 397.394 83.7952 415.023 78.9794C414.323 77.5258 413.955 76.0198 413.64 74.4612C413.395 73.2879 412.922 72.3072 412.817 71.0989C412.747 70.2408 411.609 60.9594 411.662 60.9419C386.96 68.4896 360.437 76.1949 335.279 81.7638C335.209 81.7288 335.156 81.6762 335.086 81.6412H335.104Z" fill="url(#paint4_linear_223_4215)"/>
<path d="M34.4049 67.089C37.7662 70.066 41.4777 72.6403 45.3467 74.8994C49.1632 77.1234 53.1373 79.0497 57.1989 80.7659C58.0568 81.1337 58.687 81.554 59.4573 82.0618C60.4202 82.7098 61.6282 83.1126 62.6786 83.6204C64.902 84.6711 67.1253 85.7043 69.3312 86.7551C70.1365 87.1403 70.9769 87.5256 71.8697 87.5956C72.8326 87.6832 73.778 87.3855 74.6883 87.1053C76.9642 86.4048 79.2402 85.6868 81.5161 84.9863C84.7023 83.9882 87.9236 82.99 90.8997 81.4664C95.2065 79.2599 98.8479 76.0026 102.629 72.9731C111.313 66.0032 120.767 60.0666 130.255 54.2526C120.924 61.7653 111.383 69.5057 104.538 79.47C102.857 81.9042 101.369 84.4785 100.108 87.1578C99.7758 87.8583 99.4781 88.5763 99.1805 89.2943C98.7778 90.275 98.6378 90.4151 99.5482 91.0105C100.844 91.8686 102.297 92.499 103.557 93.4097C105.588 94.8632 107.041 95.9839 109.545 96.5794C112.853 97.3849 116.372 97.7352 119.699 96.772C128.977 94.0576 132.584 82.8499 140.129 76.7907C137.608 81.6065 135.087 86.4399 132.584 91.2557C131.551 93.2345 130.5 95.3185 130.588 97.525C130.675 99.7315 132.356 102.078 134.58 102.008C135.245 101.991 135.893 101.763 136.523 101.518C139.429 100.362 142.143 98.7509 144.523 96.7545C147.009 99.9067 144.821 104.968 147.027 108.33C148.322 110.291 150.668 111.079 152.559 112.288C155.483 114.162 158.459 115.878 161.418 117.716C162.888 118.627 163.904 119.678 165.129 120.851C166.6 122.27 168.666 123.005 170.469 123.916C170.959 124.161 171.449 124.406 171.992 124.494C172.482 124.564 172.99 124.494 173.48 124.424C177.804 123.828 182.338 123.145 185.84 120.518C185.997 123.898 186.523 127.296 187.871 130.395C189.219 133.495 191.442 136.297 194.436 137.873C195.469 138.416 196.589 138.433 197.604 138.941C202.261 141.288 207.006 143.459 211.855 145.351C242.65 157.381 279.187 148.976 312.135 151.62C311.557 150.744 310.944 149.904 310.297 149.063C305.675 143.091 299.705 138.363 293.507 134.143C287.17 129.835 280.535 126 274.197 121.692C272.639 120.641 271.116 119.555 269.628 118.417C268.28 117.401 267.842 116.245 266.879 114.95C264.533 111.745 260.332 109.381 256.69 108.015C255.64 107.612 254.519 107.279 253.399 107.454C252.436 107.594 251.561 108.12 250.72 108.628C246.466 111.254 242.405 114.214 238.606 117.471C242.335 112.953 246.064 108.418 249.81 103.899C250.668 102.849 251.561 101.763 251.911 100.45C252.629 97.8227 251.071 95.336 249.88 93.1295C249.302 92.0612 248.707 91.028 248.55 89.8022C248.48 89.2418 248.357 88.7865 248.112 88.2611C246.571 84.9513 244.663 81.7816 242.86 78.6295C242.352 77.7539 241.88 76.8432 241.179 76.1077C240.724 75.6349 240.181 75.2321 239.726 74.7418C238.221 73.0781 237.258 70.749 236.155 68.8227C233.686 64.5147 231.235 60.2067 228.767 55.9163C216.372 63.1663 205.238 72.5352 195.976 83.4978C194.366 85.4066 192.79 87.3855 190.742 88.804C188.553 90.3451 185.945 91.1681 183.389 91.9737C176.106 94.2502 168.823 96.5268 161.54 98.8034C168.35 92.2013 180.185 93.3396 186.978 86.72C188.781 84.9513 190.094 82.7448 191.512 80.6434C193.911 77.0709 196.764 73.8311 199.548 70.5214C200.038 69.9435 200.546 69.313 200.563 68.56C191.862 71.1518 183.319 74.2865 175.021 77.9465C180.43 72.3952 186.715 67.6844 193.578 64.0769C195.836 62.8861 198.165 61.8178 200.651 61.2399C202.962 60.7146 205.29 60.3994 207.583 59.8215C212.258 58.6482 214.936 55.1983 218.193 51.7134C219.716 50.1023 221.239 48.3335 221.712 46.162C222.429 42.9398 219.313 40.7158 218.84 37.7037C218.315 34.2713 215.934 31.0491 213.991 28.2296C213.641 27.7393 213.256 27.2139 212.695 27.0038C211.978 26.7411 211.19 27.0388 210.49 27.354C203.592 30.4187 197.079 34.3063 191.109 38.912C192.352 37.1083 193.7 35.3571 195.136 33.7109C197.254 31.2767 199.565 29.0177 202.051 26.9513C204.152 25.2001 206.936 23.7115 208.249 21.2073C209.212 19.386 208.774 17.4422 208.214 15.5509C207.601 13.4669 203.592 0.490485 204.327 0.297852C145.696 15.9537 93.4033 52.8166 34.3874 67.089H34.4049Z" fill="url(#paint5_linear_223_4215)"/>
<path d="M687.167 67.0888L562.763 134.703L566.597 364.006H1292.85C1294.2 364.444 1299.49 362.816 1300.91 362.816L1267.8 165.945C1267.8 164.596 1268.92 163.843 1268.92 162.495C1204.53 139.099 1126.1 93.0593 1065.82 60.5043C1065.35 60.6444 1064.9 60.7845 1064.42 60.9246C1039.72 68.4723 1013.2 76.1776 988.041 81.7465C987.971 81.7114 987.918 81.6589 987.848 81.6239C944.309 54.0949 901.644 27.5465 858.087 0C857.754 0.0875605 857.422 0.175121 857.089 0.280194C798.458 15.936 746.165 52.799 687.149 67.0713C687.132 67.0888 687.114 67.0888 687.097 67.0888" fill="url(#paint6_linear_223_4215)"/>
<path d="M987.867 81.6417C987.919 83.9183 987.954 86.1948 988.007 88.4714C988.112 92.9545 988.234 97.5602 989.863 101.746C989.863 102.096 990.23 102.639 990.37 102.954C991.281 104.95 992.506 106.789 993.819 108.54C994.887 109.976 995.57 111.272 996.323 112.866C997.25 114.81 999.001 116.473 1000.35 118.119C1001.91 120.011 1003.47 121.92 1005.02 123.811C1005.48 124.371 1005.99 124.967 1006.67 125.212C1007.35 125.457 1008.09 125.352 1008.81 125.212C1017.54 123.653 1026.05 120.886 1034.03 117.016C1026.96 121.149 1020.31 126.035 1014.28 131.569C1016.49 133.863 1018.56 136.279 1020.85 138.468C1021.62 139.186 1022.41 139.817 1023.04 140.64C1023.77 141.586 1024.81 142.251 1025.75 142.987C1027.98 144.72 1030.22 146.471 1032.44 148.205C1033.61 149.133 1034.87 150.079 1036.36 150.272C1038.25 150.499 1040.04 149.449 1041.61 148.398C1047.83 144.212 1053.55 139.274 1058.59 133.723C1055.53 139.957 1053.59 146.734 1052.87 153.651C1052.85 153.862 1055.65 154.72 1055.95 154.825C1057.04 155.175 1058.14 155.473 1059.26 155.718C1061.48 156.208 1063.78 156.488 1066.05 156.523C1070.18 156.611 1074.53 157.399 1078.57 158.222C1083.82 159.29 1089.06 161.024 1093.42 164.229C1088.2 159.728 1085.7 152.916 1081.69 147.312C1076.96 140.657 1071.27 137.855 1070.59 129.712C1070.48 128.452 1070.48 127.471 1069.97 126.385C1069.64 125.667 1069.45 124.879 1069.2 124.126C1068.68 122.532 1068.17 120.939 1067.65 119.345C1067.51 118.907 1067.35 118.452 1067 118.172C1066.61 117.874 1066.09 117.822 1065.6 117.839C1063.83 117.874 1062.06 118.33 1060.5 119.17C1062.81 116.964 1065.02 114.617 1067.12 112.183C1067.66 111.552 1068.21 110.887 1068.45 110.081C1068.68 109.328 1068.61 108.523 1068.52 107.735C1068.35 105.878 1068.17 104.04 1068 102.183C1067.84 100.52 1067.93 98.9436 1067.24 97.385C1066 94.6006 1065.83 91.6411 1065.44 88.6465C1065.35 87.9285 1065.23 87.158 1064.77 86.5801C1063.9 85.4768 1062.22 85.5644 1060.82 85.757C1045.5 87.911 1030.04 90.1 1015.48 95.3011C1032.7 89.2419 1050.16 83.7957 1067.79 78.9798C1067.09 77.5263 1066.72 76.0203 1066.4 74.4617C1066.16 73.2884 1065.69 72.3077 1065.58 71.0994C1065.51 70.2413 1064.37 60.9599 1064.42 60.9424C1039.72 68.4901 1013.2 76.1954 988.042 81.7643C987.972 81.7292 987.919 81.6767 987.849 81.6417H987.867Z" fill="url(#paint7_linear_223_4215)"/>
<path d="M687.167 67.089C690.528 70.066 694.239 72.6403 698.108 74.8994C701.925 77.1234 705.899 79.0497 709.961 80.7659C710.818 81.1337 711.449 81.554 712.219 82.0618C713.182 82.7098 714.39 83.1126 715.44 83.6204C717.664 84.6711 719.887 85.7043 722.093 86.7551C722.898 87.1403 723.739 87.5256 724.631 87.5956C725.594 87.6832 726.54 87.3855 727.45 87.1053C729.726 86.4048 732.002 85.6868 734.278 84.9863C737.464 83.9882 740.685 82.99 743.661 81.4664C747.968 79.2599 751.61 76.0026 755.391 72.9731C764.075 66.0032 773.528 60.0666 783.017 54.2526C773.686 61.7653 764.145 69.5057 757.299 79.47C755.619 81.9042 754.131 84.4785 752.87 87.1578C752.537 87.8583 752.24 88.5763 751.942 89.2943C751.54 90.275 751.399 90.4151 752.31 91.0105C753.605 91.8686 755.059 92.499 756.319 93.4097C758.35 94.8632 759.803 95.9839 762.306 96.5794C765.615 97.3849 769.134 97.7352 772.46 96.772C781.739 94.0576 785.345 82.8499 792.891 76.7907C790.37 81.6065 787.849 86.4399 785.345 91.2557C784.313 93.2345 783.262 95.3185 783.35 97.525C783.437 99.7315 785.118 102.078 787.341 102.008C788.006 101.991 788.654 101.763 789.284 101.518C792.191 100.362 794.904 98.7509 797.285 96.7545C799.771 99.9067 797.583 104.968 799.789 108.33C801.084 110.291 803.43 111.079 805.321 112.288C808.245 114.162 811.221 115.878 814.179 117.716C815.65 118.627 816.665 119.678 817.891 120.851C819.361 122.27 821.427 123.005 823.23 123.916C823.721 124.161 824.211 124.406 824.754 124.494C825.244 124.564 825.751 124.494 826.242 124.424C830.566 123.828 835.1 123.145 838.602 120.518C838.759 123.898 839.284 127.296 840.632 130.395C841.98 133.495 844.204 136.297 847.197 137.873C848.23 138.416 849.351 138.433 850.366 138.941C855.023 141.288 859.767 143.459 864.617 145.351C895.412 157.381 931.948 148.976 964.896 151.62C964.319 150.744 963.706 149.904 963.058 149.063C958.436 143.091 952.467 138.363 946.269 134.143C939.932 129.835 933.296 126 926.959 121.692C925.401 120.641 923.878 119.555 922.39 118.417C921.042 117.401 920.604 116.245 919.641 114.95C917.295 111.745 913.093 109.381 909.452 108.015C908.402 107.612 907.281 107.279 906.161 107.454C905.198 107.594 904.323 108.12 903.482 108.628C899.228 111.254 895.166 114.214 891.367 117.471C895.096 112.953 898.825 108.418 902.572 103.899C903.43 102.849 904.323 101.763 904.673 100.45C905.39 97.8227 903.832 95.336 902.642 93.1295C902.064 92.0612 901.469 91.028 901.311 89.8022C901.241 89.2418 901.119 88.7865 900.874 88.2611C899.333 84.9513 897.425 81.7816 895.622 78.6295C895.114 77.7539 894.641 76.8432 893.941 76.1077C893.486 75.6349 892.943 75.2321 892.488 74.7418C890.982 73.0781 890.019 70.749 888.916 68.8227C886.448 64.5147 883.997 60.2067 881.528 55.9163C869.134 63.1663 857.999 72.5352 848.738 83.4978C847.127 85.4066 845.552 87.3855 843.503 88.804C841.315 90.3451 838.707 91.1681 836.151 91.9737C828.868 94.2502 821.585 96.5268 814.302 98.8034C821.112 92.2013 832.947 93.3396 839.739 86.72C841.543 84.9513 842.856 82.7448 844.274 80.6434C846.672 77.0709 849.526 73.8311 852.309 70.5214C852.8 69.9435 853.307 69.313 853.325 68.56C844.624 71.1518 836.081 74.2865 827.782 77.9465C833.192 72.3952 839.477 67.6844 846.34 64.0769C848.598 62.8861 850.926 61.8178 853.412 61.2399C855.723 60.7146 858.052 60.3994 860.345 59.8215C865.019 58.6482 867.698 55.1983 870.954 51.7134C872.477 50.1023 874.001 48.3335 874.473 46.162C875.191 42.9398 872.075 40.7158 871.602 37.7037C871.077 34.2713 868.696 31.0491 866.753 28.2296C866.402 27.7393 866.017 27.2139 865.457 27.0038C864.739 26.7411 863.952 27.0388 863.251 27.354C856.354 30.4187 849.841 34.3063 843.871 38.912C845.114 37.1083 846.462 35.3571 847.898 33.7109C850.016 31.2767 852.327 29.0177 854.813 26.9513C856.914 25.2001 859.697 23.7115 861.01 21.2073C861.973 19.386 861.536 17.4422 860.975 15.5509C860.363 13.4669 856.354 0.490485 857.089 0.297852C798.458 15.9537 746.165 52.8166 687.149 67.089H687.167Z" fill="url(#paint8_linear_223_4215)"/>
</g>
<defs>
<linearGradient id="paint0_linear_223_4215" x1="1532.12" y1="572.558" x2="1532.12" y2="384.601" gradientUnits="userSpaceOnUse">
<stop stop-color="#0F709A"/>
<stop offset="0.26" stop-color="#0B517C"/>
<stop offset="0.55" stop-color="#093562"/>
<stop offset="0.8" stop-color="#072452"/>
<stop offset="0.99" stop-color="#071F4D"/>
</linearGradient>
<linearGradient id="paint1_linear_223_4215" x1="1644.06" y1="-7.82783" x2="1545.08" y2="231.209" gradientUnits="userSpaceOnUse">
<stop stop-color="#0F709A"/>
<stop offset="0.26" stop-color="#0B517C"/>
<stop offset="0.55" stop-color="#093562"/>
<stop offset="0.8" stop-color="#072452"/>
<stop offset="0.99" stop-color="#071F4D"/>
</linearGradient>
<linearGradient id="paint2_linear_223_4215" x1="1432.32" y1="18.808" x2="1329.15" y2="215.514" gradientUnits="userSpaceOnUse">
<stop stop-color="#0F709A"/>
<stop offset="0.26" stop-color="#0B517C"/>
<stop offset="0.55" stop-color="#093562"/>
<stop offset="0.8" stop-color="#072452"/>
<stop offset="0.99" stop-color="#071F4D"/>
</linearGradient>
<linearGradient id="paint3_linear_223_4215" x1="255.219" y1="609.474" x2="255.219" y2="359.541" gradientUnits="userSpaceOnUse">
<stop stop-color="#0F709A"/>
<stop offset="0.26" stop-color="#0B517C"/>
<stop offset="0.55" stop-color="#093562"/>
<stop offset="0.8" stop-color="#072452"/>
<stop offset="0.99" stop-color="#071F4D"/>
</linearGradient>
<linearGradient id="paint4_linear_223_4215" x1="497.586" y1="-101.36" x2="332.435" y2="236.095" gradientUnits="userSpaceOnUse">
<stop stop-color="#0F709A"/>
<stop offset="0.26" stop-color="#0B517C"/>
<stop offset="0.55" stop-color="#093562"/>
<stop offset="0.8" stop-color="#072452"/>
<stop offset="0.99" stop-color="#071F4D"/>
</linearGradient>
<linearGradient id="paint5_linear_223_4215" x1="325.738" y1="-138.293" x2="116.458" y2="201.474" gradientUnits="userSpaceOnUse">
<stop stop-color="#0F709A"/>
<stop offset="0.26" stop-color="#0B517C"/>
<stop offset="0.55" stop-color="#093562"/>
<stop offset="0.8" stop-color="#072452"/>
<stop offset="0.99" stop-color="#071F4D"/>
</linearGradient>
<linearGradient id="paint6_linear_223_4215" x1="931.844" y1="609.474" x2="931.844" y2="359.541" gradientUnits="userSpaceOnUse">
<stop stop-color="#0F709A"/>
<stop offset="0.26" stop-color="#0B517C"/>
<stop offset="0.55" stop-color="#093562"/>
<stop offset="0.8" stop-color="#072452"/>
<stop offset="0.99" stop-color="#071F4D"/>
</linearGradient>
<linearGradient id="paint7_linear_223_4215" x1="1150.35" y1="-101.36" x2="985.197" y2="236.095" gradientUnits="userSpaceOnUse">
<stop stop-color="#0F709A"/>
<stop offset="0.26" stop-color="#0B517C"/>
<stop offset="0.55" stop-color="#093562"/>
<stop offset="0.8" stop-color="#072452"/>
<stop offset="0.99" stop-color="#071F4D"/>
</linearGradient>
<linearGradient id="paint8_linear_223_4215" x1="978.499" y1="-138.293" x2="769.22" y2="201.474" gradientUnits="userSpaceOnUse">
<stop stop-color="#0F709A"/>
<stop offset="0.26" stop-color="#0B517C"/>
<stop offset="0.55" stop-color="#093562"/>
<stop offset="0.8" stop-color="#072452"/>
<stop offset="0.99" stop-color="#071F4D"/>
</linearGradient>
<clipPath id="clip0_223_4215">
<rect width="1728" height="318" fill="white"/>
</clipPath>
</defs>
</svg>




  
