<svg width="25" height="24" viewBox="0 0 25 24" fill="none" xmlns="http://www.w3.org/2000/svg">
<path fill-rule="evenodd" clip-rule="evenodd" d="M12.5 0.00407293C9.53201 0.00310111 6.66057 1.04224 4.39976 2.93545C2.13896 4.82867 0.636457 7.45234 0.161241 10.3367C-0.313976 13.221 0.26913 16.1778 1.80617 18.6775C3.3432 21.1772 5.73378 23.0566 8.54993 23.9793C9.17068 24.0934 9.40245 23.7125 9.40245 23.3886C9.40245 23.0647 9.3921 22.1255 9.38585 21.0968C5.90962 21.8424 5.17716 19.6463 5.17716 19.6463C4.6081 18.2203 3.78873 17.8455 3.78873 17.8455C2.65481 17.0815 3.87563 17.0978 3.87563 17.0978C5.12958 17.1854 5.78961 18.365 5.78961 18.365C6.90493 20.2473 8.71338 19.7034 9.42724 19.3835C9.539 18.589 9.8618 18.0472 10.2198 17.7395C7.44495 17.4279 4.52743 16.3726 4.52743 11.6586C4.50884 10.4364 4.96983 9.25431 5.81445 8.35843C5.68409 8.04678 5.25579 6.79596 5.93446 5.09902C5.93446 5.09902 6.98356 4.76898 9.37141 6.36204C11.4199 5.80794 13.5822 5.80794 15.6307 6.36204C18.0144 4.76898 19.0635 5.09902 19.0635 5.09902C19.7421 6.79391 19.3159 8.04473 19.1855 8.35843C20.0294 9.25466 20.4897 10.4367 20.4705 11.6586C20.4705 16.3848 17.5488 17.4258 14.7658 17.7294C15.2148 18.1103 15.6141 18.86 15.6141 20.0069C15.6141 21.6529 15.5996 22.9791 15.5996 23.3845C15.5996 23.7104 15.8231 24.0955 16.4563 23.9732C19.2714 23.0492 21.6607 21.1691 23.1964 18.6693C24.7321 16.1694 25.3141 13.2131 24.8382 10.3294C24.3623 7.44574 22.8596 4.82292 20.599 2.93034C18.3384 1.03778 15.4674 -0.000969645 12.5 6.7919e-07V0.00407293Z" fill="#78B4D7"/>
</svg>
