<svg width="1728" height="218" viewBox="0 0 1728 218" fill="none" xmlns="http://www.w3.org/2000/svg">
<g clip-path="url(#clip0_219_4142)">
<path d="M1639.93 94.602C1641.3 92.4105 1643.16 90.5293 1645.3 89.0942C1647.35 87.6978 1649.89 87.116 1651.85 85.6033C1653.29 84.4785 1654.18 83.1791 1656.12 82.9464C1658.78 82.6361 1661.49 83.8385 1663.55 85.4288C1666.51 87.6978 1669.35 90.7426 1673.07 90.9172C1675.03 91.0141 1677.06 90.2578 1678.95 90.8202C1680.59 91.3244 1681.78 92.7208 1683 93.9232C1685.91 96.774 1689.59 98.8104 1693.55 99.7412C1694.62 99.9934 1695.82 100.149 1696.77 99.6249C1698.96 98.4225 1698.22 95.1062 1699.17 92.7983C1700.43 89.676 1704.76 88.6287 1705.96 85.487C1706.52 83.9937 1706.27 82.3064 1706.54 80.7355C1707.53 75.1696 1716.55 73.5793 1719.38 78.4665C1720.04 79.5913 1720.37 80.8907 1721.13 81.9379C1723.4 85.0409 1728.05 84.5367 1731.87 84.2264C1735.69 83.9161 1740.71 85.0797 1741.12 88.9002C1741.3 90.4711 1740.56 91.9838 1740.33 93.5353C1739.47 99.1982 1747.27 103.872 1751.86 100.459C1754.77 98.3061 1755.67 94.3886 1757.82 91.499C1759.97 88.6093 1765.32 87.3488 1766.7 90.6844C1766.26 88.1051 1768.99 85.8748 1771.61 85.8167C1774.23 85.7585 1776.61 87.1936 1778.84 88.5899C1782.16 90.6651 1785.57 92.8953 1787.53 96.2698C1789.04 98.8685 1789.59 101.991 1791.33 104.454C1793.08 106.897 1796.97 108.333 1799.05 106.161C1795.77 99.5861 1800.81 92.0808 1805.59 86.476C1806.63 85.2543 1807.72 83.9743 1809.19 83.3343C1814.33 81.0846 1819.1 87.6784 1819.45 93.2832C1819.8 98.8685 1818.42 105.113 1821.74 109.632C1827.07 104.57 1837.62 108.255 1838.65 115.547C1838.98 117.874 1838.53 120.454 1839.78 122.451C1840.84 124.158 1842.94 125.069 1843.81 126.892C1844.66 128.696 1844.04 130.81 1844.22 132.788C1844.53 136.221 1847.57 139.207 1851 139.44C1854.44 139.673 1857.87 137.132 1858.63 133.758C1858.94 132.4 1858.9 130.868 1859.87 129.859C1860.43 129.258 1861.24 128.967 1862.02 128.715C1864.66 127.804 1867.31 126.912 1869.95 126C1874.78 124.352 1881.36 123.266 1883.94 127.687C1886.32 131.76 1883.35 138.141 1887.04 141.069C1887.85 141.709 1888.86 142.039 1889.89 142.252C1897.59 143.881 1906.08 138.412 1907.81 130.732C1908.35 128.347 1908.35 125.729 1909.77 123.731C1913.39 118.631 1921.69 122.218 1927.51 119.911C1935.6 116.711 1935.06 104.473 1941.46 98.597C1946.83 93.6711 1956.8 95.5328 1960.02 102.088C1967.13 101.041 1973.36 95.3389 1974.99 88.3378C1975.88 84.4979 1975.53 80.3477 1977.08 76.7017C1980.05 69.7394 1990.52 67.5285 1996.05 72.7066C1999.97 76.372 2000.92 82.1319 2001.65 87.4457C2002.41 92.9341 2002.8 98.6164 2004.58 103.891C2005.28 105.928 2005.79 107.964 2006.11 110.097C2008.02 123.014 2015.17 134.223 2017.89 146.887C2023.76 174.251 2020.7 203.458 2009.26 228.98C2002.02 245.116 1991.34 259.99 1977.01 270.366C1955.77 285.745 1928.42 290.07 1902.2 290.206C1869.53 290.38 1837.1 284.756 1805.12 277.949C1772.98 271.103 1740.79 262.938 1711.57 247.928C1682.34 232.917 1656.02 210.459 1641.59 180.942C1635.31 168.065 1631.39 154.16 1628.56 140.099C1624.97 122.393 1630.34 109.884 1639.93 94.5826V94.602Z" fill="url(#paint0_linear_219_4142)"/>
<path d="M1906.38 173.107C1906.18 169.713 1905.75 164.496 1902.4 165.175C1899.14 165.815 1900.4 171.11 1898.31 173.669C1897.28 174.93 1895.55 175.337 1893.94 175.667C1890.69 176.346 1887.29 177.005 1884.05 176.249C1880.81 175.492 1877.75 172.855 1877.63 169.519C1877.54 166.668 1879.5 164.167 1879.94 161.355C1880.43 158.271 1878.6 155.187 1876.02 153.597C1874.94 152.938 1873.68 152.841 1872.61 152.24C1871.76 151.755 1871.35 150.921 1870.9 150.067C1869.31 147.158 1868.25 143.997 1867.82 140.7C1867.74 140.08 1867.63 139.343 1867.08 139.033C1866.68 138.78 1866.15 138.858 1865.69 138.936C1863.55 139.304 1861.36 139.711 1859.48 140.759C1857.58 141.825 1856.01 143.668 1855.86 145.84C1855.66 148.826 1858.14 151.541 1857.81 154.528C1857.7 155.478 1857.31 156.429 1857.52 157.379C1857.76 158.387 1858.65 159.066 1859.31 159.842C1859.97 160.618 1860.43 161.859 1859.75 162.635C1859.48 162.964 1858.47 163.178 1858.09 163.449C1857.52 163.837 1857.02 164.302 1856.59 164.826C1855.7 165.931 1855.1 167.289 1854.92 168.705C1854.75 170.101 1855.43 171.187 1855.45 172.506C1855.45 174.019 1854.61 175.958 1853.61 177.044C1851.32 179.546 1847.05 179.197 1844.32 177.18C1841.58 175.163 1840.01 171.982 1838.54 168.937C1833.11 169.131 1827.79 171.556 1824.11 175.551C1822.5 177.296 1821.12 179.371 1819.03 180.477C1814 183.153 1807.89 178.886 1805.14 173.902C1802.91 169.868 1801.67 165.369 1799.44 161.335C1799.01 160.559 1798.57 159.784 1798.2 158.969C1797.67 157.825 1797.36 156.642 1797.11 155.401C1796.2 150.921 1795.54 146.654 1796.86 142.174C1797.6 139.653 1798.84 137.287 1799.36 134.727C1799.89 132.167 1799.57 129.181 1797.65 127.396C1795.29 125.186 1790.77 124.875 1790.19 121.675C1790.07 121.074 1790.15 120.453 1789.92 119.891C1789.28 118.262 1787.55 118.747 1786.29 118.107C1785.01 117.447 1783.87 115.644 1783.05 114.5C1781.6 112.425 1780.43 110.059 1778.44 108.507C1776.44 106.956 1773.14 106.606 1771.61 108.623C1769.94 110.795 1771.32 114.092 1770.21 116.594C1768.56 120.24 1762.63 120.357 1761.21 124.08C1760.48 126.039 1761.31 128.211 1761.21 130.286C1760.96 135.988 1752 138.645 1748.69 134.01C1747.5 132.361 1747.02 130.189 1745.41 128.948C1739.69 124.584 1731.79 137.83 1725.98 133.602C1726.75 125.729 1717.99 118.553 1710.42 120.88L1710.13 126.407C1704.47 123.537 1698.15 121.52 1691.82 122.063C1685.5 122.626 1679.18 126.175 1676.58 131.973C1673.09 139.789 1676.93 148.671 1679.57 156.816C1687.03 179.856 1684.61 205.359 1693.14 228.03C1698.36 241.857 1707.61 254.114 1719.46 262.919C1733.15 273.081 1749.75 278.434 1766.22 282.817C1808.38 294.007 1851.96 299.805 1895.57 300.038C1925.05 300.193 1955.54 297.536 1981.45 283.456C2010.29 267.786 2030.59 239.065 2040.97 207.938C2045.1 195.507 2047.81 182.416 2047 169.345C2046.01 153.558 2039.98 138.625 2035.94 123.324C2030.86 104.027 2028.44 82.8493 2015.41 67.7223C2012.5 64.3479 2008.97 61.2643 2004.68 59.8679C2002.18 59.0534 1998.9 58.6461 1997 60.8958C1995.29 62.9127 1995.29 66.0157 1995.45 68.5175C1995.68 72.0471 1996.54 75.5573 1997.54 78.9318C1999.17 84.3814 2000.8 89.6953 2001.04 95.4164C2001.42 105.055 1997.62 115.45 1989.3 120.279C1985.11 122.703 1980.09 123.595 1976.15 126.427C1973.63 128.25 1972 130.674 1970.2 133.117C1969.62 133.913 1968.88 134.223 1967.97 134.669C1965.72 135.813 1963.45 136.957 1961.2 138.082C1959.82 138.78 1958.19 139.479 1956.84 138.78C1955.95 138.334 1955.4 137.403 1954.8 136.608C1952.34 133.37 1947.74 131.876 1943.9 133.214C1940.51 134.397 1939.34 136.957 1937.99 139.963C1937.72 140.565 1937.33 140.933 1937.21 141.651C1936.96 143.222 1937.54 144.831 1937.66 146.383C1937.85 149.137 1936.44 151.949 1934.11 153.442C1932.01 154.78 1929.4 155.013 1927.18 156.118C1924.3 157.553 1922.22 160.462 1921.79 163.662C1921.6 165.097 1921.75 166.63 1922.47 167.89C1924.24 170.974 1929.1 172.254 1929.14 175.822C1929.14 177.49 1928 178.906 1926.91 180.166L1923.87 183.677C1923.5 184.103 1923.11 184.549 1922.57 184.743C1922.16 184.898 1921.72 184.898 1921.27 184.898C1919.5 184.898 1917.39 185.209 1915.72 184.549C1914.31 183.987 1912.76 183.017 1911.53 182.125C1908.64 180.031 1906.57 176.675 1906.36 173.068L1906.38 173.107Z" fill="url(#paint1_linear_219_4142)"/>
<path d="M570.741 115.236C571.983 113.258 573.65 111.59 575.57 110.271C577.432 109.03 579.721 108.506 581.466 107.129C582.765 106.121 583.561 104.938 585.306 104.744C587.691 104.472 590.135 105.558 591.997 106.974C594.654 109.01 597.214 111.745 600.569 111.9C602.334 111.978 604.156 111.299 605.844 111.822C607.318 112.269 608.384 113.529 609.49 114.615C612.108 117.175 615.424 118.998 618.973 119.851C619.943 120.084 621.01 120.22 621.882 119.754C623.841 118.668 623.182 115.682 624.035 113.607C625.179 110.795 629.058 109.864 630.124 107.032C630.629 105.694 630.396 104.181 630.648 102.766C631.54 97.7621 639.647 96.327 642.207 100.729C642.788 101.738 643.099 102.921 643.778 103.852C645.814 106.644 650.003 106.198 653.436 105.907C656.888 105.617 661.387 106.664 661.755 110.116C661.911 111.532 661.251 112.889 661.038 114.285C660.282 119.386 667.283 123.575 671.433 120.511C674.051 118.571 674.846 115.061 676.785 112.443C678.725 109.825 683.534 108.7 684.776 111.706C684.368 109.379 686.831 107.362 689.178 107.323C691.525 107.265 693.677 108.564 695.675 109.806C698.661 111.667 701.726 113.684 703.49 116.729C704.848 119.076 705.333 121.888 706.904 124.079C708.474 126.29 711.985 127.57 713.847 125.611C710.899 119.696 715.437 112.947 719.723 107.905C720.654 106.8 721.643 105.655 722.981 105.093C727.597 103.076 731.902 109.01 732.212 114.033C732.523 119.056 731.281 124.68 734.268 128.753C739.078 124.196 748.561 127.512 749.473 134.067C749.763 136.161 749.356 138.469 750.481 140.273C751.431 141.805 753.332 142.639 754.108 144.268C754.864 145.878 754.321 147.778 754.476 149.562C754.748 152.646 757.482 155.342 760.585 155.555C763.688 155.768 766.752 153.48 767.45 150.454C767.722 149.233 767.703 147.856 768.556 146.944C769.06 146.401 769.797 146.149 770.495 145.916C772.881 145.102 775.247 144.287 777.632 143.473C781.976 141.979 787.891 141.029 790.218 144.985C792.352 148.651 789.695 154.391 793.011 157.029C793.748 157.611 794.66 157.902 795.571 158.096C802.495 159.55 810.136 154.643 811.687 147.739C812.172 145.587 812.172 143.221 813.452 141.436C816.71 136.86 824.177 140.079 829.413 138.004C836.686 135.134 836.201 124.118 841.961 118.824C846.79 114.382 855.749 116.07 858.658 121.965C865.058 121.034 870.663 115.895 872.137 109.592C872.951 106.14 872.622 102.397 874.018 99.1197C876.694 92.8555 886.12 90.858 891.084 95.5318C894.595 98.8288 895.467 104.007 896.127 108.778C896.806 113.723 897.155 118.824 898.764 123.575C899.385 125.417 899.85 127.24 900.141 129.16C901.867 140.777 908.287 150.862 910.73 162.265C916.005 186.876 913.251 213.154 902.973 236.116C896.476 250.642 886.857 264.004 873.96 273.332C854.857 287.16 830.266 291.058 806.684 291.174C777.283 291.329 748.115 286.268 719.354 280.159C690.458 274.011 661.484 266.661 635.186 253.163C608.888 239.665 585.228 219.457 572.254 192.907C566.591 181.329 563.081 168.801 560.521 156.176C557.302 140.253 562.131 129.005 570.741 115.236Z" fill="url(#paint2_linear_219_4142)"/>
<path d="M810.425 185.848C810.251 182.783 809.863 178.11 806.857 178.711C803.928 179.293 805.072 184.044 803.172 186.352C802.241 187.477 800.69 187.845 799.254 188.136C796.326 188.737 793.281 189.338 790.353 188.66C787.444 187.981 784.69 185.595 784.593 182.609C784.496 180.049 786.28 177.799 786.668 175.278C787.114 172.505 785.466 169.732 783.138 168.296C782.169 167.695 781.025 167.618 780.074 167.075C779.298 166.648 778.949 165.892 778.523 165.135C777.088 162.517 776.137 159.666 775.749 156.718C775.672 156.156 775.575 155.497 775.09 155.206C774.722 154.992 774.256 155.051 773.829 155.128C771.909 155.458 769.951 155.826 768.244 156.777C766.537 157.727 765.122 159.395 764.986 161.354C764.811 164.049 767.042 166.493 766.751 169.169C766.654 170.022 766.285 170.895 766.499 171.729C766.712 172.621 767.507 173.242 768.108 173.94C768.709 174.638 769.117 175.744 768.516 176.442C768.263 176.733 767.371 176.927 767.003 177.179C766.499 177.528 766.053 177.954 765.665 178.42C764.85 179.409 764.327 180.631 764.152 181.911C763.997 183.171 764.617 184.141 764.617 185.324C764.617 186.682 763.861 188.427 762.969 189.416C760.913 191.666 757.073 191.355 754.61 189.552C752.147 187.748 750.732 184.878 749.413 182.143C744.526 182.318 739.755 184.509 736.419 188.078C734.965 189.649 733.743 191.511 731.842 192.519C727.324 194.924 721.835 191.084 719.353 186.604C717.336 182.977 716.231 178.924 714.214 175.297C713.826 174.599 713.418 173.901 713.089 173.164C712.623 172.136 712.332 171.07 712.119 169.945C711.305 165.911 710.703 162.071 711.886 158.037C712.565 155.768 713.671 153.635 714.136 151.327C714.621 149.019 714.33 146.343 712.604 144.733C710.471 142.736 706.398 142.464 705.874 139.594C705.777 139.051 705.836 138.488 705.642 137.984C705.079 136.51 703.508 136.956 702.384 136.375C701.22 135.773 700.192 134.164 699.475 133.136C698.156 131.274 697.128 129.141 695.324 127.744C693.521 126.348 690.573 126.038 689.196 127.841C687.703 129.8 688.944 132.767 687.935 135.017C686.461 138.295 681.109 138.392 679.829 141.766C679.169 143.511 679.926 145.47 679.829 147.351C679.596 152.491 671.548 154.876 668.561 150.706C667.495 149.233 667.068 147.254 665.613 146.168C660.474 142.251 653.357 154.158 648.14 150.357C648.838 143.279 640.945 136.821 634.157 138.915L633.905 143.88C628.804 141.301 623.122 139.478 617.44 139.982C611.738 140.486 606.056 143.667 603.728 148.883C600.587 155.904 604.039 163.913 606.424 171.225C613.134 191.957 610.962 214.899 618.642 235.282C623.335 247.713 631.655 258.748 642.322 266.68C654.637 275.814 669.57 280.643 684.386 284.58C722.301 294.646 761.515 299.862 800.748 300.056C827.259 300.192 854.701 297.807 877.992 285.143C903.941 271.044 922.21 245.211 931.519 217.207C935.242 206.017 937.686 194.245 936.949 182.493C936.057 168.296 930.626 154.857 927.019 141.107C922.442 123.749 920.27 104.685 908.537 91.0906C905.919 88.0652 902.758 85.2919 898.879 84.0313C896.63 83.2944 893.682 82.9259 891.975 84.9622C890.443 86.7852 890.443 89.5779 890.579 91.8081C890.792 94.9887 891.549 98.1304 892.46 101.175C893.934 106.082 895.388 110.853 895.582 116.011C895.931 124.68 892.518 134.028 885.013 138.392C881.231 140.583 876.732 141.359 873.183 143.919C870.914 145.548 869.459 147.739 867.83 149.931C867.307 150.648 866.628 150.92 865.833 151.327C863.796 152.355 861.76 153.383 859.743 154.411C858.502 155.031 857.047 155.652 855.806 155.051C854.992 154.643 854.526 153.809 853.983 153.092C851.772 150.183 847.622 148.845 844.17 150.047C841.125 151.114 840.078 153.422 838.856 156.117C838.604 156.66 838.255 156.99 838.158 157.63C837.925 159.046 838.468 160.481 838.565 161.877C838.74 164.36 837.46 166.9 835.365 168.219C833.484 169.421 831.137 169.635 829.14 170.624C826.541 171.904 824.679 174.541 824.292 177.392C824.117 178.691 824.253 180.068 824.893 181.193C826.483 183.966 830.847 185.13 830.885 188.33C830.885 189.823 829.857 191.103 828.868 192.228L826.115 195.389C825.785 195.777 825.436 196.165 824.951 196.359C824.583 196.495 824.175 196.495 823.787 196.495C822.216 196.495 820.296 196.766 818.803 196.165C817.523 195.661 816.146 194.788 815.041 193.993C812.442 192.092 810.58 189.106 810.386 185.848H810.425Z" fill="url(#paint3_linear_219_4142)"/>
<path d="M-2.82638 18.9281C3.80623 17.2603 12.6886 22.1863 16.6837 16.6203C18.0606 14.7003 18.1383 12.1404 19.2049 10.0459C22.7346 3.12237 33.6919 5.08112 39.5682 0C43.0203 4.59628 45.5994 9.85194 47.1121 15.3985C50.1375 14.6809 53.318 13.9634 56.3046 14.7779C59.3106 15.573 62.0065 18.4433 61.4828 21.5075C61.1919 23.1947 60.0282 24.5911 59.2137 26.1038C56.4404 31.3206 58.632 38.5738 63.8295 41.3859C68.8718 39.7568 74.2439 38.1278 79.3832 39.4465C84.5225 40.7653 88.9248 46.3119 87.0243 51.2572C85.7831 54.4766 82.4473 56.319 80.2558 58.9953C78.0643 61.6716 77.7928 66.7333 81.1091 67.6836C88.4399 64.7552 97.0119 74.2192 93.3853 81.2203C91.0387 85.739 85.337 88.202 84.1733 93.1667C82.8352 98.9072 90.5733 104.26 95.4798 101.002C99.824 98.1121 100.348 91.3244 104.886 88.7644C108.784 86.5729 113.981 88.7644 116.599 92.391C119.218 96.0176 119.916 100.653 120.536 105.074C120.808 107.072 121.099 109.069 121.37 111.067C126.316 117.952 138.999 116.206 141.908 108.255C143.44 104.066 142.47 99.3727 143.304 94.9704C144.138 90.568 148.366 86.0299 152.478 87.7753C151.896 93.477 160.002 96.6576 165.083 94.0007C170.165 91.3438 172.686 85.6033 175.09 80.4058C176.778 76.7598 178.756 73.0362 181.859 70.3793C183.158 69.2739 184.477 68.2266 185.737 67.0824C188.297 64.7746 191.711 64.4642 194.542 62.5831C196.055 61.5746 197.044 60.3528 199.003 60.2752C201.679 60.1783 204.297 61.594 206.217 63.32C208.99 65.8024 211.589 69.0605 215.293 69.526C217.252 69.7781 219.327 69.1769 221.15 69.8945C222.76 70.515 223.807 72.0084 224.951 73.3077C227.628 76.3719 231.138 78.6797 235.017 79.9209C236.064 80.2506 237.247 80.5027 238.236 80.0567C240.505 79.0288 240.04 75.6737 241.145 73.4241C242.658 70.4181 247.021 69.7005 248.476 66.6557C249.155 65.2012 249.038 63.514 249.426 61.9625C250.842 56.4935 259.957 55.6014 262.4 60.7019C262.963 61.8655 263.195 63.2037 263.874 64.3091C265.911 67.5672 270.565 67.4315 274.405 67.4121C278.245 67.3927 283.151 68.9442 283.268 72.7841C283.307 74.355 282.453 75.8095 282.104 77.3416C280.824 82.9269 288.233 88.1826 293.081 85.1378C296.145 83.2178 297.328 79.3779 299.714 76.6628C302.099 73.9477 307.51 73.0944 308.635 76.5465C308.382 73.9477 311.292 71.9114 313.89 72.0665C316.489 72.2217 318.777 73.8314 320.872 75.3828C324.014 77.7101 327.252 80.1924 328.94 83.7221C330.239 86.4372 330.53 89.5983 332.101 92.1777C333.652 94.757 337.415 96.4831 339.664 94.4661C336.91 87.659 342.515 80.5609 347.693 75.3441C348.818 74.1998 350.02 73.0168 351.533 72.4932C356.828 70.6508 361.075 77.5937 360.997 83.1984C360.92 88.8032 359.058 94.9122 362.006 99.683C367.727 95.0479 377.947 99.5472 378.393 106.878C378.529 109.225 377.889 111.746 378.975 113.84C379.906 115.625 381.923 116.711 382.641 118.572C383.339 120.434 382.582 122.49 382.602 124.468C382.641 127.92 385.453 131.12 388.866 131.624C392.279 132.128 395.886 129.84 396.914 126.562C397.321 125.244 397.418 123.692 398.446 122.761C399.047 122.218 399.881 121.986 400.677 121.772C403.392 121.074 406.087 120.376 408.802 119.678C413.748 118.398 420.38 117.835 422.611 122.451C424.666 126.698 421.214 132.827 424.686 136.027C425.442 136.725 426.431 137.151 427.44 137.442C434.984 139.653 443.885 134.882 446.193 127.358C446.911 125.011 447.124 122.393 448.695 120.531C452.71 115.721 460.7 119.949 466.673 118.107C474.993 115.547 475.381 103.31 482.227 97.9376C487.967 93.4383 497.741 96.0758 500.457 102.844C507.632 102.359 514.284 97.1618 516.456 90.2965C517.659 86.5341 517.62 82.3645 519.443 78.8543C522.934 72.1441 533.561 70.7478 538.662 76.3525C542.269 80.3088 542.793 86.1269 543.103 91.4795C543.433 97.0261 543.374 102.708 544.751 108.119C545.275 110.214 545.644 112.269 545.799 114.442C546.71 127.474 552.955 139.188 554.7 152.026C558.443 179.759 553.11 208.636 539.729 233.208C531.273 248.742 519.462 262.725 504.374 271.956C482.013 285.648 454.416 287.839 428.274 285.939C409.656 284.581 391.213 281.343 373.06 277.115C363.965 274.982 354.908 272.616 345.909 270.094C340.149 268.485 334.021 267.224 328.474 264.916C326.322 264.024 324.557 262.57 322.52 261.464C319.553 259.855 316.101 259.35 312.824 258.652C297.095 255.278 281.212 252.757 265.212 251.089C260.888 250.643 256.563 250.255 252.238 249.925C178.93 244.456 104.672 257.042 32.0047 245.872C24.286 244.689 16.4315 243.176 9.58556 239.414C1.16875 234.798 -5.11461 227.118 -10.3703 219.089C-29.0269 190.619 -36.9007 155.847 -35.5819 121.85C-34.3989 91.5765 -26.1956 61.9043 -13.9194 34.3266C-11.4565 28.8189 -9.49779 20.5766 -2.84579 18.8893L-2.82638 18.9281Z" fill="url(#paint4_linear_219_4142)"/>
<path d="M441.501 169.558C441.559 166.144 441.54 160.928 438.166 161.335C434.869 161.723 435.722 167.095 433.433 169.48C432.309 170.663 430.563 170.915 428.934 171.129C425.637 171.536 422.205 171.943 419.024 170.935C415.843 169.926 413.012 167.056 413.148 163.74C413.264 160.889 415.417 158.542 416.096 155.788C416.833 152.744 415.242 149.544 412.779 147.759C411.751 147.003 410.51 146.828 409.482 146.13C408.668 145.587 408.338 144.715 407.931 143.842C406.573 140.816 405.759 137.578 405.584 134.281C405.545 133.641 405.487 132.923 404.983 132.555C404.595 132.283 404.072 132.303 403.587 132.361C401.434 132.574 399.223 132.788 397.264 133.699C395.306 134.611 393.58 136.337 393.269 138.489C392.843 141.456 395.112 144.365 394.549 147.294C394.375 148.244 393.89 149.156 394.045 150.106C394.2 151.114 395.034 151.871 395.635 152.705C396.237 153.539 396.605 154.799 395.868 155.517C395.558 155.827 394.549 155.963 394.142 156.196C393.56 156.525 393.017 156.971 392.552 157.456C391.563 158.484 390.865 159.803 390.574 161.18C390.283 162.576 390.884 163.701 390.787 165C390.671 166.513 389.682 168.375 388.596 169.383C386.133 171.71 381.905 171.012 379.325 168.801C376.746 166.591 375.427 163.294 374.205 160.132C368.775 159.9 363.287 161.917 359.292 165.601C357.546 167.211 356.014 169.17 353.842 170.12C348.625 172.389 342.865 167.657 340.499 162.498C338.579 158.29 337.687 153.733 335.787 149.524C335.418 148.71 335.03 147.895 334.74 147.061C334.313 145.878 334.08 144.676 333.925 143.415C333.363 138.877 333.033 134.572 334.701 130.208C335.632 127.765 337.047 125.496 337.765 122.974C338.483 120.453 338.405 117.467 336.64 115.527C334.449 113.142 329.969 112.482 329.639 109.244C329.581 108.643 329.697 108.022 329.523 107.44C329.018 105.753 327.234 106.121 326.051 105.365C324.829 104.609 323.821 102.727 323.103 101.525C321.804 99.353 320.834 96.89 318.973 95.2028C317.111 93.5155 313.853 92.8949 312.165 94.7955C310.342 96.8318 311.467 100.226 310.149 102.631C308.229 106.141 302.294 105.792 300.587 109.399C299.695 111.28 300.374 113.51 300.122 115.585C299.424 121.248 290.289 123.207 287.342 118.339C286.294 116.613 285.984 114.402 284.471 113.045C279.119 108.255 270.198 120.86 264.748 116.187C266.125 108.39 257.941 100.575 250.222 102.301C249.99 104.124 249.757 105.966 249.505 107.789C244.075 104.492 237.946 101.971 231.585 102.049C228.56 102.087 225.496 102.766 222.78 104.104C220.55 105.21 218.882 107.867 216.827 108.817C215.818 109.283 214.519 108.875 213.375 109.496C210.97 110.795 209.457 113.724 209.011 116.322C208.313 120.317 208.914 124.623 207.11 128.249C205.637 131.217 202.786 133.234 200.032 135.095C197.491 136.821 194.718 138.625 191.654 138.489C188.589 138.353 185.545 135.192 186.767 132.361C182.325 131.663 177.031 131.275 174.122 134.707C172.648 136.453 172.183 138.78 171.329 140.894C168.614 147.488 161.264 151.813 154.185 150.998C147.107 150.184 140.94 144.269 139.815 137.248C139.039 132.497 139.485 126.097 134.927 124.545C132.988 123.886 130.874 124.526 128.838 124.856C118.404 126.543 107.447 118.204 106.283 107.692C94.8992 115.45 80.2958 118.281 66.8366 115.314C69.6875 111.901 69.8426 106.509 67.1663 102.941C64.49 99.3918 59.2731 98.0148 55.2005 99.8184C47.1133 103.387 47.3461 114.771 48.9558 123.459C50.5655 132.148 50.992 143.454 43.0018 147.255C38.968 138.625 24.5198 138.043 19.7878 146.305C17.5187 150.281 17.4412 155.226 15.1915 159.221C13.3103 162.595 10.0522 164.981 7.86068 168.181C-0.3622 180.166 9.21837 195.758 12.6122 209.877C14.1249 216.141 14.4352 222.909 17.8872 228.359C21.3393 233.809 27.39 236.989 33.2856 239.607C92.533 265.847 160.469 257.896 225.03 252.31C236.433 251.321 247.992 250.429 259.221 252.64C266.203 254.017 273.01 256.693 278.789 260.882C282.784 263.791 286.353 266.448 291.162 267.806C304.854 271.684 318.313 276.319 332.083 279.946C361.173 287.626 390.942 292.765 420.944 295.248C450.306 297.691 480.928 297.4 507.847 285.376C537.81 271.995 560.287 244.941 573.028 214.687C578.11 202.604 581.833 189.785 582.027 176.675C582.26 160.869 577.411 145.49 574.58 129.937C571.011 110.291 570.236 88.9968 558.406 72.9196C555.768 69.3317 552.491 65.996 548.321 64.27C545.877 63.2616 542.658 62.6022 540.602 64.7161C538.76 66.5972 538.488 69.7002 538.469 72.202C538.43 75.751 539.012 79.3 539.749 82.7521C540.951 88.2987 542.154 93.7289 541.94 99.4694C541.572 109.108 536.995 119.173 528.307 123.362C523.943 125.457 518.862 125.942 514.731 128.463C512.074 130.072 510.271 132.38 508.273 134.669C507.614 135.425 506.858 135.658 505.927 136.046C503.58 137.015 501.253 137.966 498.906 138.935C497.49 139.517 495.803 140.08 494.484 139.304C493.631 138.8 493.166 137.83 492.623 136.977C490.412 133.563 485.951 131.721 482.014 132.749C478.543 133.66 477.185 136.143 475.595 139.013C475.285 139.595 474.858 139.944 474.684 140.642C474.315 142.174 474.781 143.842 474.761 145.393C474.761 148.167 473.113 150.862 470.669 152.162C468.478 153.325 465.859 153.364 463.552 154.295C460.565 155.497 458.257 158.251 457.598 161.393C457.288 162.809 457.326 164.341 457.947 165.66C459.46 168.879 464.211 170.527 463.978 174.076C463.862 175.744 462.601 177.063 461.418 178.227C460.313 179.313 459.208 180.399 458.102 181.485C457.695 181.873 457.268 182.299 456.725 182.454C456.298 182.571 455.852 182.551 455.426 182.513C453.68 182.358 451.528 182.513 449.918 181.718C448.56 181.039 447.087 179.972 445.923 178.983C443.208 176.656 441.404 173.165 441.462 169.558H441.501Z" fill="url(#paint5_linear_219_4142)"/>
<path d="M1555.88 126.678C1550.91 125.437 1544.26 129.102 1541.27 124.952C1540.24 123.517 1540.19 121.597 1539.37 120.026C1536.73 114.848 1528.53 116.302 1524.13 112.521C1521.55 115.953 1519.61 119.89 1518.48 124.04C1516.22 123.497 1513.85 122.974 1511.6 123.575C1509.35 124.176 1507.33 126.329 1507.72 128.617C1507.93 129.878 1508.81 130.925 1509.41 132.069C1511.48 135.967 1509.83 141.398 1505.96 143.511C1502.17 142.29 1498.16 141.068 1494.32 142.057C1490.48 143.046 1487.18 147.196 1488.6 150.9C1489.53 153.305 1492.03 154.702 1493.66 156.699C1495.29 158.697 1495.5 162.478 1493.02 163.196C1487.53 161.004 1481.11 168.083 1483.83 173.339C1485.57 176.713 1489.86 178.575 1490.71 182.279C1491.72 186.565 1485.92 190.599 1482.26 188.155C1479 185.983 1478.61 180.902 1475.22 179.002C1472.29 177.353 1468.41 179.002 1466.45 181.717C1464.49 184.432 1463.97 187.903 1463.5 191.22C1463.29 192.713 1463.08 194.206 1462.88 195.719C1459.18 200.878 1449.68 199.559 1447.5 193.605C1446.36 190.463 1447.08 186.953 1446.46 183.676C1445.84 180.398 1442.66 176.985 1439.59 178.304C1440.02 182.57 1433.97 184.956 1430.17 182.958C1426.37 180.96 1424.48 176.674 1422.68 172.776C1421.42 170.042 1419.95 167.249 1417.62 165.271C1416.65 164.437 1415.66 163.661 1414.71 162.808C1412.79 161.082 1410.23 160.849 1408.12 159.434C1406.97 158.677 1406.23 157.766 1404.78 157.708C1402.78 157.63 1400.82 158.697 1399.37 159.996C1397.29 161.858 1395.35 164.301 1392.58 164.65C1391.13 164.825 1389.58 164.398 1388.2 164.922C1387 165.387 1386.2 166.512 1385.35 167.482C1383.35 169.77 1380.71 171.516 1377.82 172.427C1377.03 172.679 1376.16 172.873 1375.4 172.524C1373.69 171.748 1374.06 169.227 1373.21 167.559C1372.08 165.31 1368.8 164.786 1367.72 162.498C1367.21 161.412 1367.31 160.151 1367 158.988C1365.93 154.895 1359.11 154.236 1357.29 158.037C1356.86 158.91 1356.68 159.899 1356.18 160.733C1354.67 163.177 1351.18 163.08 1348.29 163.06C1345.42 163.06 1341.73 164.204 1341.65 167.075C1341.62 168.258 1342.26 169.344 1342.53 170.488C1343.48 174.658 1337.93 178.614 1334.3 176.325C1332.02 174.89 1331.12 172.02 1329.34 169.984C1327.55 167.947 1323.5 167.327 1322.67 169.887C1322.86 167.928 1320.69 166.415 1318.73 166.532C1316.77 166.648 1315.07 167.85 1313.49 169.014C1311.15 170.759 1308.72 172.621 1307.44 175.259C1306.47 177.295 1306.24 179.661 1305.08 181.581C1303.91 183.52 1301.1 184.8 1299.41 183.307C1301.47 178.207 1297.28 172.893 1293.4 168.995C1292.55 168.141 1291.66 167.249 1290.53 166.861C1286.58 165.484 1283.4 170.682 1283.45 174.871C1283.51 179.06 1284.91 183.637 1282.7 187.205C1278.41 183.734 1270.77 187.108 1270.42 192.597C1270.3 194.361 1270.79 196.243 1269.99 197.813C1269.3 199.152 1267.78 199.947 1267.24 201.362C1266.72 202.759 1267.3 204.291 1267.28 205.784C1267.26 208.364 1265.15 210.768 1262.59 211.137C1260.03 211.505 1257.33 209.799 1256.55 207.336C1256.24 206.347 1256.19 205.183 1255.41 204.485C1254.95 204.078 1254.32 203.903 1253.74 203.748C1251.73 203.224 1249.69 202.701 1247.67 202.177C1243.97 201.227 1239 200.8 1237.34 204.252C1235.8 207.433 1238.38 212.01 1235.78 214.414C1235.22 214.938 1234.47 215.248 1233.73 215.462C1228.07 217.11 1221.41 213.542 1219.69 207.898C1219.14 206.153 1218.99 204.194 1217.83 202.778C1214.82 199.19 1208.85 202.332 1204.37 200.955C1198.14 199.035 1197.85 189.881 1192.71 185.867C1188.41 182.493 1181.09 184.471 1179.06 189.532C1173.69 189.164 1168.72 185.266 1167.07 180.127C1166.18 177.314 1166.2 174.192 1164.84 171.574C1162.22 166.551 1154.27 165.504 1150.45 169.693C1147.74 172.66 1147.37 177.004 1147.12 181.019C1146.86 185.169 1146.9 189.416 1145.88 193.469C1145.47 195.04 1145.22 196.592 1145.1 198.201C1144.42 207.956 1139.73 216.722 1138.45 226.341C1135.66 247.093 1139.63 268.716 1149.66 287.121C1155.98 298.757 1164.82 309.23 1176.13 316.134C1192.87 326.373 1213.52 328.022 1233.11 326.606C1247.05 325.598 1260.84 323.174 1274.46 319.993C1281.26 318.403 1288.03 316.619 1294.78 314.737C1299.1 313.535 1303.68 312.585 1307.83 310.859C1309.44 310.18 1310.76 309.094 1312.29 308.279C1314.52 307.077 1317.1 306.689 1319.55 306.165C1331.32 303.644 1343.22 301.744 1355.19 300.502C1358.43 300.173 1361.67 299.882 1364.91 299.63C1419.79 295.538 1475.37 304.944 1529.77 296.585C1535.55 295.693 1541.43 294.568 1546.55 291.756C1552.85 288.304 1557.56 282.544 1561.5 276.532C1575.46 255.218 1581.36 229.192 1580.37 203.729C1579.5 181.077 1573.35 158.852 1564.14 138.217C1562.29 134.086 1560.82 127.919 1555.86 126.658L1555.88 126.678Z" fill="url(#paint6_linear_219_4142)"/>
<path d="M1223.24 239.432C1223.18 236.872 1223.2 232.974 1225.74 233.284C1228.2 233.575 1227.56 237.59 1229.29 239.374C1230.14 240.246 1231.44 240.46 1232.66 240.615C1235.15 240.925 1237.71 241.235 1240.07 240.479C1242.44 239.723 1244.57 237.57 1244.47 235.088C1244.38 232.954 1242.77 231.209 1242.26 229.134C1241.72 226.865 1242.9 224.46 1244.75 223.122C1245.5 222.559 1246.45 222.424 1247.21 221.9C1247.83 221.493 1248.06 220.833 1248.37 220.193C1249.4 217.924 1250 215.5 1250.14 213.037C1250.16 212.572 1250.2 212.029 1250.58 211.738C1250.87 211.525 1251.26 211.563 1251.63 211.583C1253.24 211.738 1254.89 211.912 1256.36 212.591C1257.84 213.27 1259.12 214.569 1259.37 216.179C1259.7 218.39 1257.99 220.581 1258.42 222.773C1258.55 223.471 1258.9 224.169 1258.81 224.887C1258.69 225.643 1258.07 226.205 1257.6 226.826C1257.16 227.447 1256.89 228.397 1257.43 228.94C1257.66 229.173 1258.42 229.27 1258.73 229.464C1259.17 229.716 1259.58 230.045 1259.93 230.414C1260.67 231.19 1261.19 232.159 1261.4 233.207C1261.62 234.254 1261.17 235.088 1261.23 236.077C1261.31 237.202 1262.06 238.598 1262.88 239.354C1264.72 241.1 1267.88 240.576 1269.82 238.928C1271.74 237.279 1272.73 234.797 1273.66 232.431C1277.71 232.256 1281.83 233.769 1284.81 236.523C1286.11 237.725 1287.26 239.199 1288.89 239.897C1292.78 241.604 1297.11 238.055 1298.87 234.196C1300.31 231.054 1300.97 227.621 1302.4 224.479C1302.67 223.878 1302.97 223.258 1303.2 222.637C1303.53 221.745 1303.68 220.853 1303.8 219.903C1304.23 216.509 1304.48 213.289 1303.22 210.012C1302.52 208.169 1301.45 206.482 1300.91 204.601C1300.37 202.72 1300.42 200.47 1301.76 199.035C1303.41 197.251 1306.77 196.747 1307.02 194.342C1307.06 193.896 1306.98 193.43 1307.12 192.984C1307.48 191.724 1308.82 191.995 1309.71 191.433C1310.63 190.87 1311.38 189.455 1311.92 188.563C1312.89 186.933 1313.61 185.091 1315.03 183.83C1316.44 182.57 1318.87 182.104 1320.13 183.52C1321.51 185.052 1320.65 187.593 1321.64 189.377C1323.08 191.995 1327.52 191.743 1328.8 194.458C1329.46 195.874 1328.95 197.542 1329.15 199.093C1329.67 203.34 1336.5 204.814 1338.71 201.149C1339.48 199.85 1339.74 198.201 1340.86 197.193C1344.87 193.605 1351.55 203.03 1355.64 199.539C1354.61 193.702 1360.72 187.845 1366.52 189.144C1366.69 190.521 1366.87 191.879 1367.04 193.256C1371.11 190.773 1375.69 188.912 1380.46 188.95C1382.73 188.97 1385.02 189.493 1387.06 190.482C1388.72 191.316 1389.96 193.314 1391.5 194.012C1392.25 194.361 1393.22 194.07 1394.08 194.516C1395.88 195.486 1397 197.678 1397.35 199.636C1397.88 202.623 1397.43 205.862 1398.79 208.577C1399.89 210.807 1402.03 212.3 1404.08 213.697C1405.98 214.996 1408.06 216.354 1410.35 216.237C1412.64 216.14 1414.92 213.774 1414.01 211.66C1417.33 211.137 1421.3 210.846 1423.48 213.406C1424.58 214.705 1424.93 216.47 1425.57 218.041C1427.59 222.967 1433.12 226.225 1438.41 225.604C1443.7 224.984 1448.32 220.581 1449.17 215.306C1449.75 211.738 1449.43 206.967 1452.84 205.784C1454.29 205.28 1455.88 205.784 1457.4 206.017C1465.21 207.277 1473.42 201.033 1474.29 193.178C1482.8 198.977 1493.74 201.11 1503.8 198.899C1501.67 196.339 1501.56 192.305 1503.55 189.629C1505.55 186.972 1509.47 185.944 1512.51 187.283C1518.56 189.959 1518.39 198.473 1517.19 204.97C1515.98 211.466 1515.67 219.941 1521.65 222.773C1524.67 216.315 1535.47 215.869 1539.02 222.055C1540.73 225.042 1540.79 228.727 1542.46 231.733C1543.87 234.254 1546.32 236.057 1547.94 238.443C1554.09 247.403 1546.94 259.078 1544.4 269.647C1543.27 274.34 1543.04 279.402 1540.46 283.475C1537.88 287.547 1533.34 289.933 1528.92 291.892C1484.57 311.537 1433.72 305.583 1385.39 301.394C1376.85 300.657 1368.19 299.998 1359.79 301.646C1354.55 302.674 1349.47 304.672 1345.15 307.814C1342.16 309.986 1339.48 311.983 1335.88 312.992C1325.62 315.901 1315.55 319.353 1305.23 322.087C1283.46 327.828 1261.17 331.668 1238.71 333.549C1216.72 335.372 1193.8 335.159 1173.67 326.16C1151.23 316.133 1134.42 295.887 1124.87 273.235C1121.07 264.198 1118.28 254.578 1118.12 244.785C1117.95 232.954 1121.58 221.435 1123.69 209.799C1126.37 195.098 1126.95 179.157 1135.79 167.113C1137.77 164.437 1140.21 161.916 1143.34 160.636C1145.16 159.879 1147.58 159.375 1149.12 160.965C1150.49 162.381 1150.69 164.689 1150.71 166.57C1150.73 169.227 1150.3 171.884 1149.74 174.463C1148.84 178.614 1147.93 182.686 1148.09 186.972C1148.36 194.187 1151.79 201.731 1158.29 204.853C1161.57 206.424 1165.35 206.792 1168.45 208.674C1170.45 209.876 1171.79 211.602 1173.28 213.328C1173.77 213.891 1174.33 214.065 1175.03 214.356C1176.77 215.074 1178.54 215.791 1180.28 216.509C1181.35 216.955 1182.59 217.381 1183.58 216.78C1184.22 216.392 1184.57 215.675 1184.97 215.035C1186.62 212.475 1189.98 211.098 1192.91 211.874C1195.51 212.552 1196.51 214.414 1197.7 216.567C1197.93 216.994 1198.24 217.265 1198.38 217.789C1198.67 218.933 1198.32 220.174 1198.32 221.338C1198.32 223.413 1199.56 225.43 1201.38 226.399C1203.03 227.272 1204.99 227.311 1206.71 228.009C1208.94 228.901 1210.67 230.957 1211.18 233.323C1211.41 234.39 1211.39 235.534 1210.92 236.523C1209.8 238.928 1206.23 240.169 1206.4 242.826C1206.48 244.067 1207.43 245.056 1208.32 245.929C1209.16 246.743 1209.97 247.558 1210.81 248.372C1211.12 248.663 1211.43 248.974 1211.83 249.09C1212.14 249.187 1212.49 249.148 1212.8 249.129C1214.12 249.012 1215.71 249.129 1216.94 248.547C1217.96 248.043 1219.05 247.228 1219.92 246.491C1221.96 244.746 1223.32 242.147 1223.26 239.432H1223.24Z" fill="url(#paint7_linear_219_4142)"/>
</g>
<defs>
<linearGradient id="paint0_linear_219_4142" x1="1815.94" y1="-53.1189" x2="1826.18" y2="203.109" gradientUnits="userSpaceOnUse">
<stop stop-color="#0F709A"/>
<stop offset="0.26" stop-color="#0B517C"/>
<stop offset="0.55" stop-color="#093562"/>
<stop offset="0.8" stop-color="#072452"/>
<stop offset="0.99" stop-color="#071F4D"/>
</linearGradient>
<linearGradient id="paint1_linear_219_4142" x1="1850.85" y1="-12.8192" x2="1861.25" y2="156.506" gradientUnits="userSpaceOnUse">
<stop stop-color="#0F709A"/>
<stop offset="0.26" stop-color="#0B517C"/>
<stop offset="0.55" stop-color="#093562"/>
<stop offset="0.8" stop-color="#072452"/>
<stop offset="0.99" stop-color="#071F4D"/>
</linearGradient>
<linearGradient id="paint2_linear_219_4142" x1="729.071" y1="-17.6491" x2="738.302" y2="212.844" gradientUnits="userSpaceOnUse">
<stop stop-color="#0F709A"/>
<stop offset="0.26" stop-color="#0B517C"/>
<stop offset="0.55" stop-color="#093562"/>
<stop offset="0.8" stop-color="#072452"/>
<stop offset="0.99" stop-color="#071F4D"/>
</linearGradient>
<linearGradient id="paint3_linear_219_4142" x1="760.467" y1="18.5974" x2="769.834" y2="170.934" gradientUnits="userSpaceOnUse">
<stop stop-color="#0F709A"/>
<stop offset="0.26" stop-color="#0B517C"/>
<stop offset="0.55" stop-color="#093562"/>
<stop offset="0.8" stop-color="#072452"/>
<stop offset="0.99" stop-color="#071F4D"/>
</linearGradient>
<linearGradient id="paint4_linear_219_4142" x1="269.747" y1="-108.507" x2="257.994" y2="204.438" gradientUnits="userSpaceOnUse">
<stop stop-color="#0F709A"/>
<stop offset="0.26" stop-color="#0B517C"/>
<stop offset="0.55" stop-color="#093562"/>
<stop offset="0.8" stop-color="#072452"/>
<stop offset="0.99" stop-color="#071F4D"/>
</linearGradient>
<linearGradient id="paint5_linear_219_4142" x1="296.561" y1="-21.6926" x2="293.835" y2="147.95" gradientUnits="userSpaceOnUse">
<stop stop-color="#0F709A"/>
<stop offset="0.26" stop-color="#0B517C"/>
<stop offset="0.55" stop-color="#093562"/>
<stop offset="0.8" stop-color="#072452"/>
<stop offset="0.99" stop-color="#071F4D"/>
</linearGradient>
<linearGradient id="paint6_linear_219_4142" x1="1351.83" y1="31.231" x2="1360.62" y2="265.489" gradientUnits="userSpaceOnUse">
<stop stop-color="#0F709A"/>
<stop offset="0.26" stop-color="#0B517C"/>
<stop offset="0.55" stop-color="#093562"/>
<stop offset="0.8" stop-color="#072452"/>
<stop offset="0.99" stop-color="#071F4D"/>
</linearGradient>
<linearGradient id="paint7_linear_219_4142" x1="1331.74" y1="96.2232" x2="1333.8" y2="223.201" gradientUnits="userSpaceOnUse">
<stop stop-color="#0F709A"/>
<stop offset="0.26" stop-color="#0B517C"/>
<stop offset="0.55" stop-color="#093562"/>
<stop offset="0.8" stop-color="#072452"/>
<stop offset="0.99" stop-color="#071F4D"/>
</linearGradient>
<clipPath id="clip0_219_4142">
<rect width="1728" height="218" fill="white"/>
</clipPath>
</defs>
</svg>
