<svg width="24" height="24" viewBox="0 0 24 24" fill="none" xmlns="http://www.w3.org/2000/svg">
<mask id="mask0_339_96471" style="mask-type:luminance" maskUnits="userSpaceOnUse" x="0" y="0" width="24" height="24">
<path d="M24 0H0V24H24V0Z" fill="white"/>
</mask>
<g mask="url(#mask0_339_96471)">
<path d="M23.9933 24.0002V23.9992H23.9993V15.1972C23.9993 10.8912 23.0723 7.57422 18.0383 7.57422C15.6183 7.57422 13.9943 8.90219 13.3313 10.1612H13.2613V7.97622H8.48828V23.9992H13.4583V16.0652C13.4583 13.9762 13.8543 11.9562 16.4413 11.9562C18.9903 11.9562 19.0283 14.3402 19.0283 16.1992V24.0002H23.9933Z" fill="#78B4D7"/>
<path d="M0.394531 7.97656H5.37052V23.9996H0.394531V7.97656Z" fill="#78B4D7"/>
<path d="M2.882 0C1.291 0 0 1.291 0 2.882C0 4.473 1.291 5.79101 2.882 5.79101C4.473 5.79101 5.76398 4.473 5.76398 2.882C5.76298 1.291 4.472 0 2.882 0Z" fill="#78B4D7"/>
</g>
</svg>
