<svg width="1728" height="444" viewBox="0 0 1728 444" fill="none" xmlns="http://www.w3.org/2000/svg">
<g opacity="0.24" clip-path="url(#clip0_602_102695)">
<mask id="mask0_602_102695" style="mask-type:luminance" maskUnits="userSpaceOnUse" x="0" y="0" width="1728" height="444">
<path d="M1728 0H0V444H1728V0Z" fill="white"/>
</mask>
<g mask="url(#mask0_602_102695)">
<g style="mix-blend-mode:screen">
<path d="M1536.01 102.774C1513.37 101.665 1490.74 100.539 1468.1 99.4309C1462.95 99.1751 1457.73 98.9192 1453 97.7083C1444.46 95.5253 1438.62 90.5793 1431.07 87.2876C1403.77 75.4343 1365.05 87.8505 1331.72 85.2069C1317.88 84.1154 1302.77 80.5508 1290.66 85.5651C1278.82 90.4599 1275.8 101.529 1263.69 106.117C1253.93 109.8 1242.09 107.958 1231.05 107.924C1198.93 107.822 1171.06 123.769 1149.82 140.039C1143.07 145.207 1136.46 150.665 1132.97 156.958C1130.37 161.631 1129.62 166.56 1128.48 171.421C1125.55 184.059 1119.75 196.833 1107.94 207.441C1096.12 218.032 1077.54 226.202 1057.74 226.867C1049.43 227.14 1041.26 226.134 1032.99 225.98C1014.84 225.656 996.177 229.664 981.456 237.066C973.319 241.159 966.376 246.225 957.847 249.96C929.751 262.273 887.14 254.854 874.943 235.531C859.881 238.447 846.456 234.729 831.427 232.819C782.196 226.577 726.057 250.522 714.645 282.654C741.341 272.779 771.414 266.998 801.523 265.923C875.523 263.314 948.96 288.521 1020.26 273.274C1033.53 270.443 1046.29 266.23 1059.96 264.695C1079.4 262.495 1099.77 265.77 1118.42 261.233C1133.55 257.549 1145.01 249.329 1155.28 241.176C1170.72 228.931 1185.06 216.139 1198.22 202.87C1207.36 193.661 1216.2 184.024 1229.3 177.032C1250.88 165.503 1282.74 161.767 1297.58 146.537C1301.22 142.819 1303.64 138.521 1308.6 135.485C1313.67 132.381 1320.65 131.034 1327.38 130.147C1364.96 125.252 1402.75 131.58 1440.7 131.222C1488.23 130.761 1536.28 119.334 1574.12 99.5162C1560.64 102.552 1549.93 103.473 1536.01 102.791V102.774Z" fill="white" fill-opacity="0.02"/>
</g>
<g style="mix-blend-mode:screen">
<path d="M1263.55 131.103C1275.51 123.701 1290.33 118.243 1306.09 115.429C1313.58 114.099 1322.18 113.468 1328.19 116.299C1331.72 117.97 1333.83 120.631 1337.17 122.439C1349.41 129.073 1370.06 121.74 1384.94 125.765C1394.64 128.391 1400.14 135.435 1410.24 137.43C1419.26 139.204 1429.21 136.441 1437.99 133.627C1460.51 126.396 1485.4 118.124 1508.78 122.251C1528.69 125.782 1544.57 138.01 1565.5 136.288C1573.95 135.588 1581.67 132.638 1589.08 129.721C1619.31 117.8 1651.84 103.167 1660.19 81.3359C1665.47 82.0523 1670.72 82.7686 1675.99 83.4849C1669.18 91.9101 1662.34 100.352 1657.26 109.204C1652.11 118.192 1648.78 127.555 1643.03 136.424C1639.79 141.438 1634.68 145.122 1630.65 149.812C1626.67 154.417 1621.63 158.971 1614.17 161.461C1610.64 162.638 1606.78 163.303 1603.22 164.412C1591.31 168.164 1584.05 177.459 1586.78 185.509C1588.36 190.182 1592.88 194.599 1591.28 199.375C1590.29 202.274 1587.15 204.747 1583.81 206.879C1576.56 211.501 1567.57 215.219 1557.71 216.447C1543.58 218.203 1529 214.468 1519.74 207.851C1510.47 201.234 1506.21 192.075 1506.17 182.933C1506.17 179.539 1506.69 176.043 1505.35 172.803C1504.19 169.972 1501.35 167.686 1497.22 166.475C1491.73 164.855 1491.37 163.252 1488.93 159.807C1485.93 155.56 1480.74 155.219 1474 156.379C1470.06 157.061 1466.21 158.016 1462.25 158.664C1459.47 159.124 1456.55 159.022 1454.66 160.233C1452.83 161.41 1451.57 163.883 1450.27 165.35C1444.54 171.831 1438.31 178.141 1431.63 184.247C1426.61 188.835 1419.62 193.849 1411.19 193.32C1401.93 192.74 1397.8 186.003 1390.94 182.149C1384.32 178.448 1375.22 177.629 1366.45 178.004C1361.81 178.192 1357.2 178.704 1352.63 179.318C1343.49 180.546 1334.26 177.254 1331.44 171.336C1330.01 168.317 1330.2 164.923 1327.76 162.211C1322.2 156.02 1306.66 157.436 1297.67 162.297C1288.68 167.14 1283.29 174.218 1274.79 179.42C1266.3 184.622 1251.63 187.402 1244.17 182.132C1242.21 188.852 1230.59 192.416 1220.84 195.384C1211.08 198.334 1200.11 203.69 1201.73 210.307C1202.28 212.507 1204.2 214.417 1205.4 216.481C1209.99 224.36 1201.95 234.645 1189.07 237.408C1184.18 238.448 1178.99 238.448 1174.11 239.522C1169.75 240.478 1166.73 242.354 1163.59 244.485C1151.48 252.723 1136.43 260.91 1119.22 263.502C1110.06 264.883 1099.65 263.945 1092.4 260.33C1090.66 259.46 1089.11 258.437 1087.85 257.26C1085.97 255.486 1085.12 254.787 1088.22 253.456C1093.32 251.273 1099.65 250.301 1105.33 249.09C1124.32 245.014 1143.56 235.634 1152.35 223.712C1158.66 215.134 1159.39 205.514 1164.27 196.646C1167.78 190.233 1172.88 184.23 1178.94 178.601C1186.29 171.745 1193.85 164.548 1206.54 161.802C1217.78 159.363 1226.76 156.447 1235.44 151.006C1243.47 145.975 1250.23 140.21 1257.8 134.906C1259.64 133.61 1261.54 132.348 1263.5 131.137L1263.55 131.103Z" fill="white" fill-opacity="0.02"/>
</g>
<g style="mix-blend-mode:screen">
<path d="M167.015 246.958C167.066 252.074 162.852 256.901 159.304 261.608C155.057 267.236 151.577 273.103 148.95 279.073C146.664 284.257 145.657 290.79 152.276 293.757C155.995 295.429 161.01 295.36 165.667 295.241C173.446 295.036 181.241 294.832 189.02 294.61C195.127 294.439 201.763 294.388 206.437 296.725C208.791 297.902 210.394 299.59 211.964 301.227C215.904 305.389 219.845 309.55 223.785 313.695C225.082 315.059 226.395 316.475 226.634 318.095C227.095 321.301 223.274 324.184 220.237 326.878C210.701 335.372 207.17 346.833 213.431 355.974C219.691 365.116 236.596 370.881 252.051 367.913C257.698 366.821 263.532 364.672 269.007 365.713C271.652 366.207 273.75 367.401 275.865 368.51C286.714 374.206 299.457 378.419 313.138 380.858C321.224 382.29 330.657 382.973 337.822 379.766C341.455 378.146 344.065 375.69 347.63 374.002C350.377 372.688 353.618 371.887 356.893 371.358C380.041 367.708 406.175 377.805 426.219 369.141C433.349 366.071 437.989 361.176 443.84 357.117C449.691 353.058 458.238 349.613 466.17 351.045C475.74 352.785 478.657 360.17 482.751 365.952C492.116 379.169 515.452 387.356 538.532 385.531C544.025 385.105 549.432 384.149 554.704 382.956C566.832 380.176 578.295 375.997 588.309 370.659C556.222 366.907 537.423 346.85 511.46 334.758C481.693 320.892 442.134 317.737 404.333 319.476C387.701 320.244 370.472 321.83 354.982 318.521C331.459 313.473 317.744 298.499 298.007 289.135C289.205 284.957 278.765 281.614 273.374 275.491C270.696 272.438 269.468 268.891 266.824 265.821C260.564 258.589 247.326 255.042 240.025 248.271C235.88 244.434 233.816 239.727 229.278 236.094C224.058 231.915 216.126 229.596 208.45 227.396C193.148 223.012 177.267 218.544 160.157 218.595C155.21 218.595 129.912 221.512 138.442 227.02C141.922 229.272 147.414 230.261 151.56 231.966C155.534 233.604 159.304 235.548 162.153 237.97C165.189 240.545 167.049 243.632 167.083 246.975L167.015 246.958Z" fill="white" fill-opacity="0.02"/>
</g>
<g style="mix-blend-mode:screen">
<path d="M1713.33 192.859C1689.74 194.24 1668.66 207.322 1648.71 220.011C1643.84 223.115 1638.84 226.338 1635.37 230.977C1631.5 236.162 1629.92 242.643 1627.37 248.612C1618.28 269.931 1596.82 284.001 1574.39 289.851C1551.96 295.684 1528.35 294.456 1505.24 292.836C1488.62 291.676 1471.8 290.295 1456.07 284.854C1439.65 279.158 1424.24 269.027 1406.86 268.481C1381.89 267.697 1365.83 287.447 1356.81 308.1C1354.39 313.66 1351.52 319.033 1348.48 324.286C1344.77 330.733 1340.04 334.536 1333.71 338.271C1303.47 356.094 1275.41 377.634 1250.35 402.228C1244.51 407.958 1238.73 413.928 1231.48 417.714C1218.64 424.416 1203.28 423.257 1188.85 421.926C1165.89 419.812 1142.91 417.697 1119.95 415.582C1114.85 415.104 1109.02 414.2 1106.36 409.834C1103.58 405.264 1105.76 399.448 1106.63 394.161C1108.54 382.358 1101.9 370.266 1091.99 364.058C1085.51 359.999 1077.12 361.193 1071.27 356.145C1067.36 352.768 1065.6 347.685 1062.33 343.797C1057.09 337.572 1049.02 335.576 1041.45 333.649C1031.52 331.125 1021.64 331.142 1011.66 329.539C1029.23 332.336 1036.84 354.797 1053.36 361.432C1062.38 365.048 1074.15 364.075 1079.97 371.87C1084.78 378.316 1082.71 387.594 1078.86 394.638C1075 401.699 1069.53 408.061 1067.63 415.872C1067.09 418.14 1066.85 420.528 1067.45 422.779C1068.38 426.361 1071.3 429.124 1074.52 430.932C1093.48 441.54 1116.32 423.206 1137.95 425.099C1148.52 426.02 1157.87 431.648 1167.15 436.304C1179.01 442.256 1191.48 445.701 1204.82 443.143C1220.41 440.175 1233.15 429.141 1244.24 417.782C1269.09 392.302 1292.53 361.261 1327.21 353.228C1332.57 351.983 1338.22 351.369 1343.52 352.785C1348.54 354.115 1352.87 357.151 1357.27 359.914C1377.06 372.313 1399.95 379.732 1423.25 381.301C1440.4 382.461 1461.07 378.112 1467.33 362.114C1468.88 358.157 1469.38 353.74 1471.63 350.124C1479.07 338.117 1497.39 343.217 1511.07 339.721C1516.77 338.271 1521.87 335.116 1527.43 333.24C1551.79 325.002 1576.64 341.904 1598.1 356.059C1619.56 370.215 1649.38 382.034 1669.3 365.764C1681.62 355.701 1685.27 337.998 1696.96 327.202C1705.5 319.306 1717.27 316.048 1727.05 309.738C1736.82 303.427 1744.96 291.113 1740.03 280.573C1715.98 285.178 1692.91 294.831 1672.73 308.714C1653.08 322.256 1632.41 340.795 1608.97 336.293C1607.07 320.517 1624.03 309.687 1638.67 303.461C1653.29 297.236 1670.63 287.941 1670.65 272.046C1670.65 268.993 1669.97 265.855 1670.96 262.972C1672.99 257.02 1680.53 255.502 1686.74 254.53C1709.94 250.897 1732.23 241.534 1751.07 227.481C1752.89 226.116 1754.8 224.513 1755.18 222.262C1755.53 220.113 1754.36 218.032 1753.23 216.156C1744.94 202.478 1729.28 191.921 1713.32 192.859H1713.33Z" fill="white" fill-opacity="0.06"/>
</g>
<g style="mix-blend-mode:screen">
<path d="M-61.5894 65.0476C-59.5594 85.8549 -57.5465 106.662 -55.5166 127.469C-23.6001 135.485 10.1075 136.287 42.3823 129.84C47.4486 128.834 52.5321 127.623 57.0867 125.184C62.0337 122.541 66.1106 118.567 70.6311 115.275C87.0926 103.268 108.399 100.659 128.664 98.4587C153.007 95.7981 177.52 93.1545 201.948 94.7406C214.349 95.5422 226.512 98.4757 238.862 99.3967C242.445 99.6696 245.805 98.5098 249.353 98.5269C259.196 98.5951 269.568 101.392 279.137 103.473C291.778 106.219 304.265 109.664 316.496 113.842C324.342 116.52 332.275 119.607 337.955 124.775C344.761 130.966 347.423 139.306 352.489 146.469C364.311 163.234 389.131 172.427 412.723 172.444C428.604 172.444 443.854 168.896 459.019 165.844C462.533 165.127 466.03 164.411 469.681 164.309C473.929 164.189 478.091 164.837 482.304 164.274C489.042 163.388 495.627 161.187 502.092 159.55C509.188 157.759 516.285 155.952 523.381 154.161C539.467 150.085 558.198 146.281 572.663 153.871C575.563 155.406 578.378 157.759 578.156 160.522C577.917 163.405 574.488 165.315 572.97 167.907C570.736 171.745 573.158 176.605 577.235 179.454C581.312 182.302 586.668 183.564 591.854 184.621C599.855 186.241 608.691 187.452 615.855 184.434C629.878 178.533 630.15 159.891 644.974 155.389C654.271 152.558 664.626 156.855 673.411 161.017C676.26 162.364 679.313 164.019 681.172 166.27C683.288 168.845 681.957 170.568 682.367 173.245C682.912 176.776 687.228 176.674 690.725 176.639C695.536 176.588 700.858 176.077 705.31 178.106C712.151 181.227 711.588 188.373 716.432 192.705C719.418 195.383 724.006 196.406 728.339 197.037C758.942 201.523 793.895 193.967 818.869 209.351C811.448 192.586 785.281 187.145 763.429 186.873C753.296 186.753 742.003 186.838 734.395 181.244C730.557 178.43 728.254 174.542 725.798 170.858C721.414 164.274 716.279 157.998 710.496 152.131C705.6 147.151 700.449 140.943 692.533 139.374C677.846 136.44 674.213 121.654 660.208 117.816C651.252 115.36 639.294 118.362 633.647 112.188C631.925 110.312 631.31 107.975 630.355 105.792C626.312 96.5485 615.941 89.6923 604.699 85.9402C593.44 82.1881 581.244 81.0965 569.234 80.0391C562.923 79.4934 555.178 79.4933 552.176 83.9106C550.675 86.1278 550.897 88.8907 551.715 91.3808C553.745 97.5718 558.999 102.757 562.633 108.47C566.266 114.184 568.109 121.534 563.452 126.531C558.931 131.375 550.317 132.04 542.691 132.091C534.742 132.16 526.776 131.972 518.809 131.58C508.063 131.034 497.316 130.079 486.654 128.714C478.876 127.708 471.353 126.497 463.642 128.049C458.064 129.158 452.929 130.949 447.113 131.341C437.15 132.023 426.438 130.539 417.362 126.924C401.089 120.443 387.971 104.871 393.122 90.1869C394.777 85.4627 398.206 80.8577 397.08 75.9629C396.346 72.8077 393.822 70.096 391.314 67.5718C387.988 64.1949 384.576 60.9203 381.045 57.7651C369.24 47.1738 357.265 38.3222 341.981 33.8367C334.509 31.6366 327.788 28.3109 320.76 25.0192C311.702 20.7725 302.149 17.7367 292.631 14.735C287.462 13.1147 282.054 11.4604 276.732 12.4496C268.169 14.0357 261.959 22.6827 261.721 31.3978C261.482 40.113 266.378 48.4189 273.218 53.8254C274.685 54.9851 276.374 56.2301 276.715 58.0721C276.988 59.5047 276.34 60.9544 275.572 62.2165C268.868 73.1318 253.908 74.8032 241.097 74.8032C227.552 74.8032 214.008 74.2915 200.498 73.2512C179.396 71.6139 158.397 68.6804 137.654 64.5019C128.511 62.6599 117.627 61.5684 109.303 57.1682C106.761 55.8208 104.526 54.03 101.814 52.9897C98.1806 51.5911 94.1548 51.1818 90.3508 50.6702C77.9663 48.9817 65.3942 48.6406 52.9415 49.6468C44.2075 50.3461 34.6889 51.5741 27.0978 47.7878C17.8521 43.183 15.6516 33.3933 11.2163 25.4115C1.81708 8.45867 -22.4913 -1.27981 -44.5821 0.135763C-55.8407 0.852079 -63.4829 6.0539 -67.0822 16.901C-69.2487 23.416 -67.7475 28.1744 -65.7346 34.4166C-62.8176 43.4388 -62.7323 53.3137 -61.8112 62.694L-61.5894 65.0306V65.0476Z" fill="white" fill-opacity="0.06"/>
</g>
<g style="mix-blend-mode:screen">
<path d="M669.114 327.493C651.578 337.948 634.059 348.419 614.919 357.578C588.103 370.421 552.127 380.807 523.844 371.444C511.289 367.282 502.316 359.693 496.874 351.302C494.674 347.908 492.9 344.258 488.925 341.649C483.705 338.238 475.943 337.334 469.018 335.918C461.324 334.332 455.883 331.91 447.439 331.637C440.325 331.416 432.905 332.541 426.627 334.997C423.847 336.072 421.51 337.487 418.729 338.528C413.543 340.455 408.955 343.081 403.803 345.094C396.178 348.078 387.921 350.483 379.205 351.472C363.852 353.195 346.452 349.409 340.686 340.421C338.793 337.487 336.951 333.513 331.901 333.547C325.999 333.599 324.293 338.8 321.086 342.109C314.331 349.068 296.334 347.328 290.227 340.574C284.12 333.82 286.867 324.952 291.746 317.413C294.253 313.559 297.273 309.124 294.441 305.56C293.23 304.042 291.097 302.933 289.033 301.876C282.005 298.294 274.994 294.696 267.966 291.114C266.533 290.381 265.015 289.613 263.173 289.392C259.624 288.948 256.162 290.534 252.63 291.302C241.423 293.724 230.642 287.243 227.435 280.182C224.228 273.121 225.661 265.361 223.102 258.181C220.287 250.335 212.253 243.633 201.762 239.488C196.491 237.408 190.64 236.009 184.43 235.327C181.667 235.02 179.927 234.679 177.778 233.604C169.573 229.494 158.996 226.816 148.812 225.213C77.9682 214.093 -7.5803 262.53 -66.7051 236.18C-83.9683 228.488 -93.9134 215.833 -102.204 203.348C-109.573 192.246 -116.226 180.477 -114.844 168.147C-115.1 170.415 -111.125 174.286 -109.624 176.265C-107.594 178.925 -105.308 181.501 -102.801 183.991C-97.7345 188.988 -91.7129 193.576 -84.9918 197.686C-78.6631 201.541 -71.7203 204.986 -64.2828 207.953C-60.5299 209.454 -56.2141 210.426 -53.28 212.507C-51.1136 214.042 -48.9301 215.56 -46.5249 216.941C-41.7144 219.704 -36.3409 222.041 -30.5922 223.951C-19.0607 227.754 -5.99386 229.784 7.27767 229.733C12.9752 229.716 18.7069 229.306 24.3362 228.488C25.8544 228.266 27.4579 227.993 28.5838 227.277C31.6372 225.35 29.1638 222.297 27.8673 219.807C24.3362 212.968 32.5925 204.986 43.237 201.95C53.8816 198.897 65.9078 199.665 76.9106 201.234C90.6768 203.212 105.603 206.282 118.687 202.103C121.502 201.199 124.112 199.989 127.08 199.426C130.304 198.795 133.698 198.965 136.991 199.136C148.266 199.733 159.713 200.364 170.187 202.871C180.661 205.378 190.213 210.034 194.256 216.703C195.553 218.852 196.337 221.222 198.76 222.894C200.329 223.985 202.444 224.65 204.525 225.315C215.17 228.692 226.309 232.155 238.455 232.086C240.672 232.086 243.026 231.967 244.954 232.598C246.268 233.024 247.24 233.758 248.178 234.491C258.157 242.217 267.113 250.489 274.875 259.238C281.408 266.572 289.374 272.678 300.275 277.521C320.472 286.509 347.015 290.278 372.006 286.271C374.752 285.827 377.465 285.298 380.143 284.667C387.188 283.013 394.762 280.779 401.637 282.211C411.445 284.258 413.731 292.172 419.087 297.766C434.525 313.883 472.788 309.363 502.418 304.315C507.621 303.428 516.167 303.172 520.722 301.296C521.626 300.921 522.206 300.102 523.076 299.642C525.277 298.499 527.921 297.987 530.65 297.885C539.828 297.561 556.613 304.093 560.366 310.489C563.658 316.117 565.586 321.302 571.539 326.111C582.644 335.065 600.658 340.847 619.252 339.909C622.578 339.738 625.905 339.363 629.146 338.749C667.647 331.569 684.774 302.712 713.569 284.292C726.533 276.003 742.329 269.693 758.995 265.088C776.702 260.21 795.859 257.209 814.572 258.232C826.342 258.88 837.601 261.097 848.928 262.99C869.705 266.487 890.994 268.96 912.539 270.409C923.422 271.143 934.391 271.62 945.377 271.808C949.914 271.893 952.456 271.313 956.652 270.375C961.923 269.198 966.069 270.239 971.272 270.239C985.123 270.239 998.412 264.406 1008.8 258.709C1022.68 251.069 1037.85 242.012 1055.56 242.592C1061.63 242.797 1067.36 244.161 1073.33 244.775C1104.96 248.084 1133.7 230.858 1156.24 215.151C1161.61 211.416 1167.05 207.595 1170.58 203.076C1178.05 193.508 1176.3 181.62 1186.41 173.041C1199.85 161.632 1225.8 162.143 1246.51 157.197C1276.69 149.983 1295.65 130.898 1316.48 114.883C1337.31 98.8686 1368.85 83.7748 1398.59 89.6759C1407.49 91.4496 1415.13 94.963 1423.59 97.3848C1433.01 100.08 1443.33 101.393 1453.57 102.689C1482.1 106.288 1511.87 109.886 1540.7 104.94C1586.43 97.1119 1620.98 69.3121 1667.1 62.797C1678.05 61.245 1689.74 60.8698 1699.36 56.9982C1706.94 53.9454 1712.27 49.0846 1718.42 44.872C1749.72 23.4337 1799.43 20.2444 1843.97 19.1699C1837.16 19.3405 1829.43 21.0972 1822.83 22.3251C1815.72 23.6384 1808.71 25.2075 1801.81 27.0153C1788.05 30.631 1774.79 35.1677 1762.38 40.54C1749.96 45.9124 1738.36 52.1034 1727.92 59.0108C1724.03 61.5861 1720.53 64.2808 1718.71 67.6748C1717.07 70.6935 1716.04 73.7464 1713.93 76.6969C1709.08 83.3996 1703.69 89.9488 1698.99 96.7026C1694.23 103.559 1689.65 110.449 1684.88 117.305C1679.54 124.98 1674 132.604 1667.7 139.989C1666.11 141.865 1664.6 143.843 1662.58 145.566C1660.95 146.964 1659.03 148.141 1657.55 149.608C1653.66 153.479 1649.02 156.669 1642.2 158.357C1639.23 159.09 1636.11 159.5 1633.23 160.369C1628.74 161.734 1625.17 164.105 1621.49 166.271C1610.13 172.939 1596.48 177.987 1581.96 180.887C1573.21 182.643 1563.92 183.616 1555.17 182.507C1547.75 181.569 1541.09 179.198 1534 177.595C1515.5 173.434 1494.81 174.747 1474.87 176.111C1471.39 176.35 1467.77 176.606 1464.72 177.8C1461.84 178.925 1459.79 180.733 1457.32 182.2C1451.45 185.662 1443.43 187.027 1435.7 187.726C1420.61 189.073 1405.26 188.289 1391.05 185.423C1379 183.002 1367.85 179.13 1355.67 176.981C1348.62 175.736 1341.1 175.139 1333.66 175.736C1330.03 176.026 1326.41 176.623 1323 177.578C1321.46 178.004 1319.98 178.721 1318.43 179.045C1315.9 179.574 1312.54 179.471 1309.92 179.761C1305.68 180.222 1301.49 180.802 1297.33 181.484C1284.65 183.599 1269.86 186.941 1259.76 192.74C1254.95 195.503 1249.15 196.629 1243.86 198.982C1237.74 201.711 1232.47 205.19 1227.73 208.857C1219.4 215.287 1212.17 222.416 1202.12 227.737C1192.89 232.632 1181.75 235.719 1172.12 240.273C1162.5 244.827 1153.97 251.683 1154.51 259.119C1154.7 261.694 1155.96 264.286 1154.77 266.811C1153.73 268.994 1151.03 270.699 1148.41 272.251C1136.46 279.329 1123.48 285.691 1109.73 291.217C1103.59 293.69 1097.02 296.043 1089.96 296.47C1083.19 296.879 1076.67 295.48 1070.38 294.099C1063.45 292.581 1056.53 291.046 1049.62 289.528C1047.49 289.051 1045.25 288.573 1042.97 288.726C1040.58 288.88 1038.38 289.699 1036.25 290.449C1017.09 297.203 994.062 300.648 974.291 296.163C964.823 294.014 956.618 290.193 947.39 287.72C946.554 287.499 945.701 287.277 944.848 287.089C937.735 285.418 930.092 284.548 922.382 284.514C918.527 284.514 914.654 284.684 910.799 285.094C905.204 285.674 899.967 283.985 894.73 282.842C888.964 281.58 883.267 280.199 877.552 278.869C866.396 276.259 855.069 273.786 843.196 272.592C799.629 268.26 754.645 281.956 718.43 299.846C701.133 308.391 685.115 317.942 669.097 327.493H669.114Z" fill="white" fill-opacity="0.06"/>
</g>
<g style="mix-blend-mode:screen">
<path d="M593.852 243.138C596.547 243.53 599.294 243.718 601.921 243.837C605.435 243.99 609.103 244.127 612.327 242.711C615.551 241.296 618.161 237.816 617.376 234.388C616.796 231.83 614.578 229.988 613.504 227.583C610.791 221.512 616.762 214.502 623.295 213.223C629.829 211.944 636.43 214.383 642.895 216.02C652.295 218.408 665.942 219.124 672.321 210.272C678.155 202.171 692.177 200.841 700.178 206.93C686.514 209.3 678.548 223.047 669.029 233.143C645.608 257.993 607.055 262.836 573.672 255.571C569.288 254.616 564.853 253.439 561.151 250.932C553.679 245.866 550.268 236.111 542.455 231.574C535.836 227.737 527.614 228.538 520.057 229.732C509.395 231.438 494.913 233.638 488.976 221.972C482.648 209.539 497.301 205.105 506.41 202.802C514.104 200.858 521.149 200.721 528.825 200.807C531.35 200.824 533.721 199.647 536.194 199.187C541.346 198.231 546.72 198.675 551.718 200.193C561.714 203.229 570.601 210.801 573.672 220.983C575.105 225.741 575.48 230.943 578.227 235.071C581.638 240.17 587.592 242.234 593.852 243.155V243.138Z" fill="white" fill-opacity="0.06"/>
</g>
<g style="mix-blend-mode:screen">
<path d="M1102.3 153.633C1112.58 146.828 1120.89 135.827 1121.25 123.513C1121.38 118.806 1120.38 114.031 1121.42 109.426C1122.22 105.861 1124.2 102.672 1126.28 99.6703C1130.78 93.087 1135.83 86.6572 1141.82 81.353C1146.72 77.0381 1150.13 70.9494 1148.18 64.2467C1147.23 60.9551 1145.15 57.8681 1145.27 54.44C1145.47 48.4025 1152 44.8039 1157.79 43.0472C1164.24 41.0859 1171.49 39.9432 1177.51 42.9619C1183.53 45.9807 1186.92 54.6788 1182.49 59.7612C1184.57 57.3735 1193.64 57.6976 1196.54 57.7487C1201.25 57.834 1205.94 58.772 1210.48 59.9488C1215.22 61.1768 1217.9 64.7584 1221.64 67.5725C1228.58 72.8084 1237.4 74.6333 1245.74 76.3388C1250.31 77.2769 1254.88 78.1978 1259.47 79.1359C1249.02 82.6663 1237.48 82.9733 1226.84 79.9716C1221.91 78.5901 1217.17 76.4753 1212.12 75.4861C1207.6 74.5992 1202.98 75.0256 1198.42 75.2473C1195.26 75.4008 1192.18 75.7931 1189.07 76.39C1173.81 79.3576 1155.89 82.7516 1146.2 96.191C1137.73 107.976 1138.32 124.025 1132.18 137.175C1128.16 145.787 1121.38 152.797 1114.44 159.312C1106.71 166.544 1098.39 173.485 1088.56 177.408C1076.21 182.337 1062.52 182.132 1049.38 184.144C1036.25 186.157 1022.27 191.427 1015.93 203.11C1018.98 197.482 1025.36 192.229 1030.12 188.05C1035.44 183.377 1041.23 179.215 1047.35 175.634C1057.62 169.63 1067.75 167.055 1078.98 163.866C1087.13 161.546 1095.25 158.323 1102.35 153.633H1102.3Z" fill="white" fill-opacity="0.06"/>
</g>
<g style="mix-blend-mode:screen">
<path d="M1213.35 356.299C1216.93 351.762 1218.14 345.861 1220.41 340.54C1225.08 329.556 1234.19 321.199 1243.03 313.183C1245.74 310.727 1248.59 308.203 1252.1 307.18C1254.94 306.361 1257.94 306.583 1260.87 306.72C1280.76 307.64 1300.87 303.888 1319.09 295.872C1309.45 295.122 1299.63 294.337 1290.71 290.602C1286.24 288.726 1281.94 286.1 1277.09 285.622C1272.81 285.213 1268.57 286.543 1264.47 287.857C1252.5 291.711 1240.52 295.565 1228.55 299.437C1219.47 302.353 1209.56 305.969 1205.02 314.343C1200.26 323.144 1202.89 334.878 1197.04 342.996C1188.78 354.44 1174.97 349.63 1163.67 347.55C1157.86 346.475 1151.94 346.032 1146.03 346.185C1134.42 346.492 1122.85 349.17 1112.33 354.099C1119.47 356.316 1127.32 353.485 1134.66 355.037C1138.66 355.889 1142.28 358.004 1145.93 359.846C1153.3 363.547 1161.2 366.225 1169.35 367.368C1173.87 367.999 1178.48 368.152 1183.03 367.828C1186.97 367.538 1190.23 366.276 1194.02 365.543C1201.2 364.144 1208.55 362.336 1213.33 356.299H1213.35Z" fill="white" fill-opacity="0.06"/>
</g>
</g>
</g>
<defs>
<clipPath id="clip0_602_102695">
<rect width="1728" height="444" fill="white"/>
</clipPath>
</defs>
</svg>
