<svg width="64" height="64" viewBox="0 0 64 64" fill="none" xmlns="http://www.w3.org/2000/svg">
<path d="M53.332 5.33301H58.6654V58.6663H5.33203V37.333H10.6654V53.333H21.332V42.6663H26.6654V53.333H37.332V37.333H42.6654V53.333H53.332V10.6663H26.6654V15.9997H21.332V5.33301H53.332ZM31.9987 31.9997H37.332V37.333H31.9987V31.9997ZM26.6654 26.6663H31.9987V31.9997H26.6654V26.6663ZM21.332 26.6663V21.333H26.6654V26.6663H21.332ZM15.9987 31.9997V26.6663H21.332V31.9997H15.9987ZM15.9987 31.9997H10.6654V37.333H15.9987V31.9997ZM42.6654 15.9997H47.9987V21.333H42.6654V15.9997ZM37.332 15.9997H31.9987V21.333H37.332V15.9997ZM42.6654 26.6663H47.9987V31.9997H42.6654V26.6663Z" fill="#78B4D7"/>
</svg>
