<svg width="24" height="24" viewBox="0 0 24 24" fill="none" xmlns="http://www.w3.org/2000/svg">
<path d="M17.9981 7.16C17.9381 7.15 17.8681 7.15 17.8081 7.16C16.4281 7.11 15.3281 5.98 15.3281 4.58C15.3281 3.15 16.4781 2 17.9081 2C19.3381 2 20.4881 3.16 20.4881 4.58C20.4781 5.98 19.3781 7.11 17.9981 7.16Z" stroke="#78B4D7" stroke-width="1.5" stroke-linecap="round" stroke-linejoin="round"/>
<path d="M16.9675 14.4402C18.3375 14.6702 19.8475 14.4302 20.9075 13.7202C22.3175 12.7802 22.3175 11.2402 20.9075 10.3002C19.8375 9.59016 18.3075 9.35016 16.9375 9.59016" stroke="#78B4D7" stroke-width="1.5" stroke-linecap="round" stroke-linejoin="round"/>
<path d="M5.97047 7.16C6.03047 7.15 6.10047 7.15 6.16047 7.16C7.54047 7.11 8.64047 5.98 8.64047 4.58C8.64047 3.15 7.49047 2 6.06047 2C4.63047 2 3.48047 3.16 3.48047 4.58C3.49047 5.98 4.59047 7.11 5.97047 7.16Z" stroke="#78B4D7" stroke-width="1.5" stroke-linecap="round" stroke-linejoin="round"/>
<path d="M7.0014 14.4402C5.6314 14.6702 4.12141 14.4302 3.06141 13.7202C1.65141 12.7802 1.65141 11.2402 3.06141 10.3002C4.13141 9.59016 5.6614 9.35016 7.0314 9.59016" stroke="#78B4D7" stroke-width="1.5" stroke-linecap="round" stroke-linejoin="round"/>
<path d="M11.9981 14.6302C11.9381 14.6202 11.8681 14.6202 11.8081 14.6302C10.4281 14.5802 9.32812 13.4502 9.32812 12.0502C9.32812 10.6202 10.4781 9.47021 11.9081 9.47021C13.3381 9.47021 14.4881 10.6302 14.4881 12.0502C14.4781 13.4502 13.3781 14.5902 11.9981 14.6302Z" stroke="#78B4D7" stroke-width="1.5" stroke-linecap="round" stroke-linejoin="round"/>
<path d="M9.08875 17.7804C7.67875 18.7204 7.67875 20.2603 9.08875 21.2003C10.6888 22.2703 13.3087 22.2703 14.9087 21.2003C16.3187 20.2603 16.3187 18.7204 14.9087 17.7804C13.3187 16.7204 10.6888 16.7204 9.08875 17.7804Z" stroke="#78B4D7" stroke-width="1.5" stroke-linecap="round" stroke-linejoin="round"/>
</svg>
