<svg width="40" height="64" viewBox="0 0 40 64" fill="none" xmlns="http://www.w3.org/2000/svg">
<path d="M0 39.3434V44.2748C0 45.1056 17.8374 46.4981 29.4577 49.2061C35.0728 47.8982 39.2362 46.2827 39.2362 44.2748V39.3434C39.2362 37.3381 35.0728 35.7225 29.4577 34.4121C17.8374 37.1201 0 38.5126 0 39.3434Z" fill="#78B4D7" fill-opacity="0.25"/>
<path d="M0 19.7261V24.6557C0 25.4867 17.8374 26.8794 29.4577 29.5879C35.0728 28.2798 39.2362 26.664 39.2362 24.6557V19.7261C39.2362 17.7204 35.0728 16.1046 29.4577 14.7939C17.8374 17.5024 0 18.8951 0 19.7261Z" fill="#78B4D7" fill-opacity="0.25"/>
<path d="M0 29.5232V44.382C0 43.1429 39.2362 40.6673 39.2362 34.477V19.6182C39.2362 25.8085 0 28.2841 0 29.5232Z" fill="#78B4D7"/>
<path d="M0 9.77638V24.4422C0 23.2192 39.2362 20.7758 39.2362 14.6658V0C39.2362 6.10992 0 8.55338 0 9.77638Z" fill="#78B4D7"/>
<path d="M0 49.1413V64.0001C0 62.7611 39.2362 60.2854 39.2362 54.0951V39.2363C39.2362 45.4266 0 47.9022 0 49.1413Z" fill="#78B4D7"/>
</svg>
