<svg width="108" height="64" viewBox="0 0 108 64" fill="none" xmlns="http://www.w3.org/2000/svg">
<g clip-path="url(#clip0_1144_1437)">
<path d="M30.1601 23.2437C30.1601 24.5606 30.3025 25.6285 30.5517 26.4115C30.8365 27.1947 31.1923 28.049 31.6907 28.9744C31.8686 29.2592 31.9398 29.544 31.9398 29.7931C31.9398 30.1491 31.7262 30.505 31.2635 30.861L29.0211 32.356C28.7006 32.5696 28.3803 32.6763 28.0955 32.6763C27.7396 32.6763 27.3837 32.4984 27.0277 32.1779C26.5294 31.644 26.1022 31.0746 25.7462 30.505C25.3904 29.8998 25.0344 29.2235 24.6429 28.405C21.8664 31.6797 18.3781 33.317 14.1779 33.317C11.1879 33.317 8.80301 32.4627 7.05885 30.7542C5.31469 29.0456 4.4248 26.7675 4.4248 23.9198C4.4248 20.8944 5.49266 18.4382 7.66397 16.5874C9.83527 14.7364 12.7185 13.8109 16.3848 13.8109C17.595 13.8109 18.8408 13.9177 20.1579 14.0957C21.4749 14.2736 22.8275 14.5584 24.2513 14.8788V12.2803C24.2513 9.57509 23.6817 7.68854 22.5784 6.58509C21.4393 5.48165 19.5171 4.94771 16.7763 4.94771C15.5305 4.94771 14.2491 5.0901 12.932 5.41045C11.615 5.73082 10.3336 6.12235 9.08776 6.62069C8.51824 6.86986 8.09111 7.01224 7.84194 7.08342C7.59277 7.15461 7.4148 7.19021 7.27242 7.19021C6.77408 7.19021 6.52492 6.83426 6.52492 6.08677V4.34261C6.52492 3.77309 6.59612 3.34594 6.77408 3.09677C6.95207 2.84762 7.27242 2.59845 7.77076 2.34928C9.01658 1.70856 10.5116 1.17464 12.2557 0.747498C13.9999 0.284762 15.8508 0.0711902 17.8086 0.0711902C22.0445 0.0711902 25.1411 1.03226 27.1345 2.9544C29.0923 4.87653 30.0889 7.79533 30.0889 11.7108V23.2437H30.1601ZM15.7085 28.6541C16.8832 28.6541 18.0934 28.4405 19.3747 28.0133C20.6561 27.5862 21.7952 26.803 22.7563 25.7352C23.3259 25.0589 23.7529 24.3115 23.9665 23.4571C24.1801 22.6029 24.3225 21.5706 24.3225 20.3605V18.8654C23.2902 18.6162 22.1867 18.4027 21.0477 18.2603C19.9086 18.1179 18.8053 18.0467 17.7017 18.0467C15.3169 18.0467 13.5728 18.5094 12.3981 19.4706C11.2235 20.4315 10.654 21.7842 10.654 23.564C10.654 25.237 11.0811 26.4827 11.971 27.3371C12.8253 28.2269 14.0711 28.6541 15.7085 28.6541ZM44.2913 32.4984C43.6507 32.4984 43.2235 32.3915 42.9387 32.1424C42.6539 31.9288 42.4048 31.4304 42.1912 30.7542L33.8264 3.23915C33.6128 2.52725 33.5061 2.06451 33.5061 1.81534C33.5061 1.24583 33.7909 0.925472 34.3603 0.925472H37.8486C38.5249 0.925472 38.9877 1.03226 39.2368 1.28142C39.5216 1.49499 39.7352 1.99333 39.9488 2.66963L45.9288 26.2336L51.4816 2.66963C51.6595 1.95773 51.8731 1.49499 52.1579 1.28142C52.4425 1.06785 52.9409 0.925472 53.5816 0.925472H56.4292C57.1056 0.925472 57.5683 1.03226 57.8531 1.28142C58.1379 1.49499 58.387 1.99333 58.5294 2.66963L64.1534 26.5184L70.3113 2.66963C70.5249 1.95773 70.774 1.49499 71.0233 1.28142C71.308 1.06785 71.7707 0.925472 72.4115 0.925472H75.7217C76.2913 0.925472 76.6116 1.21023 76.6116 1.81534C76.6116 1.99333 76.5761 2.1713 76.5404 2.38488C76.5049 2.59845 76.4337 2.8832 76.2913 3.27475L67.7129 30.7898C67.4993 31.5016 67.2502 31.9645 66.9654 32.1779C66.6806 32.3915 66.2179 32.5339 65.6128 32.5339H62.5516C61.8753 32.5339 61.4126 32.4272 61.1278 32.1779C60.843 31.9288 60.5939 31.4661 60.4515 30.7542L54.9342 7.79533L49.4526 30.7186C49.2747 31.4304 49.0611 31.8933 48.7763 32.1424C48.4915 32.3915 47.9933 32.4984 47.3525 32.4984H44.2913ZM90.031 33.4594C88.1801 33.4594 86.3291 33.2458 84.5494 32.8187C82.7696 32.3915 81.3814 31.9288 80.456 31.3949C79.8864 31.0746 79.4948 30.7186 79.3524 30.3982C79.21 30.0779 79.139 29.7219 79.139 29.4016V27.5862C79.139 26.8387 79.4236 26.4827 79.9576 26.4827C80.1712 26.4827 80.3848 26.5184 80.5984 26.5896C80.812 26.6608 81.1323 26.803 81.4883 26.9454C82.6985 27.4794 84.0155 27.9066 85.4036 28.1914C86.8275 28.4762 88.2156 28.6184 89.6395 28.6184C91.882 28.6184 93.6262 28.2269 94.8364 27.4438C96.0467 26.6608 96.6873 25.5218 96.6873 24.0622C96.6873 23.0656 96.367 22.2469 95.7262 21.5706C95.0856 20.8944 93.8753 20.2893 92.1312 19.7197L86.9699 18.1179C84.3715 17.2992 82.4492 16.089 81.2747 14.4872C80.1 12.921 79.4948 11.1769 79.4948 9.32592C79.4948 7.83093 79.8152 6.5139 80.456 5.37486C81.0966 4.23582 81.951 3.23915 83.0188 2.45606C84.0867 1.63738 85.2969 1.03226 86.7208 0.605117C88.1444 0.177976 89.6395 0 91.2057 0C91.9888 0 92.8075 0.035595 93.5905 0.14238C94.4092 0.249166 95.1568 0.391546 95.9043 0.533926C96.6161 0.711902 97.2924 0.889877 97.9331 1.10345C98.5739 1.31702 99.0721 1.53059 99.4281 1.74416C99.9265 2.02893 100.282 2.31368 100.496 2.63403C100.71 2.9188 100.816 3.31035 100.816 3.80867V5.48165C100.816 6.22914 100.532 6.62069 99.9977 6.62069C99.7129 6.62069 99.2502 6.4783 98.6451 6.19355C96.6161 5.26808 94.338 4.80534 91.8108 4.80534C89.7819 4.80534 88.1801 5.1257 87.0766 5.802C85.9732 6.4783 85.4036 7.51056 85.4036 8.96997C85.4036 9.96662 85.7596 10.8209 86.4715 11.4972C87.1835 12.1735 88.5004 12.8498 90.387 13.4549L95.4416 15.0567C98.0043 15.8754 99.8553 17.0144 100.959 18.4739C102.062 19.9333 102.596 21.6062 102.596 23.4571C102.596 24.9878 102.276 26.376 101.671 27.5862C101.03 28.7965 100.176 29.8643 99.0721 30.7186C97.9688 31.6085 96.6516 32.2491 95.1211 32.7118C93.5193 33.2102 91.8464 33.4594 90.031 33.4594Z" fill="white"/>
<path fill-rule="evenodd" clip-rule="evenodd" d="M96.7589 50.7581C85.0482 59.4077 68.0336 63.9996 53.404 63.9996C32.9013 63.9996 14.4274 56.4178 0.474133 43.8172C-0.629315 42.8205 0.367347 41.4679 1.68437 42.2509C16.7766 51.0074 35.393 56.3111 54.6499 56.3111C67.6421 56.3111 81.9157 53.6058 95.0504 48.053C97.008 47.1631 98.681 49.3345 96.7589 50.7581Z" fill="white"/>
<path fill-rule="evenodd" clip-rule="evenodd" d="M101.634 45.2058C100.139 43.2837 91.7384 44.2804 87.9297 44.7431C86.7907 44.8855 86.6126 43.8888 87.6449 43.1413C94.3368 38.4428 105.336 39.7954 106.617 41.3616C107.899 42.9634 106.261 53.9623 99.9965 59.2303C99.0353 60.049 98.1099 59.6218 98.5371 58.554C99.9608 55.0301 103.129 47.0924 101.634 45.2058Z" fill="white"/>
</g>
<defs>
<clipPath id="clip0_1144_1437">
<rect width="107.2" height="64" fill="white"/>
</clipPath>
</defs>
</svg>
