<svg width="67" height="40" viewBox="0 0 67 40" fill="none" xmlns="http://www.w3.org/2000/svg">
<path d="M18.8502 14.5273C18.8502 15.3504 18.9392 16.0178 19.0949 16.5072C19.2729 16.9967 19.4953 17.5306 19.8068 18.109C19.918 18.287 19.9625 18.465 19.9625 18.6207C19.9625 18.8432 19.829 19.0656 19.5398 19.2881L18.1383 20.2225C17.938 20.356 17.7378 20.4227 17.5598 20.4227C17.3374 20.4227 17.1149 20.3115 16.8924 20.1112C16.581 19.7775 16.314 19.4216 16.0915 19.0656C15.8691 18.6874 15.6466 18.2647 15.4019 17.7531C13.6666 19.7998 11.4864 20.8231 8.86129 20.8231C6.99254 20.8231 5.502 20.2892 4.4119 19.2214C3.3218 18.1535 2.76562 16.7297 2.76562 14.9499C2.76562 13.059 3.43303 11.5239 4.7901 10.3671C6.14716 9.21023 7.94916 8.63181 10.2406 8.63181C10.997 8.63181 11.7756 8.69855 12.5988 8.80979C13.4219 8.92102 14.2673 9.099 15.1572 9.29922V7.67519C15.1572 5.98443 14.8012 4.80534 14.1116 4.11568C13.3997 3.42603 12.1983 3.09232 10.4853 3.09232C9.70667 3.09232 8.90578 3.18131 8.08264 3.38153C7.25951 3.58176 6.45862 3.82647 5.67997 4.13793C5.32402 4.29366 5.05706 4.38265 4.90133 4.42714C4.7456 4.47163 4.63437 4.49388 4.54538 4.49388C4.23392 4.49388 4.07819 4.27141 4.07819 3.80423V2.71413C4.07819 2.35818 4.12269 2.09121 4.23392 1.93548C4.34516 1.77976 4.54538 1.62403 4.85684 1.4683C5.63548 1.06785 6.56985 0.734149 7.65995 0.467186C8.75005 0.177976 9.90689 0.0444939 11.1305 0.0444939C13.7779 0.0444939 15.7133 0.645161 16.9592 1.8465C18.1828 3.04783 18.8057 4.87208 18.8057 7.31924V14.5273H18.8502ZM9.81791 17.9088C10.5521 17.9088 11.3085 17.7753 12.1093 17.5083C12.9102 17.2414 13.6221 16.7519 14.2228 16.0845C14.5788 15.6618 14.8457 15.1947 14.9792 14.6607C15.1127 14.1268 15.2017 13.4816 15.2017 12.7253V11.7909C14.5565 11.6351 13.8668 11.5017 13.1549 11.4127C12.443 11.3237 11.7534 11.2792 11.0637 11.2792C9.57319 11.2792 8.48309 11.5684 7.74894 12.1691C7.01479 12.7697 6.65884 13.6151 6.65884 14.7275C6.65884 15.7731 6.9258 16.5517 7.48198 17.0857C8.0159 17.6418 8.79455 17.9088 9.81791 17.9088ZM27.6822 20.3115C27.2818 20.3115 27.0148 20.2447 26.8368 20.089C26.6588 19.9555 26.5031 19.644 26.3696 19.2214L21.1416 2.02447C21.0081 1.57953 20.9414 1.29032 20.9414 1.13459C20.9414 0.778643 21.1194 0.57842 21.4753 0.57842H23.6555C24.0782 0.57842 24.3674 0.645161 24.5231 0.80089C24.7011 0.934371 24.8346 1.24583 24.9681 1.66852L28.7056 16.396L32.1761 1.66852C32.2873 1.22358 32.4208 0.934371 32.5988 0.80089C32.7767 0.667408 33.0882 0.57842 33.4886 0.57842H35.2684C35.6911 0.57842 35.9803 0.645161 36.1583 0.80089C36.3363 0.934371 36.492 1.24583 36.581 1.66852L40.096 16.574L43.9447 1.66852C44.0782 1.22358 44.2339 0.934371 44.3897 0.80089C44.5676 0.667408 44.8568 0.57842 45.2573 0.57842H47.3262C47.6822 0.57842 47.8824 0.756396 47.8824 1.13459C47.8824 1.24583 47.8602 1.35706 47.8379 1.49055C47.8157 1.62403 47.7712 1.802 47.6822 2.04672L42.3207 19.2436C42.1872 19.6885 42.0315 19.9778 41.8535 20.1112C41.6755 20.2447 41.3863 20.3337 41.0081 20.3337H39.0949C38.6722 20.3337 38.383 20.267 38.205 20.1112C38.027 19.9555 37.8713 19.6663 37.7823 19.2214L34.334 4.87208L30.908 19.1991C30.7968 19.644 30.6633 19.9333 30.4853 20.089C30.3073 20.2447 29.9959 20.3115 29.5954 20.3115H27.6822ZM56.2695 20.9121C55.1127 20.9121 53.9558 20.7786 52.8435 20.5117C51.7311 20.2447 50.8635 19.9555 50.2851 19.6218C49.9291 19.4216 49.6844 19.1991 49.5954 18.9989C49.5064 18.7987 49.462 18.5762 49.462 18.376V17.2414C49.462 16.7742 49.6399 16.5517 49.9736 16.5517C50.1071 16.5517 50.2406 16.574 50.3741 16.6185C50.5076 16.663 50.7078 16.7519 50.9303 16.8409C51.6867 17.1746 52.5098 17.4416 53.3774 17.6196C54.2673 17.7976 55.1349 17.8865 56.0248 17.8865C57.4264 17.8865 58.5165 17.6418 59.2729 17.1524C60.0293 16.663 60.4297 15.9511 60.4297 15.0389C60.4297 14.416 60.2295 13.9043 59.829 13.4816C59.4286 13.059 58.6722 12.6808 57.5821 12.3248L54.3563 11.3237C52.7323 10.812 51.5309 10.0556 50.7968 9.0545C50.0626 8.07564 49.6844 6.98554 49.6844 5.8287C49.6844 4.89433 49.8846 4.07119 50.2851 3.35929C50.6855 2.64739 51.2195 2.02447 51.8869 1.53504C52.5543 1.02336 53.3107 0.645161 54.2006 0.378198C55.0904 0.111235 56.0248 0 57.0037 0C57.4931 0 58.0048 0.0222469 58.4942 0.0889878C59.0059 0.155729 59.4731 0.244716 59.9403 0.333704C60.3852 0.444939 60.8079 0.556173 61.2083 0.689655C61.6088 0.823137 61.9202 0.956618 62.1427 1.0901C62.4542 1.26808 62.6766 1.44605 62.8101 1.64627C62.9436 1.82425 63.0103 2.06897 63.0103 2.38042V3.42603C63.0103 3.89321 62.8324 4.13793 62.4987 4.13793C62.3207 4.13793 62.0315 4.04894 61.6533 3.87097C60.3852 3.29255 58.9614 3.00334 57.3819 3.00334C56.1138 3.00334 55.1127 3.20356 54.423 3.62625C53.7334 4.04894 53.3774 4.6941 53.3774 5.60623C53.3774 6.22914 53.5999 6.76307 54.0448 7.18576C54.4898 7.60845 55.3129 8.03115 56.492 8.40934L59.6511 9.41046C61.2528 9.92214 62.4097 10.634 63.0993 11.5462C63.789 12.4583 64.1227 13.5039 64.1227 14.6607C64.1227 15.6174 63.9225 16.485 63.5443 17.2414C63.1438 17.9978 62.6099 18.6652 61.9202 19.1991C61.2306 19.7553 60.4074 20.1557 59.4508 20.4449C58.4497 20.7564 57.4041 20.9121 56.2695 20.9121Z" fill="white"/>
<path fill-rule="evenodd" clip-rule="evenodd" d="M60.4743 31.7239C53.1551 37.1299 42.521 39.9998 33.3775 39.9998C20.5633 39.9998 9.01713 35.2612 0.296333 27.3858C-0.393322 26.7629 0.229592 25.9175 1.05273 26.4069C10.4854 31.8797 22.1206 35.1945 34.1562 35.1945C42.2763 35.1945 51.1973 33.5037 59.4065 30.0332C60.63 29.477 61.6756 30.8341 60.4743 31.7239Z" fill="white"/>
<path fill-rule="evenodd" clip-rule="evenodd" d="M63.5213 28.2535C62.5869 27.0522 57.3366 27.6751 54.9562 27.9643C54.2443 28.0533 54.133 27.4304 54.7782 26.9632C58.9606 24.0266 65.8349 24.872 66.6358 25.8509C67.4367 26.852 66.4134 33.7263 62.4979 37.0188C61.8972 37.5305 61.3188 37.2635 61.5858 36.5961C62.4756 34.3937 64.4556 29.4326 63.5213 28.2535Z" fill="white"/>
</svg>
