<svg width="97" height="40" viewBox="0 0 97 40" fill="none" xmlns="http://www.w3.org/2000/svg">
<path d="M42.8289 33.5391L42.6579 33.7528L47.3819 33.8811L42.4014 34.0948L42.1448 34.4155L47.3819 34.6506L41.8028 34.8644L41.5677 35.1636L47.3819 35.3988L41.2043 35.6553L40.9906 35.9332L47.3819 36.1683L40.6058 36.4248L40.392 36.6813L47.3819 36.9378L40.0073 37.1943L39.8149 37.4295L47.3819 37.686L39.4087 37.9639L39.2377 38.1776L47.3819 38.4555L38.853 38.6693L38.7033 38.8616L47.3819 39.2037L38.3613 39.3105L38.1689 39.567H53.4313V33.5391H42.8289Z" fill="white"/>
<path d="M42.4876 31.9573L52.3418 18.9395H52.1922L41.9318 31.4229L51.3586 18.9395H51.1876L41.3119 30.9527L50.3967 18.9395H50.2043L40.7134 30.461L49.4347 18.9395H49.1996L40.1149 29.9907L48.4515 18.9395H48.1949L39.495 29.5205L47.4895 18.9395H47.1903L38.8965 29.0288L46.5276 18.9395H46.207L38.2979 28.5586L45.5657 18.9395H45.2023L37.678 28.0883L44.6038 18.9395H44.3687L31.5859 35.1637V39.5671H37.1009L53.4534 18.9395H53.1969L42.4876 31.9573Z" fill="white"/>
<path d="M28.9561 39.5447C27.8873 39.8868 27.0109 39.9723 25.4505 39.9723C22.4792 39.9723 20.192 38.5828 19.2515 35.5475H19.1873C18.2896 37.2362 16.0023 39.9723 10.1881 39.9723C4.13877 39.9936 0.889648 37.0224 0.889648 32.4907C0.889648 25.7787 7.77266 23.8121 15.2542 23.8121H18.7812V22.5723C18.7812 19.7294 17.0498 17.8269 13.5869 17.8269C10.6798 17.8269 8.84145 19.2805 8.56356 21.6318H1.61643C2.06532 15.4328 6.87488 12.0127 13.9716 12.0127C21.9662 12.0127 26.22 16.2024 26.22 23.1495V31.9777C26.22 33.0892 26.733 33.645 27.5025 33.645C27.9728 33.645 28.4644 33.5595 28.892 33.3671L28.9561 39.5447ZM18.7812 29.7546V28.0232H14.8267C10.7439 28.0232 8.34981 29.1988 8.34981 31.5929C8.34981 33.3885 9.69648 34.3932 12.3257 34.3932C16.323 34.3932 18.7812 31.935 18.7812 29.7546Z" fill="white"/>
<path d="M96.8673 39.4597C95.713 39.8445 94.4946 40.0155 93.2761 39.9941C88.8086 39.9941 86.5 37.3008 86.5 32.4485V0H94.1739V31.9996C94.1739 33.0684 94.7297 33.6669 95.5206 33.6669C95.9909 33.6669 96.4398 33.5814 96.8673 33.389V39.4597Z" fill="white"/>
<path d="M84.5333 33.3886C84.1058 33.5809 83.6569 33.6664 83.1867 33.6664C82.3958 33.6664 81.84 33.0465 81.84 31.9991V12.312H74.1233V27.6385C74.1233 31.0586 71.943 33.3458 69.1 33.3458C66.0219 33.3458 64.3973 31.3365 64.3973 28.1515V12.3334H56.6807V29.9257C56.6807 35.5689 59.8657 39.9937 66.1288 39.9937C69.5062 39.9937 72.6698 38.305 74.5508 35.5048C75.3631 38.4333 77.5221 39.9937 80.9422 39.9937C82.1606 40.0364 83.3791 39.8441 84.5333 39.4593V33.3886Z" fill="white"/>
<path d="M31.5859 12.1631V12.27L44.9031 12.5479L31.5859 12.8257V13.0395L44.9031 13.296L31.5859 13.5739V13.7876L44.9031 14.0655L31.5859 14.3434V14.5572L44.9031 14.8351L31.5859 15.1129V15.3267L44.9031 15.5832L31.5859 15.8611V16.0749L44.9031 16.3527L31.5859 16.6306V16.8444L44.9031 17.1223L31.5859 17.3788V17.6139L44.9031 17.8704L31.5859 18.1483V18.2552H53.4748V12.1631H31.5859Z" fill="white"/>
</svg>
