<svg width="136" height="56" viewBox="0 0 136 56" fill="none" xmlns="http://www.w3.org/2000/svg">
<g clip-path="url(#clip0_1144_1430)">
<path d="M59.9605 46.9546L59.7211 47.2538L66.3347 47.4334L59.362 47.7326L59.0028 48.1815L66.3347 48.5107L58.524 48.81L58.1948 49.2289L66.3347 49.5582L57.6861 49.9173L57.3869 50.3063L66.3347 50.6355L56.8482 50.9946L56.5489 51.3537L66.3347 51.7128L56.0103 52.0719L55.7409 52.4011L66.3347 52.7602L55.1722 53.1493L54.9328 53.4485L66.3347 53.8376L54.3943 54.1369L54.1847 54.4061L66.3347 54.885L53.7059 55.0346L53.4365 55.3937H74.8039V46.9546H59.9605Z" fill="white"/>
<path d="M59.4831 44.7401L73.279 26.5151H73.0695L58.705 43.9919L71.9025 26.5151H71.6631L57.8371 43.3336L70.5558 26.5151H70.2865L56.9992 42.6452L69.209 26.5151H68.8799L56.1613 41.9868L67.8325 26.5151H67.4733L55.2934 41.3285L66.4857 26.5151H66.0669L54.4555 40.6402L65.1391 26.5151H64.6902L53.6175 39.9819L63.7924 26.5151H63.2837L52.7496 39.3235L62.4458 26.5151H62.1166L44.2207 49.229V55.3938H51.9417L74.8352 26.5151H74.4761L59.4831 44.7401Z" fill="white"/>
<path d="M40.5381 55.3627C39.0418 55.8416 37.8149 55.9613 35.6303 55.9613C31.4705 55.9613 28.2684 54.016 26.9517 49.7666H26.8618C25.605 52.1308 22.4028 55.9613 14.2629 55.9613C5.79389 55.9911 1.24512 51.8315 1.24512 45.4871C1.24512 36.0903 10.8813 33.337 21.3555 33.337H26.2933V31.6013C26.2933 27.6213 23.8693 24.9578 19.0213 24.9578C14.9513 24.9578 12.3776 26.9928 11.9886 30.2846H2.26261C2.89106 21.606 9.62444 16.8179 19.5598 16.8179C30.7523 16.8179 36.7076 22.6835 36.7076 32.4094V44.7689C36.7076 46.325 37.4258 47.1031 38.5031 47.1031C39.1615 47.1031 39.8498 46.9834 40.4484 46.714L40.5381 55.3627ZM26.2933 41.6565V39.2326H20.757C15.0411 39.2326 11.6893 40.8784 11.6893 44.2302C11.6893 46.744 13.5747 48.1506 17.2556 48.1506C22.8518 48.1506 26.2933 44.7091 26.2933 41.6565Z" fill="white"/>
<path d="M135.614 55.2436C133.998 55.7823 132.292 56.0217 130.586 55.9917C124.332 55.9917 121.1 52.2211 121.1 45.4279V0H131.843V44.7994C131.843 46.2958 132.621 47.1337 133.728 47.1337C134.387 47.1337 135.015 47.014 135.614 46.7446V55.2436Z" fill="white"/>
<path d="M118.346 46.7441C117.748 47.0133 117.119 47.133 116.461 47.133C115.354 47.133 114.576 46.2651 114.576 44.7988V17.2368H103.772V38.6939C103.772 43.4821 100.72 46.6841 96.7396 46.6841C92.4302 46.6841 90.1558 43.8711 90.1558 39.4121V17.2668H79.3525V41.896C79.3525 49.7965 83.8115 55.9912 92.5799 55.9912C97.3082 55.9912 101.737 53.627 104.371 49.7067C105.508 53.8066 108.531 55.9912 113.319 55.9912C115.024 56.051 116.73 55.7818 118.346 55.243V46.7441Z" fill="white"/>
<path d="M44.2207 17.0283V17.178L62.8648 17.567L44.2207 17.956V18.2553L62.8648 18.6144L44.2207 19.0034V19.3026L62.8648 19.6917L44.2207 20.0807V20.3801L62.8648 20.7691L44.2207 21.158V21.4574L62.8648 21.8165L44.2207 22.2055V22.5048L62.8648 22.8938L44.2207 23.2828V23.5821L62.8648 23.9712L44.2207 24.3303V24.6594L62.8648 25.0185L44.2207 25.4076V25.5573H74.8652V17.0283H44.2207Z" fill="white"/>
</g>
<defs>
<clipPath id="clip0_1144_1430">
<rect width="135.8" height="56" fill="white"/>
</clipPath>
</defs>
</svg>
