<svg xmlns="http://www.w3.org/2000/svg" id="Calque_1" viewBox="80 13.04 100 13.92"><defs><style>.cls-1{fill:#fff;}</style></defs><polygon class="cls-1" points="86.34 19.68 93.94 19.68 93.94 13.04 86.34 14.08 86.34 19.68"></polygon><polygon class="cls-1" points="85.71 14.17 80 14.95 80 19.68 85.71 19.68 85.71 14.17"></polygon><polygon class="cls-1" points="86.34 25.92 93.94 26.96 93.94 20.38 86.34 20.38 86.34 25.92"></polygon><rect class="cls-1" x="85.71" y="20.38" width="0" height="0"></rect><polygon class="cls-1" points="80 25.05 85.71 25.83 85.71 20.38 80 20.38 80 25.05"></polygon><path class="cls-1" d="m102.89,21.46c-.09.2-.2.51-.34.92h-.03c-.05-.2-.15-.5-.31-.9l-2.11-5.25h-1.87v7.89h1.23v-5.09c0-.71-.01-1.23-.04-1.55h.02c.07.35.15.61.21.79l2.4,5.85h.92l2.39-5.9c.06-.15.14-.4.22-.74h.02c-.05.61-.08,1.12-.08,1.53v5.1h1.32v-7.89s-1.81,0-1.81,0l-2.15,5.23Z"></path><path class="cls-1" d="m153.44,16.23l-3,7.89h1.45l.69-2.01h3.15l.72,2.01h1.46l-2.98-7.89h-1.5Zm-.51,4.81l1.1-3.15c.04-.12.08-.29.11-.49h.02c.04.23.07.39.11.49l1.11,3.15h-2.45Z"></path><polygon class="cls-1" points="158.51 19.48 161.36 19.48 158.2 23.64 158.2 24.12 163.1 24.12 163.1 23.12 160.02 23.12 163.11 19.02 163.11 18.48 158.51 18.48 158.51 19.48"></polygon><polygon class="cls-1" points="108.66 24.12 109.96 24.12 109.96 24.12 109.96 18.48 108.66 18.48 108.66 24.12"></polygon><path class="cls-1" d="m180,21.16c0-.88-.21-1.57-.64-2.06-.43-.49-1.03-.74-1.82-.74s-1.44.28-1.97.83c-.53.55-.79,1.27-.79,2.14,0,.93.24,1.65.72,2.16s1.14.77,1.98.77,1.55-.16,2.07-.48v-1.03c-.51.36-1.07.54-1.68.54-.54,0-.97-.14-1.28-.42-.31-.28-.47-.68-.49-1.2h3.9v-.49Zm-1.25-.41h-2.65c.06-.43.22-.78.48-1.05.26-.27.58-.4.95-.4s.68.13.9.38c.22.25.32.61.33,1.07h0Z"></path><path class="cls-1" d="m167.91,21.72c0,.45-.12.82-.37,1.09s-.56.42-.95.42c-.79,0-1.19-.51-1.19-1.52v-3.23h-1.3v3.37c0,1.6.68,2.4,2.03,2.4.79,0,1.38-.34,1.76-1.02h.02v.89h1.3v-5.63s-1.3,0-1.3,0v3.24Z"></path><path class="cls-1" d="m109.32,15.85c-.21,0-.39.07-.55.21-.15.14-.23.31-.23.52s.08.38.23.52c.15.14.33.2.55.2s.41-.07.56-.21c.15-.14.23-.31.23-.51,0-.21-.08-.38-.23-.52-.15-.14-.34-.21-.56-.21Z"></path><path class="cls-1" d="m173.68,18.39c-.32,0-.62.11-.88.33-.26.22-.46.53-.58.93h-.02v-1.16h-1.3v5.63h1.3v-2.7c0-.59.13-1.05.39-1.39.26-.34.58-.51.96-.51.29,0,.52.06.68.18h0v-1.21c-.12-.07-.3-.1-.54-.1Z"></path><path class="cls-1" d="m131.43,21.5c-.14-.13-.3-.25-.5-.35-.22-.11-.44-.21-.66-.3-.19-.06-.35-.12-.5-.17-.14-.05-.27-.11-.37-.18-.1-.06-.18-.14-.23-.22-.05-.08-.08-.19-.08-.31,0-.1.03-.19.08-.27.05-.08.12-.15.22-.21.09-.06.21-.1.34-.14.13-.03.28-.05.44-.05.52,0,.98.14,1.39.41v-1.12c-.42-.16-.89-.24-1.42-.24-.29,0-.58.04-.87.11-.28.07-.53.18-.75.32-.22.14-.39.31-.53.52-.13.21-.2.45-.2.72,0,.22.03.41.09.58.06.17.16.32.28.44.12.13.28.25.47.35.21.11.42.21.63.29.19.07.36.13.52.19.15.06.29.12.4.19.11.07.2.15.27.24.07.09.1.2.1.33,0,.45-.39.68-1.17.68-.58,0-1.12-.18-1.6-.54v1.18c.46.21,1,.31,1.63.31.32,0,.63-.03.93-.1.29-.07.55-.17.77-.31.22-.14.4-.31.54-.53.13-.21.2-.46.2-.75,0-.23-.04-.44-.11-.61-.07-.17-.18-.32-.32-.45Z"></path><path class="cls-1" d="m135.77,18.35c-.93,0-1.67.27-2.22.8-.55.53-.83,1.27-.83,2.22,0,.87.26,1.57.79,2.09.53.53,1.23.79,2.12.79s1.63-.27,2.17-.81c.54-.54.81-1.26.81-2.16s-.25-1.63-.75-2.15c-.5-.52-1.2-.78-2.09-.78Zm1.1,4.38c-.27.33-.67.5-1.18.5s-.9-.17-1.2-.51c-.3-.34-.45-.8-.45-1.39s.15-1.09.44-1.44c.29-.35.7-.52,1.2-.52s.9.17,1.18.51c.27.34.41.82.41,1.44s-.14,1.09-.41,1.42Z"></path><path class="cls-1" d="m140.93,16.17c-.4.34-.59.81-.59,1.41v.91h-.98v1h.98v4.63h1.3v-4.63h1.33v-1h-1.33v-.76c0-.7.31-1.05.95-1.05.22,0,.42.05.6.15v-1.06c-.19-.07-.44-.1-.76-.1-.59,0-1.09.17-1.48.51Z"></path><path class="cls-1" d="m145.55,16.82l-1.3.36v1.3h-.96v1h.96v3.18c0,1.05.56,1.57,1.67,1.57.41,0,.75-.06,1-.19v-1.01c-.16.13-.35.19-.57.19-.29,0-.49-.07-.62-.21-.12-.14-.18-.38-.18-.71v-2.82h1.37v-1h-1.37v-1.67Z"></path><path class="cls-1" d="m119.84,18.39c-.32,0-.62.11-.88.33-.26.22-.46.53-.58.93h-.02v-1.16h-1.3v5.63h1.3v-2.7c0-.59.13-1.05.39-1.39.26-.34.58-.51.96-.51.29,0,.52.06.68.18v-1.21c-.12-.07-.3-.1-.54-.1Z"></path><path class="cls-1" d="m123.98,18.35c-.93,0-1.67.27-2.22.8-.55.53-.83,1.27-.83,2.22,0,.87.26,1.57.79,2.09.53.53,1.23.79,2.12.79s1.63-.27,2.17-.81c.54-.54.81-1.26.81-2.16s-.25-1.63-.75-2.15c-.5-.52-1.2-.78-2.09-.78Zm1.1,4.38c-.27.33-.67.5-1.18.5s-.9-.17-1.2-.51c-.3-.34-.45-.8-.45-1.39s.15-1.09.44-1.44c.29-.35.7-.52,1.2-.52s.9.17,1.18.51c.27.34.41.82.41,1.44s-.14,1.09-.41,1.42Z"></path><path class="cls-1" d="m112.13,19.2c-.56.56-.84,1.31-.84,2.24,0,.83.26,1.51.78,2.03.52.52,1.21.78,2.06.78.63,0,1.17-.13,1.63-.39v-1.11c-.41.33-.85.49-1.32.49-.56,0-1-.17-1.33-.51-.33-.34-.49-.8-.49-1.38s.18-1.07.53-1.43c.35-.36.8-.55,1.35-.55.45,0,.88.15,1.27.44v-1.19c-.4-.18-.86-.27-1.38-.27-.94,0-1.69.28-2.25.84Z"></path></svg>