<svg width="288" height="40" viewBox="0 0 288 40" fill="none" xmlns="http://www.w3.org/2000/svg">
<path d="M18.2188 19.0807H40.0582V0L18.2188 2.98855V19.0807Z" fill="white"/>
<path d="M16.4083 3.24707L0 5.48848V19.0806H16.4083V3.24707Z" fill="white"/>
<path d="M18.2188 37.0116L40.0582 40.0001V21.0918H18.2188V37.0116Z" fill="white"/>
<path d="M0 34.5115L16.4083 36.7529V21.0918H0V34.5115Z" fill="white"/>
<path d="M65.7777 24.1949C65.5191 24.7696 65.203 25.6604 64.8007 26.8386H64.7145C64.5708 26.2639 64.2834 25.4018 63.8237 24.2524L57.7603 9.16594H52.3867V31.8387H55.9212V17.212C55.9212 15.1718 55.8925 13.6775 55.8063 12.7579H55.8638C56.0649 13.7637 56.2948 14.5109 56.4672 15.0281L63.3639 31.8387H66.0076L72.8755 14.8844C73.0479 14.4534 73.2778 13.735 73.5077 12.7579H73.5652C73.4215 14.5108 73.3353 15.9764 73.3353 17.1546V31.81H77.1284V9.13721H71.9272L65.749 24.1662L65.7777 24.1949Z" fill="white"/>
<path d="M211.039 9.16797L202.418 31.8407H206.585L208.567 26.0648H217.619L219.688 31.8407H223.884L215.32 9.16797H211.01H211.039ZM209.573 22.99L212.734 13.9382C212.849 13.5933 212.964 13.1048 213.05 12.5301H213.108C213.223 13.191 213.309 13.6508 213.424 13.9382L216.614 22.99H209.573Z" fill="white"/>
<path d="M225.607 18.5069H233.796L224.716 30.4611V31.8404H238.797V28.9668H229.946L238.825 17.185V15.6333H225.607V18.5069Z" fill="white"/>
<path d="M82.3574 31.8404H86.0931V15.6333H82.3574V31.8404Z" fill="white"/>
<path d="M287.361 23.3347C287.361 20.8059 286.757 18.8231 285.521 17.415C284.286 16.007 282.562 15.2886 280.291 15.2886C278.021 15.2886 276.154 16.0932 274.631 17.6737C273.108 19.2541 272.36 21.3231 272.36 23.8232C272.36 26.4956 273.05 28.5646 274.429 30.0302C275.809 31.4957 277.705 32.2428 280.119 32.2428C282.533 32.2428 284.573 31.7831 286.067 30.8635V27.9037C284.602 28.9382 282.993 29.4554 281.24 29.4554C279.688 29.4554 278.452 29.0531 277.562 28.2485C276.671 27.4439 276.211 26.2945 276.154 24.8002H287.361V23.3921V23.3347ZM283.769 22.1565H276.154C276.326 20.9208 276.786 19.9151 277.533 19.1392C278.28 18.3633 279.2 17.9898 280.263 17.9898C281.326 17.9898 282.217 18.3633 282.849 19.0817C283.481 19.8001 283.769 20.8346 283.797 22.1565H283.769Z" fill="white"/>
<path d="M252.617 24.9438C252.617 26.2369 252.273 27.3001 251.554 28.076C250.836 28.8519 249.945 29.2829 248.824 29.2829C246.554 29.2829 245.405 27.8174 245.405 24.915V15.6333H241.669V25.3174C241.669 29.9151 243.623 32.214 247.502 32.214C249.773 32.214 251.468 31.237 252.56 29.2829H252.617V31.8404H256.353V15.662H252.617V24.9725V24.9438Z" fill="white"/>
<path d="M84.2531 8.07373C83.6497 8.07373 83.1324 8.27488 82.6726 8.67718C82.2416 9.07949 82.0117 9.568 82.0117 10.1715C82.0117 10.7749 82.2416 11.2634 82.6726 11.6657C83.1037 12.068 83.6209 12.2405 84.2531 12.2405C84.8853 12.2405 85.4313 12.0393 85.8623 11.637C86.2934 11.2347 86.5233 10.7462 86.5233 10.1715C86.5233 9.568 86.2934 9.07949 85.8623 8.67718C85.4313 8.27488 84.8853 8.07373 84.2531 8.07373Z" fill="white"/>
<path d="M269.2 15.373C268.28 15.373 267.418 15.6891 266.671 16.3213C265.924 16.9535 265.349 17.8443 265.004 18.9938H264.947V15.6604H261.211V31.8388H264.947V24.0801C264.947 22.3846 265.32 21.0628 266.067 20.0858C266.814 19.1087 267.734 18.6202 268.826 18.6202C269.659 18.6202 270.32 18.7926 270.78 19.1375V15.6604C270.435 15.4593 269.918 15.373 269.228 15.373H269.2Z" fill="white"/>
<path d="M147.789 24.3097C147.387 23.9361 146.927 23.5913 146.353 23.3039C145.72 22.9878 145.088 22.7004 144.456 22.4418C143.91 22.2694 143.45 22.097 143.019 21.9533C142.617 21.8096 142.243 21.6372 141.956 21.4361C141.669 21.2636 141.439 21.0338 141.295 20.8039C141.151 20.574 141.065 20.2579 141.065 19.913C141.065 19.6257 141.151 19.3671 141.295 19.1372C141.439 18.9073 141.64 18.7061 141.927 18.5337C142.186 18.3613 142.531 18.2464 142.904 18.1314C143.278 18.0452 143.709 17.9877 144.169 17.9877C145.663 17.9877 146.985 18.39 148.163 19.1659V15.9475C146.956 15.4877 145.606 15.2578 144.082 15.2578C143.249 15.2578 142.416 15.3728 141.582 15.5739C140.778 15.7751 140.059 16.0912 139.427 16.4935C138.795 16.8958 138.307 17.3843 137.904 17.9877C137.531 18.5912 137.33 19.2809 137.33 20.0567C137.33 20.6889 137.416 21.2349 137.588 21.7234C137.761 22.2119 138.048 22.643 138.393 22.9878C138.738 23.3614 139.197 23.7062 139.743 23.9936C140.347 24.3097 140.95 24.597 141.554 24.8269C142.1 25.0281 142.588 25.2005 143.048 25.3729C143.479 25.5453 143.881 25.7177 144.197 25.9189C144.514 26.12 144.772 26.3499 144.973 26.6085C145.174 26.8672 145.261 27.1833 145.261 27.5568C145.261 28.85 144.14 29.5109 141.899 29.5109C140.232 29.5109 138.68 28.9936 137.301 27.9591V31.35C138.623 31.9535 140.174 32.2408 141.985 32.2408C142.904 32.2408 143.795 32.1546 144.657 31.9535C145.491 31.7523 146.238 31.4649 146.87 31.0626C147.502 30.6603 148.019 30.1718 148.422 29.5396C148.795 28.9362 148.996 28.2178 148.996 27.3844C148.996 26.7235 148.881 26.12 148.68 25.6315C148.479 25.143 148.163 24.712 147.761 24.3384L147.789 24.3097Z" fill="white"/>
<path d="M160.26 15.2578C157.587 15.2578 155.461 16.0337 153.88 17.5567C152.3 19.0797 151.495 21.2062 151.495 23.9361C151.495 26.4361 152.242 28.4477 153.765 29.9419C155.288 31.4649 157.3 32.2121 159.857 32.2121C162.415 32.2121 164.541 31.4362 166.093 29.8845C167.645 28.3327 168.421 26.2637 168.421 23.6775C168.421 21.0912 167.702 18.9935 166.265 17.4992C164.829 16.0049 162.817 15.2578 160.26 15.2578ZM163.421 27.8442C162.645 28.7925 161.495 29.281 160.03 29.281C158.564 29.281 157.443 28.7925 156.581 27.8155C155.719 26.8384 155.288 25.5166 155.288 23.8212C155.288 22.1257 155.719 20.6889 156.553 19.6832C157.386 18.6774 158.564 18.1889 160.001 18.1889C161.438 18.1889 162.587 18.6774 163.392 19.6544C164.168 20.6314 164.57 22.0108 164.57 23.7924C164.57 25.5741 164.168 26.9246 163.392 27.8729L163.421 27.8442Z" fill="white"/>
<path d="M175.089 8.99393C173.939 9.97096 173.393 11.3216 173.393 13.0457V15.6607H170.577V18.5343H173.393V31.8391H177.129V18.5343H180.951V15.6607H177.129V13.4768C177.129 11.4652 178.02 10.4595 179.859 10.4595C180.491 10.4595 181.066 10.6031 181.583 10.8905V7.84449C181.037 7.64334 180.319 7.55713 179.399 7.55713C177.704 7.55713 176.267 8.04564 175.146 9.02267L175.089 8.99393Z" fill="white"/>
<path d="M188.364 10.8608L184.629 11.8953V15.631H181.87V18.5046H184.629V27.6426C184.629 30.6599 186.238 32.1542 189.428 32.1542C190.606 32.1542 191.583 31.9818 192.301 31.6082V28.7059C191.842 29.0794 191.296 29.2518 190.663 29.2518C189.83 29.2518 189.255 29.0507 188.882 28.6484C188.537 28.2461 188.364 27.5564 188.364 26.6081V18.5046H192.301V15.631H188.364V10.832V10.8608Z" fill="white"/>
<path d="M114.482 15.373C113.562 15.373 112.7 15.6891 111.953 16.3213C111.206 16.9535 110.631 17.8443 110.286 18.9938H110.229V15.6604H106.493V31.8388H110.229V24.0801C110.229 22.3846 110.602 21.0628 111.35 20.0858C112.097 19.1087 113.016 18.6202 114.108 18.6202C114.942 18.6202 115.602 18.7926 116.062 19.1375V15.6604C115.717 15.4593 115.2 15.373 114.511 15.373H114.482Z" fill="white"/>
<path d="M126.38 15.2578C123.707 15.2578 121.581 16.0337 120 17.5567C118.42 19.0797 117.615 21.2062 117.615 23.9361C117.615 26.4361 118.362 28.4477 119.885 29.9419C121.408 31.4649 123.42 32.2121 125.977 32.2121C128.535 32.2121 130.661 31.4362 132.213 29.8845C133.765 28.3327 134.541 26.2637 134.541 23.6775C134.541 21.0912 133.822 18.9935 132.386 17.4992C130.949 16.0049 128.937 15.2578 126.38 15.2578ZM129.541 27.8442C128.765 28.7925 127.615 29.281 126.15 29.281C124.684 29.281 123.564 28.7925 122.702 27.8155C121.839 26.8384 121.408 25.5166 121.408 23.8212C121.408 22.1257 121.839 20.6889 122.673 19.6832C123.506 18.6774 124.684 18.1889 126.121 18.1889C127.558 18.1889 128.707 18.6774 129.512 19.6544C130.288 20.6314 130.69 22.0108 130.69 23.7924C130.69 25.5741 130.288 26.9246 129.512 27.8729L129.541 27.8442Z" fill="white"/>
<path d="M92.3289 17.7004C90.7196 19.3096 89.915 21.4648 89.915 24.1373C89.915 26.5223 90.6622 28.4764 92.1564 29.9707C93.6507 31.4649 95.6335 32.2121 98.0761 32.2121C99.8864 32.2121 101.438 31.8385 102.76 31.0914V27.9017C101.582 28.85 100.317 29.3097 98.9669 29.3097C97.3577 29.3097 96.0933 28.8212 95.145 27.8442C94.1967 26.8672 93.7369 25.5453 93.7369 23.8786C93.7369 22.2119 94.2542 20.8039 95.2599 19.7694C96.2657 18.7349 97.5588 18.1889 99.1393 18.1889C100.432 18.1889 101.668 18.6199 102.789 19.4533V16.0337C101.639 15.5164 100.317 15.2578 98.8232 15.2578C96.122 15.2578 93.9668 16.0624 92.3576 17.6716L92.3289 17.7004Z" fill="white"/>
</svg>
