<svg width="195" height="48" viewBox="0 0 195 48" fill="none" xmlns="http://www.w3.org/2000/svg">
<path d="M62.9663 22.6351C60.9334 22.6351 59.5619 24.1854 59.5619 26.1417C59.5619 28.0984 60.9593 29.6736 62.9413 29.6736C64.1863 29.6736 65.1772 29.2417 65.9393 28.4795L67.5149 30.7665C66.5495 31.834 64.796 32.5962 62.8648 32.5962C59.257 32.5962 56.4619 29.6994 56.4619 26.1676C56.4619 22.6102 59.257 19.7139 62.8144 19.7139C64.8977 19.7139 66.5495 20.4252 67.6162 21.5431L65.8376 23.7539C65.0755 23.0167 64.1609 22.6351 62.9663 22.6351Z" fill="white"/>
<path d="M69.8516 14.7588H72.9515V32.2405H69.8516V14.7588Z" fill="white"/>
<path d="M75.7715 26.1676C75.7715 22.6102 78.4141 19.7139 81.9203 19.7139C85.4014 19.7139 88.044 22.407 88.044 25.9134C88.044 26.2945 88.0182 26.7264 87.9678 26.9297H78.9476C79.2526 28.6319 80.5483 29.8515 82.4288 29.8515C83.6483 29.8515 84.69 29.3179 85.4014 28.5811L87.0024 30.6899C86.0873 31.7574 84.3596 32.5957 82.3018 32.5957C78.5158 32.5962 75.7715 29.6994 75.7715 26.1676ZM78.9985 24.9735H84.8678C84.5122 23.2453 83.4197 22.3566 81.971 22.3566C80.4212 22.3566 79.3542 23.4232 78.9985 24.9735Z" fill="white"/>
<path d="M101.56 20.0693L97.1648 32.2403H93.1502L88.7285 20.0693H92.1334L95.233 29.4706L98.3838 20.0693H101.56Z" fill="white"/>
<path d="M102.423 26.1675C102.423 22.6102 105.066 19.7139 108.572 19.7139C112.053 19.7139 114.695 22.4069 114.695 25.9134C114.695 26.2945 114.67 26.7264 114.619 26.9297H105.599C105.904 28.6319 107.2 29.8515 109.08 29.8515C110.3 29.8515 111.341 29.3179 112.053 28.5811L113.654 30.6898C112.739 31.7573 111.011 32.5957 108.953 32.5957C105.167 32.5962 102.423 29.6994 102.423 26.1675ZM105.65 24.9733H111.519C111.164 23.2453 110.071 22.3565 108.623 22.3565C107.073 22.3565 106.006 23.4232 105.65 24.9733ZM120.462 32.2405H117.362V20.0695H120.462V21.3906C121.148 20.3745 122.165 19.7134 123.434 19.7134C124.248 19.7134 124.908 19.9421 125.391 20.3232L124.095 23.2708C123.689 22.9401 123.079 22.7373 122.495 22.7373C121.249 22.7373 120.462 23.7789 120.462 25.4307V32.2405ZM138.83 22.6356C136.797 22.6356 135.426 24.1858 135.426 26.1421C135.426 28.0989 136.823 29.674 138.805 29.674C140.051 29.674 141.041 29.2421 141.804 28.4799L143.378 30.7669C142.413 31.8345 140.66 32.5966 138.729 32.5966C135.121 32.5966 132.326 29.6999 132.326 26.1679C132.326 22.6107 135.121 19.7143 138.678 19.7143C140.762 19.7143 142.413 20.4257 143.48 21.5435L141.702 23.7544C140.94 23.0171 140.024 22.6356 138.83 22.6356Z" fill="white"/>
<path d="M145.715 14.7588H148.814V32.2405H145.715V14.7588Z" fill="white"/>
<path d="M151.635 26.1675C151.635 22.6103 154.43 19.7139 157.961 19.7139C161.493 19.7139 164.314 22.6106 164.314 26.1675C164.314 29.6995 161.493 32.5962 157.961 32.5962C154.43 32.5962 151.635 29.6995 151.635 26.1675ZM161.188 26.1421C161.188 24.1859 159.842 22.6357 157.986 22.6357C156.107 22.6357 154.734 24.1859 154.734 26.1421C154.734 28.0988 156.107 29.6741 157.986 29.6741C159.842 29.6741 161.188 28.0988 161.188 26.1421ZM170.055 26.6503C170.055 28.4287 171.096 29.6228 172.647 29.6228C174.196 29.6228 175.238 28.4287 175.238 26.6503V20.0696H178.338V26.8789C178.338 30.2834 176.076 32.5449 172.647 32.5449C169.216 32.5449 166.955 30.2834 166.955 26.8789V20.0696H170.055V26.6503ZM193.683 14.7588V32.2405H190.558V30.9194C189.669 31.961 188.423 32.5967 186.848 32.5967C183.621 32.5967 181.004 29.954 181.004 26.168C181.004 22.4837 183.468 19.7143 186.848 19.7143C188.448 19.7143 189.694 20.2982 190.558 21.2895V14.7593L193.683 14.7588ZM190.558 26.1421C190.558 24.1859 189.21 22.6357 187.356 22.6357C185.476 22.6357 184.103 24.1859 184.103 26.1421C184.103 28.0988 185.476 29.6741 187.356 29.6741C189.21 29.6741 190.558 28.0988 190.558 26.1421Z" fill="white"/>
<path d="M1.78711 11.1389L8.21793 22.2772L21.0782 0.000976562L1.78711 11.1389Z" fill="white"/>
<path d="M7.22294 24.0002L1.04102 13.2925V34.7084L7.22294 24.0002Z" fill="white"/>
<path d="M9.70898 24.8608L22.5707 47.1384L35.4323 24.8608H9.70898Z" fill="white"/>
<path d="M35.4306 23.1384L22.5697 0.861816L9.70898 23.1384H35.4306Z" fill="white"/>
<path d="M37.918 24.0002L44.0999 34.7084V13.2925L37.918 24.0002Z" fill="white"/>
<path d="M43.3545 36.8615L36.9236 25.7231L24.0625 47.9998L44.102 36.4313L43.3545 36.8615Z" fill="white"/>
<path d="M36.9236 22.2775L43.3545 11.1392L44.1017 11.5707L24.0625 0L36.9236 22.2775Z" fill="white"/>
<path d="M8.21767 25.7231L1.78684 36.8615L1.04102 36.4309L21.0789 47.9998L8.21767 25.7231Z" fill="white"/>
</svg>
