<svg width="162" height="40" viewBox="0 0 162 40" fill="none" xmlns="http://www.w3.org/2000/svg">
<path d="M52.4721 18.8626C50.778 18.8626 49.6351 20.1545 49.6351 21.7847C49.6351 23.4153 50.7996 24.728 52.4513 24.728C53.4888 24.728 54.3145 24.3681 54.9496 23.7329L56.2626 25.6387C55.4581 26.5283 53.9969 27.1635 52.3875 27.1635C49.381 27.1635 47.0518 24.7495 47.0518 21.8063C47.0518 18.8418 49.381 16.4282 52.3455 16.4282C54.0816 16.4282 55.4581 17.021 56.347 17.9526L54.8649 19.7949C54.2298 19.1806 53.4676 18.8626 52.4721 18.8626Z" fill="white"/>
<path d="M58.21 12.2988H60.7933V26.8669H58.21V12.2988Z" fill="white"/>
<path d="M63.1426 21.8063C63.1426 18.8418 65.3448 16.4282 68.2666 16.4282C71.1675 16.4282 73.3697 18.6725 73.3697 21.5945C73.3697 21.9121 73.3482 22.272 73.3062 22.4414H65.7894C66.0435 23.8599 67.1233 24.8762 68.6904 24.8762C69.7066 24.8762 70.5747 24.4316 71.1675 23.8176L72.5017 25.5749C71.7391 26.4645 70.2994 27.1631 68.5845 27.1631C65.4295 27.1635 63.1426 24.7495 63.1426 21.8063ZM65.8318 20.8112H70.7229C70.4265 19.3711 69.5161 18.6305 68.3089 18.6305C67.0174 18.6305 66.1282 19.5193 65.8318 20.8112Z" fill="white"/>
<path d="M84.6337 16.7246L80.9706 26.8671H77.6251L73.9404 16.7246H76.7778L79.3608 24.559L81.9865 16.7246H84.6337Z" fill="white"/>
<path d="M85.3525 21.8061C85.3525 18.8417 87.5548 16.4281 90.4765 16.4281C93.3774 16.4281 95.5797 18.6723 95.5797 21.5944C95.5797 21.912 95.5581 22.2719 95.5162 22.4413H87.9994C88.2535 23.8598 89.3332 24.8761 90.9003 24.8761C91.9166 24.8761 92.7846 24.4315 93.3774 23.8175L94.7116 25.5747C93.9491 26.4643 92.5094 27.163 90.7945 27.163C87.6395 27.1634 85.3525 24.7494 85.3525 21.8061ZM88.0417 20.811H92.9328C92.6364 19.371 91.726 18.6303 90.5189 18.6303C89.2274 18.6303 88.3385 19.5192 88.0417 20.811ZM100.385 26.867H97.802V16.7245H100.385V17.8254C100.957 16.9786 101.804 16.4277 102.862 16.4277C103.54 16.4277 104.09 16.6183 104.493 16.9359L103.413 19.3922C103.074 19.1166 102.566 18.9476 102.079 18.9476C101.041 18.9476 100.385 19.8156 100.385 21.1921L100.385 26.867ZM115.692 18.8629C113.998 18.8629 112.855 20.1547 112.855 21.785C112.855 23.4156 114.019 24.7282 115.671 24.7282C116.709 24.7282 117.534 24.3683 118.17 23.7331L119.482 25.639C118.678 26.5286 117.217 27.1637 115.608 27.1637C112.601 27.1637 110.272 24.7498 110.272 21.8065C110.272 18.8421 112.601 16.4285 115.565 16.4285C117.302 16.4285 118.678 17.0213 119.567 17.9528L118.085 19.7952C117.45 19.1808 116.687 18.8629 115.692 18.8629Z" fill="white"/>
<path d="M121.429 12.2988H124.012V26.8669H121.429V12.2988Z" fill="white"/>
<path d="M126.362 21.8061C126.362 18.8417 128.691 16.4281 131.634 16.4281C134.577 16.4281 136.928 18.842 136.928 21.8061C136.928 24.7494 134.577 27.1633 131.634 27.1633C128.691 27.1633 126.362 24.7494 126.362 21.8061ZM134.323 21.7849C134.323 20.1547 133.201 18.8629 131.655 18.8629C130.089 18.8629 128.945 20.1547 128.945 21.7849C128.945 23.4155 130.089 24.7282 131.655 24.7282C133.201 24.7282 134.323 23.4155 134.323 21.7849ZM141.712 22.2084C141.712 23.6904 142.58 24.6855 143.872 24.6855C145.163 24.6855 146.031 23.6904 146.031 22.2084V16.7245H148.615V22.3989C148.615 25.236 146.73 27.1206 143.872 27.1206C141.013 27.1206 139.129 25.236 139.129 22.3989V16.7245H141.712V22.2084ZM161.402 12.2988V26.8669H158.798V25.766C158.057 26.634 157.019 27.1637 155.706 27.1637C153.017 27.1637 150.836 24.9615 150.836 21.8065C150.836 18.7362 152.89 16.4284 155.706 16.4284C157.04 16.4284 158.078 16.915 158.798 17.7411V12.2992L161.402 12.2988ZM158.798 21.7849C158.798 20.1547 157.675 18.8629 156.13 18.8629C154.563 18.8629 153.419 20.1547 153.419 21.7849C153.419 23.4155 154.563 24.7282 156.13 24.7282C157.675 24.7282 158.798 23.4155 158.798 21.7849Z" fill="white"/>
<path d="M1.48926 9.28255L6.84828 18.5645L17.5652 0.000976562L1.48926 9.28255Z" fill="white"/>
<path d="M6.01879 20.0002L0.867188 11.0771V28.9237L6.01879 20.0002Z" fill="white"/>
<path d="M8.09082 20.7173L18.8089 39.2819L29.5269 20.7173H8.09082Z" fill="white"/>
<path d="M29.5255 19.2821L18.8081 0.718262L8.09082 19.2821H29.5255Z" fill="white"/>
<path d="M31.5986 20.0002L36.7502 28.9237V11.0771L31.5986 20.0002Z" fill="white"/>
<path d="M36.1285 30.718L30.7694 21.436L20.0518 39.9999L36.7514 30.3595L36.7511 30.3588L36.1285 30.718Z" fill="white"/>
<path d="M30.7694 18.5646L36.1285 9.28265L36.7511 9.64222L36.7514 9.64186L20.0518 0L30.7694 18.5646Z" fill="white"/>
<path d="M6.84773 21.436L1.48871 30.718L0.867188 30.3591V30.3595L17.5654 39.9999L6.84773 21.436Z" fill="white"/>
</svg>
