<svg width="229" height="40" viewBox="0 0 229 40" fill="none" xmlns="http://www.w3.org/2000/svg">
<path d="M29.0956 22.8561C32.1952 22.8561 34.6873 25.3482 34.6873 28.3889C34.6873 31.4295 32.1952 33.9216 29.0956 33.9216C25.9961 33.9216 23.504 31.4295 23.504 28.33V22.8592H29.0956V22.8561ZM23.5009 16.8987C23.3986 16.8987 23.3986 16.8987 23.5009 16.8987ZM20.0387 4.25559C20.0387 4.25559 19.9767 4.25559 19.9767 4.31758L16.7562 7.53804C16.2076 8.08666 16.2696 7.90379 16.6353 8.5113C17.2429 9.48457 17.5466 10.4578 17.5466 11.49V28.5098C17.5466 34.8329 22.7136 39.9999 29.1576 39.9999C35.6016 39.9999 40.7686 34.8329 40.7686 28.5098C40.7686 22.1866 35.6016 17.0196 29.1576 17.0196C25.745 16.9235 23.8914 16.9018 23.504 16.8987V11.366C23.504 8.81196 22.6516 6.26101 21.0739 4.31448C20.795 3.97043 20.7051 3.80615 20.5966 3.80615C20.4881 3.80615 20.3672 3.95803 20.0418 4.25559" fill="white"/>
<path d="M0.402344 11.549C0.402344 17.931 5.56933 23.098 11.9514 23.098H16.0242V17.1406H11.9514C8.85178 17.1406 6.35972 14.6486 6.35972 11.549C6.42171 8.44943 8.91377 5.95738 11.9514 5.95738C13.1664 5.95738 14.2605 6.26114 15.1718 6.93064L19.3655 2.73692C17.3012 0.911274 14.8092 0 11.9514 0C5.63132 0 0.402344 5.16699 0.402344 11.549Z" fill="white"/>
<path d="M23.5 16.9609V22.9152H29.3985V18.3588V16.9609H23.5Z" fill="white"/>
<path d="M226.166 26.1391C227.626 26.1391 228.841 27.3541 228.841 28.814C228.841 30.2739 227.626 31.4889 226.166 31.4889C224.706 31.4889 223.491 30.2739 223.491 28.814C223.491 27.3541 224.706 26.1391 226.166 26.1391ZM226.166 26.6846C225.01 26.6846 224.099 27.5959 224.099 28.8729C224.099 30.1499 225.01 31.0612 226.166 31.0612C227.322 31.0612 228.234 30.1499 228.234 28.8729C228.234 27.5959 227.381 26.6846 226.166 26.6846ZM226.287 27.3541C226.836 27.3541 227.26 27.7788 227.26 28.2654C227.26 28.69 227.016 28.9938 226.591 29.1147L227.26 30.2708H226.653L226.045 29.1767H225.804V30.2708H225.255V27.3541H226.287ZM226.228 27.8408H225.863V28.6931H226.228C226.532 28.6931 226.715 28.5103 226.715 28.2685C226.715 27.9647 226.532 27.8439 226.228 27.8439M196.928 13.9206C202.765 13.9206 205.439 18.48 205.439 23.4642V24.7412H193.283C193.77 26.9915 195.35 28.2065 197.539 28.2065C199.178 28.2065 200.334 27.7199 201.673 26.5048L201.794 26.384L204.652 28.938C203.012 30.9434 200.7 32.2204 197.539 32.2204C192.372 32.2204 188.482 28.5723 188.42 23.2844V22.8597C188.42 17.9965 191.944 13.9237 196.931 13.9237M177.354 13.9206C183.191 13.9206 185.866 18.48 185.866 23.4642V24.7412H173.709C174.196 26.9915 175.777 28.2065 177.965 28.2065C179.608 28.2065 180.761 27.7199 182.1 26.5048L182.221 26.384L185.078 28.938C183.439 30.9434 181.126 32.2204 177.965 32.2204C172.798 32.2204 168.908 28.5723 168.846 23.2844V22.8597C168.846 17.9965 172.373 13.9237 177.357 13.9237M94.3786 13.9206C99.7285 13.9206 103.68 17.8725 103.801 22.8566V23.2224C103.739 28.2065 99.7285 32.2173 94.3197 32.2173C88.911 32.2173 85.021 28.2654 84.897 23.2813V22.9155C84.959 17.9314 88.9699 13.9206 94.3786 13.9206ZM66.4174 8.51181C70.6731 8.51181 73.2241 9.90972 75.2915 11.9771L75.4124 12.098L72.2508 15.8051C70.4871 14.2243 68.7235 13.1922 66.4143 13.1922C62.5832 13.1922 59.8494 16.3537 59.7874 20.2437V20.5475C59.8494 24.4374 62.5212 27.661 66.4143 27.661C68.8475 27.661 70.4251 26.7497 72.0679 25.2898L72.1888 25.1689L72.4306 24.986L75.5921 28.2065C73.221 30.7605 70.6669 32.2793 66.2314 32.2793C59.6045 32.2793 54.6204 27.1743 54.5615 20.6683V20.2437C54.6235 13.7408 59.4836 8.51181 66.4143 8.51181M214.193 13.9826C216.381 13.9826 218.811 14.711 220.696 15.988L218.811 19.4533C217.109 18.4211 215.346 17.8105 214.069 17.8105C212.792 17.8105 212.246 18.3592 212.246 19.0256V19.0876C212.246 20.0608 213.889 20.5475 215.77 21.2139L216.074 21.3347L216.378 21.4556C218.628 22.246 220.996 23.4611 221.058 26.3189V26.5017C221.058 30.3917 218.141 32.1554 214.372 32.1554C211.942 32.1554 209.205 31.365 206.896 29.4804L209.023 26.198C210.907 27.5959 212.913 28.3243 214.493 28.3243C215.953 28.3243 216.561 27.7757 216.561 26.9853V26.9233C216.561 25.8911 214.921 25.5254 213.033 24.9179L212.547 24.797L212.364 24.735C210.114 24.0066 207.746 22.7884 207.684 19.7509V19.568C207.804 15.9818 210.662 13.9764 214.186 13.9764M142.887 7.9043V31.8547H137.965V29.3006C136.75 30.9403 135.107 32.1585 132.553 32.1585C128.542 32.1585 124.711 28.9969 124.59 23.2844V22.8597C124.652 17.0852 128.421 13.9857 132.553 13.9857C135.045 13.9857 136.626 15.0798 137.782 16.3568L137.844 16.4188L137.965 16.6017V7.9105H142.887V7.9043ZM111.098 14.2863V24.0717C111.098 26.4428 112.192 27.6579 114.076 27.6579C115.961 27.6579 117.117 26.5017 117.176 24.1926V14.2832H122.098V31.8516H117.176V29.3595C116.02 30.8194 114.563 32.1554 112.071 32.1554C108.364 32.1554 106.176 29.7253 106.176 25.7733V14.2832H111.098V14.2863ZM157.842 8.87446C160.455 8.87446 162.523 9.60286 163.8 10.8799C164.832 11.912 165.319 13.1302 165.381 14.649V14.9527C165.319 17.4448 163.983 18.8427 162.402 19.754L162.644 19.8748C165.074 20.8481 166.596 22.3669 166.654 25.2836V25.5874C166.592 29.6602 163.31 31.7276 158.267 31.7276H147.264V8.87446H157.839H157.842ZM82.6468 31.8516H77.7215V7.9043H82.6468V31.8547V31.8516ZM133.771 18.1763C131.521 18.1763 129.577 19.9988 129.515 22.9186V23.2224C129.577 26.0802 131.521 27.9647 133.771 27.9647C136.021 27.9647 137.965 26.0802 138.027 23.2224V23.0395C138.027 20.1228 136.083 18.1763 133.771 18.1763ZM94.3197 18.2352C91.5239 18.2352 89.8223 20.3615 89.8223 22.9155V23.2193C89.8843 25.7733 91.7068 27.9616 94.3817 27.9616C97.0567 27.9616 98.8792 25.8353 98.8792 23.2813V22.9775C98.8172 20.4235 96.9947 18.2352 94.3197 18.2352ZM157.901 22.37H152.127V27.4161H158.084C160.272 27.4161 161.608 26.6877 161.608 24.9829V24.8001C161.608 23.2813 160.452 22.3669 157.901 22.3669M196.928 17.9314C194.923 17.9314 193.584 19.3293 193.159 21.5796V21.7005H200.635C200.331 19.4502 199.054 17.9314 196.928 17.9314ZM177.354 17.9314C175.349 17.9314 174.01 19.3293 173.585 21.5796V21.7005H181.061C180.758 19.4502 179.481 17.9314 177.354 17.9314ZM157.052 13.3131H152.127V18.1763H156.745C158.933 18.1763 160.331 17.5068 160.331 15.8671V15.7462C160.331 14.1654 159.175 13.3131 157.049 13.3131" fill="white"/>
</svg>
