<svg id="Calque_1" xmlns="http://www.w3.org/2000/svg" viewBox="94.99 8.66 70.01 22.67"><defs><style>.cls-1{fill:#fff;}</style></defs><path class="cls-1" d="m153.05,26.74c-1.52,0-2.26,1.16-2.26,2.32s.72,2.27,2.26,2.27,2.24-1.14,2.26-2.28c.02-1.14-.74-2.31-2.26-2.31Zm0,3.81c-1.04,0-1.43-.77-1.45-1.49s.41-1.58,1.45-1.58,1.45.83,1.44,1.58c-.01.74-.4,1.49-1.44,1.49Z"></path><path class="cls-1" d="m116.96,29.36c0,.75-.39,1.21-1.07,1.21s-1.14-.42-1.14-1.21v-2.52h-.82v2.52c0,1.33.9,1.97,1.96,1.97,1.11,0,1.91-.67,1.91-1.97v-2.52h-.83s0,2.52,0,2.52Z"></path><polygon class="cls-1" points="123.79 29.55 121.63 26.81 120.96 26.81 120.96 31.22 121.79 31.22 121.79 28.24 124.1 31.22 124.62 31.22 124.62 26.82 123.79 26.82 123.79 29.55"></polygon><path class="cls-1" d="m108.75,26.74h0c-1.52,0-2.26,1.16-2.26,2.32s.72,2.27,2.26,2.27,2.24-1.14,2.26-2.28c.02-1.14-.74-2.31-2.26-2.31Zm0,3.81c-1.04,0-1.43-.77-1.45-1.49-.02-.72.41-1.57,1.45-1.57h0c1.04,0,1.45.83,1.44,1.57-.01.74-.4,1.49-1.44,1.49Z"></path><polygon class="cls-1" points="100.51 31.22 101.34 31.22 101.34 29.6 103.55 29.6 103.55 28.83 101.34 28.83 101.34 27.63 103.67 27.63 103.67 26.83 100.51 26.83 100.51 31.22"></polygon><polygon class="cls-1" points="161.12 29.56 158.96 26.82 158.29 26.82 158.29 31.22 159.12 31.22 159.12 28.24 161.43 31.22 161.95 31.22 161.95 26.82 161.12 26.82 161.12 29.56"></polygon><rect class="cls-1" x="146.94" y="26.82" width=".83" height="4.4"></rect><path class="cls-1" d="m129.36,26.82h0s-1.72,0-1.72,0v4.41h1.73c1.54,0,2.22-1.12,2.2-2.24-.02-1.11-.7-2.16-2.21-2.16Zm0,3.6h-.91v-2.82h.91c.96,0,1.36.69,1.38,1.37.02.69-.38,1.45-1.38,1.45Z"></path><path class="cls-1" d="m135.94,26.82l-1.98,4.4h.9l.38-.83h2.3l.38.83h.91l-1.97-4.4h-.91Zm-.37,2.8l.82-1.88.82,1.88h-1.64Z"></path><polygon class="cls-1" points="140.51 27.58 141.91 27.58 141.91 31.22 142.74 31.22 142.74 27.58 144.14 27.58 144.14 26.83 140.51 26.83 140.51 27.58"></polygon><path class="cls-1" d="m136.03,21.14h2.78c4.82,0,4.8-6.95,0-6.95h0c-1.55-.01-3.09,0-4.63,0v9.84h1.85v-2.89Zm2.78-5.18c2.36,0,2.37,3.48,0,3.48h-2.77v-3.48s2.77,0,2.77,0Z"></path><rect class="cls-1" x="129.71" y="14.19" width="1.84" height="9.84"></rect><path class="cls-1" d="m152.39,21.16c0-2.34-1.91-2.88-3.96-3.13-1.18-.14-2.19-.38-2.19-1.24,0-.73.66-1.31,2.03-1.31,1.07,0,1.99.53,2.33,1.09l1.47-.76c-.75-1.52-2.33-1.95-3.86-1.95-1.81,0-3.8.84-3.8,2.86,0,2.2,1.85,2.74,3.86,2.99,1.31.14,2.27.52,2.27,1.45,0,1.07-1.09,1.47-2.26,1.47s-2.33-.48-2.76-1.56l-1.55.8c.73,1.8,2.27,2.41,4.28,2.41,2.19,0,4.13-.94,4.13-3.13Z"></path><polygon class="cls-1" points="107.86 15.99 107.86 14.19 100.51 14.19 100.51 24.03 107.87 24.03 107.87 22.21 102.35 22.21 102.35 19.99 107.67 19.99 107.67 18.26 102.35 18.26 102.35 15.99 107.86 15.99"></polygon><path class="cls-1" d="m115.1,22.51c-2.43,0-3.37-1.7-3.38-3.33s1.01-3.41,3.38-3.41c.88-.01,1.73.32,2.37.93l1.24-1.19c-.95-.96-2.25-1.5-3.61-1.49-3.55,0-5.23,2.61-5.21,5.18.02,2.57,1.56,5.06,5.2,5.06,1.39.03,2.73-.49,3.73-1.46l-1.26-1.28c-.67.63-1.55.99-2.47,1Z"></path><polygon class="cls-1" points="122.46 14.19 120.6 14.19 120.6 24.03 127.5 24.03 127.5 22.32 122.46 22.32 122.46 14.19"></polygon><polygon class="cls-1" points="154.68 24.03 162.03 24.03 162.03 22.2 156.51 22.2 156.51 19.99 161.83 19.99 161.83 18.26 156.51 18.26 156.51 15.99 162.03 15.99 162.03 14.19 154.68 14.19 154.68 24.03"></polygon><path class="cls-1" d="m97.44,13.19c2.24-3.51,6.76-4.73,10.51-3.05l-.25-.17c-3.84-2.46-8.94-1.34-11.4,2.49-2.46,3.84-1.34,8.94,2.49,11.4l.26.16c-3.1-2.71-3.87-7.32-1.62-10.83Z"></path><path class="cls-1" d="m164.44,14.93c0-.27-.2-.39-.48-.39h-.57v1.18h.29v-.37h.18l.25.37h.35l-.29-.42c.17-.04.28-.2.27-.37Zm-.52.18h-.25v-.33h.25c.12,0,.2.07.2.16s-.07.16-.2.16Z"></path><path class="cls-1" d="m163.86,14.01c-.63,0-1.14.51-1.14,1.14s.51,1.14,1.14,1.14,1.14-.51,1.14-1.14-.51-1.14-1.14-1.14Zm.72,1.86c-.19.19-.45.3-.72.3-.27,0-.53-.1-.72-.29s-.29-.45-.29-.72c0-.56.45-1.01,1.01-1.01s1.01.45,1.01,1.01h0c0,.26-.1.52-.29.72Z"></path></svg>