<svg width="173" height="56" viewBox="0 0 173 56" fill="none" xmlns="http://www.w3.org/2000/svg">
<path d="M143.435 44.6597C139.68 44.6597 137.852 47.5256 137.852 50.3916C137.852 53.2575 139.63 55.9999 143.435 55.9999C147.24 55.9999 148.969 53.1834 149.019 50.3668C149.068 47.5503 147.191 44.6597 143.435 44.6597ZM143.435 54.0728C140.866 54.0728 139.902 52.1704 139.853 50.3916C139.803 48.6127 140.866 46.4879 143.435 46.4879C146.005 46.4879 147.018 48.5386 146.993 50.3916C146.968 52.2198 146.005 54.0728 143.435 54.0728Z" fill="white"/>
<path d="M54.2683 51.1318C54.2683 52.9848 53.3047 54.1213 51.6247 54.1213C49.9446 54.1213 48.8082 53.0836 48.8082 51.1318V44.9058H46.7822V51.1318C46.7822 54.4177 49.0058 55.9989 51.6247 55.9989C54.3671 55.9989 56.3436 54.3436 56.3436 51.1318V44.9058H54.293V51.1318H54.2683Z" fill="white"/>
<path d="M71.1443 51.6006L65.8077 44.8311H64.1523V55.7266H66.203V48.3641L71.9102 55.7266H73.1949V44.8558H71.1443V51.6006Z" fill="white"/>
<path d="M33.986 44.6597C30.2306 44.6597 28.4023 47.5256 28.4023 50.3916C28.4023 53.2575 30.1812 55.9999 33.986 55.9999C37.7908 55.9999 39.5202 53.1834 39.5697 50.3668C39.6191 47.5503 37.7414 44.6597 33.986 44.6597ZM33.986 54.0728C31.4165 54.0728 30.453 52.1704 30.4036 50.3916C30.3542 48.6127 31.4165 46.5126 33.986 46.5126C36.5555 46.5126 37.5684 48.5633 37.5437 50.3916C37.519 52.2198 36.5555 54.0728 33.986 54.0728Z" fill="white"/>
<path d="M13.627 55.728H15.6776V51.7255H21.1377V49.8231H15.6776V46.8583H21.4342V44.8818H13.627V55.728Z" fill="white"/>
<path d="M163.374 51.627L158.037 44.8574H156.382V55.7282H158.432V48.3657L164.14 55.7282H165.424V44.8574H163.374V51.627Z" fill="white"/>
<path d="M130.391 44.8574H128.341V55.7282H130.391V44.8574Z" fill="white"/>
<path d="M84.9048 44.8574H80.6553V55.753H84.9295C88.7343 55.753 90.4143 52.9858 90.3649 50.2187C90.3155 47.4763 88.6355 44.8821 84.9048 44.8821V44.8574ZM84.9048 53.7517H82.6565V46.7845H84.9048C87.2766 46.7845 88.2649 48.4893 88.3143 50.1693C88.3637 51.874 87.3754 53.7517 84.9048 53.7517Z" fill="white"/>
<path d="M101.162 44.8574L96.2705 55.7282H98.4941L99.4329 53.6776H105.115L106.054 55.7282H108.303L103.435 44.8574H101.187H101.162ZM100.248 51.7752L102.274 47.1304L104.3 51.7752H100.248Z" fill="white"/>
<path d="M112.453 46.7348H115.912V55.728H117.963V46.7348H121.422V44.8818H112.453V46.7348Z" fill="white"/>
<path d="M101.384 30.8235H108.253C120.161 30.8235 120.112 13.6526 108.253 13.6526C104.423 13.6279 100.618 13.6526 96.8135 13.6526V37.9637H101.384V30.8235ZM108.253 18.0256C114.083 18.0256 114.108 26.6235 108.253 26.6235H101.409V18.0256H108.253Z" fill="white"/>
<path d="M90.3165 13.6533H85.7705V37.9644H90.3165V13.6533Z" fill="white"/>
<path d="M141.804 30.8741C141.804 25.0928 137.085 23.7586 132.02 23.141C129.105 22.7951 126.609 22.2021 126.609 20.0774C126.609 18.2738 128.24 16.8408 131.625 16.8408C134.268 16.8408 136.541 18.1503 137.381 19.5338L141.013 17.6561C139.16 13.9008 135.257 12.8384 131.477 12.8384C127.005 12.8384 122.088 14.9137 122.088 19.9044C122.088 25.3398 126.659 26.674 131.625 27.2916C134.861 27.6375 137.233 28.5764 137.233 30.8741C137.233 33.5177 134.54 34.5059 131.649 34.5059C128.759 34.5059 125.893 33.32 124.83 30.6517L121.001 32.6282C122.805 37.0754 126.609 38.5825 131.575 38.5825C136.986 38.5825 141.779 36.2601 141.779 30.8494L141.804 30.8741Z" fill="white"/>
<path d="M31.7862 18.1005V13.6533H13.627V37.9644H31.8109V33.4679H18.1729V27.983H31.3167V23.7088H18.1729V18.1005H31.7862Z" fill="white"/>
<path d="M49.6733 34.2075C43.6696 34.2075 41.3472 30.0074 41.3225 25.9803C41.2978 21.9531 43.8178 17.5554 49.6733 17.5554C51.8474 17.5307 53.9475 18.346 55.5287 19.8531L58.5923 16.913C56.2452 14.5412 53.0333 13.2071 49.6733 13.2318C40.9025 13.2318 36.7518 19.6802 36.8012 26.0297C36.8506 32.3793 40.6554 38.5312 49.6485 38.5312C53.0827 38.6053 56.3934 37.3205 58.8641 34.924L55.751 31.7616C54.0957 33.3181 51.9215 34.2075 49.6485 34.2322L49.6733 34.2075Z" fill="white"/>
<path d="M67.8581 13.6533H63.2627V37.9644H80.3101V33.7396H67.8581V13.6533Z" fill="white"/>
<path d="M147.461 37.9644H165.62V33.4432H151.982V27.983H165.126V23.7088H151.982V18.1005H165.62V13.6533H147.461V37.9644Z" fill="white"/>
<path d="M6.04194 11.1809C11.5762 2.50892 22.7435 -0.505265 32.0084 3.64541L31.3907 3.2254C21.9034 -2.85238 9.30319 -0.0852569 3.22541 9.3773C-2.85237 18.8646 -0.0852604 31.4648 9.3773 37.5426L10.0197 37.9379C2.36068 31.2425 0.458279 19.8528 6.01722 11.1809H6.04194Z" fill="white"/>
<path d="M171.575 15.4811C171.575 14.8141 171.081 14.5176 170.389 14.5176H168.98V17.4329H169.697V16.5188H170.142L170.759 17.4329H171.624L170.908 16.3953C171.328 16.2964 171.599 15.9011 171.575 15.4811ZM170.29 15.9258H169.672V15.1105H170.29C170.586 15.1105 170.784 15.2835 170.784 15.5058C170.784 15.7282 170.611 15.9011 170.29 15.9011V15.9258Z" fill="white"/>
<path d="M170.143 13.2075C168.586 13.2075 167.326 14.4675 167.326 16.0241C167.326 17.5806 168.586 18.8406 170.143 18.8406C171.699 18.8406 172.959 17.5806 172.959 16.0241C172.959 14.4675 171.699 13.2075 170.143 13.2075ZM171.922 17.8029C171.452 18.2723 170.81 18.5441 170.143 18.5441C169.476 18.5441 168.833 18.297 168.364 17.8276C167.894 17.3582 167.647 16.7158 167.647 16.0488C167.647 14.6652 168.759 13.5534 170.143 13.5534C171.526 13.5534 172.638 14.6652 172.638 16.0488C172.638 16.6911 172.391 17.3335 171.922 17.8276V17.8029Z" fill="white"/>
</svg>
