<svg width="309" height="48" viewBox="0 0 309 48" fill="none" xmlns="http://www.w3.org/2000/svg">
<g clip-path="url(#clip0_1144_1483)">
<path d="M37.0482 12.5866H38.7804L43.7174 7.64958L43.9599 5.55353C41.1317 3.05725 37.7138 1.32317 34.0291 0.515101C30.3444 -0.292969 26.5145 -0.148351 22.9011 0.935291C19.2878 2.01893 16.0104 4.00583 13.3785 6.70828C10.7466 9.41074 8.8471 12.7396 7.85938 16.3802C8.40938 16.1548 9.01865 16.1183 9.59165 16.2763L19.4655 14.6479C19.4655 14.6479 19.968 13.8164 20.2278 13.8684C22.3435 11.5449 25.2673 10.1179 28.4006 9.87958C31.5341 9.64127 34.64 10.6097 37.0827 12.5866H37.0482Z" fill="white"/>
<path d="M50.7516 16.3807C49.6168 12.2018 47.2869 8.44503 44.0477 5.57129L37.1187 12.5004C38.5627 13.6803 39.72 15.1728 40.5031 16.8652C41.2864 18.5577 41.6751 20.4058 41.6398 22.2704V23.5003C42.4497 23.5003 43.2516 23.6598 43.9998 23.9697C44.748 24.2797 45.4278 24.7339 46.0005 25.3065C46.5731 25.8792 47.0274 26.559 47.3373 27.3072C47.6472 28.0554 47.8067 28.8573 47.8067 29.6672C47.8067 30.4771 47.6472 31.2789 47.3373 32.0271C47.0274 32.7753 46.5731 33.4551 46.0005 34.0279C45.4278 34.6005 44.748 35.0547 43.9998 35.3647C43.2516 35.6745 42.4497 35.834 41.6398 35.834H29.3061L28.0762 37.0813V44.4781L29.3061 45.708H41.6398C45.084 45.7348 48.4453 44.6523 51.2266 42.6207C54.0078 40.589 56.0614 37.7162 57.0832 34.427C58.1051 31.1378 58.0413 27.607 56.9009 24.3571C55.7607 21.107 53.6045 18.3103 50.7516 16.3807Z" fill="white"/>
<path d="M16.9549 45.6382H29.2886V35.7642H16.9549C16.0762 35.7641 15.2077 35.575 14.4084 35.21L12.6762 35.747L7.70455 40.6839L7.27148 42.4162C10.0595 44.5215 13.4614 45.6534 16.9549 45.6382Z" fill="white"/>
<path d="M16.9538 13.609C13.6119 13.6289 10.3598 14.6922 7.6515 16.6501C4.94323 18.6082 2.91413 21.3631 1.84759 24.5303C0.781059 27.6975 0.730356 31.1187 1.70257 34.3161C2.67477 37.5135 4.62135 40.3273 7.2704 42.3647L14.4246 35.2104C13.5155 34.7997 12.7196 34.1745 12.1052 33.3885C11.4908 32.6025 11.0762 31.6792 10.8971 30.6977C10.718 29.7163 10.7796 28.7061 11.0768 27.7537C11.3739 26.8013 11.8977 25.9353 12.603 25.2298C13.3085 24.5244 14.1746 24.0006 15.127 23.7035C16.0793 23.4064 17.0896 23.3447 18.071 23.5239C19.0524 23.7029 19.9757 24.1175 20.7617 24.7319C21.5477 25.3463 22.1729 26.1423 22.5837 27.0514L29.738 19.8971C28.2363 17.934 26.3009 16.345 24.0832 15.2541C21.8654 14.1633 19.4253 13.6002 16.9538 13.609Z" fill="white"/>
<path d="M90.6467 38.7435C88.5232 38.7705 86.416 38.3686 84.4515 37.562C82.4869 36.7553 80.7054 35.5605 79.2137 34.049C77.6749 32.6016 76.4538 30.8502 75.6277 28.9059C74.8018 26.9616 74.3889 24.8669 74.4153 22.7546C74.3899 20.6424 74.8033 18.548 75.6293 16.6038C76.4553 14.6597 77.6758 12.9082 79.2137 11.4602C80.6981 9.933 82.4764 8.72211 84.4413 7.90043C86.4061 7.07875 88.5169 6.6633 90.6467 6.67909C92.6759 6.65206 94.6903 7.02864 96.5728 7.78697C98.4552 8.5453 100.168 9.67023 101.612 11.0964L98.5285 14.2318C96.4169 12.1911 93.5829 11.07 90.6467 11.1137C89.1235 11.095 87.6131 11.3934 86.2115 11.9898C84.8099 12.5862 83.5476 13.4678 82.5049 14.5782C81.4213 15.6532 80.5666 16.9365 79.992 18.3506C79.4175 19.7646 79.135 21.2804 79.1617 22.8065C79.149 24.3153 79.4382 25.8113 80.0124 27.2066C80.5866 28.6018 81.4341 29.868 82.5049 30.9309C84.6502 33.0687 87.5449 34.2848 90.5733 34.3204C93.6016 34.3559 96.5242 33.2082 98.719 31.1214C100.078 29.6334 100.911 27.741 101.092 25.734H90.6987V21.2994H105.406C105.55 22.1926 105.608 23.0975 105.579 24.0018C105.67 25.8734 105.381 27.744 104.729 29.5007C104.077 31.2574 103.076 32.8636 101.785 34.2222C100.35 35.716 98.6169 36.8907 96.6977 37.6697C94.7785 38.4488 92.7167 38.8146 90.6467 38.7435ZM124.842 35.7986C122.868 37.6905 120.24 38.7468 117.505 38.7468C114.771 38.7468 112.143 37.6905 110.169 35.7986C109.187 34.846 108.413 33.6998 107.897 32.4323C107.382 31.165 107.135 29.8042 107.172 28.4364C107.136 27.0687 107.383 25.7082 107.899 24.441C108.415 23.1738 109.188 22.0274 110.169 21.0742C112.145 19.1862 114.773 18.1326 117.505 18.1326C120.239 18.1326 122.866 19.1862 124.842 21.0742C125.824 22.0274 126.596 23.1738 127.112 24.441C127.628 25.7082 127.876 27.0687 127.838 28.4364C127.874 29.8055 127.625 31.167 127.105 32.4345C126.587 33.7019 125.81 34.8476 124.824 35.7986H124.842ZM113.409 32.9057C113.934 33.4664 114.568 33.9132 115.273 34.2188C115.977 34.5243 116.737 34.682 117.505 34.682C118.274 34.682 119.034 34.5243 119.738 34.2188C120.443 33.9132 121.078 33.4664 121.602 32.9057C122.174 32.314 122.623 31.6138 122.921 30.8463C123.218 30.0786 123.359 29.2593 123.335 28.4364C123.36 27.6108 123.22 26.7884 122.922 26.0178C122.624 25.2472 122.176 24.5441 121.602 23.9499C121.07 23.3949 120.432 22.9534 119.725 22.6517C119.018 22.35 118.257 22.1945 117.488 22.1945C116.719 22.1945 115.959 22.35 115.252 22.6517C114.545 22.9534 113.906 23.3949 113.374 23.9499C112.8 24.5441 112.351 25.2472 112.054 26.0178C111.756 26.7884 111.616 27.6108 111.642 28.4364C111.62 29.2605 111.763 30.0806 112.064 30.8482C112.364 31.6158 112.816 32.3154 113.391 32.9057H113.409ZM147.396 35.7986C145.422 37.6905 142.794 38.7468 140.059 38.7468C137.326 38.7468 134.698 37.6905 132.724 35.7986C131.741 34.846 130.968 33.6998 130.452 32.4323C129.936 31.165 129.689 29.8042 129.727 28.4364C129.69 27.0687 129.937 25.7082 130.453 24.441C130.969 23.1738 131.742 22.0274 132.724 21.0742C134.698 19.1823 137.326 18.126 140.059 18.126C142.794 18.126 145.422 19.1823 147.396 21.0742C148.378 22.0274 149.15 23.1738 149.666 24.441C150.182 25.7082 150.43 27.0687 150.392 28.4364C150.431 29.8042 150.184 31.165 149.668 32.4323C149.152 33.6998 148.379 34.846 147.396 35.7986ZM135.962 32.9057C136.488 33.4664 137.123 33.9132 137.827 34.2188C138.532 34.5243 139.291 34.682 140.059 34.682C140.827 34.682 141.588 34.5243 142.292 34.2188C142.997 33.9132 143.632 33.4664 144.156 32.9057C144.728 32.314 145.177 31.6138 145.475 30.8463C145.772 30.0786 145.913 29.2593 145.889 28.4364C145.914 27.6108 145.774 26.7884 145.477 26.0178C145.18 25.2472 144.731 24.5441 144.156 23.9499C143.624 23.3949 142.986 22.9534 142.279 22.6517C141.571 22.35 140.812 22.1945 140.042 22.1945C139.273 22.1945 138.512 22.35 137.806 22.6517C137.099 22.9534 136.46 23.3949 135.928 23.9499C135.354 24.5441 134.905 25.2472 134.608 26.0178C134.31 26.7884 134.171 27.6108 134.196 28.4364C134.174 29.2605 134.317 30.0806 134.618 30.8482C134.918 31.6158 135.37 32.3154 135.946 32.9057H135.962ZM162.224 47.9938C160.147 48.0598 158.112 47.4117 156.456 46.1576C154.985 45.0521 153.827 43.5837 153.095 41.8961L157.044 40.2504C157.475 41.259 158.147 42.1457 159.002 42.8316C159.918 43.5695 161.066 43.9565 162.241 43.9229C162.986 43.9683 163.733 43.8525 164.43 43.5834C165.126 43.3144 165.756 42.8985 166.278 42.3639C167.321 41.105 167.837 39.4907 167.716 37.8599V36.3702H167.56C166.9 37.1542 166.066 37.7738 165.125 38.1797C164.184 38.5856 163.16 38.7668 162.138 38.7088C160.837 38.7128 159.55 38.4468 158.357 37.9281C157.164 37.4093 156.092 36.6488 155.208 35.6946C154.249 34.7481 153.492 33.6167 152.983 32.3692C152.474 31.1216 152.224 29.7837 152.246 28.4364C152.222 27.0813 152.472 25.7352 152.981 24.4791C153.491 23.2229 154.248 22.0824 155.208 21.1263C156.09 20.1681 157.162 19.4038 158.354 18.8819C159.547 18.36 160.835 18.092 162.138 18.0947C163.24 18.0928 164.328 18.3354 165.325 18.805C166.187 19.1816 166.956 19.7434 167.576 20.4507H167.732V18.805H172.028V37.2537C172.141 38.7131 171.956 40.1802 171.482 41.5653C171.008 42.9503 170.257 44.2241 169.274 45.3087C168.338 46.2045 167.232 46.9036 166.021 47.3648C164.81 47.8258 163.519 48.0398 162.224 47.9938ZM162.536 34.6899C163.276 34.7062 164.01 34.5594 164.687 34.26C165.362 33.9606 165.965 33.516 166.451 32.9577C167.52 31.7328 168.083 30.1476 168.028 28.5231C168.091 26.871 167.528 25.2558 166.451 24.0018C165.966 23.4425 165.364 22.9972 164.687 22.6978C164.01 22.3983 163.276 22.2521 162.536 22.2695C161.776 22.2539 161.022 22.4003 160.322 22.699C159.624 22.9977 158.996 23.4418 158.483 24.0018C157.337 25.2107 156.714 26.823 156.75 28.4884C156.732 29.3052 156.876 30.1175 157.174 30.8786C157.471 31.6396 157.915 32.3344 158.483 32.923C158.994 33.4884 159.62 33.9383 160.319 34.243C161.017 34.5477 161.773 34.7001 162.536 34.6899ZM179.668 7.83972V38.1198H175.147V7.83972H179.668ZM192.071 38.7435C190.717 38.7783 189.371 38.5331 188.116 38.0234C186.86 37.5137 185.724 36.7504 184.778 35.7813C183.818 34.8192 183.064 33.672 182.56 32.4095C182.057 31.1469 181.816 29.7952 181.85 28.4364C181.8 27.0743 182.023 25.7159 182.508 24.4421C182.993 23.1683 183.73 22.0053 184.674 21.0222C185.564 20.0842 186.64 19.3424 187.834 18.8441C189.026 18.346 190.31 18.1025 191.603 18.1294C192.792 18.1168 193.97 18.3467 195.068 18.805C196.056 19.2038 196.956 19.7924 197.718 20.5372C198.372 21.1688 198.954 21.8718 199.451 22.6334C199.853 23.2762 200.195 23.9546 200.472 24.66L200.94 25.838L187.082 31.5371C187.501 32.5001 188.202 33.3136 189.092 33.8702C189.984 34.4268 191.022 34.7006 192.071 34.6553C193.092 34.6581 194.096 34.3962 194.986 33.8952C195.875 33.3944 196.62 32.6714 197.147 31.797L200.611 34.1356C199.727 35.4005 198.595 36.4731 197.285 37.2884C195.727 38.2728 193.914 38.7788 192.071 38.7435ZM186.286 28.1246L195.5 24.2963C195.217 23.6213 194.71 23.0646 194.063 22.7199C193.339 22.3114 192.521 22.1021 191.69 22.1136C190.28 22.1501 188.941 22.7415 187.966 23.7593C187.381 24.3183 186.928 24.9995 186.637 25.7541C186.347 26.5086 186.227 27.3182 186.286 28.1246Z" fill="white"/>
<path d="M224.62 38.7446C222.697 38.7778 220.787 38.4222 219.006 37.6989C217.224 36.9757 215.607 35.8999 214.251 34.536C212.895 33.172 211.829 31.5483 211.116 29.7621C210.403 27.9759 210.059 26.0642 210.103 24.1416C210.059 22.219 210.403 20.3072 211.116 18.521C211.829 16.7348 212.895 15.1111 214.251 13.7472C215.607 12.3834 217.224 11.3075 219.006 10.5843C220.787 9.86104 222.697 9.50535 224.62 9.53854C226.566 9.47769 228.501 9.8574 230.28 10.6493C232.059 11.4412 233.635 12.6248 234.893 14.1117L232.398 16.5369C231.475 15.3762 230.291 14.4495 228.942 13.8325C227.595 13.2154 226.119 12.9253 224.638 12.9858C223.211 12.9536 221.793 13.2102 220.468 13.7401C219.143 14.27 217.939 15.0622 216.929 16.0692C215.878 17.1259 215.057 18.3885 214.517 19.7776C213.978 21.1669 213.731 22.6526 213.793 24.1416C213.731 25.6305 213.978 27.1164 214.517 28.5055C215.057 29.8947 215.878 31.1572 216.929 32.214C217.939 33.221 219.143 34.0132 220.468 34.543C221.793 35.073 223.211 35.3295 224.638 35.2974C226.293 35.316 227.932 34.9611 229.431 34.2594C230.931 33.5576 232.252 32.5269 233.298 31.2439L235.793 33.7383C234.487 35.3001 232.847 36.5492 230.995 37.3934C228.997 38.3154 226.819 38.7771 224.62 38.7446Z" fill="white"/>
<path d="M242.498 38.1197H238.912V10.1436H242.498V38.1197Z" fill="white"/>
<path d="M248.35 21.2824C250.229 19.4164 252.769 18.3691 255.418 18.3691C258.066 18.3691 260.607 19.4164 262.486 21.2824C263.404 22.2525 264.121 23.3947 264.598 24.6433C265.073 25.8921 265.297 27.2224 265.257 28.558C265.297 29.8935 265.073 31.2239 264.598 32.4725C264.121 33.7211 263.404 34.8634 262.486 35.8335C260.607 37.6995 258.066 38.7467 255.418 38.7467C252.769 38.7467 250.229 37.6995 248.35 35.8335C247.431 34.8634 246.713 33.7211 246.238 32.4725C245.761 31.2239 245.538 29.8935 245.578 28.558C245.538 27.2224 245.761 25.8921 246.238 24.6433C246.713 23.3947 247.431 22.2525 248.35 21.2824ZM251.017 33.5815C251.583 34.1787 252.263 34.6542 253.019 34.9793C253.774 35.3043 254.587 35.4719 255.409 35.4719C256.231 35.4719 257.044 35.3043 257.8 34.9793C258.555 34.6542 259.235 34.1787 259.8 33.5815C260.427 32.9091 260.914 32.1185 261.232 31.2561C261.55 30.3935 261.694 29.4763 261.654 28.558C261.694 27.6395 261.55 26.7223 261.232 25.8599C260.914 24.9975 260.427 24.2069 259.8 23.5344C259.235 22.9373 258.555 22.4616 257.8 22.1367C257.044 21.8116 256.231 21.6439 255.409 21.6439C254.587 21.6439 253.774 21.8116 253.019 22.1367C252.263 22.4616 251.583 22.9373 251.017 23.5344C250.391 24.2069 249.904 24.9975 249.586 25.8599C249.268 26.7223 249.124 27.6395 249.165 28.558C249.129 29.4747 249.276 30.3893 249.598 31.2487C249.918 32.1081 250.408 32.8951 251.035 33.5643L251.017 33.5815Z" fill="white"/>
<path d="M285.126 38.1199H281.662V35.4694H281.557C280.941 36.4761 280.068 37.301 279.029 37.86C277.949 38.4853 276.724 38.8141 275.477 38.8128C274.464 38.882 273.45 38.7217 272.508 38.3438C271.566 37.9658 270.721 37.3801 270.037 36.6301C268.726 34.9704 268.066 32.8876 268.185 30.775V18.9956H271.77V30.1167C271.77 33.6853 273.347 35.4694 276.499 35.4694C277.2 35.4913 277.895 35.3455 278.529 35.0442C279.161 34.743 279.713 34.2948 280.137 33.7372C281.067 32.5593 281.562 31.0974 281.541 29.5971V18.9956H285.126V38.1199Z" fill="white"/>
<path d="M297.305 38.7434C296.089 38.7473 294.885 38.4878 293.779 37.9825C292.673 37.477 291.689 36.7378 290.895 35.8159C289.099 33.8323 288.138 31.2325 288.211 28.5577C288.138 25.8827 289.099 23.2829 290.895 21.2993C291.689 20.3774 292.673 19.6382 293.779 19.1329C294.885 18.6274 296.089 18.3679 297.305 18.3718C298.668 18.3503 300.014 18.6721 301.22 19.3073C302.28 19.8405 303.176 20.6481 303.818 21.6459H303.974L303.818 18.9955V10.1436H307.404V38.1197H303.939V35.4694H303.783C303.143 36.4672 302.245 37.2747 301.185 37.808C299.99 38.4375 298.656 38.7591 297.305 38.7434ZM297.894 35.4694C298.704 35.4812 299.508 35.3205 300.252 34.9979C300.996 34.6754 301.662 34.1984 302.208 33.5985C303.426 32.2115 304.047 30.4004 303.939 28.5577C304.047 26.7148 303.426 24.9037 302.208 23.5167C301.658 22.9136 300.99 22.4318 300.245 22.102C299.498 21.7724 298.692 21.6021 297.877 21.6021C297.061 21.6021 296.255 21.7724 295.509 22.102C294.763 22.4318 294.095 22.9136 293.546 23.5167C292.94 24.1989 292.476 24.9938 292.179 25.8559C291.882 26.7179 291.757 27.6302 291.813 28.5403C291.757 29.4505 291.882 30.3627 292.179 31.2248C292.476 32.0867 292.94 32.8817 293.546 33.5638C294.092 34.1744 294.763 34.6605 295.513 34.9893C296.263 35.3181 297.075 35.4818 297.894 35.4694Z" fill="white"/>
</g>
<defs>
<clipPath id="clip0_1144_1483">
<rect width="308.4" height="48" fill="white"/>
</clipPath>
</defs>
</svg>
