<svg width="257" height="40" viewBox="0 0 257 40" fill="none" xmlns="http://www.w3.org/2000/svg">
<path d="M30.8738 10.4888H32.3173L36.4315 6.37465L36.6336 4.62794C34.2767 2.54771 31.4285 1.10264 28.3579 0.429251C25.2873 -0.244141 22.0957 -0.123626 19.0846 0.779409C16.0735 1.68244 13.3423 3.33819 11.1491 5.59023C8.95583 7.84228 7.3729 10.6163 6.5498 13.6502C7.00814 13.4623 7.51586 13.4319 7.99336 13.5636L16.2216 12.2066C16.2216 12.2066 16.6403 11.5137 16.8568 11.557C18.6199 9.62073 21.0564 8.43157 23.6675 8.23298C26.2787 8.03439 28.867 8.8414 30.9026 10.4888H30.8738Z" fill="white"/>
<path d="M42.2927 13.6504C41.347 10.168 39.4054 7.03736 36.7061 4.64258L30.9319 10.4168C32.1353 11.4001 33.0997 12.6438 33.7523 14.0542C34.405 15.4646 34.7289 17.0047 34.6995 18.5585V19.5834C35.3744 19.5834 36.0427 19.7163 36.6662 19.9746C37.2897 20.2329 37.8562 20.6114 38.3334 21.0886C38.8106 21.5658 39.1892 22.1323 39.4474 22.7558C39.7057 23.3793 39.8386 24.0476 39.8386 24.7225C39.8386 25.3974 39.7057 26.0656 39.4474 26.6891C39.1892 27.3126 38.8106 27.8791 38.3334 28.3564C37.8562 28.8336 37.2897 29.2121 36.6662 29.4704C36.0427 29.7286 35.3744 29.8615 34.6995 29.8615H24.4214L23.3965 30.9009V37.0649L24.4214 38.0898H34.6995C37.5697 38.1122 40.3708 37.2101 42.6885 35.5171C45.0062 33.824 46.7175 31.43 47.569 28.689C48.4206 25.948 48.3674 23.0057 47.4171 20.2974C46.4669 17.589 44.6701 15.2584 42.2927 13.6504Z" fill="white"/>
<path d="M14.1291 38.032H24.4072V29.8037H14.1291C13.3968 29.8036 12.6731 29.646 12.007 29.3418L10.5635 29.7893L6.42046 33.9034L6.05957 35.347C8.38288 37.1014 11.2178 38.0447 14.1291 38.032Z" fill="white"/>
<path d="M14.1283 11.3409C11.3434 11.3575 8.63329 12.2436 6.37641 13.8752C4.11952 15.5069 2.4286 17.8027 1.53982 20.442C0.651045 23.0813 0.608793 25.9323 1.41897 28.5968C2.22914 31.2613 3.85129 33.6062 6.05883 35.304L12.0207 29.3421C11.2631 28.9998 10.5998 28.4788 10.0878 27.8238C9.57579 27.1688 9.23033 26.3994 9.08106 25.5815C8.93179 24.7637 8.98317 23.9218 9.23079 23.1282C9.47841 22.3345 9.91488 21.6128 10.5027 21.0249C11.0906 20.4371 11.8123 20.0006 12.606 19.753C13.3996 19.5054 14.2415 19.454 15.0593 19.6033C15.8772 19.7525 16.6466 20.098 17.3016 20.61C17.9566 21.122 18.4776 21.7853 18.8199 22.5429L24.7818 16.581C23.5304 14.9451 21.9176 13.6209 20.0695 12.7118C18.2213 11.8028 16.1879 11.3336 14.1283 11.3409Z" fill="white"/>
<path d="M75.5389 32.2864C73.7693 32.3089 72.0133 31.974 70.3762 31.3018C68.7391 30.6296 67.2545 29.6339 66.0114 28.3743C64.7291 27.1682 63.7115 25.7087 63.0231 24.0884C62.3348 22.4682 61.9907 20.7226 62.0127 18.9623C61.9916 17.2022 62.3361 15.4568 63.0244 13.8367C63.7127 12.2166 64.7298 10.757 66.0114 9.5503C67.2484 8.27766 68.7303 7.26858 70.3677 6.58385C72.0051 5.89912 73.7641 5.55291 75.5389 5.56607C77.2299 5.54354 78.9086 5.85736 80.4773 6.4893C82.046 7.12124 83.4734 8.05868 84.6766 9.24715L82.1071 11.86C80.3474 10.1594 77.9857 9.22513 75.5389 9.26159C74.2696 9.246 73.0109 9.49462 71.8429 9.99165C70.6749 10.4887 69.623 11.2233 68.7541 12.1487C67.8511 13.0445 67.1388 14.1139 66.66 15.2923C66.1812 16.4707 65.9458 17.7338 65.9681 19.0056C65.9575 20.2629 66.1985 21.5096 66.677 22.6723C67.1555 23.835 67.8617 24.8902 68.7541 25.7759C70.5418 27.5574 72.9541 28.5708 75.4777 28.6005C78.0013 28.6301 80.4368 27.6737 82.2658 25.9347C83.3982 24.6947 84.0929 23.1177 84.2435 21.4452H75.5822V17.7497H87.838C87.9584 18.494 88.0068 19.2481 87.9823 20.0017C88.0586 21.5613 87.8177 23.1202 87.2743 24.5841C86.7309 26.048 85.8963 27.3865 84.8209 28.5187C83.6253 29.7635 82.1807 30.7424 80.5814 31.3916C78.9821 32.0408 77.2639 32.3457 75.5389 32.2864ZM104.035 29.8323C102.39 31.4089 100.2 32.2892 97.9212 32.2892C95.6428 32.2892 93.4525 31.4089 91.8078 29.8323C90.9891 29.0385 90.3444 28.0833 89.9145 27.0271C89.4846 25.971 89.2789 24.837 89.3104 23.6972C89.2797 22.5574 89.4858 21.4237 89.9157 20.3677C90.3456 19.3117 90.9898 18.3563 91.8078 17.562C93.4542 15.9887 95.6439 15.1107 97.9212 15.1107C100.199 15.1107 102.388 15.9887 104.035 17.562C104.853 18.3563 105.497 19.3117 105.927 20.3677C106.357 21.4237 106.563 22.5574 106.532 23.6972C106.562 24.8381 106.354 25.9727 105.921 27.0289C105.489 28.0851 104.842 29.0398 104.02 29.8323H104.035ZM94.5072 27.4216C94.9447 27.8888 95.4734 28.2612 96.0607 28.5158C96.6479 28.7704 97.2812 28.9018 97.9212 28.9018C98.5613 28.9018 99.1946 28.7704 99.7818 28.5158C100.369 28.2612 100.898 27.8888 101.335 27.4216C101.812 26.9285 102.186 26.345 102.434 25.7054C102.682 25.0657 102.799 24.3829 102.779 23.6972C102.8 23.0092 102.683 22.3238 102.435 21.6817C102.187 21.0395 101.813 20.4536 101.335 19.9584C100.892 19.4959 100.36 19.128 99.7705 18.8766C99.1813 18.6252 98.5474 18.4956 97.9068 18.4956C97.2662 18.4956 96.6323 18.6252 96.0431 18.8766C95.4539 19.128 94.9216 19.4959 94.4784 19.9584C94.0002 20.4536 93.6262 21.0395 93.3782 21.6817C93.1303 22.3238 93.0135 23.0092 93.0348 23.6972C93.0166 24.3839 93.1362 25.0673 93.3866 25.707C93.637 26.3467 94.0132 26.9297 94.4928 27.4216H94.5072ZM122.83 29.8323C121.185 31.4089 118.995 32.2892 116.716 32.2892C114.438 32.2892 112.248 31.4089 110.603 29.8323C109.784 29.0385 109.14 28.0833 108.71 27.0271C108.28 25.971 108.074 24.837 108.106 23.6972C108.075 22.5574 108.281 21.4237 108.711 20.3677C109.141 19.3117 109.785 18.3563 110.603 17.562C112.248 15.9854 114.438 15.1052 116.716 15.1052C118.995 15.1052 121.185 15.9854 122.83 17.562C123.648 18.3563 124.292 19.3117 124.722 20.3677C125.152 21.4237 125.358 22.5574 125.327 23.6972C125.359 24.837 125.153 25.971 124.723 27.0271C124.293 28.0833 123.649 29.0385 122.83 29.8323ZM113.302 27.4216C113.74 27.8888 114.269 28.2612 114.856 28.5158C115.443 28.7704 116.076 28.9018 116.716 28.9018C117.356 28.9018 117.99 28.7704 118.577 28.5158C119.164 28.2612 119.693 27.8888 120.13 27.4216C120.607 26.9285 120.981 26.345 121.229 25.7054C121.477 25.0657 121.594 24.3829 121.574 23.6972C121.595 23.0092 121.478 22.3238 121.231 21.6817C120.983 21.0395 120.609 20.4536 120.13 19.9584C119.687 19.4959 119.155 19.128 118.566 18.8766C117.976 18.6252 117.343 18.4956 116.702 18.4956C116.061 18.4956 115.427 18.6252 114.838 18.8766C114.249 19.128 113.717 19.4959 113.273 19.9584C112.795 20.4536 112.421 21.0395 112.173 21.6817C111.925 22.3238 111.809 23.0092 111.83 23.6972C111.812 24.3839 111.931 25.0673 112.182 25.707C112.432 26.3467 112.808 26.9297 113.288 27.4216H113.302ZM135.187 39.995C133.456 40.05 131.76 39.5099 130.38 38.4648C129.154 37.5436 128.189 36.3199 127.579 34.9136L130.87 33.5422C131.229 34.3827 131.789 35.1216 132.502 35.6932C133.265 36.3081 134.222 36.6306 135.201 36.6026C135.822 36.6404 136.444 36.5439 137.025 36.3197C137.605 36.0955 138.13 35.7489 138.565 35.3034C139.434 34.2543 139.864 32.9091 139.763 31.5501V30.3087H139.633C139.083 30.962 138.388 31.4783 137.604 31.8166C136.82 32.1548 135.967 32.3058 135.115 32.2575C134.031 32.2608 132.958 32.0392 131.964 31.6069C130.97 31.1746 130.077 30.5408 129.34 29.7457C128.541 28.9569 127.91 28.0141 127.486 26.9745C127.062 25.9348 126.853 24.8199 126.872 23.6972C126.852 22.5679 127.06 21.4462 127.484 20.3994C127.909 19.3526 128.54 18.4022 129.34 17.6054C130.075 16.8069 130.968 16.17 131.962 15.7351C132.956 15.3002 134.029 15.0768 135.115 15.0791C136.033 15.0775 136.94 15.2797 137.771 15.671C138.489 15.9848 139.13 16.453 139.647 17.0424H139.777V15.671H143.357V31.0449C143.451 32.2611 143.297 33.4837 142.902 34.6379C142.507 35.7921 141.881 36.8536 141.062 37.7574C140.282 38.5039 139.36 39.0865 138.351 39.4708C137.342 39.855 136.266 40.0333 135.187 39.995ZM135.447 28.9084C136.063 28.922 136.675 28.7997 137.239 28.5502C137.802 28.3007 138.304 27.9302 138.709 27.4649C139.6 26.4442 140.069 25.1232 140.023 23.7694C140.076 22.3927 139.607 21.0467 138.709 20.0017C138.305 19.5356 137.803 19.1645 137.239 18.915C136.675 18.6654 136.063 18.5436 135.447 18.5581C134.813 18.5451 134.185 18.6671 133.602 18.916C133.02 19.1649 132.497 19.535 132.069 20.0017C131.114 21.0091 130.595 22.3527 130.625 23.7405C130.61 24.4212 130.73 25.0981 130.978 25.7323C131.226 26.3665 131.596 26.9455 132.069 27.436C132.495 27.9072 133.017 28.2821 133.599 28.536C134.181 28.7899 134.811 28.9169 135.447 28.9084ZM149.723 6.53326V31.7667H145.956V6.53326H149.723ZM160.059 32.2864C158.931 32.3154 157.809 32.1111 156.763 31.6863C155.717 31.2616 154.77 30.6255 153.982 29.8179C153.182 29.0162 152.553 28.0602 152.133 27.0081C151.714 25.9559 151.513 24.8295 151.542 23.6972C151.5 22.5621 151.686 21.4301 152.09 20.3686C152.494 19.3071 153.108 18.3379 153.895 17.5187C154.637 16.737 155.533 16.1188 156.528 15.7036C157.522 15.2885 158.592 15.0856 159.669 15.108C160.66 15.0975 161.642 15.2891 162.557 15.671C163.38 16.0033 164.13 16.4938 164.765 17.1145C165.31 17.6408 165.795 18.2267 166.209 18.8613C166.544 19.397 166.829 19.9623 167.06 20.5502L167.45 21.5318L155.902 26.2811C156.251 27.0836 156.835 27.7615 157.577 28.2253C158.32 28.6892 159.185 28.9173 160.059 28.8796C160.91 28.8819 161.747 28.6637 162.488 28.2462C163.229 27.8288 163.85 27.2263 164.289 26.4977L167.176 28.4465C166.439 29.5006 165.496 30.3944 164.404 31.0738C163.106 31.8942 161.595 32.3158 160.059 32.2864ZM155.238 23.4373L162.917 20.2471C162.681 19.6846 162.258 19.2207 161.719 18.9334C161.116 18.593 160.434 18.4186 159.742 18.4282C158.567 18.4586 157.451 18.9514 156.638 19.7996C156.151 20.2654 155.773 20.8331 155.531 21.4619C155.289 22.0907 155.189 22.7653 155.238 23.4373Z" fill="white"/>
<path d="M187.183 32.287C185.581 32.3147 183.989 32.0183 182.505 31.4156C181.02 30.8129 179.672 29.9164 178.542 28.7798C177.412 27.6432 176.524 26.2901 175.93 24.8016C175.336 23.3131 175.049 21.72 175.086 20.1178C175.049 18.5157 175.336 16.9225 175.93 15.434C176.524 13.9455 177.412 12.5924 178.542 11.4558C179.672 10.3193 181.02 9.42275 182.505 8.82006C183.989 8.21737 185.581 7.92096 187.183 7.94862C188.805 7.89791 190.417 8.21434 191.9 8.87426C193.382 9.53418 194.696 10.5205 195.744 11.7596L193.665 13.7806C192.896 12.8133 191.909 12.0411 190.785 11.5269C189.662 11.0127 188.432 10.7709 187.198 10.8213C186.009 10.7945 184.827 11.0083 183.723 11.4499C182.619 11.8915 181.616 12.5517 180.774 13.3908C179.898 14.2714 179.214 15.3236 178.764 16.4812C178.315 17.6389 178.109 18.877 178.161 20.1178C178.109 21.3586 178.315 22.5968 178.764 23.7544C179.214 24.9121 179.898 25.9642 180.774 26.8448C181.616 27.684 182.619 28.3442 183.723 28.7857C184.827 29.2273 186.009 29.4411 187.198 29.4143C188.577 29.4298 189.943 29.1341 191.192 28.5493C192.442 27.9645 193.543 27.1056 194.415 26.0364L196.494 28.1151C195.406 29.4166 194.039 30.4575 192.496 31.161C190.831 31.9293 189.016 32.3141 187.183 32.287Z" fill="white"/>
<path d="M202.081 31.7666H199.093V8.45312H202.081V31.7666Z" fill="white"/>
<path d="M206.958 17.7353C208.524 16.1803 210.641 15.3076 212.848 15.3076C215.055 15.3076 217.172 16.1803 218.738 17.7353C219.503 18.5437 220.101 19.4956 220.498 20.5361C220.894 21.5767 221.081 22.6853 221.047 23.7983C221.081 24.9112 220.894 26.0199 220.498 27.0604C220.101 28.1009 219.503 29.0528 218.738 29.8612C217.172 31.4162 215.055 32.2889 212.848 32.2889C210.641 32.2889 208.524 31.4162 206.958 29.8612C206.192 29.0528 205.594 28.1009 205.198 27.0604C204.801 26.0199 204.615 24.9112 204.648 23.7983C204.615 22.6853 204.801 21.5767 205.198 20.5361C205.594 19.4956 206.192 18.5437 206.958 17.7353ZM209.181 27.9846C209.652 28.4822 210.219 28.8785 210.849 29.1494C211.478 29.4202 212.156 29.5599 212.841 29.5599C213.526 29.5599 214.203 29.4202 214.833 29.1494C215.462 28.8785 216.029 28.4822 216.5 27.9846C217.022 27.4242 217.428 26.7654 217.693 26.0467C217.958 25.3279 218.078 24.5636 218.045 23.7983C218.078 23.0329 217.958 22.2686 217.693 21.5499C217.428 20.8312 217.022 20.1724 216.5 19.612C216.029 19.1144 215.462 18.718 214.833 18.4472C214.203 18.1763 213.526 18.0366 212.841 18.0366C212.156 18.0366 211.478 18.1763 210.849 18.4472C210.219 18.718 209.652 19.1144 209.181 19.612C208.659 20.1724 208.253 20.8312 207.988 21.5499C207.723 22.2686 207.603 23.0329 207.637 23.7983C207.607 24.5622 207.73 25.3244 207.998 26.0406C208.265 26.7567 208.673 27.4126 209.196 27.9702L209.181 27.9846Z" fill="white"/>
<path d="M237.605 31.7665H234.718V29.5578H234.631C234.117 30.3967 233.39 31.0841 232.524 31.5499C231.624 32.071 230.603 32.345 229.564 32.3439C228.72 32.4016 227.875 32.268 227.09 31.9531C226.305 31.6381 225.601 31.15 225.031 30.525C223.938 29.1419 223.388 27.4063 223.487 25.6458V15.8296H226.475V25.0972C226.475 28.071 227.789 29.5578 230.416 29.5578C231 29.576 231.579 29.4545 232.107 29.2034C232.634 28.9524 233.094 28.5789 233.447 28.1143C234.222 27.1327 234.635 25.9144 234.617 24.6642V15.8296H237.605V31.7665Z" fill="white"/>
<path d="M247.754 32.2863C246.741 32.2896 245.738 32.0733 244.816 31.6522C243.894 31.231 243.074 30.615 242.413 29.8467C240.916 28.1937 240.115 26.0272 240.176 23.7982C240.115 21.5691 240.916 19.4026 242.413 17.7496C243.074 16.9813 243.894 16.3653 244.816 15.9442C245.738 15.523 246.741 15.3067 247.754 15.31C248.89 15.2921 250.012 15.5602 251.017 16.0896C251.9 16.5339 252.647 17.2069 253.182 18.0384H253.312L253.182 15.8297V8.45312H256.17V31.7666H253.283V29.558H253.153C252.619 30.3895 251.871 31.0624 250.988 31.5068C249.992 32.0314 248.88 32.2994 247.754 32.2863ZM248.245 29.558C248.92 29.5678 249.59 29.4339 250.21 29.1651C250.83 28.8963 251.385 28.4988 251.84 27.9989C252.855 26.8431 253.373 25.3338 253.283 23.7982C253.373 22.2625 252.855 20.7532 251.84 19.5974C251.382 19.0948 250.825 18.6933 250.204 18.4185C249.582 18.1438 248.91 18.0019 248.231 18.0019C247.551 18.0019 246.879 18.1438 246.258 18.4185C245.636 18.6933 245.079 19.0948 244.622 19.5974C244.117 20.1659 243.73 20.8283 243.483 21.5467C243.235 22.2651 243.131 23.0253 243.178 23.7837C243.131 24.5422 243.235 25.3024 243.483 26.0208C243.73 26.7391 244.117 27.4016 244.622 27.97C245.077 28.4788 245.636 28.8839 246.261 29.1579C246.886 29.4319 247.563 29.5683 248.245 29.558Z" fill="white"/>
</svg>
