<svg width="77" height="40" viewBox="0 0 77 40" fill="none" xmlns="http://www.w3.org/2000/svg">
<path d="M0.172286 27.0108C0.163393 26.8968 0.18624 26.7825 0.2383 26.6806C0.290359 26.5787 0.369599 26.4932 0.467246 26.4336C0.564893 26.374 0.677138 26.3425 0.791551 26.3427C0.905964 26.343 1.01808 26.3749 1.11549 26.4349C1.21309 26.4943 1.29238 26.5795 1.34458 26.6812C1.39679 26.7828 1.41988 26.8969 1.41132 27.0108V36.3056H5.37404C5.52531 36.3097 5.66901 36.3726 5.77453 36.4811C5.88006 36.5896 5.93908 36.7349 5.93902 36.8862C5.9405 36.9588 5.92737 37.031 5.90041 37.0984C5.87345 37.1658 5.83321 37.2271 5.78208 37.2786C5.68321 37.3767 5.53098 37.4355 5.38974 37.4355H0.799259C0.63564 37.4312 0.480168 37.3632 0.365982 37.2459C0.251795 37.1287 0.187923 36.9715 0.18798 36.8078L0.172286 27.0108ZM8.25466 26.7911C8.28998 26.4223 8.59993 26.1422 8.96089 26.1422C9.32185 26.1422 9.64044 26.4231 9.66712 26.7911V26.9951C9.63181 27.364 9.32185 27.6441 8.96089 27.6441C8.59993 27.6441 8.28134 27.3632 8.25466 26.9951V26.7911ZM8.36452 29.8671C8.36468 29.7074 8.42732 29.554 8.53904 29.4398C8.65077 29.3255 8.80273 29.2595 8.96246 29.2559C9.043 29.2549 9.12291 29.2701 9.1975 29.3005C9.27209 29.3308 9.33986 29.3758 9.39681 29.4328C9.45376 29.4897 9.49875 29.5575 9.52914 29.6321C9.55952 29.7067 9.57469 29.7866 9.57374 29.8671V36.9153C9.5766 36.9951 9.5632 37.0747 9.53433 37.1491C9.50546 37.2236 9.46173 37.2914 9.40582 37.3484C9.29282 37.4638 9.13745 37.5289 8.9758 37.5266C8.89526 37.5275 8.81535 37.5123 8.74076 37.482C8.66617 37.4516 8.5984 37.4066 8.54145 37.3496C8.4845 37.2927 8.43951 37.2249 8.40912 37.1503C8.37874 37.0757 8.36358 36.9958 8.36452 36.9153V29.8671ZM12.8373 39.0363C12.7432 38.9906 12.6638 38.9194 12.6083 38.8307C12.5528 38.742 12.5234 38.6395 12.5234 38.5349C12.5446 38.2446 12.78 38.0146 13.0711 38.0013C13.1659 38.0003 13.2589 38.0271 13.3387 38.0782C14.187 38.6516 15.1876 38.9577 16.2115 38.9571C18.0022 38.9571 19.1643 37.955 19.1643 36.0678V35.1089C18.4596 36.0505 17.467 36.8196 15.9784 36.8196C15.4765 36.8282 14.9779 36.736 14.5123 36.5484C14.0466 36.3608 13.6233 36.0817 13.2676 35.7275C12.9118 35.3733 12.6307 34.9513 12.441 34.4865C12.2513 34.0217 12.1569 33.5236 12.1632 33.0216V32.9918C12.1673 32.1769 12.4302 31.3843 12.9139 30.7284C13.3977 30.0726 14.0773 29.5874 14.8548 29.343C16.45 28.8423 18.1866 29.4316 19.147 30.8001V29.8742C19.145 29.7945 19.1591 29.7152 19.1882 29.641C19.2174 29.5668 19.2612 29.4993 19.3169 29.4423C19.3726 29.3853 19.4393 29.34 19.5128 29.3092C19.5863 29.2784 19.6653 29.2627 19.745 29.2629C20.0824 29.2645 20.3547 29.5376 20.357 29.875V36.0451C20.357 37.3006 19.9804 38.2595 19.3212 38.917C18.5993 39.639 17.5164 39.9999 16.228 39.9999C15.0296 40.0057 13.8541 39.6722 12.8373 39.0379V39.0363ZM19.1839 33.0232V32.9934C19.1839 31.322 17.7401 30.2469 16.2005 30.2469C14.6609 30.2469 13.3913 31.3157 13.3913 32.9792V33.0091C13.3887 33.3774 13.4603 33.7425 13.6017 34.0826C13.7432 34.4227 13.9516 34.7309 14.2146 34.9888C14.4775 35.2467 14.7897 35.4491 15.1325 35.584C15.4753 35.7188 15.8417 35.7832 16.2099 35.7735C17.7597 35.7579 19.2028 34.6412 19.2028 33.0114L19.1839 33.0232ZM23.1364 26.5259C23.1364 26.3655 23.2001 26.2118 23.3135 26.0984C23.4269 25.985 23.5807 25.9213 23.7411 25.9213C23.9014 25.9213 24.0552 25.985 24.1686 26.0984C24.282 26.2118 24.3457 26.3655 24.3457 26.5259V30.7476C24.6188 30.2535 25.0225 29.8442 25.5128 29.5643C26.003 29.2844 26.5608 29.1449 27.1251 29.1609C29.0868 29.1609 30.2325 30.4808 30.2325 32.4111V36.9176C30.2325 37.078 30.1688 37.2318 30.0554 37.3452C29.942 37.4585 29.7882 37.5222 29.6278 37.5222C29.4675 37.5222 29.3137 37.4585 29.2003 37.3452C29.0869 37.2318 29.0232 37.078 29.0232 36.9176V32.7085C29.0232 31.2019 28.2072 30.2603 26.779 30.2603C25.3509 30.2603 24.3464 31.2788 24.3464 32.8027V36.9145C24.3493 36.9943 24.3359 37.0739 24.307 37.1483C24.2782 37.2228 24.2344 37.2906 24.1785 37.3477C24.0655 37.463 23.9102 37.5281 23.7485 37.5258C23.668 37.5267 23.5881 37.5116 23.5135 37.4812C23.4389 37.4508 23.3711 37.4058 23.3142 37.3488C23.2572 37.2919 23.2122 37.2241 23.1818 37.1495C23.1514 37.0749 23.1363 36.995 23.1372 36.9145L23.1364 26.5259ZM33.0997 35.3012V30.4007H32.4327C32.1424 30.3929 31.907 30.1653 31.8992 29.8671C31.9007 29.5729 32.1393 29.3335 32.4327 29.3335H33.0997V27.4189C33.0974 27.258 33.1586 27.1034 33.2708 26.9873C33.383 26.8712 33.5376 26.8068 33.6977 26.8068C33.8588 26.8108 34.0121 26.8766 34.1261 26.9905C34.24 27.1044 34.3058 27.2578 34.3097 27.4189V29.3335H36.4143C36.7101 29.3367 36.9518 29.5721 36.962 29.8671C36.9602 30.0106 36.9014 30.1475 36.7987 30.2477C36.696 30.3479 36.5578 30.4032 36.4143 30.4015H34.3097V35.1411C34.3097 36.1431 34.8575 36.4774 35.6751 36.4774C35.9245 36.4678 36.1721 36.431 36.4135 36.3676C36.6984 36.3691 36.9298 36.5998 36.9314 36.8855C36.9309 36.9888 36.8985 37.0895 36.8387 37.1737C36.7789 37.258 36.6945 37.3217 36.5971 37.3563C36.2183 37.5088 35.8127 37.5838 35.4044 37.5768C34.1018 37.5925 33.0997 36.949 33.0997 35.3012ZM39.5499 26.5267C39.5499 26.3663 39.6136 26.2125 39.727 26.0992C39.8404 25.9858 39.9942 25.9221 40.1546 25.9221C40.3149 25.9221 40.4687 25.9858 40.5821 26.0992C40.6955 26.2125 40.7592 26.3663 40.7592 26.5267V30.9696C41.4262 29.9966 42.3756 29.1648 43.8689 29.1648C45.8165 29.1648 47.7469 30.7052 47.7469 33.3708V33.4006C47.7469 36.0529 45.8322 37.6223 43.8689 37.6223C42.604 37.6199 41.4364 36.9679 40.7592 35.896V36.9145C40.7615 37.0754 40.7003 37.2299 40.5881 37.3461C40.4759 37.4622 40.3213 37.5266 40.1612 37.5266C39.8238 37.525 39.5515 37.2519 39.5492 36.9145L39.5499 26.5267ZM46.5047 33.4179V33.3881C46.5047 31.4734 45.1849 30.2477 43.6484 30.2477C43.2504 30.2595 42.8586 30.3496 42.4955 30.5129C42.1323 30.6763 41.805 30.9096 41.5321 31.1995C40.9812 31.7849 40.6862 32.5665 40.7121 33.3708V33.4006C40.694 33.8008 40.7561 34.2005 40.8947 34.5763C41.0333 34.9521 41.2456 35.2964 41.5192 35.5889C41.7927 35.8815 42.122 36.1164 42.4877 36.2799C42.8533 36.4434 43.248 36.5322 43.6484 36.541C45.2178 36.541 46.5047 35.3796 46.5047 33.4179ZM53.3653 37.6396C51.1368 37.6396 49.3163 35.9289 49.3163 33.4179V33.3881C49.3163 31.0497 50.9642 29.1664 53.2084 29.1664C55.6096 29.1664 56.9765 31.1281 56.9765 33.2782C56.978 33.3508 56.9648 33.4229 56.9379 33.4903C56.9109 33.5577 56.8707 33.619 56.8196 33.6706C56.7207 33.7686 56.5685 33.8275 56.4272 33.8275H50.5404C50.713 35.5852 51.9529 36.5739 53.3967 36.5739C54.2697 36.5798 55.1098 36.2415 55.7351 35.6323C55.8866 35.4895 56.1078 35.4518 56.2985 35.5326C56.4892 35.6135 56.6124 35.8018 56.614 36.0097C56.6116 36.1612 56.5355 36.304 56.4272 36.4005C56.0287 36.8041 55.5513 37.1213 55.0247 37.3322C54.4982 37.5431 53.9338 37.6432 53.3669 37.6262L53.3653 37.6396ZM55.7665 32.9471C55.6394 31.4703 54.7935 30.1849 53.177 30.1849C51.7645 30.1849 50.695 31.3604 50.5381 32.9471H55.7665ZM58.9853 29.8711C58.9855 29.7113 59.0481 29.5579 59.1598 29.4437C59.2716 29.3295 59.4235 29.2635 59.5833 29.2598C59.6638 29.2588 59.7437 29.274 59.8183 29.3044C59.8929 29.3348 59.9607 29.3798 60.0176 29.4367C60.0746 29.4937 60.1196 29.5614 60.1499 29.636C60.1803 29.7106 60.1955 29.7905 60.1945 29.8711V30.7499C60.4676 30.2559 60.8714 29.8465 61.3616 29.5667C61.8519 29.2868 62.4097 29.1472 62.9739 29.1633C64.9357 29.1633 66.0837 30.4831 66.0837 32.4135V36.92C66.0837 37.0803 66.02 37.2341 65.9066 37.3475C65.7932 37.4609 65.6394 37.5246 65.4791 37.5246C65.3187 37.5246 65.1649 37.4609 65.0516 37.3475C64.9382 37.2341 64.8745 37.0803 64.8745 36.92V32.7117C64.8745 31.205 64.0584 30.2634 62.6302 30.2634C61.2021 30.2634 60.1977 31.2819 60.1977 32.8058V36.9176C60.2005 36.9975 60.1871 37.077 60.1583 37.1515C60.1294 37.226 60.0857 37.2938 60.0298 37.3508C59.9168 37.4661 59.7614 37.5313 59.5997 37.5289C59.5192 37.5299 59.4393 37.5147 59.3647 37.4843C59.2901 37.4539 59.2223 37.4089 59.1654 37.352C59.1084 37.295 59.0634 37.2273 59.0331 37.1527C59.0027 37.0781 58.9875 36.9982 58.9885 36.9176L58.9853 29.8711ZM76.1922 36.9192C76.1922 37.0796 76.1285 37.2333 76.0151 37.3467C75.9017 37.4601 75.7479 37.5238 75.5875 37.5238C75.4272 37.5238 75.2734 37.4601 75.16 37.3467C75.0466 37.2333 74.9829 37.0796 74.9829 36.9192V35.8112C74.3159 36.7842 73.3665 37.616 71.8732 37.616C69.9256 37.616 67.9952 36.0757 67.9952 33.41V33.3802C67.9952 30.7279 69.9256 29.1586 71.8732 29.1586C73.1381 29.1609 74.3057 29.813 74.9829 30.8849V26.5298C74.9801 26.45 74.9935 26.3704 75.0224 26.296C75.0512 26.2215 75.0949 26.1537 75.1509 26.0967C75.2639 25.9813 75.4192 25.9162 75.5809 25.9185C75.6614 25.9176 75.7413 25.9328 75.8159 25.9631C75.8905 25.9935 75.9583 26.0385 76.0152 26.0955C76.0722 26.1524 76.1172 26.2202 76.1476 26.2948C76.1779 26.3694 76.1931 26.4493 76.1922 26.5298V36.9192ZM69.2374 33.3724V33.4022C69.2374 35.3169 70.5737 36.5426 72.0937 36.5426C72.4931 36.5306 72.8863 36.4397 73.2505 36.2752C73.6147 36.1106 73.9427 35.8756 74.2156 35.5837C74.4886 35.2918 74.7011 34.9487 74.8408 34.5743C74.9806 34.1999 75.0449 33.8016 75.03 33.4022V33.3724C75.0457 32.9737 74.9819 32.5758 74.8423 32.202C74.7026 31.8282 74.4899 31.486 74.2166 31.1953C73.9432 30.9046 73.6147 30.6712 73.2503 30.5088C72.8858 30.3464 72.4926 30.2581 72.0937 30.2493C70.5133 30.2461 69.2374 31.4083 69.2374 33.3724ZM25.2904 16.6709V21.4905C25.2915 21.7181 25.3823 21.936 25.5432 22.0969C25.7042 22.2578 25.9221 22.3487 26.1497 22.3497H50.2132C50.4408 22.3487 50.6587 22.2578 50.8196 22.0969C50.9805 21.936 51.0714 21.7181 51.0724 21.4905V16.6787C46.874 17.8343 42.5376 18.4125 38.183 18.3972C33.8274 18.4128 29.4899 17.8346 25.2904 16.6787V16.6709ZM50.2124 0H26.1497C25.9221 0.00103207 25.7042 0.0918906 25.5432 0.252807C25.3823 0.413723 25.2915 0.631675 25.2904 0.859243V15.0387C33.7157 17.4454 42.6464 17.4454 51.0717 15.0387V0.859243C51.0706 0.631675 50.9798 0.413723 50.8188 0.252807C50.6579 0.0918906 50.44 0.00103207 50.2124 0Z" fill="white"/>
</svg>
