<svg width="124" height="64" viewBox="0 0 124 64" fill="none" xmlns="http://www.w3.org/2000/svg">
<path d="M0.275462 43.2173C0.261233 43.0349 0.297789 42.852 0.381085 42.689C0.464379 42.5259 0.591163 42.3891 0.747398 42.2938C0.903633 42.1984 1.08323 42.148 1.26629 42.1483C1.44935 42.1488 1.62873 42.1998 1.78459 42.2958C1.94075 42.3909 2.06761 42.5272 2.15113 42.6899C2.23467 42.8525 2.27161 43.035 2.25792 43.2173V58.089H8.59827C8.8403 58.0955 9.07022 58.1962 9.23905 58.3698C9.4079 58.5434 9.50233 58.7758 9.50224 59.0179C9.5046 59.1341 9.4836 59.2496 9.44046 59.3574C9.39732 59.4653 9.33294 59.5634 9.25113 59.6458C9.09294 59.8027 8.84937 59.8968 8.62339 59.8968H1.27862C1.01683 59.8899 0.768073 59.7811 0.585376 59.5934C0.402677 59.4059 0.300481 59.1544 0.300573 58.8925L0.275462 43.2173ZM13.2073 42.8658C13.2638 42.2757 13.7597 41.8275 14.3372 41.8275C14.9148 41.8275 15.4245 42.277 15.4672 42.8658V43.1922C15.4107 43.7824 14.9148 44.2306 14.3372 44.2306C13.7597 44.2306 13.2499 43.7811 13.2073 43.1922V42.8658ZM13.383 47.7874C13.3833 47.5318 13.4835 47.2864 13.6623 47.1037C13.841 46.9208 14.0842 46.8152 14.3397 46.8094C14.4686 46.8078 14.5965 46.8322 14.7158 46.8808C14.8351 46.9293 14.9436 47.0013 15.0347 47.0925C15.1258 47.1835 15.1978 47.292 15.2464 47.4114C15.295 47.5307 15.3193 47.6586 15.3178 47.7874V59.0645C15.3224 59.1922 15.3009 59.3195 15.2547 59.4386C15.2085 59.5578 15.1386 59.6662 15.0491 59.7574C14.8683 59.9421 14.6197 60.0462 14.3611 60.0426C14.2322 60.044 14.1044 60.0197 13.985 59.9712C13.8657 59.9226 13.7572 59.8506 13.6661 59.7594C13.575 59.6683 13.503 59.5598 13.4544 59.4405C13.4058 59.3211 13.3815 59.1933 13.383 59.0645V47.7874ZM20.5395 62.4581C20.3889 62.385 20.2619 62.271 20.1731 62.1291C20.0843 61.9872 20.0372 61.8232 20.0372 61.6558C20.0712 61.1914 20.4478 60.8234 20.9136 60.8021C21.0652 60.8005 21.214 60.8434 21.3417 60.9251C22.699 61.8426 24.3 62.3323 25.9382 62.3314C28.8033 62.3314 30.6627 60.728 30.6627 57.7085V56.1742C29.5352 57.6808 27.947 58.9114 25.5652 58.9114C24.7622 58.9251 23.9644 58.7776 23.2195 58.4774C22.4744 58.1773 21.7971 57.7307 21.228 57.164C20.6587 56.5973 20.2089 55.9221 19.9054 55.1784C19.6019 54.4347 19.4508 53.6378 19.4609 52.8346V52.7869C19.4675 51.483 19.8881 50.2149 20.662 49.1654C21.4361 48.1162 22.5235 47.3398 23.7675 46.9488C26.3198 46.1477 29.0984 47.0906 30.635 49.2802V47.7987C30.6318 47.6712 30.6544 47.5443 30.7009 47.4256C30.7476 47.3069 30.8177 47.1989 30.9068 47.1077C30.996 47.0165 31.1027 46.944 31.2203 46.8947C31.3379 46.8454 31.4643 46.8203 31.5918 46.8206C32.1316 46.8232 32.5673 47.2602 32.571 47.8V57.6722C32.571 59.681 31.9684 61.2152 30.9137 62.2672C29.7587 63.4224 28.026 63.9998 25.9646 63.9998C24.0472 64.0091 22.1664 63.4755 20.5395 62.4606V62.4581ZM30.694 52.8371V52.7894C30.694 50.1152 28.384 48.395 25.9206 48.395C23.4572 48.395 21.4259 50.1051 21.4259 52.7667V52.8146C21.4217 53.4038 21.5363 53.988 21.7625 54.5322C21.9889 55.0763 22.3224 55.5694 22.7432 55.9821C23.1638 56.3947 23.6633 56.7186 24.2118 56.9344C24.7603 57.1501 25.3465 57.2531 25.9356 57.2376C28.4153 57.2126 30.7243 55.4259 30.7243 52.8182L30.694 52.8371ZM37.018 42.4414C37.018 42.1848 37.12 41.9389 37.3014 41.7574C37.4828 41.576 37.7289 41.4741 37.9856 41.4741C38.242 41.4741 38.4881 41.576 38.6696 41.7574C38.851 41.9389 38.9529 42.1848 38.9529 42.4414V49.1962C39.3899 48.4056 40.0358 47.7507 40.8203 47.3029C41.6046 46.855 42.4971 46.6318 43.4 46.6574C46.5387 46.6574 48.3718 48.7693 48.3718 51.8578V59.0682C48.3718 59.3248 48.2699 59.5709 48.0884 59.7523C47.907 59.9336 47.6609 60.0355 47.4043 60.0355C47.1478 60.0355 46.9017 59.9336 46.7203 59.7523C46.5388 59.5709 46.4369 59.3248 46.4369 59.0682V52.3336C46.4369 49.923 45.1313 48.4165 42.8462 48.4165C40.5612 48.4165 38.954 50.0461 38.954 52.4843V59.0632C38.9587 59.1909 38.9372 59.3182 38.891 59.4373C38.8449 59.5565 38.7748 59.665 38.6854 59.7563C38.5046 59.9408 38.2561 60.045 37.9974 60.0413C37.8686 60.0427 37.7408 60.0186 37.6214 59.9699C37.502 59.9213 37.3936 59.8493 37.3025 59.7581C37.2113 59.667 37.1393 59.5586 37.0907 59.4392C37.042 59.3198 37.0179 59.192 37.0193 59.0632L37.018 42.4414ZM52.9593 56.4819V48.6411H51.8921C51.4276 48.6286 51.051 48.2645 51.0385 47.7874C51.0409 47.3166 51.4227 46.9336 51.8921 46.9336H52.9593V43.8702C52.9556 43.6128 53.0536 43.3654 53.2331 43.1797C53.4126 42.9939 53.66 42.8909 53.9161 42.8909C54.1739 42.8973 54.4192 43.0026 54.6016 43.1848C54.7838 43.367 54.8891 43.6125 54.8953 43.8702V46.9336H58.2627C58.736 46.9387 59.1227 47.3154 59.139 47.7874C59.1361 48.017 59.042 48.236 58.8777 48.3963C58.7134 48.5566 58.4923 48.6451 58.2627 48.6424H54.8953V56.2258C54.8953 57.829 55.7718 58.3638 57.08 58.3638C57.479 58.3485 57.8752 58.2896 58.2614 58.1882C58.7172 58.1906 59.0875 58.5597 59.09 59.0168C59.0892 59.1821 59.0374 59.3432 58.9417 59.4779C58.846 59.6128 58.711 59.7147 58.5552 59.7701C57.9491 60.0141 57.3001 60.1341 56.6468 60.1229C54.5627 60.148 52.9593 59.1184 52.9593 56.4819ZM63.2796 42.4427C63.2796 42.1861 63.3816 41.94 63.563 41.7587C63.7444 41.5773 63.9905 41.4754 64.2472 41.4754C64.5036 41.4754 64.7497 41.5773 64.9312 41.7587C65.1126 41.94 65.2145 42.1861 65.2145 42.4427V49.5514C66.2817 47.9946 67.8008 46.6637 70.19 46.6637C73.3062 46.6637 76.3948 49.1283 76.3948 53.3933V53.441C76.3948 57.6846 73.3313 60.1957 70.19 60.1957C68.1662 60.1918 66.298 59.1486 65.2145 57.4336V59.0632C65.2182 59.3206 65.1203 59.5678 64.9408 59.7538C64.7612 59.9395 64.5139 60.0426 64.2577 60.0426C63.7179 60.04 63.2822 59.603 63.2785 59.0632L63.2796 42.4427ZM74.4073 53.4686V53.421C74.4073 50.3574 72.2956 48.3963 69.8372 48.3963C69.2004 48.4152 68.5736 48.5594 67.9926 48.8206C67.4115 49.0821 66.8878 49.4554 66.4512 49.9192C65.5697 50.8558 65.0977 52.1064 65.1392 53.3933V53.441C65.1102 54.0813 65.2096 54.7208 65.4313 55.3221C65.6531 55.9234 65.9928 56.4742 66.4305 56.9422C66.8681 57.4104 67.395 57.7862 67.9801 58.0478C68.5651 58.3094 69.1966 58.4515 69.8372 58.4656C72.3483 58.4656 74.4073 56.6074 74.4073 53.4686ZM85.3843 60.2234C81.8187 60.2234 78.9059 57.4862 78.9059 53.4686V53.421C78.9059 49.6795 81.5425 46.6662 85.1332 46.6662C88.9752 46.6662 91.1622 49.805 91.1622 53.2451C91.1646 53.3613 91.1435 53.4766 91.1004 53.5845C91.0572 53.6923 90.9929 53.7904 90.9112 53.873C90.7529 54.0298 90.5094 54.124 90.2833 54.124H80.8644C81.1406 56.9363 83.1244 58.5182 85.4345 58.5182C86.8313 58.5277 88.1755 57.9864 89.176 57.0117C89.4184 56.7832 89.7723 56.7229 90.0774 56.8522C90.3825 56.9816 90.5796 57.2829 90.5822 57.6155C90.5784 57.8579 90.4566 58.0864 90.2833 58.2408C89.6457 58.8866 88.8819 59.3941 88.0393 59.7315C87.1969 60.069 86.2939 60.2291 85.3868 60.2019L85.3843 60.2234ZM89.2262 52.7154C89.0228 50.3525 87.6694 48.2958 85.083 48.2958C82.823 48.2958 81.1118 50.1766 80.8608 52.7154H89.2262ZM94.3763 47.7938C94.3766 47.5381 94.4768 47.2926 94.6555 47.1099C94.8344 46.9272 95.0774 46.8216 95.3331 46.8157C95.4619 46.8141 95.5897 46.8384 95.7091 46.887C95.8284 46.9357 95.9369 47.0077 96.028 47.0987C96.1192 47.1899 96.1912 47.2982 96.2396 47.4176C96.2883 47.537 96.3126 47.6648 96.311 47.7938V49.1998C96.748 48.4094 97.394 47.7544 98.1784 47.3067C98.9628 46.8589 99.8553 46.6355 100.758 46.6613C103.897 46.6613 105.734 48.773 105.734 51.8616V59.072C105.734 59.3285 105.632 59.5746 105.45 59.756C105.269 59.9374 105.023 60.0394 104.766 60.0394C104.51 60.0394 104.264 59.9374 104.082 59.756C103.901 59.5746 103.799 59.3285 103.799 59.072V52.3387C103.799 49.928 102.493 48.4214 100.208 48.4214C97.9232 48.4214 96.3161 50.051 96.3161 52.4893V59.0682C96.3206 59.196 96.2992 59.3232 96.2531 59.4424C96.2068 59.5616 96.1369 59.6701 96.0475 59.7613C95.8667 59.9458 95.618 60.0501 95.3593 60.0462C95.2305 60.0478 95.1027 60.0235 94.9833 59.9749C94.864 59.9262 94.7555 59.8542 94.6644 59.7632C94.5732 59.672 94.5012 59.5637 94.4528 59.4443C94.4041 59.325 94.3798 59.1971 94.3814 59.0682L94.3763 47.7938ZM121.907 59.0707C121.907 59.3274 121.805 59.5733 121.624 59.7547C121.443 59.9362 121.196 60.0381 120.94 60.0381C120.683 60.0381 120.437 59.9362 120.256 59.7547C120.074 59.5733 119.972 59.3274 119.972 59.0707V57.2979C118.905 58.8547 117.386 60.1856 114.997 60.1856C111.881 60.1856 108.792 57.7211 108.792 53.456V53.4083C108.792 49.1646 111.881 46.6538 114.997 46.6538C117.021 46.6574 118.889 47.7008 119.972 49.4158V42.4477C119.968 42.32 119.989 42.1926 120.036 42.0736C120.082 41.9544 120.152 41.8459 120.241 41.7547C120.422 41.5701 120.671 41.4659 120.929 41.4696C121.058 41.4682 121.186 41.4925 121.305 41.541C121.425 41.5896 121.533 41.6616 121.624 41.7528C121.715 41.8438 121.787 41.9523 121.836 42.0717C121.884 42.191 121.909 42.3189 121.907 42.4477V59.0707ZM110.78 53.3958V53.4435C110.78 56.507 112.918 58.4682 115.35 58.4682C115.989 58.449 116.618 58.3035 117.201 58.0403C117.783 57.777 118.308 57.401 118.745 56.9339C119.182 56.4669 119.522 55.9179 119.745 55.3189C119.969 54.7198 120.072 54.0826 120.048 53.4435V53.3958C120.073 52.7579 119.971 52.1213 119.747 51.5232C119.524 50.9251 119.184 50.3776 118.746 49.9125C118.309 49.4474 117.783 49.0739 117.2 48.8141C116.617 48.5542 115.988 48.413 115.35 48.3989C112.821 48.3938 110.78 50.2533 110.78 53.3958ZM40.4644 26.6734V34.3848C40.4662 34.749 40.6115 35.0976 40.8689 35.355C41.1265 35.6125 41.4752 35.7579 41.8393 35.7595H80.3409C80.7051 35.7579 81.0537 35.6125 81.3112 35.355C81.5686 35.0976 81.714 34.749 81.7156 34.3848V26.6859C74.9982 28.5349 68.06 29.46 61.0926 29.4355C54.1236 29.4605 47.1836 28.5354 40.4644 26.6859V26.6734ZM80.3396 0H41.8393C41.4752 0.00165131 41.1265 0.147025 40.8689 0.404491C40.6115 0.661957 40.4662 1.01068 40.4644 1.37479V24.0619C53.9449 27.9126 68.234 27.9126 81.7145 24.0619V1.37479C81.7128 1.01068 81.5675 0.661957 81.3099 0.404491C81.0524 0.147025 80.7038 0.00165131 80.3396 0Z" fill="white"/>
</svg>
