<svg width="174" height="56" viewBox="0 0 174 56" fill="none" xmlns="http://www.w3.org/2000/svg">
<g clip-path="url(#clip0_1144_1517)">
<path d="M51.6793 43.3407C50.5709 43.0819 49.4366 42.9475 48.2979 42.9402C46.318 42.9402 44.5168 43.2791 43.1879 43.8281C43.113 43.8643 43.0497 43.9207 43.0053 43.9906C42.9609 44.0606 42.9371 44.1414 42.9366 44.224C42.9366 44.287 42.9517 44.3515 42.9775 44.404C43.1334 44.8554 42.8761 45.3444 41.5895 45.6248C39.6823 46.0403 38.479 47.99 37.7903 48.6364C36.982 49.3982 34.698 49.8663 35.0416 49.4118C35.3095 49.0579 36.3387 47.9511 36.9639 46.7556C37.5239 45.6863 38.0219 45.3819 38.7076 44.3636C38.9089 44.0635 39.6883 43.0137 39.9154 42.1814C40.1698 41.3715 40.0834 40.3516 40.1818 39.9331C40.3226 39.3287 40.8978 38.0164 40.9416 37.2755C40.9673 36.8572 39.1767 37.8754 38.3276 37.8754C37.477 37.8754 36.6506 37.37 35.8907 37.334C34.9522 37.2891 34.3483 38.051 33.4992 37.9189C33.0148 37.8425 32.6061 37.418 31.757 37.3865C30.5491 37.343 29.0749 38.051 26.3035 37.9625C23.5774 37.8754 21.0586 34.5504 20.7151 34.0211C20.3124 33.4016 19.822 33.4016 19.2847 33.8875C18.7474 34.375 18.0874 33.9925 17.8983 33.6656C17.541 33.0461 16.5859 31.2345 15.1056 30.855C13.0577 30.3286 12.0208 31.9768 12.1541 33.2907C12.2903 34.6225 13.1606 34.9959 13.5632 35.7037C13.9659 36.4117 14.1718 36.8691 14.9285 37.1825C15.4644 37.4046 15.6657 37.7315 15.5037 38.1679C15.3644 38.5488 14.8075 38.6359 14.4396 38.6524C13.6586 38.6898 13.1122 38.4799 12.7141 38.2279C12.2494 37.9355 11.8725 37.529 11.4684 36.8376C10.9992 36.0757 10.262 35.7428 9.40229 35.7428C8.99361 35.7428 8.61066 35.8493 8.26858 36.0232C6.82212 36.7581 5.21846 37.1372 3.593 37.1285L1.64648 37.13C5.37908 48.101 15.8473 56.0004 28.1788 56.0004C38.0279 56.0004 46.6904 50.9611 51.6793 43.3407Z" fill="#091B49"/>
<path d="M28.2546 0C12.8038 0 0.269531 12.5578 0.269531 28.0377C0.269531 31.1703 0.788388 34.1757 1.73534 36.9886H3.67311C5.39759 36.9886 7.0071 36.5536 8.35341 35.8519C8.69376 35.6761 9.0795 35.5684 9.48794 35.5684C10.3456 35.5684 11.099 35.9337 11.5679 36.7051C11.9718 37.4023 12.3333 37.7826 12.7962 38.0782C13.1956 38.3328 13.719 38.542 14.498 38.5041C14.8655 38.4874 15.4465 38.4146 15.5857 38.0311C15.746 37.5901 15.5553 37.2583 15.0184 37.0355C14.262 36.7188 14.0502 36.2838 13.6479 35.5684C13.2455 34.8531 12.3651 34.4515 12.2289 33.1057C12.0943 31.7796 13.1139 30.1109 15.1605 30.6429C16.64 31.0264 17.5915 32.8572 17.95 33.4845C18.1376 33.8135 18.8319 34.2121 19.3674 33.721C19.9029 33.2284 20.3839 33.236 20.7863 33.8635C21.1297 34.3969 23.6392 37.7538 26.3636 37.8417C29.1318 37.9312 30.5931 37.1809 31.8002 37.2249C32.6474 37.2583 33.0634 37.7175 33.549 37.7933C34.3976 37.9296 35.0208 37.134 35.9602 37.178C36.7181 37.2158 37.5213 37.7462 38.37 37.7462C39.2201 37.7462 41.0429 36.7066 41.0171 37.1309C40.9748 37.8781 40.4015 39.2195 40.2608 39.8301C40.164 40.2545 40.2321 41.2836 39.9779 42.1035C39.7511 42.943 38.9493 43.9797 38.7481 44.2828C38.0628 45.3134 37.606 45.618 37.0463 46.6971C36.4216 47.9066 35.3778 49.0386 35.1101 49.3979C34.7651 49.8555 37.0434 49.3615 37.8512 48.5916C38.5394 47.9368 39.7269 45.9802 41.6328 45.5605C42.9171 45.2785 43.2076 44.7875 43.0502 44.3299C43.0223 44.2704 43.0064 44.206 43.0033 44.1405C43.0033 43.9662 43.0942 43.8343 43.2393 43.7615C44.5675 43.2083 46.3676 42.8613 48.3447 42.8613C49.502 42.8613 50.6712 42.9916 51.7483 43.2401C54.6867 38.717 56.2473 33.4345 56.2395 28.0377C56.2395 12.5578 43.7053 0 28.2546 0ZM116.087 14.9191V25.6704H116.038C115.18 24.2518 113.274 23.2077 110.65 23.2077C106.041 23.2077 102.015 27.004 102.046 33.4376C102.046 39.3392 105.694 43.2401 110.272 43.2401C113.037 43.2401 115.32 41.9338 116.465 39.7832H116.558L116.795 42.8142H121.097C120.996 41.0323 120.948 39.2477 120.954 37.4629V16.1967L116.087 14.9191ZM125.257 17.3818V42.8142H127.147V31.2582C127.147 30.4899 127.187 29.926 127.383 29.3637C128.19 27.0087 130.427 25.1006 133.103 25.1006C136.972 25.1006 138.304 28.2286 138.304 31.6371V42.8142H140.195V31.4007C140.195 24.3488 135.414 23.444 133.623 23.444C132.186 23.444 130.876 23.8638 129.795 24.5337C128.671 25.1915 127.786 26.2251 127.241 27.2798H127.147V17.9017L125.257 17.3818ZM164.398 19.7022L162.507 20.413V23.9169H159.34V25.4324H162.507V37.3674C162.507 39.2981 162.834 40.9199 163.688 41.914C164.427 42.8218 165.571 43.2401 166.95 43.2401C168.09 43.2401 168.938 43.0219 169.551 42.7673L169.313 41.3458C168.832 41.5139 168.161 41.6307 167.187 41.6307C165.158 41.6307 164.398 40.1059 164.398 37.6993V25.4324H169.788V23.9169H164.398V19.7022ZM91.788 23.1591C85.6222 23.1591 82.4274 28.1847 82.4274 33.4845C82.4274 39.3694 86.0851 43.1932 92.3084 43.1932C95.0917 43.1932 97.3789 42.7052 99.0202 42.0095L98.2638 38.6466C96.7996 39.1875 95.1991 39.5468 92.9694 39.5468C89.8669 39.5468 87.1894 38.0054 87.0607 34.5257L99.8719 34.5743C100.003 33.8876 100.067 33.1895 100.061 32.4904C100.061 28.2862 98.0188 23.1591 91.788 23.1591ZM80.0645 23.2061C77.9967 23.2061 75.7609 24.5762 74.817 27.2798H74.7232L74.5341 23.6335H70.3257C70.4301 25.3431 70.4679 27.2192 70.4679 29.7896L70.421 42.8142H75.2905V32.8678C75.2905 32.3449 75.351 31.8296 75.4311 31.4007C75.8638 29.2001 77.4733 27.7528 79.7817 27.7528C80.3641 27.7528 80.7452 27.7603 81.1991 27.8482V23.3016C80.8118 23.2152 80.538 23.2061 80.0645 23.2061ZM150.453 23.444C148.743 23.444 146.647 23.9291 144.921 25.102L145.488 26.4751C146.856 25.5083 148.612 25.0536 150.264 25.0536C154.732 25.0247 155.085 28.7697 155.085 30.6429V31.1157C147.398 31.0355 143.551 33.6619 143.551 38.0311C143.551 40.5546 145.327 43.2401 149.128 43.2401C152.131 43.2401 154.217 41.5745 155.133 40.115H155.228L155.511 42.8142H157.212C156.996 41.3654 156.928 39.8135 156.928 38.3146V30.9263C156.928 27.5436 155.904 23.444 150.453 23.444ZM91.5036 26.4751C94.7498 26.4751 95.544 29.385 95.5229 31.1627H87.0607C87.2786 29.197 88.5205 26.4751 91.5036 26.4751ZM111.831 26.948C114.01 26.948 115.563 28.4893 115.991 30.358C116.074 30.752 116.087 31.2491 116.087 31.6371V34.4788C116.098 34.9567 116.05 35.4343 115.944 35.9003C115.456 38.0009 113.766 39.3558 111.784 39.3558C108.732 39.3558 106.962 36.7763 106.962 33.2482C106.962 29.6866 108.709 26.948 111.831 26.948ZM153.478 32.7268C154.021 32.7116 154.571 32.7116 155.085 32.7268V36.7521C155.085 37.0779 155.032 37.4842 154.896 37.8888C154.244 39.7317 152.42 41.7246 149.271 41.7246C147.303 41.7246 145.536 40.4667 145.536 37.7462C145.536 33.768 149.681 32.8283 153.478 32.7268ZM34.3054 40.6834C33.9422 41.1032 33.7637 41.2775 33.5021 41.4882C32.8712 41.9973 32.1679 41.382 31.705 41.1093C30.6778 40.5061 29.8262 40.9244 29.625 41.3942C29.4239 41.8641 29.6326 42.4141 30.1923 42.3415C30.9759 42.24 31.0439 42.3597 31.6112 42.7203C32.6656 43.3902 33.4385 43.0356 33.8319 42.7203C34.1601 42.4581 34.325 42.2323 34.4944 41.914C34.7969 41.3139 34.5444 40.8229 34.399 40.6834C34.3839 40.6683 34.375 40.6834 34.3537 40.6834C34.3265 40.6834 34.3219 40.6652 34.3054 40.6834ZM171.961 41.0138C171.724 41.0162 171.496 41.1118 171.328 41.2801C171.16 41.4484 171.065 41.676 171.062 41.914C171.062 42.4036 171.471 42.7673 171.961 42.7673C172.449 42.7673 172.86 42.4036 172.86 41.914C172.857 41.6763 172.762 41.4491 172.594 41.2811C172.426 41.1131 172.199 41.0162 171.961 41.0138ZM171.961 41.1562C172.364 41.1562 172.671 41.511 172.671 41.914C172.672 42.0078 172.655 42.1012 172.62 42.1883C172.585 42.2754 172.533 42.3543 172.468 42.4208C172.4 42.4872 172.322 42.5394 172.235 42.5746C172.148 42.6096 172.055 42.6266 171.961 42.6248C171.867 42.6266 171.775 42.6096 171.688 42.5746C171.601 42.5394 171.521 42.4872 171.455 42.4208C171.39 42.3543 171.336 42.2754 171.301 42.1883C171.266 42.1012 171.25 42.0078 171.251 41.914C171.251 41.511 171.559 41.1562 171.961 41.1562ZM55.294 41.2987C54.8705 41.2987 54.5378 41.6776 54.5378 42.1035C54.5378 42.5293 54.8705 42.8613 55.294 42.8613C55.7191 42.8613 56.0505 42.5293 56.0505 42.1035C56.0505 41.6776 55.7191 41.2987 55.294 41.2987ZM55.294 41.4413C55.6435 41.4413 55.9082 41.7535 55.9082 42.1035C55.91 42.1849 55.8955 42.2659 55.8652 42.3413C55.8351 42.4169 55.7899 42.4857 55.7325 42.5432C55.6751 42.6009 55.6068 42.6462 55.5313 42.6768C55.456 42.7071 55.3752 42.722 55.294 42.7203C54.9446 42.7203 54.633 42.4536 54.6316 42.1035C54.6316 41.7535 54.9446 41.4413 55.294 41.4413ZM171.678 41.4413V42.3399H171.819V41.9611H171.961L172.197 42.3399H172.339L172.104 41.9611C172.237 41.9458 172.339 41.8398 172.339 41.6776C172.339 41.4988 172.223 41.4413 172.008 41.4413H171.678ZM171.819 41.5352H172.008C172.104 41.5352 172.197 41.5654 172.197 41.6776C172.197 41.817 172.076 41.8201 171.961 41.8201H171.819V41.5352ZM55.0097 41.6776V42.4824H55.1518V42.152H55.294L55.4832 42.4824H55.6253L55.3878 42.152C55.5043 42.1368 55.6253 42.055 55.6253 41.914C55.6253 41.7579 55.527 41.6776 55.3409 41.6776H55.0097ZM55.1518 41.7731H55.294C55.3772 41.7731 55.4832 41.8186 55.4832 41.914C55.4832 42.0353 55.3954 42.0566 55.294 42.0566H55.1518V41.7731Z" fill="white"/>
<path d="M44.1244 20.6495C43.8455 21.5742 43.4493 22.7545 41.6863 23.6477C41.4318 23.7771 41.3327 23.565 41.4515 23.3651C42.1175 22.2479 42.2348 21.9666 42.4284 21.526C42.6996 20.8825 42.8413 19.9653 42.3034 18.0526C41.2428 14.289 39.0316 9.25922 37.4255 7.62625C35.8742 6.05191 33.0643 5.60833 30.5224 6.2519C29.5882 6.48798 27.7581 7.42776 24.3644 6.67292C18.4898 5.36774 17.6197 8.26982 17.283 9.53439C16.9462 10.799 16.137 14.3928 16.137 14.3928C15.8658 15.8558 15.5122 18.4015 24.6342 20.1157C28.8827 20.9126 29.099 21.9967 29.2865 22.7771C29.6249 24.174 30.1643 24.9724 30.7708 25.3724C31.3773 25.7724 30.7708 26.1032 30.0972 26.1694C28.2869 26.3559 21.5985 24.4627 17.6426 22.2448C14.4059 20.2931 14.351 18.5354 15.0916 17.0437C10.2015 16.5219 6.53206 17.4963 5.86764 19.7804C4.72474 23.7004 14.6009 30.3962 25.8471 33.7569C37.6495 37.2829 49.7871 34.8214 51.1373 27.5017C51.7499 24.1755 48.9124 21.7156 44.1244 20.6495ZM29.4481 8.17358L29.4328 8.17508C29.3825 8.17508 29.3414 8.13749 29.3414 8.09088C29.3414 8.0578 29.3627 8.02773 29.3932 8.01569C30.024 7.68488 30.9658 7.42325 32.0448 7.31499C32.4113 7.27864 32.7796 7.26208 33.148 7.26537C34.9538 7.30446 36.4014 8.01269 36.3786 8.84572C36.3573 9.68025 34.8761 10.3238 33.0703 10.2832C32.5271 10.2739 31.9874 10.1961 31.4641 10.0517C31.4372 10.0457 31.413 10.0311 31.3953 10.0102C31.3777 9.98921 31.3676 9.96309 31.3666 9.93587C31.3666 9.87872 31.4078 9.83061 31.4656 9.81858C32.5933 9.56146 33.3522 9.14043 33.2989 8.74346C33.2272 8.21719 31.7537 7.92998 30.0074 8.10291C29.8203 8.12147 29.6338 8.14505 29.4481 8.17358ZM26.0284 13.4815C22.772 13.7146 22.4336 14.0619 21.8241 14.7024C20.9646 15.6046 19.8324 13.5296 19.8324 13.5296C19.1527 13.3883 18.3284 12.3071 18.7733 11.2967C19.2107 10.2982 20.0199 10.599 20.2743 10.9087C20.5821 11.2877 21.2404 11.9072 22.0939 11.8861C22.9487 11.8621 23.9347 11.6861 25.3092 11.6861C26.702 11.6861 27.6408 12.1974 27.6926 12.6395C27.7382 13.0154 27.5798 13.3717 26.0284 13.4815Z" fill="#091B49"/>
</g>
<defs>
<clipPath id="clip0_1144_1517">
<rect width="173.6" height="56" fill="white"/>
</clipPath>
</defs>
</svg>
