<svg width="124" height="40" viewBox="0 0 124 40" fill="none" xmlns="http://www.w3.org/2000/svg">
<path d="M36.9135 30.9575C36.1218 30.7726 35.3116 30.6766 34.4982 30.6714C33.084 30.6714 31.7974 30.9135 30.8482 31.3056C30.7947 31.3315 30.7495 31.3718 30.7178 31.4217C30.6861 31.4717 30.6691 31.5294 30.6687 31.5884C30.6687 31.6334 30.6795 31.6795 30.6979 31.717C30.8093 32.0394 30.6255 32.3887 29.7065 32.589C28.3442 32.8858 27.4847 34.2784 26.9928 34.7401C26.4154 35.2843 24.784 35.6186 25.0294 35.294C25.2208 35.0412 25.9559 34.2506 26.4025 33.3967C26.8025 32.6329 27.1582 32.4155 27.648 31.6881C27.7918 31.4738 28.3485 30.7239 28.5107 30.1294C28.6924 29.5509 28.6307 28.8224 28.701 28.5235C28.8016 28.0918 29.2124 27.1544 29.2437 26.6252C29.2621 26.3264 27.9831 27.0537 27.3766 27.0537C26.769 27.0537 26.1787 26.6927 25.6359 26.667C24.9656 26.6349 24.5342 27.1791 23.9277 27.0848C23.5817 27.0302 23.2898 26.727 22.6833 26.7045C21.8205 26.6734 20.7675 27.1791 18.7879 27.1159C16.8407 27.0537 15.0416 24.6787 14.7962 24.3006C14.5086 23.8581 14.1583 23.8581 13.7745 24.2052C13.3907 24.5534 12.9193 24.2802 12.7842 24.0467C12.529 23.6042 11.8468 22.3102 10.7894 22.0391C9.32664 21.6631 8.58604 22.8404 8.68119 23.7789C8.77849 24.7302 9.40016 24.9969 9.68775 25.5025C9.97533 26.0082 10.1224 26.3349 10.6629 26.5588C11.0457 26.7174 11.1895 26.9509 11.0738 27.2626C10.9743 27.5347 10.5765 27.5969 10.3137 27.6087C9.75586 27.6354 9.36556 27.4855 9.08122 27.3055C8.7493 27.0966 8.48009 26.8063 8.19142 26.3124C7.85626 25.7682 7.32974 25.5304 6.71564 25.5304C6.42373 25.5304 6.15019 25.6065 5.90585 25.7307C4.87266 26.2556 3.72719 26.5264 2.56615 26.5202L1.17578 26.5213C3.84192 34.3577 11.3192 40.0001 20.1274 40.0001C27.1625 40.0001 33.35 36.4006 36.9135 30.9575Z" fill="#091B49"/>
<path d="M20.1817 0C9.14542 0 0.192383 8.96989 0.192383 20.0269C0.192383 22.2645 0.562995 24.4112 1.23939 26.4204H2.62351C3.85528 26.4204 5.00493 26.1097 5.96658 25.6085C6.20969 25.4829 6.48522 25.406 6.77696 25.406C7.3896 25.406 7.92769 25.6669 8.26265 26.2179C8.55114 26.7159 8.80938 26.9876 9.14001 27.1987C9.42526 27.3806 9.79912 27.53 10.3556 27.5029C10.6181 27.491 11.0331 27.439 11.1325 27.1651C11.247 26.8501 11.1108 26.6131 10.7273 26.4539C10.187 26.2277 10.0357 25.917 9.74833 25.406C9.46092 24.8951 8.83207 24.6082 8.73482 23.6469C8.63866 22.6997 9.36692 21.5078 10.8288 21.8878C11.8856 22.1617 12.5652 23.4694 12.8213 23.9175C12.9553 24.1525 13.4512 24.4372 13.8337 24.0864C14.2162 23.7346 14.5598 23.74 14.8472 24.1882C15.0925 24.5692 16.885 26.967 18.831 27.0298C20.8083 27.0937 21.8521 26.5578 22.7143 26.5892C23.3194 26.6131 23.6166 26.9411 23.9634 26.9952C24.5696 27.0926 25.0147 26.5243 25.6857 26.5557C26.2271 26.5827 26.8008 26.9616 27.407 26.9616C28.0142 26.9616 29.3162 26.219 29.2978 26.5221C29.2676 27.0558 28.8581 28.0139 28.7576 28.4501C28.6884 28.7532 28.7371 29.4883 28.5555 30.0739C28.3935 30.6736 27.8208 31.4141 27.6771 31.6306C27.1876 32.3667 26.8613 32.5843 26.4615 33.3551C26.0153 34.219 25.2697 35.0276 25.0785 35.2842C24.8321 35.6111 26.4594 35.2582 27.0364 34.7083C27.528 34.2406 28.3762 32.843 29.7376 32.5432C30.6549 32.3418 30.8624 31.9911 30.75 31.6642C30.7301 31.6217 30.7187 31.5757 30.7165 31.5289C30.7165 31.4044 30.7814 31.3102 30.8851 31.2582C31.8338 30.8631 33.1196 30.6152 34.5318 30.6152C35.3584 30.6152 36.1936 30.7083 36.9629 30.8858C39.0618 27.655 40.1765 23.8818 40.1709 20.0269C40.1709 8.96989 31.2179 0 20.1817 0ZM82.9188 10.6565V18.336H82.8842C82.2716 17.3227 80.9101 16.5769 79.0355 16.5769C75.7432 16.5769 72.868 19.2886 72.8896 23.884C72.8896 28.0994 75.4957 30.8858 78.7653 30.8858C80.7405 30.8858 82.371 29.9527 83.1889 28.4166H83.2559L83.4245 30.5816H86.4974C86.4254 29.3088 86.3916 28.0341 86.3958 26.7592V11.5691L82.9188 10.6565ZM89.4688 12.4156V30.5816H90.8194V22.3273C90.8194 21.7785 90.8475 21.3757 90.988 20.9741C91.5639 19.2919 93.1619 17.929 95.0733 17.929C97.8373 17.929 98.7881 20.1633 98.7881 22.5979V30.5816H100.139V22.4291C100.139 17.392 96.7243 16.7457 95.445 16.7457C94.4186 16.7457 93.4828 17.0456 92.7103 17.5241C91.9075 17.9939 91.2754 18.7322 90.8864 19.4856H90.8194V12.7869L89.4688 12.4156ZM117.427 14.073L116.076 14.5807V17.0835H113.814V18.166H116.076V26.691C116.076 28.0701 116.31 29.2285 116.92 29.9386C117.448 30.587 118.265 30.8858 119.25 30.8858C120.064 30.8858 120.67 30.7299 121.108 30.5481L120.938 29.5327C120.594 29.6528 120.115 29.7362 119.419 29.7362C117.97 29.7362 117.427 28.6471 117.427 26.9281V18.166H121.277V17.0835H117.427V14.073ZM65.5627 16.5422C61.1586 16.5422 58.8766 20.1319 58.8766 23.9175C58.8766 28.121 61.4892 30.8523 65.9344 30.8523C67.9225 30.8523 69.5562 30.5037 70.7286 30.0068L70.1883 27.6047C69.1424 27.9911 67.9992 28.2477 66.4066 28.2477C64.1905 28.2477 62.278 27.1467 62.1861 24.6612L71.3369 24.6959C71.4309 24.2054 71.4761 23.7068 71.472 23.2074C71.472 20.2044 70.0133 16.5422 65.5627 16.5422ZM57.1888 16.5758C55.7118 16.5758 54.1148 17.5544 53.4406 19.4856H53.3736L53.2385 16.8811H50.2325C50.3071 18.1022 50.3341 19.4423 50.3341 21.2783L50.3006 30.5816H53.7788V23.477C53.7788 23.1035 53.822 22.7354 53.8792 22.4291C54.1883 20.8572 55.3379 19.8234 56.9868 19.8234C57.4028 19.8234 57.675 19.8288 57.9992 19.8916V16.644C57.7226 16.5823 57.527 16.5758 57.1888 16.5758ZM107.466 16.7457C106.245 16.7457 104.748 17.0922 103.515 17.93L103.92 18.9108C104.897 18.2202 106.151 17.8954 107.331 17.8954C110.523 17.8748 110.775 20.5498 110.775 21.8878V22.2255C105.284 22.1682 102.536 24.0442 102.536 27.1651C102.536 28.9676 103.805 30.8858 106.52 30.8858C108.665 30.8858 110.155 29.6961 110.809 28.6536H110.877L111.079 30.5816H112.294C112.14 29.5467 112.091 28.4382 112.091 27.3676V22.0902C112.091 19.674 111.36 16.7457 107.466 16.7457ZM65.3596 18.9108C67.6783 18.9108 68.2456 20.9893 68.2305 22.2591H62.1861C62.3417 20.855 63.2288 18.9108 65.3596 18.9108ZM79.8793 19.2486C81.4353 19.2486 82.5449 20.3495 82.8507 21.6843C82.9101 21.9657 82.9188 22.3208 82.9188 22.5979V24.6277C82.9271 24.9691 82.893 25.3102 82.8172 25.6431C82.4682 27.1435 81.2613 28.1113 79.8458 28.1113C77.6654 28.1113 76.4012 26.2688 76.4012 23.7487C76.4012 21.2047 77.6492 19.2486 79.8793 19.2486ZM109.627 23.3763C110.015 23.3654 110.408 23.3654 110.775 23.3763V26.2515C110.775 26.4842 110.737 26.7744 110.64 27.0634C110.174 28.3798 108.871 29.8033 106.622 29.8033C105.216 29.8033 103.954 28.9048 103.954 26.9616C103.954 24.12 106.915 23.4488 109.627 23.3763ZM24.5037 29.0596C24.2443 29.3594 24.1168 29.4839 23.9299 29.6344C23.4793 29.9981 22.9769 29.5586 22.6463 29.3638C21.9126 28.9329 21.3043 29.2317 21.1606 29.5673C21.0169 29.9029 21.166 30.2958 21.5658 30.2439C22.1255 30.1714 22.1741 30.2569 22.5793 30.5145C23.3324 30.993 23.8845 30.7397 24.1655 30.5145C24.3999 30.3272 24.5177 30.1659 24.6387 29.9386C24.8548 29.5099 24.6744 29.1592 24.5706 29.0596C24.5598 29.0488 24.5534 29.0596 24.5382 29.0596C24.5188 29.0596 24.5155 29.0466 24.5037 29.0596ZM122.829 29.2956C122.66 29.2973 122.497 29.3656 122.377 29.4858C122.257 29.606 122.189 29.7686 122.187 29.9386C122.187 30.2883 122.479 30.5481 122.829 30.5481C123.178 30.5481 123.471 30.2883 123.471 29.9386C123.469 29.7688 123.401 29.6065 123.281 29.4865C123.161 29.3665 122.999 29.2973 122.829 29.2956ZM122.829 29.3973C123.117 29.3973 123.336 29.6507 123.336 29.9386C123.337 30.0056 123.325 30.0723 123.3 30.1345C123.275 30.1967 123.238 30.2531 123.191 30.3006C123.143 30.348 123.087 30.3853 123.025 30.4104C122.963 30.4354 122.896 30.4476 122.829 30.4463C122.762 30.4476 122.696 30.4354 122.634 30.4104C122.572 30.3853 122.515 30.348 122.468 30.3006C122.421 30.2531 122.383 30.1967 122.358 30.1345C122.333 30.0723 122.321 30.0056 122.322 29.9386C122.322 29.6507 122.542 29.3973 122.829 29.3973ZM39.4956 29.4991C39.1931 29.4991 38.9554 29.7697 38.9554 30.0739C38.9554 30.3781 39.1931 30.6152 39.4956 30.6152C39.7992 30.6152 40.0359 30.3781 40.0359 30.0739C40.0359 29.7697 39.7992 29.4991 39.4956 29.4991ZM39.4956 29.6009C39.7452 29.6009 39.9343 29.8239 39.9343 30.0739C39.9356 30.1321 39.9252 30.1899 39.9036 30.2438C39.8821 30.2978 39.8498 30.3469 39.8088 30.388C39.7678 30.4292 39.719 30.4616 39.6651 30.4834C39.6113 30.5051 39.5536 30.5157 39.4956 30.5145C39.246 30.5145 39.0234 30.324 39.0224 30.0739C39.0224 29.8239 39.246 29.6009 39.4956 29.6009ZM122.627 29.6009V30.2428H122.728V29.9722H122.829L122.998 30.2428H123.099L122.931 29.9722C123.026 29.9613 123.099 29.8856 123.099 29.7697C123.099 29.642 123.016 29.6009 122.863 29.6009H122.627ZM122.728 29.668H122.863C122.931 29.668 122.998 29.6896 122.998 29.7697C122.998 29.8693 122.911 29.8715 122.829 29.8715H122.728V29.668ZM39.2925 29.7697V30.3446H39.394V30.1086H39.4956L39.6307 30.3446H39.7322L39.5626 30.1086C39.6458 30.0977 39.7322 30.0393 39.7322 29.9386C39.7322 29.8271 39.662 29.7697 39.5291 29.7697H39.2925ZM39.394 29.8379H39.4956C39.555 29.8379 39.6307 29.8704 39.6307 29.9386C39.6307 30.0252 39.568 30.0404 39.4956 30.0404H39.394V29.8379Z" fill="white"/>
<path d="M31.5177 14.7495C31.3185 15.41 31.0355 16.2531 29.7762 16.8911C29.5944 16.9835 29.5236 16.832 29.6085 16.6892C30.0842 15.8912 30.168 15.6903 30.3063 15.3756C30.5 14.9159 30.6012 14.2608 30.217 12.8946C29.4594 10.2063 27.88 6.61359 26.7328 5.44718C25.6247 4.32265 23.6176 4.00581 21.802 4.4655C21.1347 4.63413 19.8275 5.3054 17.4034 4.76623C13.2073 3.83396 12.5858 5.90687 12.3453 6.81014C12.1047 7.71341 11.5267 10.2804 11.5267 10.2804C11.333 11.3254 11.0804 13.1438 17.5961 14.3682C20.6308 14.9374 20.7853 15.7118 20.9192 16.2692C21.1609 17.267 21.5462 17.8373 21.9794 18.123C22.4126 18.4087 21.9794 18.645 21.4983 18.6923C20.2052 18.8255 15.4278 17.4732 12.6021 15.889C10.2902 14.4949 10.251 13.2394 10.78 12.1739C7.28709 11.8012 4.66603 12.4972 4.19145 14.1287C3.37509 16.9287 10.4295 21.7114 18.4625 24.1119C26.8928 26.6305 35.5625 24.8723 36.5269 19.6439C36.9645 17.2681 34.9377 15.511 31.5177 14.7495ZM21.0346 5.83813L21.0237 5.8392C20.9878 5.8392 20.9584 5.81235 20.9584 5.77906C20.9584 5.75543 20.9736 5.73395 20.9954 5.72535C21.446 5.48906 22.1187 5.30218 22.8894 5.22485C23.1512 5.19889 23.4143 5.18706 23.6774 5.18941C24.9673 5.21733 26.0013 5.72321 25.985 6.31823C25.9698 6.91432 24.9118 7.37401 23.6219 7.34501C23.2339 7.33835 22.8484 7.28277 22.4746 7.17961C22.4554 7.17535 22.4381 7.16493 22.4255 7.14997C22.4129 7.13501 22.4057 7.11635 22.405 7.09691C22.405 7.05609 22.4344 7.02172 22.4757 7.01313C23.2812 6.82947 23.8233 6.52874 23.7852 6.24519C23.734 5.86928 22.6815 5.66413 21.4341 5.78765C21.3005 5.80091 21.1673 5.81775 21.0346 5.83813ZM18.592 9.6295C16.266 9.79598 16.0243 10.0441 15.5889 10.5016C14.975 11.146 14.1663 9.66387 14.1663 9.66387C13.6808 9.56291 13.092 8.79067 13.4098 8.06892C13.7222 7.35575 14.3002 7.57056 14.4819 7.79181C14.7018 8.06247 15.172 8.50498 15.7816 8.48994C16.3922 8.47276 17.0965 8.34709 18.0783 8.34709C19.0731 8.34709 19.7437 8.71227 19.7807 9.02804C19.8133 9.29655 19.7001 9.55109 18.592 9.6295Z" fill="#091B49"/>
</svg>
