<svg width="20" height="20" viewBox="0 0 20 20" fill="none" xmlns="http://www.w3.org/2000/svg">
<path d="M11.125 1.25V5.75C11.125 6.38281 11.6172 6.875 12.25 6.875H16.75V17C16.75 18.2656 15.7305 19.25 14.5 19.25H5.5C4.23438 19.25 3.25 18.2656 3.25 17V3.5C3.25 2.26953 4.23438 1.25 5.5 1.25H11.125ZM6.0625 9.125C5.25391 9.125 4.65625 9.75781 4.65625 10.5312V13.3438C4.65625 14.1523 5.25391 14.75 6.0625 14.75H6.625C7.39844 14.75 8.03125 14.1523 8.03125 13.3438V13.0625C8.03125 12.7812 7.75 12.5 7.46875 12.5C7.15234 12.5 6.90625 12.7812 6.90625 13.0625V13.3438C6.90625 13.5195 6.76562 13.625 6.625 13.625H6.0625C5.88672 13.625 5.78125 13.5195 5.78125 13.3438V10.5312C5.78125 10.3906 5.88672 10.25 6.0625 10.25H6.625C6.76562 10.25 6.90625 10.3906 6.90625 10.5312V10.8125C6.90625 11.1289 7.15234 11.375 7.46875 11.375C7.75 11.375 8.03125 11.1289 8.03125 10.8125V10.5312C8.03125 9.75781 7.39844 9.125 6.625 9.125H6.0625ZM9.40234 12.1836L10.2812 12.7109C10.457 12.7812 10.5625 12.957 10.5625 13.1328C10.5625 13.4141 10.3164 13.625 10.0352 13.625H9.15625C8.83984 13.625 8.59375 13.9062 8.59375 14.1875C8.59375 14.5039 8.83984 14.75 9.15625 14.75H10.0352C10.9492 14.75 11.6875 14.0469 11.6875 13.1328C11.6875 12.5352 11.3711 12.0078 10.8438 11.7266L9.96484 11.1992C9.78906 11.1289 9.71875 10.9531 9.71875 10.7773C9.71875 10.4961 9.92969 10.25 10.2109 10.25H10.8438C11.125 10.25 11.4062 10.0039 11.4062 9.6875C11.4062 9.40625 11.125 9.125 10.8438 9.125H10.2109C9.29688 9.125 8.59375 9.86328 8.59375 10.7773C8.59375 11.3398 8.875 11.9023 9.40234 12.1836ZM13.0938 9.6875C13.0938 9.40625 12.8125 9.125 12.5312 9.125C12.2148 9.125 11.9688 9.40625 11.9688 9.6875V10.8125C11.9688 12.043 12.3203 13.2383 12.9883 14.2578L13.1641 14.5039C13.2695 14.6797 13.4453 14.75 13.6562 14.75C13.832 14.75 14.0078 14.6797 14.1133 14.5039L14.2891 14.2578C14.957 13.2383 15.3438 12.043 15.3438 10.8125V9.6875C15.3438 9.40625 15.0625 9.125 14.7812 9.125C14.4648 9.125 14.2188 9.40625 14.2188 9.6875V10.8125C14.2188 11.6211 14.0078 12.4297 13.6562 13.1328C13.2695 12.4297 13.0938 11.6211 13.0938 10.8125V9.6875ZM12.25 1.25L16.75 5.75H12.25V1.25Z" fill="#010205"/>
<path d="M4.23145 14L5.45413 11.7248L4.26296 9.5126H5.20834L6.00245 11.0126L6.79657 9.5126H7.66632L6.46884 11.7248L7.69783 14H6.75245L5.92682 12.437L5.09489 14H4.23145ZM8.87123 14H8.09602L8.2977 9.5126H9.31241L10.2641 12.5L11.1717 9.5126H12.1927L12.4196 14H11.5876L11.449 11.0441L10.5225 14H9.93636L8.99728 11.0441L8.87123 14ZM13.0949 14V9.5126H13.9583V13.3067H15.6852V14H13.0949Z" fill="white"/>
</svg>
