<?xml version="1.0" encoding="UTF-8"?><svg id="technologies-logos" xmlns="http://www.w3.org/2000/svg" viewBox="0 0 100 100"><defs><style>.cls-1{fill:#fff;}</style></defs><path class="cls-1" d="m71.33,52.69c.01-.28,0-.56-.07-.85-.07-.3.05-.62-.09-.92.03-.49-.18-.94-.25-1.42-.06-.37-.27-.71-.38-1.08-.11-.37-.28-.71-.45-1.05-.24-.49-.54-.95-.84-1.41-.37-.56-.84-1.05-1.31-1.53-.21-.22-.45-.43-.69-.63-.25-.21-.52-.4-.79-.59-.36-.27-.75-.5-1.14-.71-.25-.13-.49-.3-.75-.4-.28-.1-.56-.17-.83-.3-.28-.13-.59-.19-.89-.27-.23-.06-.46-.11-.67-.16-.04-.12-.07-.21-.1-.31-.11-.31-.21-.63-.34-.94-.12-.31-.22-.63-.42-.9-.11-.15-.14-.34-.24-.5-.24-.41-.49-.81-.76-1.2-.15-.22-.28-.46-.47-.64-.42-.37-.73-.84-1.17-1.2-.34-.28-.66-.58-1.01-.84-.59-.45-1.23-.8-1.88-1.15-.24-.13-.49-.23-.74-.34-.16-.07-.31-.17-.48-.19-.36-.05-.69-.22-1.04-.29-.27-.05-.53-.14-.8-.19-.19-.04-.37-.02-.57-.07-.32-.08-.67-.08-1-.09-.37-.01-.75.02-1.12,0-.38-.03-.75.09-1.13.1-.23,0-.45.1-.69.07-.3.2-.7.07-.99.32-.02.01-.05,0-.08,0-.42.09-.84.23-1.23.41-.4.18-.81.36-1.2.58-.34.19-.66.4-.98.61-.63.4-1.18.91-1.73,1.41-.21.19-.38.42-.57.64-.25.3-.51.58-.73.9-.25.34-.47.71-.68,1.08-.17.3-.29.63-.46.93-.18.31-.25.67-.41.99-.11.22-.14.47-.24.7-.05.12.04.26-.1.36-.04.03.02.17-.01.23-.08.16-.03.34-.09.48-.11.28-.14.56-.15.86,0,.2-.06.4-.1.6,0,.03-.05.06-.1.1-.25,0-.53-.05-.77.02-.17.05-.33.03-.49.07-.16.04-.32.11-.49.07-.11-.02-.2.04-.29.08-.07.03-.14.07-.21.08-.6.09-1.15.32-1.68.58-.69.34-1.4.67-1.98,1.22-.28.26-.62.46-.89.74-.2.22-.4.45-.59.67-.16.19-.35.36-.47.56-.39.65-.85,1.26-1.1,1.98-.13.36-.34.69-.37,1.08-.15.09.02.3-.14.38,0,.36-.18.69-.16,1.05,0,.05.01.12,0,.16-.14.25-.05.51-.07.77-.02.28-.02.56,0,.84.02.26-.07.52.06.77.04.07,0,.18.02.27.03.24.03.49.11.71.15.46.25.93.44,1.38.24.57.48,1.13.8,1.67.27.46.57.9.93,1.29.47.5.93,1.01,1.48,1.42.38.29.77.56,1.19.79.74.39,1.49.77,2.32.96.33.08.65.22,1,.2.05,0,.13-.02.15,0,.15.14.33.04.49.07.16.03.32.08.49.08,1.05,0,2.1,0,3.16,0,.38,0,.63-.16.86-.51.04-.07.11-.12.15-.17v-.71s-.06-.07-.07-.1c-.16-.49-.57-.63-1-.65-1.29-.06-2.59.07-3.88-.08-.14-.02-.28-.02-.41-.08-.09-.04-.19-.06-.29-.08-.45-.08-.88-.25-1.3-.44-.74-.33-1.39-.79-2.01-1.3-.49-.41-.9-.91-1.25-1.44-.28-.41-.54-.83-.7-1.31-.09-.27-.24-.52-.3-.79-.07-.29-.24-.56-.21-.88-.14-.2-.03-.44-.09-.64-.07-.22-.08-.43-.07-.65.01-.36-.02-.72.06-1.09.07-.29.1-.59.17-.89.12-.5.28-.97.49-1.44.28-.65.65-1.25,1.11-1.77.36-.41.76-.8,1.19-1.15.37-.3.77-.51,1.17-.75.22-.13.47-.23.7-.34.25-.12.55-.1.75-.3.22.02.41-.13.61-.15.37-.05.75-.06,1.12-.09.07,0,.14.02.2,0,.22-.11.44-.12.65,0,.52-.06,1.04.12,1.56.08.04-.04.08-.08.12-.12,0-.12.01-.24,0-.36-.01-.11-.08-.22-.07-.33.03-.4-.09-.81.07-1.21-.04-.38.06-.75.07-1.13,0-.18.04-.35.09-.53.05-.17.12-.33.16-.49.11-.54.31-1.04.54-1.53.27-.57.6-1.12.97-1.64.2-.28.39-.57.62-.81.4-.43.85-.82,1.29-1.22.03-.03.06-.04.09-.06.29-.2.58-.4.88-.59.44-.27.9-.5,1.38-.71.37-.15.74-.27,1.12-.38.43-.13.87-.29,1.34-.25.04,0,.1.02.12,0,.15-.15.33-.05.49-.08.17-.03.35-.08.53-.07.3,0,.59-.03.89.06.29.09.61.07.92.09.05,0,.11,0,.15.02.25.1.51.17.76.14.06.03.1.06.15.08.19.1.41.09.61.18.28.12.56.25.84.37.27.12.53.25.8.39.26.14.48.36.77.45.01,0,.02.02.03.03.32.28.66.54.97.83.43.4.86.82,1.21,1.3.41.56.79,1.15,1.08,1.79.34.75.59,1.52.73,2.34.04.22.03.49.23.62.21.04.38.09.56.11.19.02.39-.04.57.08.43-.03.8.2,1.2.3.51.11.97.35,1.43.58.32.16.66.31.94.52.29.22.58.43.84.67.61.58,1.23,1.16,1.65,1.91.07.12.17.22.24.34.2.38.42.75.58,1.16.06.17.19.33.22.51.05.29.17.55.23.82.11.52.22,1.04.25,1.57.02.45,0,.91,0,1.36,0,.12,0,.24-.06.37-.08.19-.07.42-.09.64-.01.11,0,.22-.08.33-.06.07-.09.19-.08.28,0,.16-.05.3-.11.44-.06.15-.09.31-.15.46-.08.22-.2.42-.26.65-.03.1-.13.17-.14.3-.02.11-.16.2-.21.31-.24.57-.64,1.03-1.03,1.49-.33.38-.71.72-1.07,1.08-.05.04-.1.08-.15.12-.23.16-.47.3-.68.48-.17.14-.37.21-.54.33-.18.13-.37.22-.56.3-.47.19-.93.39-1.42.54-.67.2-1.36.34-2.05.34-3,.03-5.99.01-8.99.01h-.31c-.04-.25.1-.39.23-.52.5-.5,1-1,1.5-1.5.17-.17.29-.37.38-.6.08-.21,0-.41.04-.6-.04-.05-.06-.08-.08-.11-.07-.12-.13-.24-.21-.35-.17-.22-.55-.27-.88-.24-.37.03-.62.22-.85.47-.36.38-.71.77-1.08,1.15-.55.57-1.12,1.11-1.64,1.71-.26.3-.55.58-.85.85-.29.26-.48.61-.81.82-.01,0,0,.05-.01.1.12.09.26.18.38.29.33.3.63.63.98.91.39.31.7.71,1.1,1.02.35.27.65.6.98.91.57.52,1.12,1.06,1.72,1.53h.8c.26-.19.53-.35.63-.7.09-.31.07-.6-.1-.83-.19-.25-.34-.56-.66-.68-.45-.42-.9-.84-1.34-1.26v-.21c2.81,0,5.6,0,8.38,0,.41,0,.84.08,1.25-.08.24.05.45-.09.69-.08.25.02.47-.09.7-.15.2-.05.43-.03.61-.17.25.06.44-.1.65-.16.25-.08.5-.15.73-.26.74-.38,1.48-.75,2.17-1.24.32-.23.64-.47.92-.74.53-.5,1.07-1,1.48-1.61.3-.45.61-.89.88-1.36.15-.27.28-.55.41-.83.14-.28.23-.57.33-.86.12-.34.3-.66.3-1.03.22-.45.15-.97.32-1.43-.05-.38.06-.75.08-1.13Z"/><path class="cls-1" d="m44.75,48.47h-1.94l-2.48,6.86h1.75l.41-1.21h2.56l.41,1.21h1.77l-2.48-6.86Zm-1.82,4.36l.84-2.51.85,2.51h-1.69Z"/><path class="cls-1" d="m51.61,52.87h1.04c.56,0,1.03-.1,1.41-.3.38-.2.66-.47.84-.8.18-.33.27-.69.27-1.09,0-.43-.09-.81-.28-1.14-.19-.33-.47-.59-.85-.78-.38-.19-.84-.28-1.39-.28h-2.71v6.86h1.67v-2.46Zm0-3.05h.91c.32,0,.56.07.71.22.16.15.23.36.23.64s-.08.49-.23.64c-.16.15-.39.22-.71.22h-.91v-1.72Z"/><rect class="cls-1" x="58" y="48.47" width="1.67" height="6.86"/></svg>