<?xml version="1.0" encoding="UTF-8"?><svg id="technologies-logos" xmlns="http://www.w3.org/2000/svg" viewBox="0 0 100 100"><defs><style>.cls-1{fill:#fff;}</style></defs><path class="cls-1" d="m27.21,71.11c.17.23.47.43.85.43.48,0,1.09-.3,1.09-1.16v-4.28h.96v4.37c0,1.26-1,2.03-2.03,2.03-.73,0-1.29-.34-1.65-.83l.78-.56Z"/><path class="cls-1" d="m34.65,71.03h-2.41l-.49,1.42h-1.02l2.3-6.35h.81l2.3,6.35h-1.02l-.48-1.42Zm-.27-.86l-.92-2.77h-.01l-.92,2.77h1.86Z"/><path class="cls-1" d="m36.83,66.1h.96v3.27h.01l2.62-3.27h1.15l-2.04,2.5,2.25,3.84h-1.15l-1.73-3.1-1.12,1.17v1.94h-.96v-6.35h.01Z"/><path class="cls-1" d="m45.71,71.03h-2.41l-.49,1.42h-1.02l2.3-6.35h.81l2.3,6.35h-1.02l-.48-1.42Zm-.29-.86l-.92-2.77h-.01l-.92,2.77h1.86Z"/><path class="cls-1" d="m47.9,66.1h2.47c.53,0,.95.13,1.29.42.35.3.64.78.64,1.35,0,.82-.47,1.48-1.24,1.76l1.47,2.82h-1.15l-1.31-2.71h-1.24v2.71h-.96v-6.35h.03Zm.96,2.79h1.46c.73,0,1.08-.47,1.08-1,0-.33-.13-.59-.33-.73-.18-.13-.38-.2-.7-.2h-1.51v1.93h0Z"/><path class="cls-1" d="m54.25,66.95h-1.74v-.86h4.44v.86h-1.73v5.49h-.96v-5.49Z"/><path class="cls-1" d="m60.22,71.03h-2.41l-.49,1.42h-1.02l2.3-6.35h.81l2.3,6.35h-1.02l-.48-1.42Zm-.27-.86l-.92-2.77h-.01l-.92,2.77h1.86Z"/><path class="cls-1" d="m64.56,66.1h4.06v.91h-3.1v1.81h2.64v.86h-2.64v1.86h3.1v.91h-4.06v-6.35Z"/><path class="cls-1" d="m69.52,66.1h4.05v.91h-3.1v1.81h2.64v.86h-2.64v1.86h3.1v.91h-4.06v-6.35h.01Z"/><path class="cls-1" d="m65.56,27.5l-8.14,8.9c-.1,4.52-1.2,11.31-5.99,17.53l7.08,1.77c11.81-11.12,7.04-28.21,7.04-28.21Z"/><path class="cls-1" d="m57.43,36.4c.07-3.12-.34-5.15-.34-5.15l-17.95,19.66,12.28,3.07s.01-.03.03-.04l-8.16-2.04,14.15-15.49Z"/><path class="cls-1" d="m54.64,55.98c.72,0,1.41.04,2.1.09l-23.16-5.7s4.31,1.43,9.52,9.22c2.75-2.21,6.9-3.61,11.55-3.61Z"/><path class="cls-1" d="m61.18,67.22c-.09-.05-.17-.13-.22-.22-.05-.09-.08-.2-.08-.3s.03-.21.08-.3c.05-.09.13-.17.22-.22.09-.05.2-.08.3-.08s.21.03.3.08c.09.05.17.13.22.22.05.09.08.2.08.3s-.03.21-.08.3-.13.16-.22.22c-.09.05-.2.08-.3.08s-.21-.03-.3-.08Zm.65-.17c.09-.09.13-.21.13-.35,0-.09-.01-.18-.07-.26s-.09-.13-.17-.17-.16-.07-.25-.07c-.14,0-.26.04-.35.13s-.13.21-.13.35.04.26.13.35.21.13.35.13c.14.01.26-.03.35-.12Zm-.13-.05h-.09s-.01,0-.01-.01l-.09-.26h0s0-.01-.01-.01h-.12s-.01,0-.01.01v.25s0,.01-.01.01h-.08s-.01,0-.01-.01v-.57s0-.01.01-.01h.26c.07,0,.12.01.14.04.04.03.05.07.05.12,0,.08-.04.13-.12.16h0s.1.27.1.27t-.01.03Zm-.09-.43c0-.05-.04-.08-.12-.08h-.13v.14s0,.01.01.01h.14c.05,0,.09-.03.09-.08Z"/></svg>