<?xml version="1.0" encoding="UTF-8"?><svg id="technologies-logos" xmlns="http://www.w3.org/2000/svg" viewBox="0 0 100 100"><defs><style>.cls-1,.cls-2,.cls-3,.cls-4{fill:#fff;}.cls-2{opacity:.6;}.cls-3{opacity:.8;}.cls-4{opacity:.4;}</style></defs><path class="cls-3" d="m10.6,47.04s.03-.02.04-.02c1.29-1.42,3.46-1.58,4.95-.38h.04s-.02-.02-.03-.03l2.01-2.01v-.03c-2.69-2.38-6.81-2.13-9.2.57-.66.75-1.14,1.64-1.4,2.61.03-.01.06-.01.08-.02.74-.5,1.63-.79,2.59-.8.31,0,.62.04.92.09Z"/><path class="cls-2" d="m19.61,47.76c-.33-1.23-1.02-2.33-1.97-3.18l-.03.03-2.01,2.01s.02.02.03.03c.84.7,1.32,1.75,1.3,2.84v.36c1,0,1.81.81,1.81,1.81s-.81,1.81-1.81,1.81h-3.63v2.88h-.02l.02.02h3.62c2.6.02,4.73-2.07,4.75-4.67.01-1.58-.77-3.06-2.07-3.94Z"/><path class="cls-4" d="m13.31,53.48v-.03h-3.62c-.26,0-.51-.06-.74-.16l-2.1,2.1v.02c.81.62,1.81.95,2.84.95h3.62v-2.87Z"/><path class="cls-1" d="m8.94,53.29c-.91-.41-1.32-1.48-.9-2.4.41-.91,1.48-1.32,2.4-.9.4.18.72.5.9.9l2.1-2.1c-.7-.92-1.72-1.53-2.83-1.75-.3-.06-.61-.1-.92-.09-.96,0-1.85.3-2.59.8-1.27.85-2.1,2.3-2.09,3.94,0,1.45.69,2.82,1.84,3.71h0s2.1-2.1,2.1-2.1h0Z"/><path class="cls-1" d="m55.23,48.47h-1.26v.48h-.05c-.18-.21-.41-.37-.66-.48-.29-.14-.61-.21-.94-.21-.77,0-1.51.32-2.04.89-.57.57-.88,1.34-.87,2.15-.01.8.3,1.57.87,2.13.52.57,1.26.89,2.04.89.61.03,1.2-.22,1.59-.69h.05v.44c.04.48-.12.95-.42,1.32-.31.32-.74.48-1.19.46-.35,0-.68-.1-.95-.32-.25-.2-.45-.46-.57-.76l-1.16.48c.22.5.56.93.99,1.25.49.37,1.08.56,1.69.54.77.03,1.52-.26,2.07-.79.58-.64.88-1.5.81-2.37v-5.42Zm-1.64,4.16c-.29.33-.71.52-1.15.51-.45,0-.89-.18-1.19-.52-.34-.35-.52-.82-.51-1.3-.01-.49.17-.96.51-1.32.31-.33.74-.52,1.19-.51.44-.01.86.18,1.15.51.32.37.48.84.46,1.33.02.48-.15.94-.46,1.3Z"/><path class="cls-1" d="m31.34,49.21v1.3h3.05c-.05.59-.3,1.15-.7,1.58-1.34,1.27-3.45,1.25-4.76-.06-.64-.63-.99-1.49-.98-2.39-.02-.91.34-1.78.98-2.42.62-.66,1.49-1.03,2.39-1.02.86-.01,1.69.32,2.32.92l.91-.92c-.86-.85-2.02-1.31-3.22-1.3-1.26,0-2.48.5-3.36,1.4-.91.86-1.42,2.06-1.41,3.32-.02,1.25.5,2.46,1.41,3.32.89.9,2.1,1.39,3.36,1.38,1.23.04,2.42-.44,3.27-1.33.77-.81,1.17-1.89,1.11-3,0-.27,0-.53-.05-.79h-4.32Z"/><path class="cls-1" d="m63.59,50.19c-.08-.21-.18-.41-.3-.6-.15-.22-.32-.43-.51-.62-.22-.22-.49-.39-.78-.51-.32-.13-.67-.2-1.02-.2-.77-.02-1.51.29-2.04.85-.56.58-.86,1.37-.83,2.18-.02.81.29,1.59.86,2.16.56.58,1.34.89,2.14.87.54.01,1.07-.14,1.53-.43.38-.24.72-.55.98-.93l-1.02-.69c-.31.52-.88.84-1.49.84-.63.03-1.21-.34-1.47-.92l4.07-1.67-.14-.35Zm-4.17,1.02c-.03-.48.15-.95.49-1.28.29-.3.68-.47,1.09-.48.24,0,.48.06.7.18.19.1.34.26.42.46l-2.71,1.12Z"/><rect class="cls-1" x="56.15" y="45.25" width="1.33" height="8.89"/><path class="cls-1" d="m41.37,49.14c-1.21-1.15-3.1-1.15-4.31,0-.58.57-.9,1.35-.88,2.16-.02.81.3,1.6.88,2.16,1.2,1.15,3.11,1.15,4.31,0h0c.59-.56.91-1.35.89-2.16.02-.81-.3-1.6-.88-2.16Zm-.95,3.48s-.05.05-.08.08c-.66.62-1.71.59-2.33-.08h0c-.34-.35-.53-.82-.51-1.31-.02-.49.17-.97.51-1.32.02-.02.03-.03.05-.05.67-.64,1.73-.62,2.37.05.34.35.52.83.51,1.32.01.49-.17.96-.51,1.31Z"/><path class="cls-1" d="m43.69,49.14c-.58.57-.9,1.35-.88,2.16-.02.81.3,1.6.88,2.16,1.2,1.15,3.11,1.15,4.31,0,.58-.57.9-1.35.88-2.16.02-.81-.3-1.6-.88-2.16-1.2-1.15-3.11-1.15-4.31,0Zm3.28,3.55c-.66.62-1.71.59-2.33-.08h0c-.34-.35-.53-.82-.51-1.31-.02-.49.17-.97.51-1.32.02-.02.03-.03.05-.05.67-.64,1.73-.62,2.37.05.34.35.52.83.51,1.32"/><path class="cls-1" d="m70.69,53.32c-.85.02-1.66-.31-2.26-.91-.62-.63-.96-1.49-.92-2.37-.04-.88.3-1.74.92-2.37.6-.6,1.42-.92,2.26-.91.88-.04,1.73.35,2.28,1.04l.73-.71c-.75-.88-1.86-1.38-3.02-1.34-.06,0-.11,0-.17,0-2.31.05-4.15,1.97-4.09,4.29,0,.06,0,.11,0,.17.04,2.32,1.95,4.16,4.26,4.12.65,0,1.29-.13,1.87-.4.54-.25,1.03-.61,1.41-1.07l-.73-.73c-.62.76-1.56,1.2-2.54,1.19Z"/><rect class="cls-1" x="74.88" y="45.93" width="1.05" height="8.22"/><path class="cls-1" d="m77.65,49.2c-.55.58-.84,1.34-.81,2.14-.02.79.27,1.56.81,2.14,1.15,1.14,3,1.14,4.15,0,.55-.58.84-1.34.81-2.14.02-.79-.27-1.56-.81-2.14-1.15-1.14-3-1.14-4.15,0Zm3.36,3.61s-.05.05-.07.07c-.71.67-1.84.64-2.51-.07h0c-.37-.4-.57-.93-.55-1.48-.02-.54.17-1.08.54-1.48.02-.02.05-.05.07-.07.71-.67,1.84-.64,2.51.07.37.4.57.93.54,1.48.02.54-.17,1.08-.54,1.48Z"/><path class="cls-1" d="m87.4,51.64c0,.44-.14.87-.41,1.22-.25.33-.65.52-1.07.51-.93,0-1.39-.52-1.39-1.57v-3.27h-1.05v3.46c-.03.62.16,1.23.54,1.72.41.45,1,.68,1.6.64.37,0,.73-.1,1.04-.28.31-.16.56-.41.74-.7h.03v.78h1.02v-5.62h-1.05v3.11Z"/><path class="cls-1" d="m93.95,45.93v2.6l.05.78h-.05c-.19-.29-.45-.53-.76-.69-.35-.19-.75-.28-1.15-.27-.72,0-1.41.31-1.88.86-.53.58-.81,1.35-.79,2.13-.02.79.26,1.55.79,2.13.47.55,1.16.86,1.88.86.4,0,.79-.09,1.14-.27.31-.16.57-.39.76-.69h.05v.78h1.02v-8.22h-1.05Zm-.47,6.89c-.32.36-.79.56-1.27.55-.49,0-.95-.2-1.28-.56-.36-.4-.54-.94-.51-1.48-.03-.54.15-1.07.51-1.48.04-.04.07-.08.11-.11.7-.64,1.79-.59,2.43.11.36.41.54.94.51,1.48.03.54-.15,1.07-.51,1.48Z"/></svg>