<?xml version="1.0" encoding="UTF-8"?><svg id="technologies-logos" xmlns="http://www.w3.org/2000/svg" viewBox="0 0 100 100"><defs><style>.cls-1{fill:#fff;}</style></defs><path class="cls-1" d="m21.12,68.26c.52-.86.79-1.93.79-3.23,0-1.62-.41-2.89-1.23-3.81s-1.96-1.38-3.42-1.38c-1.5,0-2.66.45-3.48,1.36-.82.9-1.22,2.18-1.22,3.82,0,1.66.41,2.94,1.22,3.85.81.91,1.97,1.36,3.47,1.36h.38s1.98,2.27,1.98,2.27h1.72l-2.42-2.5c.93-.28,1.72-.9,2.22-1.74Zm-3.88.95c-1.12,0-1.97-.35-2.56-1.06-.59-.71-.88-1.74-.88-3.11,0-1.35.29-2.38.88-3.08.59-.71,1.44-1.06,2.57-1.06,1.12,0,1.97.35,2.54,1.05.57.7.86,1.73.86,3.09s-.29,2.41-.86,3.12c-.57.7-1.43,1.05-2.55,1.05Z"/><path class="cls-1" d="m32.38,66.57c0,.85-.23,1.5-.7,1.95-.46.45-1.12.68-1.98.68-.9,0-1.58-.23-2.04-.68-.46-.45-.69-1.1-.69-1.94v-6.59h-1.18v6.5c0,1.16.33,2.07,1,2.74.67.66,1.62,1,2.84,1,1.22,0,2.19-.33,2.89-.99.7-.66,1.05-1.56,1.05-2.71v-6.53h-1.18v6.58Z"/><path class="cls-1" d="m40.58,59.96l-4.02,10.14h1.2l1.25-3.21h4.07l1.27,3.21h1.22l-4-10.14h-1Zm-1.15,5.87l1.2-3.13c.17-.48.32-.96.44-1.46.16.58.32,1.06.47,1.46l1.18,3.13h-3.29Z"/><path class="cls-1" d="m55.12,62.85c0-.95-.3-1.67-.89-2.14-.6-.47-1.52-.71-2.76-.71h-2.79v10.1h1.18v-4.2h2.12s2.46,4.2,2.46,4.2h1.4l-2.76-4.54c1.36-.47,2.04-1.37,2.04-2.71Zm-3.64,2.04h-1.62v-3.86h1.54c.88,0,1.51.15,1.91.44.4.3.59.78.59,1.44,0,.66-.2,1.15-.59,1.48s-1,.49-1.84.49Z"/><polygon class="cls-1" points="66.37 60 64.98 60 60.37 65.01 60.37 60 59.19 60 59.19 70.1 60.37 70.1 60.37 66.14 61.43 65.2 65.14 70.1 66.53 70.1 62.29 64.38 66.37 60"/><path class="cls-1" d="m76.12,66.57c0,.85-.23,1.5-.69,1.95-.46.45-1.12.68-1.98.68-.9,0-1.58-.23-2.04-.68-.46-.45-.69-1.1-.69-1.94v-6.59h-1.18v6.5c0,1.16.33,2.07,1,2.74.67.66,1.62,1,2.84,1,1.22,0,2.19-.33,2.89-.99.7-.66,1.05-1.56,1.05-2.71v-6.53h-1.18v6.58Z"/><path class="cls-1" d="m86.84,65.72c-.4-.43-1.13-.84-2.2-1.22-.64-.23-1.11-.43-1.42-.62-.3-.19-.52-.4-.65-.62-.13-.22-.19-.51-.19-.86,0-.47.18-.85.53-1.11.35-.27.84-.4,1.46-.4.79,0,1.61.18,2.45.53l.37-1.02c-.85-.37-1.78-.55-2.79-.55-.97,0-1.75.23-2.33.69-.59.46-.88,1.08-.88,1.86s.2,1.34.61,1.8c.41.46,1.08.86,2.03,1.19.68.24,1.18.46,1.51.64.33.19.57.4.71.62.14.22.21.51.21.86,0,.53-.2.94-.6,1.24-.4.3-.99.45-1.78.45-.49,0-.98-.05-1.46-.15-.47-.09-.92-.23-1.36-.41v1.13c.65.31,1.58.46,2.78.46,1.11,0,1.99-.25,2.64-.75.65-.5.97-1.19.97-2.08,0-.69-.2-1.25-.6-1.69Z"/><polygon class="cls-1" points="53.94 36.43 50.2 38.59 50.2 42.9 53.94 40.74 53.94 36.43"/><polygon class="cls-1" points="53.94 41.16 50.56 43.11 53.94 45.06 53.94 41.16"/><polygon class="cls-1" points="53.74 31.76 50.36 33.71 53.74 35.67 53.74 31.76"/><polygon class="cls-1" points="53.74 36.08 50 33.92 46.26 36.08 50 38.24 53.74 36.08"/><polygon class="cls-1" points="46.26 35.67 49.64 33.71 46.26 31.76 46.26 35.67"/><polygon class="cls-1" points="54.3 36.64 54.3 40.54 57.67 38.59 54.3 36.64"/><polygon class="cls-1" points="49.8 38.59 46.06 36.43 46.06 40.74 49.8 42.9 49.8 38.59"/><polygon class="cls-1" points="45.7 36.64 42.32 38.59 45.7 40.54 45.7 36.64"/><polygon class="cls-1" points="46.06 45.06 49.44 43.11 46.06 41.16 46.06 45.06"/><path class="cls-1" d="m62.13,47.74v-16.22c0-2.22-1.81-4.02-4.03-4.03h-16.22c-2.22,0-4.02,1.8-4.03,4.03v16.22c0,2.22,1.81,4.02,4.03,4.03h11.11l-3-7.28-2.17,4.6h-5.93c-.74,0-1.33-.6-1.34-1.34v-16.22c0-.74.6-1.33,1.34-1.34h16.22c.74,0,1.33.6,1.34,1.34v16.22c0,.74-.6,1.33-1.34,1.34h-3.52l1.11,2.68h2.41c2.22,0,4.02-1.8,4.03-4.03Z"/></svg>