<?xml version="1.0" encoding="UTF-8"?><svg id="technologies-logos" xmlns="http://www.w3.org/2000/svg" viewBox="0 0 100 100"><defs><style>.cls-1{fill:#fff;fill-rule:evenodd;}</style></defs><path class="cls-1" d="m60.53,49.76c.36.21.9.39,1.6.56.7.17,1.42.25,2.14.25s1.36-.1,1.99-.29c.6-.18,1.11-.43,1.54-.78.43-.33.76-.75,1.02-1.22.24-.47.36-1.02.36-1.61,0-.72-.21-1.38-.64-1.95-.43-.57-1.15-1.02-2.16-1.33l-1.97-.63c-.74-.24-1.25-.5-1.53-.76-.28-.26-.42-.6-.42-.99,0-.57.22-.97.65-1.24.43-.26,1.06-.39,1.85-.39.99,0,1.88.18,2.67.54.24.11.42.17.53.17.21,0,.32-.15.32-.44v-.65c0-.19-.04-.35-.13-.46-.08-.13-.22-.24-.42-.35-.14-.08-.33-.17-.58-.25s-.51-.15-.79-.22c-.29-.06-.58-.11-.9-.15-.31-.04-.63-.06-.93-.06-.61,0-1.2.07-1.75.24-.56.17-1.03.4-1.45.72-.42.31-.75.7-1,1.14-.25.44-.38.96-.38,1.54,0,.72.24,1.4.7,2.02.46.63,1.21,1.1,2.22,1.42l2.02.63c.68.22,1.15.46,1.4.72.25.26.38.58.38.97,0,.57-.25,1.02-.72,1.32-.47.31-1.15.46-2.03.46-.56,0-1.1-.06-1.65-.17-.54-.11-1.06-.28-1.53-.49-.14-.06-.26-.11-.35-.14-.08-.03-.17-.04-.25-.04-.21,0-.32.14-.32.43v.71c0,.13.03.26.08.39.06.13.21.26.43.39Z"/><path class="cls-1" d="m45.58,49.51c.08.26.18.46.29.54.11.1.28.14.53.14h1.2c.25,0,.44-.04.56-.14s.19-.28.26-.56l2.14-8.95,2.16,8.97c.06.28.15.46.26.56s.29.14.56.14h1.2c.24,0,.42-.06.53-.14.11-.08.21-.26.29-.54l3.35-10.75c.06-.15.08-.26.1-.35.01-.08.03-.15.03-.22,0-.24-.13-.35-.35-.35h-1.29c-.25,0-.43.06-.54.14-.1.08-.19.26-.28.54l-2.41,9.32-2.2-9.32c-.06-.26-.15-.46-.26-.54-.11-.1-.29-.14-.56-.14h-1.11c-.25,0-.44.06-.56.14s-.19.26-.26.54l-2.17,9.2-2.34-9.2c-.08-.26-.17-.46-.28-.54-.1-.1-.28-.14-.54-.14h-1.36c-.22,0-.33.13-.33.35,0,.1.04.28.13.56l3.27,10.75Z"/><path class="cls-1" d="m36.97,43.01c-.51-.07-1-.11-1.47-.11-1.43,0-2.56.36-3.41,1.08-.85.72-1.27,1.68-1.27,2.86,0,1.11.35,2,1.03,2.67s1.61,1,2.78,1c1.64,0,3-.64,4.09-1.92.15.32.29.58.43.82.14.22.31.44.5.65.14.13.28.19.42.19.11,0,.24-.04.36-.13l.88-.58c.18-.14.26-.28.26-.42,0-.1-.03-.21-.1-.32-.19-.36-.33-.7-.44-1-.1-.31-.15-.72-.15-1.24h-.03v-4.51c0-1.53-.39-2.67-1.15-3.42-.78-.75-1.99-1.13-3.64-1.13-.76,0-1.49.08-2.17.26-.68.17-1.27.38-1.75.63-.19.1-.32.19-.39.29-.07.1-.1.26-.1.49v.68c0,.29.1.43.29.43.06,0,.13-.01.22-.04s.26-.08.49-.18c.49-.19.99-.35,1.5-.47.51-.13,1.02-.18,1.5-.18,1.07,0,1.82.21,2.27.64.43.43.65,1.17.65,2.22v1.02c-.56-.13-1.08-.24-1.6-.31Zm1.63,1.86v.58c0,.47-.06.88-.14,1.21s-.25.63-.47.89c-.38.42-.82.72-1.32.89-.5.17-.97.25-1.43.25-.64,0-1.13-.17-1.46-.51-.35-.33-.51-.82-.51-1.47,0-.7.22-1.22.68-1.6s1.14-.56,2.07-.56c.43,0,.86.03,1.31.08.44.06.88.14,1.28.24Z"/><path class="cls-1" d="m66.23,56.27c-5.13,2.17-10.71,3.23-15.78,3.23-7.52,0-14.79-2.07-20.69-5.49-.51-.31-.9.22-.47.61,5.45,4.92,12.67,7.88,20.68,7.88,5.71,0,12.36-1.79,16.94-5.17.75-.56.1-1.4-.67-1.06Z"/><path class="cls-1" d="m70.74,53.66c-.5-.61-4.8-1.14-7.41.7-.4.29-.33.68.11.63,1.49-.18,4.77-.57,5.35.18.58.74-.65,3.84-1.21,5.21-.17.42.19.58.57.26,2.45-2.06,3.09-6.35,2.59-6.98Z"/></svg>