<?xml version="1.0" encoding="UTF-8"?><svg id="technologies-logos" xmlns="http://www.w3.org/2000/svg" viewBox="0 0 100 100"><defs><style>.cls-1{fill:#fff;}.cls-2{fill:none;stroke:#fff;stroke-miterlimit:10;stroke-width:.52px;}</style></defs><path class="cls-1" d="m35.16,43.11h3.08v6.19l5.67-6.19h3.72l-5.69,6,5.95,8.15h-3.7l-4.34-6.02-1.62,1.7v4.33h-3.08v-14.15Z"/><path class="cls-1" d="m46.25,51.9v-.04c0-3.11,2.48-5.64,5.81-5.64s5.77,2.49,5.77,5.6v.04c0,3.11-2.48,5.64-5.81,5.64s-5.77-2.49-5.77-5.6Zm8.59,0v-.04c0-1.6-1.14-2.99-2.82-2.99s-2.78,1.35-2.78,2.95v.04c0,1.6,1.14,2.99,2.82,2.99s2.78-1.35,2.78-2.95Z"/><path class="cls-1" d="m58.68,54.18v-5.13h-1.28v-2.63h1.28v-2.77h3.04v2.77h2.52v2.63h-2.52v4.63c0,.71.3,1.05.98,1.05.52,0,1.04-.13,1.5-.38v2.47c-.64.38-1.38.63-2.4.63-1.86,0-3.12-.75-3.12-3.25h0Zm6.43-11.68h3.04v14.76h-3.04v-14.76Zm4.14,0h3.2v2.73h-3.2v-2.73Zm.08,3.92h3.04v10.84h-3.04v-10.84Zm4.19,0h3.04v1.54c.7-.91,1.6-1.74,3.14-1.74,2.3,0,3.64,1.54,3.64,4.02v7.01h-3.04v-6.04c0-1.46-.68-2.2-1.84-2.2s-1.9.75-1.9,2.2v6.04h-3.04v-10.84Z"/><path class="cls-2" d="m23.69,43.1l-7.02,7.47v6.68l7.01-7.11,6.97-7.04h-6.96Z"/><path class="cls-2" d="m16.67,57.25l7.01-7.11,6.97,7.11h-13.98Z"/><path class="cls-2" d="m16.67,43.1h7.02l-7.02,7.47v-7.47Z"/></svg>