<?xml version="1.0" encoding="UTF-8"?><svg id="technologies-logos" xmlns="http://www.w3.org/2000/svg" viewBox="0 0 100 100"><defs><style>.cls-1{fill:#fff;}</style></defs><path class="cls-1" d="m14.34,44.91c-.69-.92-1.8-1.53-3.05-1.53-2.09,0-3.78,1.67-3.78,3.73,0,1.24.61,2.33,1.55,3.01.63.45,1.4.72,2.24.72h1.38v-1.7h-1.38c-1.14,0-2.06-.91-2.06-2.03s.92-2.03,2.06-2.03c.9,0,1.66.57,1.95,1.36h1.78c-.1-.56-.34-1.08-.67-1.53Z"/><path class="cls-1" d="m19.37,49.87c-.63-.45-1.4-.72-2.24-.72h-1.38v1.7h1.38c1.14,0,2.06.91,2.06,2.03s-.92,2.03-2.06,2.03-2.06-.91-2.06-2.03v-5.76h-1.72v5.76c0,.82.27,1.59.73,2.2.69.92,1.8,1.53,3.05,1.53,2.09,0,3.78-1.67,3.78-3.73,0-1.24-.61-2.33-1.55-3.01Z"/><path class="cls-1" d="m76.15,47.99c-.54-.33-1.16-.49-1.88-.49s-1.36.16-1.91.48c-.55.32-.98.77-1.3,1.36-.31.58-.47,1.26-.47,2.03s.16,1.45.47,2.04c.31.59.75,1.04,1.32,1.37.57.32,1.22.48,1.95.48.53,0,1.02-.09,1.48-.27.45-.18.84-.43,1.15-.76.32-.33.55-.75.67-1.19h-1.5c-.14.22-.32.42-.56.59-.34.25-.75.37-1.24.37-.65,0-1.17-.2-1.56-.6-.33-.34-.56-.78-.62-1.55h5.65c0-.1.02-.39.02-.52,0-.75-.15-1.42-.44-2-.29-.58-.71-1.03-1.24-1.36Zm-3.97,2.69c.07-.51.3-1.02.62-1.34.38-.38.87-.56,1.46-.56s1.05.18,1.42.55c.31.31.54.85.59,1.35h-4.09Z"/><path class="cls-1" d="m83.89,47.99c-.54-.33-1.16-.49-1.88-.49s-1.36.16-1.91.48c-.55.32-.98.77-1.3,1.36-.31.58-.47,1.26-.47,2.03s.16,1.45.47,2.04c.31.59.75,1.04,1.32,1.37.57.32,1.22.48,1.95.48.53,0,1.02-.09,1.48-.27.45-.18.84-.43,1.15-.76.32-.33.55-.75.67-1.19h-1.5c-.14.22-.32.42-.56.59-.34.25-.75.37-1.24.37-.65,0-1.17-.2-1.56-.6-.33-.34-.56-.78-.62-1.55h5.65c0-.1.02-.39.02-.52,0-.75-.15-1.42-.44-2-.29-.58-.71-1.03-1.24-1.36Zm-3.97,2.69c.07-.51.3-1.02.62-1.34.38-.38.87-.56,1.46-.56s1.05.18,1.42.55c.31.31.54.85.59,1.35h-4.09Z"/><path class="cls-1" d="m68.06,49.71v-.1c.52-.17.93-.46,1.22-.84.29-.39.44-.84.44-1.35,0-.48-.13-.9-.38-1.28-.26-.37-.62-.67-1.08-.88-.47-.21-1.01-.33-1.63-.34h-4.41v5.42h4.18c.61,0,1.1.15,1.45.44.36.3.54.71.54,1.24s-.18.94-.54,1.24c-.36.31-.88.46-1.57.46h-2.52v-2.71h-1.55v4.07h4.5c.65,0,1.23-.13,1.74-.38.51-.25.9-.59,1.18-1.03.28-.44.42-.94.42-1.5,0-.66-.19-1.21-.57-1.65-.38-.44-.85-.71-1.42-.82Zm-.48-1.11c-.33.25-.79.38-1.39.38h-2.44v-2.71h2.41c.61,0,1.09.11,1.42.34.33.23.5.55.5.98s-.16.75-.5,1.01Z"/><path class="cls-1" d="m92.15,51.67c-.24-.28-.5-.47-.8-.59-.3-.11-.61-.2-.94-.25h-.03l-1.67-.24c-.29-.04-.54-.13-.74-.27-.2-.14-.3-.35-.3-.63,0-.34.15-.59.45-.77.3-.18.66-.27,1.09-.27s.78.09,1.07.28c.27.17.46.41.58.72h1.5c-.07-.46-.34-1-.63-1.3-.29-.3-.64-.52-1.07-.68-.43-.15-.9-.23-1.41-.23-.6,0-1.14.1-1.6.29-.47.19-.83.47-1.09.82-.26.35-.38.76-.38,1.22,0,.53.17.99.51,1.35.34.37.82.59,1.43.68l1.78.25s.05,0,.06.01c.33.05.59.13.77.24.18.11.27.31.27.59,0,.35-.15.63-.46.86-.31.23-.71.34-1.21.34s-.95-.12-1.28-.36c-.28-.2-.46-.44-.56-.71h-1.5c.05.39.24.83.51,1.16.27.33.64.59,1.11.79.47.2,1.02.3,1.66.3s1.16-.1,1.66-.3c.49-.2.88-.49,1.16-.88.28-.38.42-.82.42-1.31s-.12-.87-.35-1.14Z"/><rect class="cls-1" x="34.58" y="44.91" width="1.55" height="10.17"/><path class="cls-1" d="m42.88,47.99c-.57-.33-1.23-.49-1.96-.49s-1.4.16-1.98.49c-.58.33-1.03.78-1.36,1.37-.33.59-.49,1.26-.49,2.01s.16,1.44.49,2.02c.33.58.78,1.04,1.36,1.37.58.33,1.24.49,1.98.49s1.39-.16,1.96-.49c.57-.33,1.02-.78,1.35-1.37.33-.59.49-1.26.49-2.01s-.16-1.42-.49-2.01c-.33-.59-.78-1.05-1.35-1.37Zm.02,4.75c-.2.39-.47.68-.81.89-.35.21-.74.31-1.18.31s-.82-.1-1.17-.31c-.35-.21-.62-.5-.81-.89-.2-.39-.29-.84-.29-1.35s.1-.98.29-1.37c.2-.39.47-.69.81-.9.35-.21.74-.31,1.17-.31s.84.1,1.18.31c.35.21.62.51.81.9.2.39.29.85.29,1.37s-.1.97-.29,1.35Z"/><path class="cls-1" d="m50.82,51.63c0,.69-.18,1.25-.53,1.69-.36.43-.84.65-1.44.65s-1.02-.18-1.3-.53c-.27-.35-.41-.79-.41-1.33v-4.47h-1.54v4.83c0,.86.25,1.54.75,2.05.5.5,1.17.76,2.01.76.59,0,1.09-.13,1.48-.38.4-.25.7-.6.9-1.03h.08v1.23h1.55v-7.46h-1.55v4Z"/><path class="cls-1" d="m59.28,48.89h-.08c-.19-.38-.5-.7-.92-.96-.42-.26-.93-.39-1.54-.39-.65,0-1.24.16-1.76.49-.52.33-.92.78-1.21,1.36-.29.58-.44,1.24-.44,1.98s.15,1.41.44,2c.3.59.7,1.05,1.22,1.37.52.33,1.1.49,1.76.49.58,0,1.09-.13,1.52-.39.43-.26.74-.57.92-.95h.08v1.19h1.55v-10.17h-1.55v3.98Zm-.27,3.86c-.2.39-.47.68-.81.89-.34.21-.72.31-1.14.31s-.78-.11-1.11-.32c-.33-.21-.59-.51-.78-.9-.19-.39-.29-.84-.29-1.37,0-.76.2-1.38.61-1.84.41-.47.93-.7,1.57-.7.42,0,.8.1,1.15.31.34.21.61.51.81.9.2.39.29.84.29,1.36s-.1.97-.3,1.35Z"/><path class="cls-1" d="m27.35,46.62c.53-.29,1.11-.43,1.74-.43.78,0,1.43.2,1.94.6.5.39.85.9,1.08,1.51h1.61s-.01-.14-.08-.36c-.16-.58-.44-1.12-.84-1.6-.4-.48-.92-.87-1.54-1.16-.63-.29-1.34-.43-2.13-.43-.98,0-1.86.22-2.64.66-.77.44-1.38,1.06-1.82,1.86-.43.79-.65,1.7-.66,2.73,0,1.03.22,1.94.66,2.73.44.8,1.04,1.42,1.82,1.86.77.44,1.65.66,2.64.66.79,0,1.5-.14,2.13-.43.63-.29,1.14-.67,1.54-1.16.4-.49.68-1.02.84-1.6.06-.22.08-.36.08-.36h-1.61c-.22.61-.58,1.12-1.08,1.51-.51.4-1.15.6-1.94.6-.63,0-1.21-.14-1.74-.43-.53-.29-.95-.72-1.27-1.28-.32-.57-.47-1.28-.47-2.09s.16-1.52.47-2.09c.32-.57.74-1,1.27-1.28Z"/></svg>