<?xml version="1.0" encoding="UTF-8"?><svg id="shield" xmlns="http://www.w3.org/2000/svg" viewBox="0 0 100 100"><defs><style>.cls-1{fill:#fff;}</style></defs><polygon class="cls-1" points="61.93 62.89 61.78 63.29 61.62 62.89 61.46 62.89 61.46 63.46 61.57 63.46 61.57 63.01 61.57 63.01 61.74 63.46 61.82 63.46 61.99 63.01 61.99 63.01 61.99 63.46 62.1 63.46 62.1 62.89 61.93 62.89"/><polygon class="cls-1" points="60.91 62.99 61.08 62.99 61.08 63.46 61.2 63.46 61.2 62.99 61.37 62.99 61.37 62.89 60.91 62.89 60.91 62.99"/><path class="cls-1" d="m54.11,48.78c-3.57.69-5.63.67-8.25.4-2.02-.21-.7-1.19-.7-1.19-5.23,1.74,2.91,3.7,10.21,1.57-.78-.27-1.27-.77-1.27-.77Z"/><path class="cls-1" d="m45.9,51.37c-4.75,1.33,2.89,4.07,8.93,1.48-.99-.38-1.7-.83-1.7-.83-2.7.51-3.95.55-6.39.27-2.02-.23-.84-.92-.84-.92Z"/><path class="cls-1" d="m56.91,33.8s-10.57,2.64-5.52,8.45c1.49,1.71-.39,3.26-.39,3.26,0,0,3.78-1.95,2.04-4.4-1.62-2.28-2.87-3.41,3.87-7.32Z"/><path class="cls-1" d="m55.14,46.37c.59-.4,1.41-.75,1.41-.75,0,0-2.33.42-4.65.61-2.84.24-5.89.28-7.42.08-3.62-.48,1.99-1.82,1.99-1.82h0s-2.18-.15-4.86,1.15c-3.17,1.53,7.84,2.23,13.53.73Z"/><path class="cls-1" d="m40.12,56.21c12.32,2,22.46-.9,19.26-2.34h0s.87.72-.96,1.28c-3.49,1.06-14.52,1.38-17.58.04-1.1-.48.96-1.14,1.61-1.28.68-.15,1.06-.12,1.06-.12-1.22-.86-7.92,1.69-3.4,2.43Z"/><path class="cls-1" d="m56.53,50.11c-.03.07-.12.15-.12.15,7.73-2.03,4.89-7.17,1.19-5.87-.32.12-.49.38-.49.38,0,0,.2-.08.66-.18,1.87-.39,4.55,2.5-1.24,5.51Z"/><path class="cls-1" d="m50,44.43c-1.14-2.58-5.01-4.83,0-8.79,6.25-4.93,3.04-8.14,3.04-8.14,1.29,5.1-4.56,6.63-6.68,9.81-1.44,2.16.71,4.49,3.63,7.12Z"/><path class="cls-1" d="m56.74,57.23c-4.74.89-10.6.79-14.07.22,0,0,.71.59,4.36.82h0c5.56.36,14.09-.2,14.3-2.83,0,0-.39,1-4.59,1.79Z"/><path class="cls-1" d="m58.26,62.76c-1.04,0-1.95.26-2.68.58l.21.89c.58-.21,1.33-.41,2.07-.41,1.02,0,1.46.41,1.46,1.26v.64h-.51c-2.49,0-3.61.96-3.61,2.41,0,1.25.74,1.96,2.13,1.96.89,0,1.56-.37,2.19-.91l.11.77h1.14v-5.05c0-1.29-.74-2.14-2.51-2.14Zm1.06,5.56c-.53.45-1.08.71-1.58.71-.71,0-1.09-.43-1.09-1.11,0-.74.41-1.28,2.06-1.28h.61v1.68Z"/><path class="cls-1" d="m51.65,68.53l-.3-1.31-1.35-4.34h-1.58l2.17,7.07h1.8c1.04-2.19,1.77-4.74,2.19-7.07h-1.53c-.24,1.84-.72,3.76-1.41,5.65Z"/><polygon class="cls-1" points="60.77 69.95 60.77 69.95 60.77 69.95 60.77 69.95"/><path class="cls-1" d="m39.43,68.44c0,1.17-.08,1.67-.27,2.05-.22.43-.7.89-1.25,1.17l.71.84c.73-.27,1.4-.75,1.81-1.35.41-.62.54-1.25.54-2.82v-7.96h-1.54v8.07Z"/><path class="cls-1" d="m45.06,62.76c-1.04,0-1.94.26-2.68.58l.21.89c.58-.21,1.33-.41,2.07-.41,1.02,0,1.46.41,1.46,1.26v.64h-.51c-2.48,0-3.61.96-3.61,2.41,0,1.25.74,1.96,2.13,1.96.89,0,1.56-.37,2.18-.91l.11.77h1.14v-5.05c0-1.29-.74-2.14-2.51-2.14Zm-1.6,5.17c0-.74.41-1.28,2.06-1.28h.61v1.68c-.52.45-1.08.71-1.58.71-.71,0-1.09-.43-1.09-1.11Z"/></svg>