<?xml version="1.0" encoding="UTF-8"?>
<svg id="technologies-logos" xmlns="http://www.w3.org/2000/svg" viewBox="0 0 100 100">
  <defs>
    <style>
      .cls-1 {
        fill: #fff;
      }
    </style>
  </defs>
  <path class="cls-1" d="M67.35,63.54c-.05-2.01-1.69-3.64-3.72-3.64-.95,0-1.73-.78-1.73-1.73v-1.73h2.27c1.75,0,3.18-1.43,3.18-3.18v-6.54c0-1.75-1.43-3.18-3.18-3.18h-2.27s0-1.73,0-1.73c0-.95.78-1.73,1.73-1.73,2.02,0,3.67-1.62,3.72-3.64,1.17-.41,2.01-1.51,2.01-2.82,0-1.66-1.34-3-3-3s-3,1.34-3,3c0,1.3.83,2.4,1.99,2.81-.05.91-.8,1.64-1.72,1.64-2.06,0-3.73,1.67-3.73,3.73v1.73h-5.56s1.54-3.09,1.54-3.09c.37-.74.57-1.57.57-2.4v-1.61c1.16-.41,2-1.51,2-2.82,0-1.66-1.34-3-3-3s-3,1.34-3,3c0,1.3.84,2.4,2,2.82v1.61c0,.52-.12,1.04-.35,1.5l-1.99,3.98h-4.22s-1.99-3.98-1.99-3.98c-.23-.46-.35-.99-.35-1.51v-1.61c1.16-.41,2-1.51,2-2.82,0-1.66-1.34-3-3-3-1.66,0-3,1.34-3,3,0,1.3.84,2.4,2,2.82v1.61c0,.83.2,1.66.57,2.4l1.54,3.09h-5.56s0-1.73,0-1.73c0-2.06-1.67-3.73-3.73-3.73-.92,0-1.67-.73-1.72-1.64,1.16-.42,1.99-1.51,1.99-2.81,0-1.66-1.34-3-3-3-1.66,0-3,1.34-3,3,0,1.31.84,2.41,2.01,2.82.05,2.01,1.69,3.64,3.72,3.64.95,0,1.73.78,1.73,1.73v1.73h-2.27c-1.75,0-3.18,1.43-3.18,3.18v6.54c0,1.75,1.43,3.18,3.18,3.18h2.27s0,1.73,0,1.73c0,.95-.78,1.73-1.73,1.73-2.02,0-3.67,1.62-3.72,3.64-1.17.41-2.01,1.51-2.01,2.82,0,1.66,1.34,3,3,3s3-1.34,3-3c0-1.3-.83-2.4-1.99-2.81.05-.91.8-1.64,1.72-1.64,2.06,0,3.73-1.67,3.73-3.73v-1.73h5.56s-1.54,3.09-1.54,3.09c-.37.74-.57,1.57-.57,2.4v1.61c-1.16.41-2,1.51-2,2.82,0,1.66,1.34,3,3,3s3-1.34,3-3c0-1.3-.84-2.4-2-2.82v-1.61c0-.52.12-1.04.35-1.5l1.99-3.98h4.22s1.99,3.98,1.99,3.98c.23.46.35.99.35,1.51v1.61c-1.16.41-2,1.51-2,2.82,0,1.66,1.34,3,3,3s3-1.34,3-3c0-1.3-.84-2.4-2-2.82v-1.61c0-.83-.2-1.66-.57-2.4l-1.54-3.09h5.56s0,1.73,0,1.73c0,2.06,1.67,3.73,3.73,3.73.92,0,1.67.73,1.72,1.64-1.16.42-1.99,1.51-1.99,2.81,0,1.66,1.34,3,3,3s3-1.34,3-3c0-1.31-.84-2.41-2.01-2.82ZM35.82,54.46c-.65,0-1.18-.53-1.18-1.18v-6.54c0-.65.53-1.18,1.18-1.18h28.36c.65,0,1.18.53,1.18,1.18v6.54c0,.65-.53,1.18-1.18,1.18h-28.36Z"/>
</svg>