<?xml version="1.0" encoding="UTF-8"?><svg id="technologies-logos" xmlns="http://www.w3.org/2000/svg" viewBox="0 0 100 100"><defs><style>.cls-1{fill:#fff;}</style></defs><path class="cls-1" d="m65.64,44l-5.29,1.93h0c-.08,1.15-.37,2.3-.89,3.41-2.3,4.93-8.17,7.06-13.1,4.77-1.11-.52-2.07-1.21-2.87-2.04l-3.95,1.44,1.45-.53c-1.36-1.39-2.26-3.16-2.62-5.05l4.71-1.71c-.16-.85-.22-1.73-.15-2.61l-2.21.8c.09-1.15.37-2.3.88-3.4,2.3-4.93,8.17-7.06,13.1-4.77,1.1.52,2.06,1.22,2.87,2.04l2.21-.8c.62.63,1.13,1.34,1.56,2.1l5.04-1.83c-.37-.76-.8-1.5-1.29-2.2l-2.21.8c-1.47-2.06-3.47-3.78-5.92-4.93-7.58-3.54-16.63-.24-20.16,7.34-1.14,2.45-1.57,5.06-1.37,7.58l2.21-.8c.07.85.21,1.69.42,2.51l-4.71,1.72c.46,1.84,1.27,3.58,2.37,5.14l2.5-.91c1.47,2.06,3.46,3.78,5.92,4.93,7.58,3.53,16.63.24,20.16-7.34,1.15-2.45,1.57-5.06,1.37-7.58Z"/><path class="cls-1" d="m63.14,44.91c-.15-1.9-.66-3.75-1.49-5.46l-5.04,1.83c.94,1.68,1.38,3.61,1.23,5.55l5.29-1.93Z"/><rect class="cls-1" x="59.78" y="65.22" width=".52" height="4.71"/><path class="cls-1" d="m33.43,65.14c-1.23,0-2.09.92-2.09,2.44s.84,2.42,2.07,2.42,2.08-.91,2.08-2.44-.84-2.42-2.07-2.42Zm0,3.92c-.66,0-1.12-.54-1.12-1.5s.44-1.49,1.1-1.49,1.12.54,1.12,1.5-.44,1.49-1.1,1.49Z"/><polygon class="cls-1" points="61.66 69.93 62.18 69.93 62.18 67.73 63.47 67.73 63.47 67.25 62.18 67.25 62.18 65.69 64.42 65.69 64.42 65.22 61.66 65.22 61.66 69.93"/><polygon class="cls-1" points="65.36 65.22 65.36 65.69 66.75 65.69 66.75 69.93 67.27 69.93 67.27 65.69 68.66 65.69 68.66 65.22 65.36 65.22"/><path class="cls-1" d="m38.58,65.22h-2.06v4.71h.94v-1.67h1.04c.98,0,1.7-.46,1.7-1.55,0-1-.73-1.49-1.62-1.49Zm-.02,2.13h-1.1v-1.21h1.08c.42,0,.69.19.69.6s-.24.61-.67.61Z"/><polygon class="cls-1" points="57.91 67.23 55.56 67.23 55.56 65.22 55.04 65.22 55.04 69.93 55.56 69.93 55.56 67.71 57.91 67.71 57.91 69.93 58.43 69.93 58.43 65.22 57.91 65.22 57.91 67.23"/><polygon class="cls-1" points="42.12 67.87 43.47 67.87 43.47 66.95 42.12 66.95 42.12 66.14 44.44 66.14 44.44 65.22 41.17 65.22 41.17 69.93 44.54 69.93 44.54 69 42.12 69 42.12 67.87"/><path class="cls-1" d="m52.5,67.26c-.94-.34-1.12-.56-1.12-.95,0-.37.27-.69.92-.69.47,0,.79.15,1.13.44l.34-.41c-.4-.32-.8-.51-1.43-.51-.88,0-1.47.45-1.47,1.21,0,.68.34,1.01,1.36,1.37.86.31,1.12.56,1.12,1,0,.5-.39.81-1.02.81-.48,0-.9-.22-1.25-.57l-.35.39c.37.38.94.65,1.58.65h0c.98,0,1.56-.57,1.56-1.31,0-.7-.32-1.05-1.37-1.43Z"/><path class="cls-1" d="m48.51,67.21c0,.26.01.85.01,1.03-.06-.12-.21-.36-.33-.53l-1.67-2.49h-.9v4.71h.93v-2.07c0-.26-.01-.85-.01-1.03.06.12.22.36.33.53l1.73,2.57h.84v-4.71h-.93v1.99Z"/></svg>