<?xml version="1.0" encoding="UTF-8"?><svg id="technologies-logos" xmlns="http://www.w3.org/2000/svg" viewBox="0 0 100 100"><defs><style>.cls-1{fill:#fff;}</style></defs><g id="g37"><g id="g39"><path id="path41" class="cls-1" d="m36.72,53.91c-.24-.13-.42-.4-.42-.77,0-.5.39-.9.9-.9.18,0,.35.05.48.13.94.63,1.91.94,2.79.94.96,0,1.51-.4,1.51-1.05v-.04c0-.75-1.03-1.01-2.17-1.36-1.43-.4-3.03-.99-3.03-2.85v-.04c0-1.84,1.52-2.96,3.45-2.96,1.03,0,2.11.29,3.05.79.31.17.53.46.53.84,0,.52-.4.9-.92.9-.18,0-.29-.04-.44-.11-.79-.4-1.6-.66-2.28-.66-.86,0-1.36.41-1.36.96v.04c0,.72,1.05,1.01,2.19,1.38,1.41.44,3.01,1.08,3.01,2.83v.04c0,2.04-1.58,3.05-3.6,3.05-1.23,0-2.57-.38-3.69-1.16"/><path id="path43" class="cls-1" d="m52.63,50.05v-.04c0-1.87-1.27-3.1-2.77-3.1s-2.83,1.25-2.83,3.1v.04c0,1.86,1.32,3.11,2.83,3.11s2.77-1.2,2.77-3.11m-7.77-3.91c0-.62.48-1.12,1.1-1.12s1.12.5,1.12,1.12v.66c.72-1.01,1.73-1.82,3.31-1.82,2.28,0,4.5,1.8,4.5,5.03v.04c0,3.22-2.2,5.03-4.5,5.03-1.62,0-2.63-.81-3.31-1.71v3.43c0,.63-.5,1.1-1.12,1.1s-1.1-.48-1.1-1.1v-10.67"/><path id="path45" class="cls-1" d="m55.73,46.14c0-.62.48-1.12,1.1-1.12s1.12.5,1.12,1.12v.53c.11-.83,1.47-1.65,2.44-1.65.7,0,1.1.46,1.1,1.1,0,.59-.39.97-.88,1.07-1.58.28-2.66,1.66-2.66,3.57v3.21c0,.61-.5,1.1-1.12,1.1s-1.1-.48-1.1-1.1v-7.82"/><path id="path47" class="cls-1" d="m62.34,46.14c0-.62.48-1.12,1.1-1.12s1.12.5,1.12,1.12v7.82c0,.62-.5,1.1-1.12,1.1s-1.1-.48-1.1-1.1v-7.82"/><path id="path49" class="cls-1" d="m65.69,46.15c0-.62.48-1.12,1.1-1.12s1.12.5,1.12,1.12v.46c.63-.9,1.52-1.58,3.03-1.58,2.19,0,3.46,1.47,3.46,3.71v5.23c0,.62-.48,1.1-1.1,1.1s-1.12-.48-1.12-1.1v-4.55c0-1.51-.75-2.37-2.08-2.37s-2.19.9-2.19,2.41v4.51c0,.62-.5,1.1-1.12,1.1s-1.1-.48-1.1-1.1v-7.82"/><path id="path51" class="cls-1" d="m80.27,53.14c-1.53,0-2.77-1.19-2.77-3.11v-.04c0-1.87,1.27-3.1,2.77-3.1s2.83,1.25,2.83,3.1v.04c0,1.86-1.32,3.11-2.83,3.11m3.89-8.14c-.62,0-1.12.5-1.12,1.12v.66c-.72-1.01-1.73-1.82-3.31-1.82-2.28,0-4.5,1.8-4.5,5.03v.04c0,3.22,2.2,5.03,4.5,5.03,1.61,0,2.62-.8,3.3-1.69-.11,1.75-1.18,2.67-3.06,2.67-1.12,0-2.09-.28-2.98-.77-.11-.05-.24-.09-.4-.09-.51,0-.94.42-.94.92,0,.42.24.74.63.88,1.17.57,2.39.86,3.75.86,1.75,0,3.11-.42,3.99-1.3.81-.81,1.25-2.02,1.25-3.66v-6.76c0-.62-.48-1.12-1.1-1.12"/><path id="path53" class="cls-1" d="m64.57,42.34c0,.62-.5,1.12-1.12,1.12s-1.12-.5-1.12-1.12.5-1.12,1.12-1.12,1.12.5,1.12,1.12"/><path id="path55" class="cls-1" d="m29.26,54.4c-2.46,3.28-7.73,2.18-11.11,2.33,0,0-.6.03-1.2.13,0,0,.23-.1.52-.2,2.37-.82,3.49-.98,4.93-1.72,2.71-1.39,5.4-4.41,5.95-7.54-1.03,3.02-4.16,5.61-7.02,6.67-1.95.72-5.48,1.42-5.48,1.42,0,0-.14-.07-.14-.08-2.4-1.17-2.47-6.37,1.89-8.05,1.91-.74,3.74-.33,5.81-.82,2.21-.52,4.76-2.18,5.8-4.34,1.16,3.45,2.56,8.85.05,12.19Zm.04-13.26c-.29.7-.65,1.33-1.06,1.89-1.82-1.86-4.35-3.03-7.16-3.03-5.51,0-10,4.49-10,10,0,2.89,1.23,5.5,3.2,7.32l.22.19c-.37-.3-.42-.84-.13-1.2.3-.37.84-.42,1.2-.13.37.3.42.84.13,1.2-.3.37-.83.42-1.2.13l.15.13c1.74,1.46,3.98,2.35,6.43,2.35,5.27,0,9.6-4.1,9.97-9.28.27-2.53-.47-5.75-1.75-9.58"/><path id="path57" class="cls-1" d="m87.87,45.7h-.35v.46h.35c.11,0,.24-.09.24-.23,0-.15-.12-.24-.24-.24Zm.22,1.14l-.34-.52h-.23v.52h-.18v-1.31h.53c.22,0,.43.16.43.4,0,.29-.26.39-.33.39l.35.52h-.23Zm-.31-1.62c-.54,0-.97.43-.97.97s.43.97.97.97.97-.44.97-.97-.44-.97-.97-.97Zm0,2.11c-.63,0-1.14-.51-1.14-1.14s.51-1.14,1.14-1.14,1.14.51,1.14,1.14-.51,1.14-1.14,1.14"/></g></g></svg>