<?xml version="1.0" encoding="UTF-8"?><svg id="technologies-logos" xmlns="http://www.w3.org/2000/svg" viewBox="0 0 100 100"><defs><style>.cls-1{fill:#fff;}</style></defs><polygon class="cls-1" points="10.71 49.71 17.55 49.71 17.55 43.73 10.71 44.67 10.71 49.71"/><polygon class="cls-1" points="10.14 44.75 5 45.46 5 49.71 10.14 49.71 10.14 44.75"/><polygon class="cls-1" points="10.71 55.33 17.55 56.27 17.55 50.35 10.71 50.35 10.71 55.33"/><rect class="cls-1" x="10.14" y="50.35" width="0" height="0"/><polygon class="cls-1" points="5 54.54 10.14 55.25 10.14 50.35 5 50.35 5 54.54"/><path class="cls-1" d="m25.6,51.31c-.08.18-.18.46-.3.83h-.03c-.04-.18-.14-.45-.28-.81l-1.9-4.73h-1.69v7.1h1.11v-4.58c0-.64-.01-1.11-.04-1.39h.02c.07.32.13.55.19.71l2.16,5.27h.83l2.15-5.31c.06-.14.12-.36.2-.67h.02c-.05.54-.07,1-.07,1.38v4.59h1.19v-7.1s-1.63,0-1.63,0l-1.93,4.71Z"/><path class="cls-1" d="m71.1,46.61l-2.7,7.1h1.31l.62-1.81h2.84l.65,1.81h1.31l-2.68-7.1h-1.35Zm-.46,4.33l.99-2.83c.04-.11.07-.26.1-.45h.02c.03.2.07.35.1.45l1,2.83h-2.21Z"/><polygon class="cls-1" points="75.66 49.53 78.23 49.53 75.38 53.27 75.38 53.7 79.79 53.7 79.79 52.81 77.02 52.81 79.8 49.12 79.8 48.64 75.66 48.64 75.66 49.53"/><polygon class="cls-1" points="30.8 53.7 31.96 53.7 31.96 53.7 31.96 48.64 30.8 48.64 30.8 53.7"/><path class="cls-1" d="m95,51.04c0-.79-.19-1.41-.58-1.86-.39-.45-.93-.67-1.64-.67s-1.29.25-1.77.74c-.48.5-.71,1.14-.71,1.93,0,.83.22,1.48.65,1.94s1.03.69,1.78.69,1.39-.15,1.86-.44v-.93c-.46.32-.96.49-1.51.49-.49,0-.88-.13-1.16-.38-.28-.25-.43-.62-.44-1.08h3.51v-.44Zm-1.13-.37h-2.39c.05-.39.2-.7.43-.95.23-.24.52-.36.85-.36s.61.11.81.34c.19.23.29.55.3.96h0Z"/><path class="cls-1" d="m84.12,51.55c0,.41-.11.73-.33.99s-.51.38-.85.38c-.72,0-1.07-.46-1.07-1.37v-2.91h-1.17v3.03c0,1.44.61,2.16,1.83,2.16.71,0,1.24-.31,1.58-.92h.02v.8h1.17v-5.07s-1.17,0-1.17,0v2.92Z"/><path class="cls-1" d="m31.39,46.26c-.19,0-.35.06-.49.19-.14.13-.2.28-.2.47s.07.34.2.47c.14.12.3.18.49.18s.37-.06.5-.19c.14-.13.21-.28.21-.46,0-.19-.07-.34-.21-.47-.14-.13-.31-.19-.5-.19Z"/><path class="cls-1" d="m89.32,48.55c-.29,0-.56.1-.79.3-.24.2-.41.48-.53.83h-.02v-1.04h-1.17v5.07h1.17v-2.43c0-.53.12-.95.35-1.25.23-.31.52-.46.87-.46.27,0,.47.05.61.16h0v-1.09c-.11-.06-.27-.09-.48-.09Z"/><path class="cls-1" d="m51.28,51.35c-.12-.12-.27-.22-.45-.31-.19-.1-.39-.19-.6-.27-.17-.06-.32-.11-.45-.16-.13-.05-.24-.1-.33-.16-.09-.06-.16-.12-.21-.2-.05-.08-.07-.17-.07-.28,0-.09.02-.17.07-.24.05-.07.11-.14.2-.19.08-.05.19-.09.3-.12.12-.03.25-.04.4-.04.47,0,.89.12,1.25.37v-1c-.38-.14-.8-.21-1.28-.21-.26,0-.53.03-.78.1-.25.06-.48.16-.67.29-.2.13-.36.28-.47.47-.12.19-.18.4-.18.65,0,.2.03.37.09.52.06.15.14.28.25.4.11.12.25.22.42.31.18.1.38.19.57.26.17.06.33.12.47.17.14.05.26.11.36.17.1.06.18.13.24.22.06.08.09.18.09.29,0,.41-.35.61-1.06.61-.53,0-1.01-.16-1.44-.49v1.06c.41.18.9.28,1.46.28.29,0,.57-.03.83-.09.26-.06.5-.15.7-.28.2-.13.36-.28.48-.47.12-.19.18-.42.18-.67,0-.21-.03-.39-.1-.55-.07-.15-.16-.29-.29-.41Z"/><path class="cls-1" d="m55.19,48.52c-.84,0-1.51.24-2,.72-.5.48-.74,1.14-.74,1.99,0,.78.24,1.41.71,1.88.47.47,1.11.71,1.91.71s1.47-.24,1.96-.73c.48-.49.73-1.13.73-1.94s-.22-1.47-.67-1.94c-.45-.47-1.08-.7-1.88-.7Zm.99,3.94c-.25.3-.6.45-1.06.45s-.81-.15-1.08-.46c-.27-.31-.4-.72-.4-1.25s.13-.98.4-1.3c.27-.31.63-.47,1.08-.47s.81.15,1.06.45c.25.3.37.73.37,1.29s-.12.98-.37,1.28Z"/><path class="cls-1" d="m59.84,46.55c-.36.31-.53.73-.53,1.26v.82h-.88v.9h.88v4.17h1.17v-4.17h1.19v-.9h-1.2v-.69c0-.63.28-.95.85-.95.2,0,.38.04.54.13v-.96c-.17-.06-.4-.09-.68-.09-.53,0-.98.15-1.33.46Z"/><path class="cls-1" d="m63.99,47.14l-1.17.33v1.17h-.86v.9h.86v2.87c0,.94.5,1.42,1.5,1.42.37,0,.67-.06.9-.17v-.91c-.14.11-.32.17-.51.17-.26,0-.44-.06-.55-.19-.11-.13-.17-.34-.17-.64v-2.53h1.23v-.9h-1.23v-1.5Z"/><path class="cls-1" d="m40.85,48.55c-.29,0-.56.1-.79.3-.24.2-.41.48-.53.83h-.02v-1.04h-1.17v5.07h1.17v-2.43c0-.53.12-.95.35-1.25.23-.31.52-.46.87-.46.27,0,.47.05.61.16v-1.09c-.11-.06-.27-.09-.48-.09Z"/><path class="cls-1" d="m44.58,48.52c-.84,0-1.51.24-2,.72-.5.48-.74,1.14-.74,1.99,0,.78.24,1.41.71,1.88.48.47,1.11.71,1.91.71s1.47-.24,1.96-.73c.49-.49.73-1.13.73-1.94s-.22-1.47-.67-1.94c-.45-.47-1.08-.7-1.88-.7Zm.99,3.94c-.25.3-.6.45-1.06.45s-.81-.15-1.08-.46c-.27-.31-.4-.72-.4-1.25s.13-.98.4-1.3c.26-.31.63-.47,1.08-.47s.81.15,1.06.45c.25.3.37.73.37,1.29s-.12.98-.37,1.28Z"/><path class="cls-1" d="m33.92,49.28c-.5.51-.76,1.18-.76,2.01,0,.75.24,1.36.7,1.83.47.47,1.09.71,1.85.71.56,0,1.05-.12,1.46-.35v-1c-.37.29-.77.44-1.19.44-.5,0-.9-.15-1.2-.46-.3-.3-.45-.72-.45-1.24s.16-.96.47-1.29c.32-.33.72-.49,1.21-.49.41,0,.79.13,1.15.4v-1.07c-.36-.16-.77-.24-1.24-.24-.85,0-1.52.25-2.03.76Z"/></svg>