<?xml version="1.0" encoding="UTF-8"?><svg id="technologies-logos" xmlns="http://www.w3.org/2000/svg" viewBox="0 0 100 100"><defs><style>.cls-1{fill:#fff;}</style></defs><circle class="cls-1" cx="50" cy="50" r="3.68"/><path class="cls-1" d="m50,58.43c-11.57,0-20.63-3.7-20.63-8.43s9.06-8.43,20.63-8.43,20.63,3.7,20.63,8.43-9.06,8.43-20.63,8.43Zm0-15.07c-11.1,0-18.83,3.5-18.83,6.64s7.73,6.64,18.83,6.64,18.83-3.5,18.83-6.64-7.73-6.64-18.83-6.64Z"/><path class="cls-1" d="m58.23,68.39c-1.83,0-4.04-1-6.44-2.95-3.18-2.58-6.41-6.57-9.1-11.23s-4.53-9.45-5.17-13.49c-.69-4.33.07-7.38,2.16-8.59,2.09-1.2,5.11-.35,8.52,2.42,3.18,2.58,6.41,6.57,9.1,11.23s4.53,9.45,5.17,13.49c.69,4.33-.07,7.38-2.16,8.59-.62.36-1.31.53-2.08.53Zm-16.44-35c-.46,0-.86.1-1.21.3-1.38.8-1.85,3.26-1.29,6.75.61,3.83,2.38,8.41,4.96,12.88,2.58,4.47,5.66,8.28,8.67,10.73,2.75,2.23,5.11,3.06,6.49,2.26,1.38-.8,1.85-3.26,1.29-6.75-.61-3.83-2.38-8.41-4.96-12.88-2.58-4.47-5.66-8.28-8.67-10.73-2.06-1.67-3.91-2.56-5.28-2.56Z"/><path class="cls-1" d="m41.77,68.39c-.76,0-1.46-.17-2.08-.53-2.09-1.21-2.86-4.25-2.16-8.59.65-4.04,2.49-8.83,5.17-13.49s5.92-8.64,9.1-11.23c3.4-2.77,6.43-3.63,8.52-2.42,2.09,1.21,2.86,4.25,2.16,8.59-.65,4.04-2.49,8.83-5.17,13.49s-5.92,8.64-9.1,11.23c-2.4,1.95-4.61,2.95-6.44,2.95Zm16.44-35c-1.38,0-3.22.88-5.28,2.56-3.01,2.45-6.09,6.26-8.67,10.73-2.58,4.47-4.34,9.05-4.96,12.88-.56,3.49-.09,5.95,1.29,6.75,1.38.79,3.74-.03,6.49-2.26,3.01-2.45,6.09-6.26,8.67-10.73,2.58-4.47,4.34-9.05,4.96-12.88.56-3.49.09-5.95-1.29-6.75-.34-.2-.75-.3-1.21-.3Z"/></svg>