<?xml version="1.0" encoding="UTF-8"?><svg id="technologies-logos" xmlns="http://www.w3.org/2000/svg" viewBox="0 0 100 100"><defs><style>.cls-1{fill:#fff;}</style></defs><path class="cls-1" d="m48.69,30.01c-.09,0-.36.04-.61.05-5.68.51-11,3.58-14.37,8.29-1.88,2.62-3.08,5.59-3.53,8.74-.16,1.1-.18,1.42-.18,2.91s.02,1.81.18,2.91c1.09,7.51,6.43,13.82,13.68,16.16,1.3.42,2.67.7,4.22.88.61.07,3.23.07,3.83,0,2.69-.3,4.96-.96,7.21-2.11.34-.18.41-.22.36-.26-.03-.02-1.5-1.99-3.26-4.37l-3.2-4.32-4.01-5.93c-2.2-3.26-4.02-5.93-4.03-5.93-.02,0-.03,2.63-.04,5.85-.01,5.63-.02,5.86-.09,5.99-.1.19-.18.27-.34.36-.13.06-.23.07-.82.07h-.68l-.18-.11c-.12-.07-.2-.17-.26-.29l-.08-.18v-7.84s.02-7.84.02-7.84l.12-.15c.06-.08.2-.19.29-.24.16-.08.22-.09.9-.09.8,0,.93.03,1.14.26.06.06,2.23,3.33,4.82,7.27,2.6,3.94,6.15,9.31,7.89,11.95l3.17,4.8.16-.11c1.42-.92,2.92-2.24,4.11-3.6,2.53-2.9,4.16-6.45,4.71-10.22.16-1.1.18-1.42.18-2.91s-.02-1.81-.18-2.91c-1.09-7.51-6.43-13.82-13.68-16.16-1.28-.41-2.64-.7-4.16-.87-.38-.04-2.96-.08-3.28-.05h0Zm8.19,12.1c.19.09.34.27.39.46.03.1.04,2.28.03,7.17v7.03s-1.25-1.9-1.25-1.9l-1.24-1.9v-5.11c0-3.3.02-5.16.04-5.25.06-.22.2-.39.39-.49.16-.08.22-.09.83-.09.58,0,.68,0,.81.08h0Z"/></svg>