<?xml version="1.0" encoding="UTF-8"?><svg id="technologies-logos" xmlns="http://www.w3.org/2000/svg" viewBox="0 0 100 100"><defs><style>.cls-1{fill:#fff;}</style></defs><path class="cls-1" d="m43.26,37.51c.43,0,.78-.35.78-.78v-2.57c0-.43-.35-.78-.78-.78h-7.92v4.13h7.92Z"/><path class="cls-1" d="m26.75,33.38c-.43,0-.78.35-.78.78v2.57c0,.43.35.78.78.78h7.91v-4.13h-7.91Z"/><path class="cls-1" d="m44.29,38.08h-8.95v4.11h8.95c.39,0,.71-.32.71-.71v-2.7c0-.39-.32-.71-.71-.71Z"/><path class="cls-1" d="m25.71,38.08c-.39,0-.71.32-.71.71v2.7c0,.39.32.71.71.71h8.95v-4.11h-8.95Z"/><path class="cls-1" d="m27.7,42.79c-.39,0-.71.32-.71.71v2.71c0,.39.32.71.71.71h6.96v-4.13h-6.96Z"/><path class="cls-1" d="m42.3,46.91c.39,0,.71-.32.71-.71v-2.71c0-.39-.32-.71-.71-.71h-6.95v4.13h6.95Z"/><path class="cls-1" d="m40.98,32.67c.71,0,1.28-.57,1.28-1.28v-5.12c0-.71-.57-1.28-1.28-1.28h-5.63v7.67h5.63Z"/><path class="cls-1" d="m29.02,25c-.71,0-1.28.57-1.28,1.28v5.12c0,.71.57,1.28,1.28,1.28h5.64v-7.67h-5.64Z"/><path class="cls-1" d="m67.65,67.17c.89,0,1.8.12,2.68.37,2.15.59,2.59,2.24,2.66,3.17.1,1.27-.42,2.18-.62,2.28,0,0-.16-.02-.46-.26-2.55-2.04-5.89-3.07-9.92-3.07-.55,0-1.09.02-1.62.05,2.51-1.7,4.94-2.55,7.28-2.55m0-2c-4.67,0-9.35,2.76-14.05,7.92,0,0,3.9-1.43,8.39-1.43,2.94,0,6.14.61,8.67,2.63.61.48,1.18.7,1.7.7,3.16,0,4.36-7.76-1.5-9.38-1.07-.3-2.14-.44-3.22-.44h0Z"/><path class="cls-1" d="m53.69,73.01c4.1-4.26,10.93-9.01,17.29-7.25,1.48.42,2.53,1.28,3.21,2.3l-6.01-12.14c-.86-1.37-3.06-1.09-4.3-.04l-15.89,13.32c-1.44,1.24-1.53,3.45-.19,4.78,1.18,1.18,3.06,1.29,4.36.24l1.54-1.22Z"/><path class="cls-1" d="m30,71c-.26,0-.51-.1-.71-.29-.39-.39-.39-1.02,0-1.41l40-40c.39-.39,1.02-.39,1.41,0s.39,1.02,0,1.41l-40,40c-.2.2-.45.29-.71.29Z"/></svg>