<?xml version="1.0" encoding="UTF-8"?><svg id="technologies-logos" xmlns="http://www.w3.org/2000/svg" viewBox="0 0 100 100"><defs><style>.cls-1,.cls-2{fill:#fff;}.cls-2{fill-rule:evenodd;}</style></defs><path class="cls-1" d="m38.41,52.41c.71,1.39,1.84,2.07,3.42,2.07,1.7,0,2.31-.9,2.31-1.78,0-.61-.22-1.02-.78-1.39-.57-.39-.98-.57-2-.94-1.25-.47-1.98-.83-2.76-1.45-.78-.65-1.15-1.53-1.15-2.68-.03-1.03.42-2.01,1.21-2.66.83-.68,1.82-1.02,3.01-1.02,1.86,0,3.27.74,4.21,2.21l-1.74,1.2c-.53-.8-1.33-1.21-2.43-1.21s-1.86.61-1.86,1.45c0,.57.24.84.57,1.18.21.16.76.39,1.02.53l.71.27.8.31c1.3.53,2.21,1.1,2.78,1.7.57.61.86,1.43.86,2.45,0,2.41-1.66,4.03-4.78,4.03-2.52,0-4.38-1.18-5.24-3.11l1.84-1.16Z"/><path class="cls-1" d="m56.51,47.97l-1.44,1.51c-.64-.7-1.55-1.09-2.5-1.08-.81-.02-1.6.3-2.17.88-1.15,1.25-1.15,3.17,0,4.42.57.58,1.36.9,2.17.88.95.02,1.86-.38,2.5-1.08l1.45,1.51c-1.06,1.14-2.37,1.7-3.95,1.7s-2.78-.49-3.82-1.49-1.55-2.25-1.55-3.74.51-2.72,1.55-3.72c1.04-1,2.31-1.51,3.82-1.51,1.58,0,2.89.57,3.95,1.7Z"/><path class="cls-1" d="m61.18,50.43c1.66-.16,2.25-.37,2.25-1.13,0-.61-.55-1.08-1.64-1.08s-1.94.43-2.64,1.29l-1.45-1.23c.96-1.35,2.31-2.01,4.05-2.01,2.45,0,3.97,1.18,3.97,3.19v4.36c0,.68.25.76.83.76h.06v1.82c-.24.14-.61.22-1.1.22-.53,0-.94-.16-1.25-.47-.16-.19-.29-.41-.35-.65-.68.8-1.8,1.21-3.35,1.21-2.17,0-3.64-1.19-3.64-2.99,0-2.01,1.34-3.03,4.26-3.28Zm-.27,4.29c1.57,0,2.52-.71,2.52-1.96v-1.1c-.14.14-.3.24-.49.29-.45.16-.74.2-1.68.29-1.37.16-2.05.59-2.05,1.27,0,.76.63,1.19,1.7,1.19Z"/><path class="cls-1" d="m67.19,42.8h2.35v10.41c0,.96.31,1.37,1.18,1.37.24,0,.48-.02.71-.08v2.09c-.37.09-.74.13-1.12.12-2.07,0-3.11-1.06-3.11-3.19v-10.72Z"/><path class="cls-1" d="m76.25,50.43c1.66-.16,2.25-.37,2.25-1.13,0-.61-.55-1.08-1.64-1.08s-1.94.43-2.64,1.29l-1.45-1.23c.96-1.35,2.31-2.01,4.05-2.01,2.45,0,3.97,1.18,3.97,3.19v4.36c0,.68.25.76.83.76h.06v1.82c-.24.14-.61.22-1.1.22-.53,0-.94-.16-1.25-.47-.17-.19-.29-.41-.35-.65-.68.8-1.8,1.21-3.35,1.21-2.17,0-3.64-1.19-3.64-2.99,0-2.01,1.35-3.03,4.26-3.28Zm-.27,4.29c1.57,0,2.52-.71,2.52-1.96v-1.1c-.14.14-.3.24-.49.29-.45.16-.74.2-1.68.29-1.37.16-2.05.59-2.05,1.27,0,.76.63,1.19,1.7,1.19Z"/><path class="cls-2" d="m31.09,39.02c-3.71,1.07-9.59,1.68-12.76,1.68h0v6.05s0,.04.02.06c2.16,0,8.84-.71,12.87-1.82.7-.18,1.39-.41,2.06-.68.49-.22.81-.45.81-.7v-6.1c0,.58-1.5,1.08-3,1.52Z"/><path class="cls-2" d="m31.09,46.87c-2.22.64-5.21,1.12-7.94,1.39-1.83.19-3.54.29-4.82.29h0v6.05s0,.04.02.06c2.16,0,8.84-.71,12.87-1.81.7-.18,1.39-.41,2.06-.68.49-.22.81-.45.81-.7v-6.1c0,.57-1.5,1.08-3,1.52Z"/><path class="cls-2" d="m31.09,54.72c-2.22.64-5.21,1.12-7.94,1.39-1.83.19-3.55.29-4.82.29v6.1c2.14,0,8.85-.7,12.89-1.81,1.49-.41,2.87-.88,2.87-1.38v-6.1c0,.58-1.5,1.08-3,1.52Z"/></svg>