<?xml version="1.0" encoding="UTF-8"?><svg id="technologies-logos" xmlns="http://www.w3.org/2000/svg" viewBox="0 0 100 100"><defs><style>.cls-1,.cls-2{fill:#fff;}.cls-2{fill-rule:evenodd;}</style></defs><path class="cls-1" d="m38.63,50.6c0-2.1-1.31-3.95-3.27-4.66.08-.45.13-.89.13-1.35,0-3.92-3.18-7.1-7.09-7.1-2.29,0-4.41,1.09-5.75,2.94-.66-.51-1.46-.79-2.3-.79-2.08,0-3.77,1.69-3.77,3.77,0,.46.08.9.23,1.32-1.95.7-3.29,2.58-3.29,4.67s1.32,3.96,3.28,4.67c-.08.44-.13.89-.13,1.35,0,3.9,3.17,7.08,7.08,7.08,2.29,0,4.41-1.1,5.74-2.95.66.52,1.46.81,2.3.81,2.08,0,3.77-1.69,3.77-3.77,0-.46-.08-.9-.23-1.32,1.95-.7,3.3-2.58,3.3-4.67Zm-15.39-9.41c1.16-1.69,3.06-2.7,5.1-2.7,3.42,0,6.2,2.78,6.2,6.2,0,.42-.03.82-.12,1.22l-5.54,4.86-5.5-2.5-1.07-2.29.92-4.79Zm-2.78-.6c.66,0,1.29.21,1.8.6l-.83,4.28-3.77-.89c-.12-.32-.18-.67-.18-1.02,0-1.64,1.34-2.97,2.97-2.97Zm-5.97,8.83c0-1.77,1.18-3.38,2.85-3.94l4.14.98.97,2.07-5.28,4.78c-1.6-.62-2.67-2.15-2.67-3.88Zm14.45,9.4c-1.16,1.7-3.08,2.72-5.14,2.72-3.43,0-6.22-2.78-6.22-6.21,0-.42.03-.84.12-1.24l5.41-4.88,5.52,2.51,1.22,2.33-.91,4.76Zm2.75.62c-.65,0-1.27-.22-1.79-.62l.83-4.27,3.76.88c.12.32.18.67.18,1.03,0,1.64-1.34,2.97-2.97,2.97Zm3.11-4.9l-4.14-.97-1.09-2.11,5.41-4.74c1.6.6,2.67,2.15,2.67,3.87s-1.17,3.4-2.85,3.95Z"/><path class="cls-2" d="m51.26,56.14v-12.42h1.29v12.42h-1.29Zm-2.63-1.08l.5-.05.03,1.02c-1.32.18-2.44.28-3.37.28-1.24,0-2.12-.36-2.64-1.08-.52-.72-.77-1.85-.77-3.36,0-3.03,1.21-4.55,3.62-4.55,1.17,0,2.04.33,2.61.98.57.65.86,1.68.86,3.07l-.07.99h-5.71c0,.95.17,1.67.52,2.12.35.46.94.69,1.8.69.87.02,1.74-.01,2.63-.08Zm-.47-3.75c0-1.06-.17-1.81-.51-2.25-.34-.44-.89-.66-1.66-.66s-1.35.23-1.73.69c-.38.46-.58,1.2-.59,2.22h4.49Zm12.57,3.05v-4.26c0-.96-.22-1.67-.68-2.11-.45-.46-1.16-.68-2.13-.68h-3.32v1.15h3.41c.44,0,.79.13,1.04.38.25.25.38.68.38,1.26v.74l-2.72.25c-.91.08-1.58.34-2.01.73-.42.39-.64,1.02-.64,1.86s.21,1.5.63,1.94c.41.46,1.02.68,1.81.68,1.04,0,2.07-.19,3.11-.65.4.38,1.02.37,1.77.36h0c.11,0,.23,0,.35,0l.06-1.15s-1.07-.08-1.07-.52Zm-4.01.86c-.88,0-1.32-.53-1.32-1.59,0-.48.11-.85.34-1.1.23-.25.6-.4,1.12-.45l2.56-.24v2.85l-.39.14c-.75.27-1.53.39-2.31.39Zm9.07-6.75c-1.25,0-1.89.44-1.89,1.32,0,.4.15.69.44.86.29.17.94.34,1.97.52,1.03.18,1.75.42,2.18.75.42.32.64.92.64,1.81s-.29,1.54-.86,1.95c-.57.41-1.4.63-2.5.63-.71,0-3.1-.27-3.1-.27l.07-1.12c.21.02.42.04.62.06,1.06.1,1.86.18,2.42.18.67,0,1.18-.11,1.53-.32.35-.21.53-.57.53-1.07s-.15-.84-.45-1.02c-.3-.18-.96-.35-1.97-.51-1.02-.16-1.74-.39-2.16-.71-.42-.31-.64-.89-.64-1.73s.3-1.46.89-1.87c.59-.4,1.34-.6,2.22-.6.7,0,3.14.18,3.14.18v1.14c-.43-.02-.83-.05-1.2-.08-.75-.05-1.38-.09-1.86-.09Zm6.84.15h2.75v-1.14h-2.75v-2.64h-1.28v2.65h-1.23v1.12h1.23v4.55c0,1.23.17,2.07.52,2.5.35.44.97.66,1.87.66.4,0,.99-.06,1.76-.19l-.08-1.07-1.54.11c-.54,0-.88-.16-1.03-.47-.14-.31-.21-.97-.21-1.95v-4.14Zm4.55-3.09v-1.5h1.29v1.51h-1.29Zm0,10.61v-8.65h1.29v8.65h-1.29Zm8.86-8.62c-.91-.14-1.56-.21-1.94-.21-1.29,0-2.22.34-2.78,1-.55.66-.83,1.81-.83,3.46s.27,2.81.77,3.5c.51.69,1.44,1.04,2.79,1.04.53,0,1.34-.08,2.41-.24l-.05-1.07-2.04.16c-1.04,0-1.72-.24-2.05-.74s-.49-1.38-.49-2.64.18-2.13.53-2.6c.35-.47,1.02-.7,1.99-.7.44,0,1.11.05,2.04.16l.05-1.05-.41-.05Z"/></svg>