<?xml version="1.0" encoding="UTF-8"?><svg id="technologies-logos" xmlns="http://www.w3.org/2000/svg" viewBox="0 0 100 100"><defs><style>.cls-1{fill:#fff;fill-rule:evenodd;}</style></defs><g id="Shape"><path class="cls-1" d="m30.81,45.2l-.02-5.6h-3.12l.02,5.6,1.56,2.14,1.56-2.14Z"/><path class="cls-1" d="m27.69,54.78v5.62h3.12v-5.62l-1.56-2.14-1.56,2.14Z"/><path class="cls-1" d="m30.81,54.78l3.29,4.53,2.52-1.83-3.29-4.53-2.52-.81v2.64Z"/><path class="cls-1" d="m27.69,45.2l-3.31-4.53-2.52,1.83,3.29,4.53,2.54.81v-2.64Z"/><path class="cls-1" d="m25.15,47.03l-5.32-1.73-.96,2.95,5.32,1.75,2.52-.83-1.56-2.14Z"/><path class="cls-1" d="m31.77,50.81l1.56,2.14,5.32,1.73.96-2.95-5.32-1.73-2.52.81Z"/><path class="cls-1" d="m34.29,50l5.32-1.75-.96-2.95-5.32,1.73-1.56,2.14,2.52.83Z"/><path class="cls-1" d="m24.2,50l-5.32,1.73.96,2.95,5.32-1.73,1.56-2.14-2.52-.81Z"/><path class="cls-1" d="m25.15,52.95l-3.29,4.53,2.52,1.83,3.31-4.53v-2.64l-2.54.81Z"/><path class="cls-1" d="m33.33,47.03l3.29-4.53-2.52-1.83-3.29,4.53v2.64l2.52-.81Z"/><path class="cls-1" d="m51.26,44.9v7.28c0,1.6-1.31,2.91-2.91,2.91v-1.46c.81,0,1.46-.64,1.46-1.46v-7.28h1.46Zm26.58,1.46h3.29v-1.46h-8.01v1.46h3.27v8.74h1.46v-8.74h0Zm-9.11-1.46v7.28c0,.81-.64,1.46-1.46,1.46s-1.46-.64-1.46-1.46v-4.37c0-1.6-1.31-2.91-2.91-2.91s-2.91,1.31-2.91,2.91v4.37c0,.81-.64,1.46-1.46,1.46s-1.46-.64-1.46-1.46v-7.28h-1.46v7.28c0,1.6,1.31,2.91,2.91,2.91s2.91-1.31,2.91-2.91v-4.37c0-.81.64-1.46,1.46-1.46s1.46.64,1.46,1.46h0v4.37c0,1.6,1.31,2.91,2.91,2.91s2.91-1.31,2.91-2.91v-7.28h-1.46Z"/></g></svg>