<?xml version="1.0" encoding="UTF-8"?><svg id="technologies-logos" xmlns="http://www.w3.org/2000/svg" viewBox="0 0 100 100"><defs><style>.cls-1{fill:#fff;}</style></defs><path class="cls-1" d="m47.52,33.84c.05.08.12.13.24.16h0c.55-1.23,1.46-2.42,3.28-1.99h0c.24-.4.01-.72-.3-.9-.14-.08-.3-.14-.44-.16-1.07-.16-2.39,1.03-2.71,1.93-.08.23-.19.6-.11.86.01.04.03.08.05.11Z"/><path class="cls-1" d="m61.28,36.6c-.52-.75-.88-1.66-1.29-2.51-.03,0-.06,0-.09,0,0,.16,0,.29.02.43.03.37.1.69.21.98.11.29.23.56.33.85-.44.28-1.29.1-1.79.32-.04,1.45,2.25.74,2.6-.07Z"/><path class="cls-1" d="m50.63,36.88c-.68,1.08,1.34,1.28,2.2,1.03.24-.07.65-.43.71-.59.24-.68-.25-.97-.5-1.22-.55-.54-.68-1.29-1.07-2.01-.05.15-.06.33-.04.51.04.51.3,1.11.56,1.6.13.23.25.44.36.61-.54.52-1.5.09-2.22.05Z"/><path class="cls-1" d="m59.58,41.37c-.05-.33.4-.92.27-1.42-.04-.17-.43-.42-.67-.67-.96-1.04-2.27-2.61-2.79-3.83-.06-.13-.09-.87-.5-.58-.05,1.8,1.29,3.3,2.29,4.5.49.59,1.08.92.53,1.84-.87.33-2.29,1.28-3.5,1.08-.42-.07-.5-.4-.57-.73-.03-.14-.06-.27-.11-.39-.02-.04-.03-.08-.05-.11-.44.58-.27,1.47.19,1.87,2.14.21,3.6-.7,4.9-1.54Z"/><path class="cls-1" d="m40.61,38.91c-.35.68-.26,2,.21,2.43,0-.81-.13-2.18.56-2.14.48.03.58,1.06.99,1.29.24-1.16-.43-2.01-1.14-2.24-.29-.09-.58-.09-.83.04-.06.03-.12.08-.18.13-.19.18-.34.45-.39.85.05-.03.09-.07.14-.12.17-.17.34-.39.66-.24Z"/><path class="cls-1" d="m57.16,44.7c1.78-.04,2.64-1.31,3.25-2.47-1.04.48-1.89,1.17-3.25,1.3-.07.23-.04.79,0,1.17Z"/><path class="cls-1" d="m56.73,44.77c0-.41,0-.83-.08-1.17-1.55.05-3.64-.02-4.78-.62.52,1.4,2.87,1.89,4.86,1.79Z"/><path class="cls-1" d="m51.65,44.09c-1.01,0-.16.56.01.78.35.45.77,1.23,1.41,1.57,1.01.54,3.03.31,3.76.02.27-.11.49-.41.59-.67-2.28.05-4.99.28-5.77-1.69Z"/><path class="cls-1" d="m61.69,61.83c1.01.06,1.74-.94,2.77-1.15-1.24.04-2.21.37-2.77,1.15Z"/><path class="cls-1" d="m62.23,62.45c.85.07,1.84-.07,2.69-.16-.72-.25-2.28-.46-2.69.16Z"/><path class="cls-1" d="m62.18,63.62c.9.08,2.08.09,3.02.07-.61-.29-2.49-.65-3.02-.07Z"/><path class="cls-1" d="m66.53,59.55c-.23-.5-.57-.8-.97-.98,1.6-2.76,2.52-5.98,2.52-9.41,0-5.1-2.02-9.72-5.29-13.06-.15-.16-.31-.31-.47-.46-.11-1.94-.48-3.77-1.18-5.18-.61-1.24-2.33-2.95-3.4-3.76-2.53-1.91-7.21-2.12-10.25-1-.85.31-1.67.59-2.42,1.03-2,1.17-4.12,1.96-4.71,4.32-1.27.57-1.76,2.05-1.82,3.85-.46.38-.9.79-1.31,1.22-3.27,3.34-5.29,7.97-5.29,13.06s2.02,9.72,5.29,13.06c.34.35.7.69,1.07,1.01.03.4.05.79.08,1.19.05.81-.03,1.68.18,2.13.22.46,1.03.61,1.61.88,1.69.78,3.47,1.97,5.68,1.73.53,1.77,1.03,3.66,1.66,5.21,2.27.82,5.85.69,8.2.4.72-.09,1.47-.44,1.64-1.06-.05-.38-.11-.76-.08-1.21.74-.15,1.74-.28,1.9-1.09.23-1.14-.72-2.78-.41-4.04.43-.14.88-.25.81-.92.72-.37,1.57-.46,2.48-.42.12.23.28.44.43.57,1.27.26,2.51.28,3.57-.07,1.2-.39,1.77-2.84,1.5-4.01-.19-.83-.63-2.18-1.01-2.98Zm-4.19-22.33c2.88,3.12,4.65,7.31,4.65,11.94,0,3.39-.95,6.55-2.59,9.22-1.21.06-2.6.7-3.54,1.16.79-2.07,1.46-4.21,2.16-6.53.21-.7.62-1.68.52-2.4-.09-.68-1.14-1.39-1.7-1.93-.31-.3-1.75-1.39-1.83-1.8-.08-.4.59-1.29.8-1.74.31-.64.53-1.43.68-1.96.51-1.8.81-3.9.84-5.96Zm-15.74-10.18c.11-.03.21.04.3.14-.01.32-.32.31-.53.41-.06.07-.13.13-.19.19-.31.28-.69.48-1.01.84-.41.45-.87,1.67-1.41,1.8-.27.07-.58-.05-.82-.03-.18.01-.35.05-.51.1-.39.11-.74.29-1.19.35.82-1.8,3.38-3.25,5.38-3.81Zm-6.32,5.64h0c.81-.9,1.94-1.46,3.3-1.56.07.18.12.36.15.55.32,1.67-.61,3.57-.21,5.33.14.6.61,1.53-.15,1.55.02-1.62-1.89-2.68-3.45-1.92-.08.04-.16.08-.24.13-.11-1.29-.29-3.11.59-4.09Zm1.03,4.67c.75.08,1.11.74,1.32,1.47.06.21.11.42.15.62.55.03,1.36-.02,1.62-.46-.04-1.06-.53-1.9-.49-2.87.03-.85.26-1.67.42-2.48.18-.92.27-1.83-.13-2.79.82-1.86,3.23-3.33,5.01-4.22,2.21-1.1,5.72-.22,7.79.95.19.11.36.23.54.36.61.47,1.14,1.09,1.62,1.71.26.33.5.66.75.98-1.06-.31-1.97.14-2.01.95,0,.09,0,.18.01.28.98-.9,2.67,0,3.16.99.48.95.47,2.37.55,3.78.18,3.44-.63,6.98-2.36,9.47-.46.66-.85,1.39-1.5,1.84-1.56,1.1-3.94,2.09-5.98,1.41-2.69-.9-3.91-2.7-5.39-4.75.04,1.13.83,2.05,1.62,2.92.68.75,1.5,1.6,2.39,1.95-.74-.17-1.87-.23-2.18.43-.59-.04-1.16-.09-1.7-.18-1.03-.17-1.9-.51-2.44-1.28-.64-.92-1.29-2.49-1.59-3.69-.06-.25-.16-.78-.14-.91.1-.52,1.03-.75.66-1.49-.68,0-.83.62-1.45.68-.6.06-1.13-.22-1.55-.66-.73-.75-1.17-1.99-1.12-2.86.06-1.18,1.06-2.3,2.42-2.16Zm13.53,13.67c-.76.04-1.26-.02-1.78-.3-.17-.09-.35-.21-.53-.35,0-.02.03-.03.05-.04.02,0,.04-.02.04-.05,1.08.48,2.46-.2,3.56-.29-.48.31-.88.7-1.34,1.03Zm-.73,2c-.02-.13-.05-.24-.07-.34-.07-.31-.13-.5-.1-.87.25-.16.46-.22.64-.22.91.03.88,1.86-.47,1.43Zm-.64-1.24c0,.09,0,.17-.01.26-.35.23-.93.23-1.31.43.57.03,1.02.16,1.41.36,0,.02,0,.04,0,.07,0,.19-.02.39-.02.58-.65.44-1.24,1.11-2.01,1.52-.36.2-1.63.7-2.01.61-.18-.04-.22-.22-.28-.43-.01-.05-.03-.1-.04-.15-.02-.05-.04-.1-.06-.15-.2-.55-.56-1.33-.59-2.08,0-.19-.02-.41-.02-.64-.02-.98.08-2.09.99-1.92.9.17,1.95.59,2.64.97.11.06.2.12.29.18.28.18.54.35,1.02.39Zm-.46,2.92c1.09,1.39,1.76,3.17,2.49,4.9-1.73-.52-3.5-1.37-5.02-2.23.3-1.29,1.47-1.96,2.53-2.67Zm.58-.5c.13-.13.24-.28.36-.42.54.23.89-.3,1.31-.25.48.05.85.71,1.53.66-.01.24-.03.48-.04.72-.06,1.32-.08,2.63-.36,3.87-.04.19-.09.39-.15.58-.92-1.69-1.46-3.73-2.65-5.16Zm3.72.06c.48-.22.93-.2,1.3-.04.38.16.68.46.88.77-.92,1.58-1.81,3.21-2.9,4.6.46-1.35.66-3.61.73-5.33Zm1.58-.63c-.99-.03-1.89-.14-2.7-.34-.12-.03-.24-.05-.35-.08.06-.37-.05-.73.04-.99.25-.18.67-.18,1.05-.22-.33-.16-.79-.22-1.16-.13,0-.26-.12-.41-.19-.61.08-.03.17-.08.28-.14.73-.43,1.97-1.52,2.71-1.09.16.1.29.38.38.72.14.5.21,1.12.22,1.51.03.54-.05,1.09-.27,1.37Zm-11.03-2.54c-.03.11-.05.22-.05.34-.53-.03-1.9-.49-2.3-.97-.13-.16-.16-.32-.02-.46.57.39,1.66.3,2.49.44.03.18-.06.41-.12.65Zm-9.88,10.37c-2.54-2.6-4.27-6.01-4.81-9.82-.11-.81-.17-1.64-.17-2.48,0-4.81,1.9-9.16,4.98-12.3.2-.21.41-.41.62-.6.06.28.13.57.08.81-.04.2-.31.46-.37.59-.15.35-.22.72-.27,1.1-.17,1.44.3,3.01.94,3.95.49.72,1.3,1.35,2.36,1.52.04.64.2,1.19.49,1.84.19.41.88,1.15.63,1.67-.13.26-1.26.84-1.64,1.06-1.27.76-2.19,1.23-3.37,2.08-.76.55-1.95.62-1.76,1.88.13.85.61,1.91.89,2.76.3.92.73,1.76.98,2.72.3,1.16.47,2.29.58,3.41-.05-.05-.11-.1-.16-.16Zm1.92,4.46c-.17-.09-.34-.17-.51-.25-.13-4.49-.84-9.14-2.61-12.95,1.86-1.43,3.94-2.95,6.16-3.83.13-.05.89.89,1.32,1.38.12.14.22.25.26.28h0c1,.71,2.23,1.27,3.39,1.82.07.53.23,1.22.52,2.14.32,1.02.58,2.45,1.92,1.72-.13.58-.87.94-.67,1.62.13.42,1.54.95,1.99,1.2.82.46,1.58.72,2.21.99-2.65.07-5.14.28-7.59.6-.22.03-.43.05-.65.08-.32-.49-.19-1.25-.22-2.04-.03-.76.24-2.36.07-2.79-.02-.05-.05-.09-.09-.11-.38-.13-.45.63-.46.8-.07.9.43,2.81-.06,3.89-.54-.15-.81-.56-1.31-.74-.2.62.41.65.35,1.05-.08.51-1.01.12-1.06.81,0,.02-.01.03,0,.06.65.1,1.64-.2,2.33.09.02.26.05.52.08.78.18,1.84.43,3.63.71,5.61-2.52-.13-4.23-1.28-6.06-2.21Zm12.35,8.01c-1.44-.04-2.91-.26-4.24-.66-1.23-3.77-1.9-7.34-2.36-11.6,2.64-.49,6.33-.92,9.18-.51.25.04.5.07.74.12.27,1.74.17,3.46.36,5.16.26,2.27.07,4.86.51,6.98-1.23.38-2.69.55-4.19.51Zm4.47-2.4c-.05-1.11-.2-2.8-.15-3.86.35.02.85-.25,1.13-.17.14,1.19.61,2.39.55,3.7-.52.18-.82.33-1.53.33Zm-.25-4.77c-.1-1.35-.19-2.69-.21-4.03,0-.48-.01-.95,0-1.43.5-.17.94-.16,1.43-.16.1.36.17.75.23,1.15.2,1.32.22,2.8.38,4.15-.65.14-1.13.21-1.83.32Zm.39-6.6c1.05-1.83,2.2-3.56,3.24-5.41-.16-.37-.54-.52-.66-.93.5-.94.5-3.22-.14-4.29-.19-.32-.44-.52-.74-.55-.17-.02-.36,0-.57.11.07-.11.18-.21.3-.31.31-.26.72-.52.95-.85.78.63,1.25,1.22,2,1.89.41.36,1.21.8,1.29,1.39.02.15-.01.41-.06.67-.06.31-.13.63-.17.83-.33,1.62-1.07,3.77-1.77,5.47-.26.62-.5,1.39-.84,1.52-.92.37-2.04-.04-2.83.45Zm2.55,5.55c-.02-.3-.06-.6-.1-.9-.16-1.28-.42-2.59-.54-3.8.32,0,.71-.08,1.04,0,.5.86.7,2.14.76,3.31.02.38.02.75.02,1.08-.41.08-.68.32-1.18.3Zm5.79.22h0c-.76.18-1.92.23-2.42,0,.61-.33,1.52-.33,2.23-.56-1.01-.43-2.5-.03-3.72-.1-.15-1.5-.26-3.12-.61-4.3.1-.11.23-.2.37-.29.82-.52,2.19-.73,3.02-1.26.6-.38,1.34.16,1.62.58.22.33.42,1.03.6,1.73.13.51.24,1.01.32,1.38.29,1.31-.36,2.59-1.41,2.84Z"/><path class="cls-1" d="m55.91,54.97c0-.2-.16-.37-.37-.37s-.37.16-.37.37.16.37.37.37.37-.16.37-.37Z"/><path class="cls-1" d="m55.91,56.31c-.2,0-.37.16-.37.37s.16.37.37.37.37-.16.37-.37-.16-.37-.37-.37Z"/></svg>