<?xml version="1.0" encoding="UTF-8"?><svg id="technologies-logos" xmlns="http://www.w3.org/2000/svg" viewBox="0 0 100 100"><defs><style>.cls-1,.cls-2{fill:#fff;}.cls-2{fill-rule:evenodd;}</style></defs><path class="cls-1" d="m33.53,55.34c-2.95,0-5.34-2.4-5.34-5.34s2.4-5.34,5.34-5.34,5.35,2.4,5.35,5.34-2.4,5.34-5.35,5.34Zm0-9.19c-2.12,0-3.84,1.72-3.84,3.84s1.72,3.84,3.84,3.84,3.85-1.72,3.85-3.84-1.73-3.84-3.85-3.84Z"/><path class="cls-1" d="m24.34,64.53c-2.95,0-5.34-2.4-5.34-5.34s2.4-5.34,5.34-5.34h5.34v5.34c0,2.95-2.4,5.34-5.34,5.34Zm0-9.19c-2.12,0-3.84,1.72-3.84,3.84s1.72,3.84,3.84,3.84,3.84-1.72,3.84-3.84v-3.84h-3.84Z"/><path class="cls-1" d="m33.53,46.16h-5.34v-10.69h5.34c2.95,0,5.35,2.4,5.35,5.34s-2.4,5.34-5.35,5.34Zm-3.84-1.5h3.84c2.12,0,3.85-1.72,3.85-3.84s-1.73-3.84-3.85-3.84h-3.84v7.69Z"/><path class="cls-1" d="m29.69,46.16h-5.34c-2.95,0-5.34-2.4-5.34-5.34s2.4-5.34,5.34-5.34h5.34v10.68Zm-5.34-9.18c-2.12,0-3.84,1.72-3.84,3.84s1.72,3.84,3.84,3.84h3.84v-7.68h-3.84Z"/><path class="cls-1" d="m29.69,55.34h-5.34c-2.95,0-5.34-2.4-5.34-5.34s2.4-5.34,5.34-5.34h5.34v10.69Zm-5.34-9.19c-2.12,0-3.84,1.72-3.84,3.84s1.72,3.84,3.84,3.84h3.84v-7.69h-3.84Z"/><path class="cls-1" d="m45.45,45.46v9.75h1.26s0-4.64,0-4.64h3.02v-1.23h-3.02v-2.66h3.94v-1.23h-5.19Zm7.45,1.98c.46,0,.82-.37.82-.82s-.37-.82-.82-.82-.82.37-.82.82.37.82.82.82h0Zm-.63,1.23v6.55h1.26v-6.55h-1.26Z"/><path class="cls-2" d="m58.16,48.48c-1.66,0-2.82,1.41-2.82,3.08s1.16,3.08,2.82,3.08c.77,0,1.39-.29,1.85-.77v.87c.01,1.08-.86,1.98-1.94,1.99h-.02c-.4,0-.8-.15-1.11-.38l-.63,1.09c1.49.97,3.48.54,4.45-.95.34-.52.51-1.13.51-1.75v-6.06h-1.26v.59c-.46-.49-1.09-.77-1.85-.77h0s0,0,0,0Zm-1.57,3.08c0-1.04.79-1.85,1.71-1.85s1.71.82,1.71,1.85-.79,1.85-1.71,1.85-1.71-.81-1.71-1.85Z"/><path class="cls-1" d="m65.79,49.71c-.75.01-1.35.63-1.34,1.37v4.14h-1.26v-6.55h1.26v.6c.38-.51.98-.8,1.62-.79.88,0,1.56.43,1.94,1.1.44-.68,1.19-1.09,2-1.1,1.43,0,2.32,1.15,2.32,2.58v4.16h-1.25v-4.14c0-.75-.6-1.36-1.34-1.37-.75.01-1.35.63-1.34,1.37v4.14h-1.26v-4.14c0-.74-.59-1.36-1.34-1.37h0Z"/><path class="cls-2" d="m79,49.42c-.58-.6-1.37-.94-2.21-.93-1.87,0-3.19,1.57-3.19,3.46s1.32,3.46,3.19,3.46c.83,0,1.63-.33,2.21-.93v.74h1.25v-6.55h-1.26v.74h0Zm-4.15,2.53c0-1.25.96-2.24,2.08-2.24s2.08.99,2.08,2.24-.96,2.23-2.08,2.23-2.08-.99-2.08-2.23Z"/></svg>