<?xml version="1.0" encoding="UTF-8"?><svg id="technologies-logos" xmlns="http://www.w3.org/2000/svg" viewBox="0 0 100 100"><defs><style>.cls-1{fill:#fff;}</style></defs><path class="cls-1" d="m64.08,32.5h-28.16c-1.89,0-3.42,1.53-3.42,3.42v28.16c0,1.89,1.53,3.42,3.42,3.42h28.16c1.89,0,3.42-1.53,3.42-3.42v-28.16c0-1.89-1.53-3.42-3.42-3.42Zm-11.28,19.42h-4.39v12.5h-3.48v-12.5h-4.37v-2.81h12.24v2.81Zm11.34,10.29c-.32.58-.76,1.05-1.32,1.41-.56.36-1.2.62-1.94.78-.74.16-1.52.24-2.34.24s-1.64-.07-2.4-.21c-.76-.14-1.42-.36-1.97-.64v-3.42c.62.52,1.29.91,2.02,1.17.73.26,1.46.39,2.2.39.44,0,.81-.04,1.14-.12.32-.08.6-.19.81-.33.22-.14.38-.3.49-.49s.16-.39.16-.61c0-.3-.09-.57-.26-.8-.17-.24-.4-.45-.7-.65-.3-.2-.65-.39-1.05-.58-.41-.19-.85-.37-1.32-.57-1.2-.5-2.09-1.11-2.68-1.83-.59-.72-.88-1.59-.88-2.61,0-.8.16-1.48.48-2.06.32-.57.76-1.05,1.31-1.42.55-.37,1.19-.64,1.92-.82.73-.17,1.5-.26,2.31-.26s1.51.05,2.12.14c.62.1,1.19.24,1.71.44v3.2c-.26-.18-.54-.34-.84-.47-.3-.14-.62-.25-.94-.34-.32-.09-.64-.16-.96-.2-.32-.04-.62-.06-.9-.06-.39,0-.75.04-1.07.11-.32.07-.59.18-.81.32-.22.14-.39.3-.51.49-.12.19-.18.4-.18.64,0,.26.07.49.2.69.14.2.33.4.58.58.25.18.55.36.91.53.36.17.76.35,1.21.54.61.26,1.16.53,1.65.82.49.29.91.61,1.26.98.35.36.62.78.8,1.25s.28,1.01.28,1.63c0,.86-.16,1.57-.49,2.15Z"/></svg>