<?xml version="1.0" encoding="UTF-8"?><svg id="technologies-logos" xmlns="http://www.w3.org/2000/svg" viewBox="0 0 100 100"><defs><style>.cls-1{fill:#fff;}</style></defs><path id="path8325" class="cls-1" d="m42.55,59.58h-2.56v-14.88h2.56v1.56c.36-1.04,1.66-1.79,3.43-1.79,1.52,0,2.79.54,3.82,1.62,1.04,1.07,1.56,2.39,1.56,3.99s-.51,2.92-1.56,4.01c-1.03,1.07-2.3,1.59-3.82,1.59-1.77,0-3.07-.75-3.43-1.79v5.68Zm.75-11.84c-.62.62-.94,1.41-.94,2.35s.32,1.72.94,2.35c.64.62,1.43.94,2.35.94s1.66-.32,2.26-.94c.62-.62.91-1.41.91-2.35s-.3-1.72-.91-2.35c-.59-.62-1.35-.94-2.26-.94s-1.71.32-2.35.94Zm8.95-7.15h2.56v11.36c0,1.04.35,1.49,1.29,1.49.3,0,.55-.03.77-.09v2.29c-.3.09-.71.13-1.22.13-2.26,0-3.4-1.16-3.4-3.49v-11.69Zm13.29,5.67v-1.56h2.56v7.51c0,.91.22,1.26.78,1.26.15,0,.35-.03.54-.04v2.07c-.28.1-.71.17-1.26.17-.62,0-1.11-.1-1.49-.35-.48-.32-.77-.75-.87-1.3-.75,1.13-1.98,1.68-3.69,1.68-1.52,0-2.79-.53-3.85-1.62-1.03-1.09-1.54-2.42-1.54-4.01s.51-2.92,1.54-3.99c1.04-1.09,2.33-1.62,3.85-1.62,1.72,0,3.02.77,3.43,1.79h0Zm-.77,6.17c.64-.62.96-1.41.96-2.35s-.32-1.72-.96-2.35c-.62-.62-1.41-.94-2.33-.94s-1.66.32-2.29.94c-.59.62-.9,1.41-.9,2.35s.3,1.72.9,2.35c.62.62,1.36.94,2.29.94s1.71-.32,2.33-.94Zm5.54,5.18c.32.1.72.17,1.2.17.41,0,.71-.09.94-.23.23-.14.45-.48.62-.91l.28-.77-4.5-11.16h2.57l3.16,8.12,2.97-8.12h2.59l-4.82,12.51c-.32.84-.71,1.48-1.16,1.92-.64.59-1.49.9-2.59.9-.48,0-.9-.06-1.26-.17v-2.25Z"/><path class="cls-1" d="m36.9,48.26l-11.03-12.86c-1.12-1.3-3.11-1.38-4.33-.17l-.8.8h0c-1.07,1.07-1.16,2.77-.21,3.92l6.69,8.36c.18.23.31.48.42.74,1.27,2.02,2.01,4.4,2.01,6.98,0,2.12-.5,4.12-1.4,5.89l8.62-9.77c.98-1.11.99-2.77.03-3.88Z"/><path id="path8323" class="cls-1" d="m27.57,54.72c.05.43.08.87.08,1.31,0,1.68-.36,3.29-1.08,4.78l-2.2,2.5c-.25.28-.56.33-.72.33-.15,0-.43-.04-.68-.28l-.8-.8c-.35-.35-.37-.91-.06-1.29l5.45-6.54m0-5.79c.49,1,.36,2.25-.4,3.15l-6.58,7.9c-.98,1.17-.9,2.91.18,3.99l.8.8c.58.58,1.34.87,2.09.87.82,0,1.63-.34,2.22-1l2.38-2.7c.9-1.77,1.4-3.78,1.4-5.9,0-2.62-.77-5.05-2.08-7.1h0Z"/></svg>