<?xml version="1.0" encoding="UTF-8"?><svg id="technologies-logos" xmlns="http://www.w3.org/2000/svg" viewBox="0 0 100 100"><defs><style>.cls-1{fill:#fff;}</style></defs><g id="LOGO"><path class="cls-1" d="m30.63,48.44l-.02-.06-2.12-5.53c-.04-.11-.12-.2-.22-.26-.26-.17-.61-.09-.77.17-.03.05-.05.1-.07.15l-1.43,4.38h-5.79l-1.43-4.38c-.08-.3-.39-.47-.69-.39-.05.01-.1.04-.15.07-.1.06-.18.15-.22.26l-2.12,5.53-.02.05c-.63,1.64-.09,3.49,1.31,4.55h0s.02.02.02.02l3.22,2.42,1.6,1.21.97.73c.23.18.56.18.79,0l.97-.73,1.6-1.21,3.25-2.43h0c1.4-1.06,1.93-2.92,1.31-4.55Z"/><path class="cls-1" d="m43.32,48.15h2.28c-.38-2.42-2.48-4.11-5.21-4.11-3.23,0-5.65,2.37-5.65,6.35s2.31,6.33,5.72,6.33c3.05,0,5.24-1.96,5.24-5.15v-1.48h-5.01v1.75h2.84c-.04,1.76-1.21,2.87-3.07,2.87-2.07,0-3.48-1.55-3.48-4.34s1.44-4.32,3.43-4.32c1.49,0,2.51.79,2.9,2.1Z"/><path class="cls-1" d="m47.21,56.55h2.18v-9.25h-2.18v9.25Zm1.1-10.72c.69,0,1.26-.53,1.26-1.18s-.57-1.19-1.26-1.19-1.26.53-1.26,1.19.56,1.18,1.26,1.18h0Z"/><path class="cls-1" d="m55.92,47.3h-1.83v-2.22h-2.18v2.22h-1.31v1.69h1.31v5.15c-.01,1.74,1.25,2.6,2.89,2.55.44,0,.87-.08,1.28-.22l-.37-1.71c-.21.05-.42.08-.64.08-.55,0-.99-.19-.99-1.07v-4.79h1.83v-1.68Z"/><path class="cls-1" d="m57.61,56.55h7.67v-1.87h-5.43v-10.47h-2.24v12.34Z"/><path class="cls-1" d="m69.46,56.74c1.45,0,2.32-.68,2.72-1.46h.07v1.27h2.1v-6.19c0-2.45-1.99-3.18-3.76-3.18-1.95,0-3.44.87-3.92,2.55l2.04.29c.22-.63.83-1.17,1.9-1.17,1.01,0,1.57.52,1.57,1.43v.04c0,.63-.66.66-2.29.83-1.79.19-3.51.73-3.51,2.81,0,1.82,1.32,2.78,3.09,2.78Zm.72-1.6c-.91,0-1.56-.42-1.56-1.22s.73-1.19,1.7-1.33c.57-.08,1.72-.22,2-.45v1.09c0,1.03-.83,1.9-2.14,1.9h0Z"/><path class="cls-1" d="m75.95,56.55h2.14v-1.46h.13c.34.67,1.06,1.62,2.65,1.62,2.18,0,3.81-1.73,3.81-4.78s-1.68-4.76-3.82-4.76c-1.63,0-2.31.98-2.65,1.65h-.09v-4.62h-2.18v12.34Zm2.14-4.63c0-1.8.77-2.96,2.17-2.96s2.2,1.23,2.2,2.96-.76,3-2.2,3-2.17-1.2-2.17-3h0Z"/></g></svg>