<svg id="b925f137-c9e1-441a-b044-1f72bf4b9a62" data-name="Calque 1" xmlns="http://www.w3.org/2000/svg" xmlns:xlink="http://www.w3.org/1999/xlink" viewBox="0 0 135 38.48"><defs><radialGradient id="b3ca15a8-9ec0-43d0-af67-728a1922dd61" cx="-0.43" cy="127.02" r="65.74" gradientTransform="translate(0 -61) scale(0.48)" gradientUnits="userSpaceOnUse"><stop offset="0" stop-color="#ea212e"/><stop offset="0.5" stop-color="#ae151e"/><stop offset="1" stop-color="#9b0f17"/></radialGradient></defs><rect x="2.14" y="2.14" width="34.21" height="34.21" fill="#fff"/><rect x="15.23" y="15.73" width="6.7" height="7.02" fill="url(#b3ca15a8-9ec0-43d0-af67-728a1922dd61)"/><path d="M38.48,0H0V38.48H38.48ZM29.25,15.73H25.79v9a2,2,0,0,1-1.93,2H13.3a2,2,0,0,1-1.93-2V13.71a2,2,0,0,1,1.93-2h16a2,2,0,0,1,0,4Z" fill="url(#b3ca15a8-9ec0-43d0-af67-728a1922dd61)"/><polygon points="57.59 17.34 54.69 17.34 54.69 7.51 51.63 7.51 51.63 20.2 57.59 20.2 57.59 17.34" fill="#fff"/><path d="M69.35,15.12V7.51H66.28v7.61c0,1.43-.69,2.44-2.14,2.44S62,16.57,62,15.14V7.51H58.89v7.63c0,3.17,1.63,5.3,5.21,5.3S69.35,18.18,69.35,15.12Z" fill="#fff"/><polygon points="82.28 20.2 82.28 7.51 79.33 7.51 79.33 15.18 74.56 7.51 71.4 7.51 71.4 20.2 74.36 20.2 74.36 12.7 79.25 20.2 82.28 20.2" fill="#fff"/><path d="M87.86,7.51,83.42,20.2h3l1-3h4l1.06,3h3.25L91.08,7.51Zm.49,7.1,1.12-3.21,1.12,3.21Z" fill="#fff"/><polygon points="95.29 10.37 97.41 10.37 97.41 20.2 100.48 20.2 100.48 10.37 102.59 10.37 102.59 7.51 95.29 7.51 95.29 10.37" fill="#fff"/><polygon points="110.36 10.37 110.36 7.51 104.35 7.51 104.35 20.2 110.42 20.2 110.42 17.34 107.41 17.34 107.41 15.16 110.27 15.16 110.27 12.33 107.41 12.33 107.41 10.37 110.36 10.37" fill="#fff"/><path d="M118.8,10.13a3.64,3.64,0,0,1,2.44.95l1.82-2.31a6.25,6.25,0,0,0-4.29-1.5,6.42,6.42,0,0,0-6.7,6.6,6.33,6.33,0,0,0,6.75,6.57A5.85,5.85,0,0,0,123,18.79l-1.8-2.17a3.66,3.66,0,0,1-2.42,1,3.51,3.51,0,0,1-3.54-3.73A3.43,3.43,0,0,1,118.8,10.13Z" fill="#fff"/><polygon points="124.47 7.51 124.47 20.2 127.53 20.2 127.53 15.19 131.94 15.19 131.94 20.2 135 20.2 135 7.51 131.94 7.51 131.94 12.28 127.53 12.28 127.53 7.51 124.47 7.51" fill="#fff"/><path d="M53.43,30.52a1.18,1.18,0,0,1-1.16-.65l-.64.33a1.7,1.7,0,0,0,1.79,1c.92,0,1.73-.39,1.73-1.31s-.8-1.2-1.66-1.31c-.49-.06-.92-.16-.92-.51s.28-.55.86-.55a1.16,1.16,0,0,1,1,.46l.62-.32a1.68,1.68,0,0,0-1.62-.82c-.76,0-1.59.36-1.59,1.2s.78,1.15,1.62,1.25c.54.06,1,.21,1,.6S53.92,30.52,53.43,30.52Z" fill="#fff"/><rect x="57.87" y="26.99" width="0.77" height="4.11" fill="#fff"/><polygon points="65.84 31.11 65.84 27 64.95 27 63.67 28.77 62.38 27 61.49 27 61.49 31.11 62.26 31.11 62.26 28.12 63.57 29.91 63.72 29.91 65.06 28.13 65.06 31.11 65.84 31.11" fill="#fff"/><path d="M69.46,29.9h1.16a1.46,1.46,0,1,0,0-2.91H68.68v4.12h.78Zm0-2.17h1.16a.73.73,0,1,1,0,1.46H69.46Z" fill="#fff"/><polygon points="74.77 26.99 74.77 31.11 77.66 31.11 77.66 30.39 75.55 30.39 75.55 26.99 74.77 26.99" fill="#fff"/><rect x="80.33" y="26.99" width="0.77" height="4.11" fill="#fff"/><polygon points="86.89 27.75 86.89 27 83.94 27 83.94 31.11 84.72 31.11 84.72 29.59 86.78 29.59 86.78 28.87 84.72 28.87 84.72 27.75 86.89 27.75" fill="#fff"/><polygon points="91.85 31.11 91.85 29.41 93.49 27.03 93.49 26.99 92.55 26.99 91.46 28.69 90.41 26.99 89.49 26.99 89.49 27.03 91.07 29.41 91.07 31.11 91.85 31.11" fill="#fff"/><polygon points="101.37 31.11 101.37 29.41 103 27.03 103 26.99 102.07 26.99 100.98 28.69 99.93 26.99 99.01 26.99 99.01 27.03 100.59 29.41 100.59 31.11 101.37 31.11" fill="#fff"/><path d="M105.28,29.08a2.11,2.11,0,1,0,4.22,0,2.11,2.11,0,1,0-4.22,0Zm3.46,0a1.35,1.35,0,1,1-2.7,0,1.35,1.35,0,1,1,2.7,0Z" fill="#fff"/><path d="M112.19,27v2.36A1.71,1.71,0,0,0,114,31.2a1.67,1.67,0,0,0,1.78-1.84V27H115v2.36c0,.7-.36,1.13-1,1.13A1,1,0,0,1,113,29.36V27Z" fill="#fff"/><path d="M122.11,28.36A1.37,1.37,0,0,0,120.63,27h-2v4.12h.78V29.73h.75l1.19,1.38h.93v-.06l-1.25-1.4A1.22,1.22,0,0,0,122.11,28.36Zm-1.48.67h-1.18V27.72h1.18a.66.66,0,1,1,0,1.31Z" fill="#fff"/><rect x="128.06" y="26.99" width="0.77" height="4.11" fill="#fff"/><path d="M131.62,27.7h1.3v3.41h.78V27.7H135V27h-3.38Z" fill="#fff"/></svg>