<svg width="64" height="64" viewBox="0 0 64 64" fill="none" xmlns="http://www.w3.org/2000/svg">
<path d="M5.33203 5.33301H42.6654V15.9997H58.6654V58.6663H5.33203V5.33301ZM53.332 21.333H42.6654V26.6663H47.9987V31.9997H42.6654V37.333H47.9987V42.6663H42.6654V47.9997H47.9987V53.333H53.332V21.333ZM37.332 10.6663H10.6654V53.333H15.9987V47.9997H31.9987V53.333H37.332V10.6663ZM15.9987 15.9997H21.332V21.333H15.9987V15.9997ZM31.9987 15.9997H26.6654V21.333H31.9987V15.9997ZM15.9987 26.6663H21.332V31.9997H15.9987V26.6663ZM31.9987 26.6663H26.6654V31.9997H31.9987V26.6663ZM15.9987 37.333H21.332V42.6663H15.9987V37.333ZM31.9987 37.333H26.6654V42.6663H31.9987V37.333Z" fill="#78B4D7"/>
</svg>
