<svg width="30" height="40" viewBox="0 0 30 40" fill="none" xmlns="http://www.w3.org/2000/svg">
<path fill-rule="evenodd" clip-rule="evenodd" d="M9.49986 30.9337C9.49986 30.9337 7.97217 31.8226 10.5882 32.1229C13.7584 32.4849 15.3777 32.4328 18.87 31.7722C18.87 31.7722 19.7895 32.3479 21.073 32.8459C13.2418 36.2016 3.34963 32.6518 9.49986 30.9337ZM8.54257 26.5547C8.54257 26.5547 6.82873 27.8232 9.4471 28.094C12.8336 28.4437 15.5067 28.4723 20.1353 27.5817C20.1353 27.5817 20.7743 28.2304 21.7801 28.5847C12.313 31.3538 1.76919 28.8027 8.54257 26.5547Z" fill="#78B4D7"/>
<path fill-rule="evenodd" clip-rule="evenodd" d="M16.6092 19.1255C18.5398 21.3477 16.1032 23.3462 16.1032 23.3462C16.1032 23.3462 21.0028 20.8174 18.7525 17.6496C16.6514 14.6967 15.0398 13.2298 23.7636 8.1709C23.7636 8.1709 10.0695 11.5896 16.6092 19.1255Z" fill="#78B4D7"/>
<path fill-rule="evenodd" clip-rule="evenodd" d="M26.9665 34.1723C26.9665 34.1723 28.0973 35.1047 25.7209 35.8258C21.2019 37.1945 6.90884 37.6073 2.93865 35.8802C1.5125 35.259 4.18828 34.398 5.0301 34.2161C5.90808 34.0263 6.40913 34.0608 6.40913 34.0608C4.82205 32.9433 -3.84933 36.2558 2.00525 37.2061C17.9696 39.7946 31.1069 36.0408 26.9665 34.1723ZM10.2353 22.0166C10.2353 22.0166 2.96586 23.7437 7.6614 24.3715C9.64467 24.6366 13.5953 24.5755 17.2781 24.2666C20.287 24.0141 23.3072 23.4739 23.3072 23.4739C23.3072 23.4739 22.2471 23.9288 21.4789 24.4524C14.0957 26.3945 -0.165163 25.49 3.94074 23.5048C7.41221 21.8254 10.2353 22.0166 10.2353 22.0166ZM23.277 29.3056C30.7817 25.4067 27.3119 21.6592 24.8893 22.1642C24.2971 22.288 24.0313 22.3948 24.0313 22.3948C24.0313 22.3948 24.2523 22.0491 24.6723 21.9004C29.4641 20.2164 33.1486 26.8684 23.1274 29.5027C23.1271 29.5027 23.2425 29.3985 23.277 29.3056Z" fill="#78B4D7"/>
<path fill-rule="evenodd" clip-rule="evenodd" d="M18.7542 0C18.7542 0 22.9096 4.158 14.8119 10.5498C8.31791 15.679 13.3313 18.6027 14.8099 21.9444C11.0186 18.5243 8.23761 15.5131 10.1031 12.7112C12.8419 8.59837 20.4309 6.60382 18.7542 0Z" fill="#78B4D7"/>
<path fill-rule="evenodd" clip-rule="evenodd" d="M10.9755 39.8745C18.1779 40.3351 29.2403 39.6187 29.5028 36.21C29.5028 36.21 28.9991 37.5021 23.5497 38.527C17.4014 39.6844 9.8171 39.5497 5.32031 38.8074C5.32031 38.8074 6.24177 39.5699 10.9755 39.8745Z" fill="#78B4D7"/>
</svg>
