<svg width="16" height="16" viewBox="0 0 16 16" fill="none" xmlns="http://www.w3.org/2000/svg">
<path d="M15.254 12.6013C15.254 12.8636 15.1957 13.1332 15.0718 13.3956C14.9479 13.6579 14.7876 13.9056 14.5763 14.1388C14.2192 14.5323 13.8257 14.8165 13.3812 14.9987C12.944 15.1809 12.4704 15.2756 11.9603 15.2756C11.217 15.2756 10.4227 15.1007 9.58472 14.7437C8.74672 14.3866 7.90872 13.9056 7.078 13.3008C6.24 12.6887 5.44572 12.011 4.68788 11.2605C3.93732 10.5026 3.25963 9.70835 2.65481 8.87764C2.05728 8.04693 1.57634 7.21621 1.22657 6.39278C0.876792 5.56207 0.701904 4.76779 0.701904 4.00994C0.701904 3.51443 0.789348 3.04078 0.964235 2.60356C1.13912 2.15905 1.41603 1.75098 1.80224 1.38664C2.2686 0.927556 2.77869 0.70166 3.31793 0.70166C3.52196 0.70166 3.726 0.745382 3.90817 0.832826C4.09763 0.920269 4.26523 1.05143 4.3964 1.2409L6.08698 3.62374C6.21814 3.80591 6.31287 3.97351 6.37845 4.13382C6.44404 4.28685 6.48047 4.43988 6.48047 4.57833C6.48047 4.75322 6.42946 4.9281 6.32745 5.0957C6.23271 5.2633 6.09426 5.43819 5.91937 5.61308L5.36556 6.18875C5.28541 6.2689 5.24897 6.36364 5.24897 6.48023C5.24897 6.53852 5.25626 6.58953 5.27083 6.64783C5.2927 6.70612 5.31456 6.74984 5.32913 6.79357C5.4603 7.03404 5.68619 7.34738 6.00682 7.7263C6.33473 8.10522 6.68451 8.49143 7.06343 8.87764C7.45693 9.26385 7.83585 9.62091 8.22206 9.94882C8.60098 10.2695 8.91432 10.4881 9.16208 10.6192C9.19851 10.6338 9.24223 10.6557 9.29324 10.6775C9.35154 10.6994 9.40983 10.7067 9.47542 10.7067C9.59929 10.7067 9.69403 10.6629 9.77418 10.5828L10.328 10.0363C10.5102 9.85409 10.6851 9.71564 10.8527 9.6282C11.0203 9.52618 11.1879 9.47517 11.37 9.47517C11.5085 9.47517 11.6542 9.50432 11.8145 9.5699C11.9748 9.63548 12.1424 9.73022 12.3246 9.85409L14.7366 11.5665C14.9261 11.6977 15.0572 11.8507 15.1374 12.0329C15.2103 12.2151 15.254 12.3972 15.254 12.6013Z" stroke="#78B4D7" stroke-width="1.2" stroke-miterlimit="10"/>
<path d="M12.7255 5.80288C12.7255 5.36566 12.383 4.69526 11.8729 4.14874C11.4065 3.64594 10.7872 3.25244 10.175 3.25244" stroke="#78B4D7" stroke-width="1.2" stroke-linecap="round" stroke-linejoin="round"/>
<path d="M15.2759 5.80254C15.2759 2.98248 12.9951 0.70166 10.175 0.70166" stroke="#78B4D7" stroke-width="1.2" stroke-linecap="round" stroke-linejoin="round"/>
</svg>
