<svg width="106" height="64" viewBox="0 0 106 64" fill="none" xmlns="http://www.w3.org/2000/svg">
<g clip-path="url(#clip0_339_106847)">
<path d="M89.185 63.5478V49.8119H83.386V63.5478H89.185ZM58.4833 57.8441V50.0196H52.8626V56.0014C52.8626 57.7402 52.7923 58.2276 52.6844 58.6799C52.2936 59.9328 50.9416 60.4873 49.5536 60.4873C47.6326 60.4873 46.7432 59.757 46.3868 58.6096C46.2805 58.2276 46.2446 57.8105 46.2086 57.3934C46.1726 56.9411 46.2086 56.4537 46.2086 55.9327V50.0196H40.5159V57.8792C40.5159 59.6531 41.1208 60.9748 42.1164 61.8777C43.8233 63.5126 46.7056 64 49.3737 64C52.6108 64 55.1008 63.5478 56.8795 61.8442C57.8049 60.9748 58.4801 59.8273 58.4801 57.8441H58.4833ZM30.8782 56.8708C30.597 56.8229 30.3109 56.8005 30.0248 56.8021H23.6209C23.3005 56.8021 22.9441 56.8372 22.7675 56.8708C22.8738 56.7653 23.0879 56.5576 23.3005 56.2795L26.1812 51.6194C26.5719 50.9945 26.7501 50.5774 26.822 50.4032C26.8923 50.5774 27.0705 50.9945 27.4629 51.6561L30.4155 56.3514C30.5578 56.5592 30.7719 56.7669 30.8782 56.8724V56.8708ZM41.6227 63.5478L28.815 44.7698H21.6296L23.5146 46.9608C23.5506 46.996 23.6226 47.0296 23.6929 47.0663C23.6226 47.1015 23.5506 47.135 23.5146 47.1702L12.3451 63.5493H18.8192L20.562 60.7319C20.6323 60.5928 20.6683 60.4538 20.6683 60.3851C20.7386 60.3851 20.9184 60.4538 21.095 60.4538H32.657C32.8352 60.4538 32.9774 60.4186 33.0477 60.3851C33.0412 60.4826 33.0657 60.58 33.118 60.6631L34.9327 63.5493H41.6211L41.6227 63.5478ZM81.8231 56.4888C81.8231 54.9578 81.1822 53.1839 79.1909 50.7148L74.3876 44.7682H67.6992L71.5053 48.9409C72.1461 49.6361 72.9636 50.2626 72.9636 50.2626C72.0399 49.74 70.866 49.5322 69.9407 49.5322C67.7352 49.5322 65.4938 49.9845 63.5025 51.0632C61.3673 52.2091 59.9449 54.122 59.9449 56.6614C59.9449 58.608 60.8343 60.1038 61.9722 61.2512C64.5341 63.7539 69.1935 63.9984 70.902 63.9984C73.4279 63.9984 77.3762 63.4423 79.6192 61.4606C80.9353 60.278 81.8247 58.6447 81.8247 56.4888H81.8231ZM76.2726 56.663C76.2726 58.0886 75.3113 59.1657 74.1015 59.757C73.1058 60.2796 71.9303 60.4186 70.9004 60.4186C69.8704 60.4186 68.6589 60.2093 67.6633 59.7234C66.4534 59.1321 65.5281 57.9847 65.5281 56.7334C65.5281 55.2391 66.702 54.0549 68.09 53.4636C68.9434 53.0817 69.975 52.9426 70.7925 52.9426C71.6099 52.9426 72.7134 53.0465 73.6045 53.3949C75.2067 54.0549 76.2726 55.3062 76.2726 56.6646V56.663ZM87.3441 2.22246e-05C83.1784 -0.00637026 79.1337 1.36642 75.8704 3.89624C72.6055 1.36642 68.5608 -0.00637026 64.3968 2.22246e-05C60.2311 -0.00637026 56.188 1.36801 52.9231 3.89624C49.6598 1.36642 45.6151 -0.00637026 41.4494 2.22246e-05C37.2837 -0.00637026 33.2406 1.36801 29.9757 3.89624C26.7125 1.36801 22.6694 -0.00637026 18.5037 2.22246e-05C8.28236 2.22246e-05 0 8.09611 0 18.0876C0 28.079 8.28236 36.1751 18.5037 36.1751C22.6694 36.1815 26.7125 34.8071 29.9774 32.2789C33.2406 34.8087 37.2853 36.1815 41.451 36.1751C45.6167 36.1815 49.6598 34.8087 52.9247 32.2789C56.188 34.8087 60.2327 36.1815 64.3984 36.1751C68.5641 36.1815 72.6088 34.8087 75.8721 32.2789C79.1353 34.8087 83.18 36.1831 87.3457 36.1751C97.5671 36.1751 105.849 28.079 105.849 18.0876C105.849 8.09611 97.5638 2.22246e-05 87.3441 2.22246e-05ZM26.9496 29.324C24.592 31.0052 21.646 32.0312 18.5037 32.0312C10.6186 32.0312 4.23927 25.7953 4.23927 18.0876C4.23927 10.3798 10.6186 4.14395 18.5037 4.14395C21.646 4.14395 24.5888 5.16995 26.9496 6.85277C24.3501 10.0458 22.9375 14.0076 22.9473 18.0892C22.949 22.1676 24.3599 26.1277 26.9496 29.3256V29.324ZM29.9774 26.3722C28.1594 23.9766 27.1801 21.0713 27.1866 18.0876C27.1784 15.1039 28.1577 12.1985 29.9774 9.8029C31.797 12.1985 32.7763 15.1039 32.7681 18.0876C32.7747 21.0713 31.7954 23.9766 29.9774 26.3722ZM49.8953 29.324C47.4462 31.0867 44.4821 32.0344 41.4396 32.028C38.4036 32.0344 35.4461 31.0867 33.0036 29.324C35.5949 26.1261 37.0041 22.1676 37.0058 18.0876C37.014 14.0076 35.603 10.0442 33.0036 6.85117C35.4461 5.08844 38.4036 4.14076 41.4396 4.14715C44.6048 4.14715 47.5279 5.14757 49.8953 6.85117C47.2958 10.0442 45.8832 14.006 45.893 18.0876C45.8947 22.166 47.3056 26.1261 49.8953 29.324ZM52.9214 26.3722C51.1034 23.9766 50.1241 21.0713 50.1307 18.0876C50.1225 15.1039 51.1018 12.1985 52.9214 9.8029C54.7411 12.1985 55.7204 15.1039 55.7138 18.0876C55.7204 21.0713 54.7411 23.9766 52.9214 26.3722ZM72.841 29.324C70.4736 31.0276 67.5505 32.028 64.3853 32.028C61.2202 32.028 58.315 31.026 55.9493 29.324C58.5406 26.1261 59.9498 22.1676 59.9515 18.0876C59.9597 14.0076 58.5487 10.0442 55.9493 6.85117C58.3166 5.14917 61.2218 4.14715 64.3853 4.14715C67.5488 4.14715 70.4736 5.14757 72.841 6.85117C70.2415 10.0442 68.8306 14.006 68.8388 18.0876C68.8404 22.166 70.2513 26.1245 72.841 29.324ZM75.8688 26.3722C74.0508 23.9766 73.0715 21.0713 73.078 18.0876C73.0699 15.1039 74.0492 12.1985 75.8688 9.8029C77.6884 12.1985 78.6677 15.1039 78.6595 18.0876C78.6645 21.0713 77.6868 23.9766 75.8688 26.3722ZM87.3425 32.0312C84.1986 32.0312 81.2541 31.0052 78.8966 29.324C81.4863 26.1261 82.8972 22.1676 82.8988 18.0876C82.907 14.0076 81.4961 10.0442 78.8966 6.85117C81.2558 5.16995 84.2002 4.14235 87.3425 4.14235C95.2259 4.14235 101.607 10.3798 101.607 18.086C101.607 25.7921 95.2259 32.0296 87.3425 32.0296V32.0312Z" fill="#78B4D7"/>
</g>
<defs>
<clipPath id="clip0_339_106847">
<rect width="105.846" height="64" fill="white"/>
</clipPath>
</defs>
</svg>
