<svg width="1728" height="485" viewBox="0 0 1728 485" fill="none" xmlns="http://www.w3.org/2000/svg">
<g clip-path="url(#clip0_223_4244)">
<path d="M52.7662 36.5386C55.2172 36.3064 57.7841 36.323 60.2019 35.9249C61.6592 35.6761 62.9511 34.9794 64.3918 34.6974C69.1282 33.7685 74.325 33.9344 79.1276 33.6026C89.0804 32.9391 99.0334 32.3752 109.019 32.0766C135.748 31.3136 162.775 32.5742 188.759 39.3585C196.476 41.3821 204.259 43.9034 212.225 43.4721C220.422 43.0243 228.09 39.5077 235.476 35.8917C243.756 31.8444 251.788 26.8848 260.483 23.8327C261.857 23.3516 263.099 22.7545 264.308 21.9251C270.485 17.6788 275.983 12.9514 282.757 9.51777C300.99 0.26201 322.601 -2.72372 342.441 2.70035C377.168 12.1883 403.5 46.5242 403.699 82.5686C426.105 86.4666 445.464 104.381 451.112 126.459C491.354 126.608 531.563 133.475 569.57 146.695C574.455 148.387 579.854 150.195 584.64 148.271C589.74 146.214 592.357 140.724 594.957 135.864C610.938 105.973 642.817 86.0685 676.385 81.6397C709.937 77.1943 744.58 87.3292 772.535 106.454C778.596 110.601 784.591 115.262 791.712 117.087C803.519 120.139 815.642 114.881 827.317 111.331C858.285 101.893 891.44 104.298 923.7 106.77C941.155 108.113 962.268 112.111 968.097 128.632C988.632 123.291 1009.18 117.949 1029.72 112.625C1043.32 109.092 1056.93 105.559 1070.52 102.026C1077.31 100.267 1084.07 98.31 1090.89 96.7342C1097.24 95.2745 1103.1 98.2105 1109.51 95.5233C1120.59 90.8955 1130.44 83.8292 1141.83 79.9146C1152.66 76.1824 1162.62 71.0735 1173.8 68.2205C1185.01 65.3509 1196.83 62.4813 1207.98 65.5997C1219.12 68.7181 1228.81 80.18 1225.71 91.3433C1237.04 89.0211 1249.43 92.9025 1257.43 101.263C1265.43 109.623 1268.75 122.196 1265.96 133.425C1281.36 124.535 1298.5 118.729 1316.1 116.241C1324.78 115.014 1333.57 114.599 1342.33 115.014C1346.46 115.213 1351.41 115.096 1355.38 116.291C1361.16 118.032 1364.16 123.722 1371.46 122.677C1375.77 122.063 1379.1 118.712 1382.23 115.694C1396.42 101.976 1414.5 90.8457 1434.21 90.431C1453.93 90.0163 1474.68 103.17 1477.86 122.66C1486.38 118.596 1496.79 118.779 1505.17 123.141C1518.09 110.734 1539.55 108.412 1554.8 117.8C1550.02 93.284 1559.14 66.512 1577.91 50.0573C1581.86 46.574 1586.24 43.5882 1590.87 41.1001C1600.56 35.9249 1611.41 32.9889 1622.37 32.4913C1627.85 32.2425 1633.35 32.6074 1638.75 33.6026C1641.4 34.1003 1644.08 35.2282 1646.73 35.5268C1647.72 35.6429 1648.67 35.4273 1649.66 35.4438C1656.04 35.5268 1662.79 37.4675 1669.04 38.6618L1751.03 54.1876L1751.03 490H-4.11877L-4.11938 50.1568C13.9316 44.4176 33.6554 38.413 52.7496 36.5386H52.7662Z" fill="url(#paint0_linear_223_4244)"/>
</g>
<defs>
<linearGradient id="paint0_linear_223_4244" x1="858.539" y1="334.033" x2="858.539" y2="-404.453" gradientUnits="userSpaceOnUse">
<stop stop-color="#068A9C"/>
<stop offset="0.13" stop-color="#06748A"/>
<stop offset="0.39" stop-color="#064E6C"/>
<stop offset="0.63" stop-color="#063256"/>
<stop offset="0.84" stop-color="#062149"/>
<stop offset="0.99" stop-color="#061C45"/>
</linearGradient>
<clipPath id="clip0_223_4244">
<rect width="1728" height="485" fill="white"/>
</clipPath>
</defs>
</svg>
