<svg width="170" height="24" viewBox="0 0 170 24" fill="none" xmlns="http://www.w3.org/2000/svg">
<path d="M0 19.1357H22.9725L21.7167 20.8411H0V19.1357Z" fill="#78B4D7"/>
<path d="M0 15.9707H25.3049L24.049 17.6735H0V15.9707Z" fill="#78B4D7"/>
<path d="M0 22.3047H20.6402L19.3896 23.9969H0V22.3047Z" fill="#78B4D7"/>
<path d="M169.875 20.8411H146.992L148.245 19.1357H169.875V20.8411Z" fill="#78B4D7"/>
<path d="M169.874 23.9969L144.664 23.9995L145.912 22.3047H169.874V23.9969Z" fill="#78B4D7"/>
<path d="M150.576 15.9707H169.873V17.6761H149.32L150.576 15.9707Z" fill="#78B4D7"/>
<path d="M22.25 23.9972L33.1519 9.20215H46.6789C48.1749 9.20215 48.1538 9.76886 47.423 10.7573C46.6816 11.7616 45.4178 13.4881 44.6632 14.5081C44.2806 15.0248 43.5867 15.971 45.8848 15.971H64.008C62.5014 18.0349 57.6125 23.9972 48.8345 23.9972H22.25Z" fill="#78B4D7"/>
<path d="M84.6787 15.9707L78.7687 23.9995H63.1758C63.1758 23.9995 69.0832 15.9733 69.0884 15.9733L84.6787 15.9707Z" fill="#78B4D7"/>
<path d="M107.226 15.9707L101.31 23.9969H85.7227C85.7227 23.9969 91.6327 15.9707 91.638 15.9707H107.226Z" fill="#78B4D7"/>
<path d="M112.301 15.9707C112.301 15.9707 111.161 17.5259 110.61 18.2745C108.652 20.9182 110.383 23.9969 116.773 23.9969H141.806L147.719 15.9707H112.301Z" fill="#78B4D7"/>
<path d="M29.8725 0L24.4453 7.36723H54.0244C55.5204 7.36723 55.4993 7.93394 54.7684 8.92239C54.0271 9.92665 52.7844 11.6716 52.0298 12.6917C51.6472 13.2083 50.9533 14.1519 53.2514 14.1519H65.3484C65.3484 14.1519 67.2982 11.5003 68.9314 9.28614C71.1555 6.27071 69.124 0 61.1745 0H29.8725Z" fill="#78B4D7"/>
<path d="M108.566 14.1546H70.4258L80.8554 0H96.4457L90.4671 8.11581H97.4245L103.408 0H118.993L108.566 14.1546Z" fill="#78B4D7"/>
<path d="M140.583 0L130.156 14.1519H113.637C113.637 14.1519 124.069 0 124.072 0H140.583Z" fill="#78B4D7"/>
</svg>
