<svg width="193" height="32" viewBox="0 0 193 32" fill="none" xmlns="http://www.w3.org/2000/svg">
<g clip-path="url(#clip0_339_106849)">
<path d="M59.3957 22.2012C56.5941 22.2964 53.7882 22.2012 50.9822 22.2445C50.0122 22.2618 49.5922 22.028 49.5662 20.9627C49.5273 19.4861 49.6788 18.4642 51.5928 18.763C52.5064 18.9059 53.4591 18.789 54.3944 18.789C58.0014 18.789 57.9278 18.789 57.9408 15.156C57.9451 13.805 57.5035 13.4455 56.2174 13.5148C54.4983 13.6101 52.7662 13.4802 51.0428 13.5581C49.878 13.6101 49.5749 13.1468 49.5749 12.0729C49.5749 11.0206 49.8087 10.5357 50.9995 10.5876C53.0087 10.6742 55.0266 10.6093 57.0401 10.6093C61.1581 10.6093 61.1018 10.6093 61.0932 6.60387C61.0932 5.3308 60.7944 4.8718 59.4217 4.89345C54.533 4.97139 49.6442 4.97572 44.7554 4.89345C43.3265 4.86747 43.1013 5.42173 43.1273 6.64284C43.1619 8.27532 43.1706 9.90346 43.1662 11.5359C43.1662 13.1684 43.1533 14.8009 43.1533 16.4334C43.1533 17.6025 43.1706 18.776 43.1792 19.9451C43.1966 21.8981 43.2052 23.8466 43.1099 25.7952C43.019 27.6269 43.6599 28.0426 45.4136 27.9819C49.2934 27.8477 53.1776 27.9386 57.0618 27.9386C61.1798 27.9386 61.1278 27.9386 61.0932 23.8943C61.0845 22.6212 60.7597 22.1535 59.4044 22.1968L59.3957 22.2012Z" fill="#78B4D7"/>
<path d="M79.9918 15.1992C79.3509 12.0252 77.4283 10.4317 74.1547 10.2455C71.1062 10.0679 68.1531 10.6179 65.2042 11.354C63.9485 11.6701 63.6324 12.2763 63.6757 13.4411C63.7146 14.4717 63.719 15.498 63.7146 16.5286C63.7103 17.5591 63.6973 18.5897 63.6973 19.6203V23.4568C63.6973 28.1291 63.6973 28.0641 68.3696 27.9819C69.8029 27.9559 70.015 27.406 69.9804 26.1978C69.9068 23.4309 69.9544 20.6595 69.9588 17.8882C69.9588 15.8487 70.9634 15.1472 72.8643 15.8141C74.0941 16.2471 74.0941 17.3253 74.1157 18.2823C74.1807 20.98 74.146 23.682 74.146 26.3797C74.146 27.1721 74.0508 28.1204 75.2762 27.9169C76.9563 27.6355 78.8053 28.7093 80.3295 27.302C80.4031 27.2327 80.3598 27.0292 80.3555 26.8863C80.1996 22.9892 80.7669 19.066 79.9831 15.1992H79.9918Z" fill="#78B4D7"/>
<path d="M192.166 16.3986C191.841 12.1464 189.52 10.2628 185.195 10.2151C182.436 10.1848 179.773 10.7088 177.114 11.3713C175.976 11.6527 175.616 12.168 175.655 13.2809C175.729 15.407 175.677 17.5418 175.677 19.6722V23.5088C175.677 28.3196 175.677 28.2849 180.592 27.9732C181.648 27.9082 181.925 27.5531 181.908 26.5745C181.86 23.6646 181.886 20.7504 181.891 17.8406C181.895 15.7751 182.363 15.4287 184.424 15.7361C186.013 15.9743 186.074 17.178 186.108 18.2909C186.19 20.9886 186.139 23.6863 186.169 26.384C186.177 27.0379 185.9 27.9212 187.065 27.9342C188.503 27.9472 189.945 27.9255 191.382 27.9429C192.196 27.9559 192.296 27.4752 192.292 26.8343C192.257 23.3572 192.435 19.8628 192.166 16.4029V16.3986Z" fill="#78B4D7"/>
<path d="M126.202 10.2151C120.057 10.1848 117.584 12.5881 117.498 18.685C117.494 19.1093 117.498 19.538 117.502 19.9624C117.632 26.1155 120.49 28.7439 126.717 28.4062C127.431 28.3672 128.146 28.2633 128.856 28.155C131.822 27.7047 133.619 25.964 134.29 23.132C134.702 21.4043 134.862 19.6333 134.693 17.8492C134.173 12.2893 131.896 10.2411 126.202 10.2151ZM128.354 21.6338C128.293 23.0238 127.505 23.643 126.145 23.682C124.799 23.7209 123.894 23.1797 123.798 21.794C123.694 20.3174 123.647 18.8322 123.707 17.3556C123.768 15.8573 124.331 14.8181 126.189 14.896C127.947 14.9697 128.354 15.9743 128.38 17.3989C128.393 18.0354 128.38 18.672 128.38 19.3042C128.406 19.3042 128.432 19.3042 128.453 19.3042C128.419 20.0793 128.38 20.8587 128.345 21.6338H128.354Z" fill="#78B4D7"/>
<path d="M149.086 17.4025C148.727 17.4025 148.368 17.4242 148.008 17.4025C147.06 17.3376 146.142 17.4155 146.467 18.6799C146.718 19.6629 145.363 21.4772 147.809 21.4512C148.35 21.4469 149 21.317 149.06 22.2003C149.121 23.075 148.562 23.2612 147.883 23.4041C145.809 23.8328 144.267 23.1097 143.669 21.4123C142.795 18.9267 143.57 15.7917 145.332 15.1292C146.709 14.6139 148.199 14.7178 149.567 15.1855C150.741 15.5838 151.295 15.1984 151.68 14.1635C151.901 13.5703 152.174 12.9727 152.533 12.4488C153.265 11.3836 152.711 10.9809 151.737 10.6777C149.589 10.0109 147.402 9.63417 145.15 9.90697C141.102 10.4006 138.542 12.4055 137.624 15.8913C137.018 18.1906 137.044 20.5332 137.659 22.8369C138.478 25.894 140.521 27.6174 143.669 28.1933C145.692 28.5614 147.679 28.3449 149.684 28.1457C152.637 27.8454 154.114 26.2721 154.114 23.4258V22.3606C154.114 19.061 152.439 17.4112 149.091 17.4112L149.086 17.4025Z" fill="#78B4D7"/>
<path d="M172.455 15.7834C171.962 12.2847 170.251 10.6479 166.7 10.2755C160.85 9.66058 157.607 11.41 156.624 15.8571C156.13 18.0871 156.135 20.3734 156.676 22.6165C157.464 25.8641 159.551 27.6958 162.916 28.237C165.025 28.5748 167.077 28.2587 169.138 28.0119C170.502 27.8473 171.667 27.5226 171.091 25.6389C170.654 24.197 170.836 22.4303 168.342 23.1188C166.9 23.5128 165.358 23.5908 163.868 23.1014C163.189 22.8763 162.678 22.4346 162.821 21.7115C162.951 21.036 163.643 21.3217 164.089 21.3088C164.375 21.3001 164.665 21.2914 164.951 21.2914C165.813 21.2828 166.679 21.2958 167.54 21.2958C170.563 21.2958 171.983 21.2958 172.529 20.4687C172.559 20.4211 172.589 20.3691 172.615 20.3128C172.719 20.0963 172.78 19.8278 172.806 19.5031C172.81 19.4208 172.815 19.3385 172.819 19.2476C172.819 19.0701 172.819 18.8752 172.802 18.6673C172.758 17.9312 172.624 16.9916 172.455 15.7878V15.7834ZM162.92 16.1429C162.92 14.9131 164.133 14.7702 165.172 14.7918C166.112 14.8092 167.25 14.8784 167.198 16.0909C167.133 17.6498 165.73 16.5109 165.007 17.0002C164.379 16.4373 162.92 17.7407 162.916 16.1385L162.92 16.1429Z" fill="#78B4D7"/>
<path d="M93.1894 10.2707C91.6175 10.1711 90.0457 10.1322 88.4695 10.4959C85.8064 11.1108 84.2043 12.7649 83.5115 15.2807C82.9615 17.2813 82.8273 19.3381 83.178 21.3993C83.9488 25.8983 86.1788 27.9855 90.7775 28.3622C92.8646 28.5354 94.9388 28.2366 96.974 27.7473C97.3767 27.652 98.0305 27.6694 97.9786 27.1627C97.8443 25.907 97.7361 24.5863 97.2424 23.4431C96.8224 22.4688 95.7182 23.1357 94.9345 23.192C93.5012 23.2959 92.0809 23.5557 90.6606 23.1054C89.9807 22.8889 89.4221 22.4688 89.5217 21.763C89.6387 20.9186 90.4397 21.3343 90.9334 21.304C91.505 21.2737 92.0809 21.2694 92.6568 21.2694C93.2327 21.2694 93.8086 21.2824 94.3845 21.2824C96.1079 21.2824 97.329 21.2347 98.1604 21.0096C98.2427 20.9879 98.325 20.9619 98.3986 20.9359C98.5502 20.884 98.6844 20.8234 98.81 20.7541C98.9312 20.6848 99.0395 20.6068 99.1347 20.5202C99.23 20.4336 99.3123 20.334 99.3772 20.2258C99.8925 19.4161 99.7063 17.9914 99.1954 15.5059C98.4765 12.0028 96.7834 10.4872 93.1807 10.2577L93.1894 10.2707ZM91.7431 16.9825C91.046 16.5538 89.7339 17.5194 89.6343 16.2983C89.5391 15.1335 90.6866 14.7828 91.7994 14.7828C92.869 14.7828 94.1031 14.9473 94.0035 16.1944C93.8909 17.6234 92.4749 16.5192 91.7431 16.9825Z" fill="#78B4D7"/>
<path d="M114.709 22.8547C114.103 22.1229 112.76 23.1751 111.686 23.1145C110.335 23.0409 108.712 23.422 108.235 21.7159C107.72 19.8755 107.387 17.7927 108.634 16.1819C109.734 14.7616 111.526 15.3678 113.081 15.6536C113.362 15.7056 113.652 15.7359 113.929 15.8008C114.497 15.9264 114.77 15.7792 115.038 15.1816C116.67 11.5399 116.03 10.4444 112.033 10.2452C111.604 10.2236 111.171 10.2452 110.738 10.2452V10.2236C110.379 10.2236 110.019 10.2149 109.66 10.2236C105.646 10.3405 103.104 12.0856 102.134 15.3895C100.822 19.8625 101.995 25.0501 104.797 26.9467C105.438 27.3797 106.174 27.7391 106.919 27.947C109.543 28.6788 112.18 28.4146 114.813 27.908C115.696 27.7391 116.051 27.3321 115.796 26.4487C115.449 25.2276 115.445 23.7467 114.705 22.8547H114.709Z" fill="#78B4D7"/>
<path d="M31.1427 18.3292C30.7183 17.7793 30.0861 17.6147 29.4539 17.4545C29.4539 16.4759 29.4539 15.4929 29.4539 14.5143C32.3378 13.5444 34.1695 11.5828 34.5635 8.61663C34.9706 5.55519 34.1045 2.90512 31.1817 1.25533C30.6923 0.423933 29.5492 0.709725 28.9863 0.00390625H25.5308C23.357 1.06913 21.127 2.07373 20.3519 4.65018C19.3906 4.08726 18.347 4.10891 17.2904 4.22583C16.2945 4.24315 15.2942 4.25614 14.2983 4.27346C14.0688 4.45533 13.8263 4.59389 13.5665 4.71081C13.8263 4.59822 14.0688 4.45966 14.2983 4.27346C13.6185 2.93544 12.7438 1.77495 11.3061 1.13841C10.5743 0.761687 9.84687 0.380632 9.11507 0.00390625H5.65959C3.2347 1.19903 0.944033 2.52407 0.402761 5.47725C-0.125521 6.78496 -0.164492 8.08834 0.467714 9.37874C0.688553 11.3836 1.88368 12.8818 3.57245 13.6743C5.20493 14.445 5.45175 15.5406 5.34349 17.0128C3.00953 18.7016 0.329148 20.1176 0.13862 23.4865C-0.012936 24.963 -0.0952093 26.4266 0.87908 27.7084C3.31697 32.6794 9.75161 33.4978 13.2894 29.2846C13.7397 28.7476 14.1771 28.1977 14.6231 27.6521C16.6323 28.0678 18.6588 27.717 20.6766 27.7517C20.7503 27.6348 20.8369 27.5438 20.9321 27.4745C21.2179 27.2667 21.5773 27.245 21.9454 27.2407C24.7903 25.8377 26.8471 23.8459 28.1462 21.2867C26.8471 23.8415 24.786 25.8334 21.9454 27.2407C21.5773 27.245 21.2136 27.2667 20.9321 27.4745C20.8369 27.5438 20.7503 27.6348 20.6766 27.7517C21.967 30.6442 24.6734 32.2204 27.8994 31.9563C30.9262 31.7095 33.6152 29.4967 34.4379 26.5782C35.3516 23.3349 34.1738 20.3817 31.147 18.3249L31.1427 18.3292ZM30.307 6.64207C30.3892 6.48185 30.4585 6.3173 30.5278 6.15276C30.4628 6.3173 30.3892 6.48185 30.307 6.64207ZM22.937 5.49457C23.7511 5.97089 24.5651 6.44721 25.3792 6.9192C24.5651 6.44288 23.7511 5.96656 22.937 5.49457Z" fill="#78B4D7"/>
</g>
<defs>
<clipPath id="clip0_339_106849">
<rect width="192.316" height="32" fill="white"/>
</clipPath>
</defs>
</svg>
