<svg width="40" height="40" viewBox="0 0 40 40" fill="none" xmlns="http://www.w3.org/2000/svg">
<path d="M38.3346 26.6162C38.3346 33.0662 33.118 38.2829 26.668 38.2829L28.418 35.3662" stroke="#78B4D7" stroke-width="1.5" stroke-linecap="round" stroke-linejoin="round"/>
<path d="M1.66797 13.2829C1.66797 6.83288 6.88464 1.61621 13.3346 1.61621L11.5846 4.53288" stroke="#78B4D7" stroke-width="1.5" stroke-linecap="round" stroke-linejoin="round"/>
<path d="M14.44 10H25.55C29.11 10 30 10.89 30 14.44V20.77C30 24.33 29.11 25.21 25.56 25.21H14.44C10.89 25.22 10 24.33 10 20.78V14.44C10 10.89 10.89 10 14.44 10Z" stroke="#78B4D7" stroke-width="1.5" stroke-linecap="round" stroke-linejoin="round"/>
<path d="M20 25.2197V29.9997" stroke="#78B4D7" stroke-width="1.5" stroke-linecap="round" stroke-linejoin="round"/>
<path d="M10 21H30" stroke="#78B4D7" stroke-width="1.5" stroke-linecap="round" stroke-linejoin="round"/>
<path d="M15.5 30H24.5" stroke="#78B4D7" stroke-width="1.5" stroke-linecap="round" stroke-linejoin="round"/>
</svg>
