<svg width="127" height="32" viewBox="0 0 127 32" fill="none" xmlns="http://www.w3.org/2000/svg">
<path fill-rule="evenodd" clip-rule="evenodd" d="M0.786517 8.75125C1.71604 8.75125 2.3953 8.96586 2.78856 9.35931C3.25332 9.82429 3.46782 10.5754 3.46782 11.8273V27.3148C3.46782 29.4609 3.00307 30.4266 0.357508 30.4266H0V31.3923H11.905V30.4624H11.5475C8.93769 30.4266 8.47293 29.4966 8.47293 27.3506V11.8273C8.47293 10.5754 8.68744 9.82429 9.1522 9.39508C9.58121 8.96586 10.2247 8.78702 11.19 8.78702H11.905V7.82129H0V8.78702L0.786517 8.75125Z" fill="#78B4D7"/>
<path fill-rule="evenodd" clip-rule="evenodd" d="M38.8643 23.4876C38.8643 23.4876 38.6498 22.5219 38.614 21.9854V14.9033C38.5783 10.79 39.1145 8.71549 35.5395 8.75125V7.82129H43.8336V8.75125C40.1156 8.75125 40.5803 10.79 40.5803 14.9033V31.4281H39.4005L21.4894 12.65C21.4894 12.65 21.7039 13.6157 21.7039 14.1522V25.741C21.5967 29.9616 22.1329 30.4624 24.85 30.4266V31.3923H16.1983V30.4266C18.9153 30.4266 19.4516 30.0689 19.4516 25.3833V25.6695V14.2595L19.4159 12.4353C19.5231 10.0747 18.6651 8.71549 16.0195 8.75125V7.82129H23.992L38.8643 23.4876Z" fill="#78B4D7"/>
<path fill-rule="evenodd" clip-rule="evenodd" d="M68.892 7.35547H67.9624L67.9267 7.67738C67.8552 8.14236 67.6764 8.92926 67.1402 8.92926C66.9972 8.92926 66.6039 8.85772 66.1749 8.67888C64.3159 7.89199 61.9206 7.39124 59.9185 7.39124C55.9859 7.39124 52.4108 8.78619 49.8725 11.3615C47.5487 13.7222 46.2617 16.9055 46.2617 20.375C46.2617 23.7014 47.5845 26.4198 50.2301 28.7089C52.9114 30.9981 55.9144 31.9996 60.276 31.9996C63.9226 31.9996 65.9961 31.463 69.2137 29.7462L69.7857 29.46V23.2006C69.7857 20.5538 70.1075 20.1604 72.2525 20.0531H72.61V19.1231H62.1351V20.0531H62.4926C64.8879 20.1604 65.3169 20.5896 65.3169 22.7357V28.4585C63.5293 29.6389 62.2423 30.0681 60.6335 30.0681C58.2382 30.0681 56.0932 29.1381 54.4486 27.4928C52.5181 25.5613 51.5886 22.7714 51.5886 19.5881C51.5886 16.1901 52.4824 13.2572 54.3771 11.3972C55.8787 9.89499 57.845 9.07233 60.0973 9.07233C62.0993 9.07233 64.4589 9.93076 66.0676 11.2184C67.3904 12.2914 68.0339 13.3287 68.5702 15.0456L68.6417 15.2959H69.5355L68.892 7.35547Z" fill="#78B4D7"/>
<path fill-rule="evenodd" clip-rule="evenodd" d="M114.725 31.3202C115.297 31.2486 115.941 31.2486 116.406 30.8194C118.372 31.1056 120.374 30.6406 121.911 29.5675C122.733 28.9237 123.448 28.1368 124.056 27.3142C124.592 26.563 124.986 25.8834 125.272 25.0608C125.486 24.56 125.629 24.0235 125.736 23.487C126.308 20.9475 125.987 18.086 125.164 15.6538C125.021 15.1888 124.843 14.7596 124.664 14.3662C123.627 12.2201 122.233 9.89519 120.052 8.57178C118.837 7.82065 117.693 6.64031 117.013 5.38843C116.62 5.06652 116.263 4.60154 115.798 4.53C115.941 4.74461 116.084 4.95922 116.119 5.20959L116.084 5.24536C115.583 5.24536 115.154 4.99499 114.797 4.67308L115.19 4.3154C115.047 4.24386 114.868 4.20809 114.725 4.17232C113.224 3.99349 112.008 4.67308 110.685 5.03075L110.65 5.10229C111.472 5.45997 111.615 6.35417 112.115 6.96222C112.223 6.81915 112.437 6.92645 112.58 6.92645C112.83 6.92645 113.045 7.10529 113.259 7.03376C113.259 6.85492 113.152 6.67608 113.116 6.49724C113.259 6.4257 113.438 6.49724 113.581 6.49724C114.01 6.74761 114.689 6.46147 114.94 7.03376C114.439 7.06953 114.01 7.17683 113.545 7.28413C113.581 7.46297 113.76 7.60604 113.76 7.78488C113.367 7.60604 112.973 7.53451 112.509 7.46297L112.473 7.53451C113.009 8.17833 113.796 8.57178 114.546 8.78638C115.655 9.03676 116.62 8.50024 117.728 8.71485C120.374 9.93096 122.626 12.6851 123.591 15.2961C123.627 15.4392 123.699 15.5465 123.734 15.6896C124.557 18.086 124.7 21.019 123.877 23.5228C123.448 24.56 122.948 25.5258 122.197 26.3842C121.911 26.7419 121.589 27.0638 121.232 27.3499C120.124 28.2084 118.765 28.6018 117.371 28.2084C117.299 28.1368 117.121 28.1368 117.121 27.9938C117.156 27.7791 117.228 27.5645 117.264 27.3499C117.478 26.1696 117.621 24.8819 117.55 23.6301C117.55 23.5943 117.55 23.5228 117.55 23.4512C117.478 21.6271 117.121 19.9817 116.441 18.408C116.012 17.5138 115.512 16.5123 114.868 15.6181C114.082 14.545 113.152 13.6508 111.937 13.1858C111.186 12.9712 110.256 12.9355 109.684 13.5793C109.291 13.937 109.112 14.4019 109.184 14.9385C108.54 15.3319 107.825 15.5465 107.075 15.6181C106.896 15.6181 106.681 15.6896 106.503 15.6896C106.324 15.6896 106.145 15.6896 105.966 15.6538C105.037 15.5465 104.107 15.0458 103.392 14.4735C103.392 14.08 103.356 13.7224 103.356 13.3289C102.963 13.1143 102.606 12.7209 102.57 12.2201L102.606 12.1843C102.856 12.2559 103.035 12.3632 103.249 12.5062C103.142 11.934 103.035 11.3617 102.749 10.8609C102.498 10.7536 102.212 10.6463 101.962 10.539C101.676 10.3602 101.497 10.0025 101.462 9.68058C101.712 9.93096 102.177 9.85942 102.355 10.1098C101.998 9.07253 101.998 7.92796 101.426 6.96222C101.14 6.28263 100.389 5.96072 99.8887 5.45997C99.6741 5.20959 99.6026 4.88768 99.2451 4.85191C98.9591 4.78038 98.9234 4.45847 98.8876 4.24386C99.0664 4.27963 99.2094 4.38693 99.3881 4.4227C98.9591 3.27813 98.6016 2.02625 97.4219 1.31089L97.2073 1.45396C96.7426 1.5255 96.2778 1.56127 95.8131 1.56127C96.0276 1.27512 96.3493 1.13205 96.6353 1.02475C96.3136 0.774374 96.0276 0.738606 95.6343 0.66707C95.3841 0.917445 94.9908 1.02475 94.669 1.09628L94.6333 1.06052C94.6333 0.810141 94.5618 0.48823 94.955 0.416695C94.5618 0.237855 93.954 0.309391 93.5608 0.416695C93.4535 0.702838 93.1317 0.953213 93.1675 1.31089C92.953 1.56127 92.7742 1.84741 92.524 2.02625C92.524 1.45396 92.7742 0.953213 92.8457 0.452462C92.524 0.559766 92.1665 0.738606 91.8447 0.917445C91.3085 0.631302 90.7722 0.309391 90.2002 0.0947834C90.1644 0.0590155 90.0214 0.0590154 90.0572 0.130551C90.5219 0.48823 90.3432 1.13205 90.4147 1.6328L90.1287 1.38243C89.9857 1.02475 89.5567 0.738606 89.4852 0.309391C88.9847 0.416695 88.6629 0.523998 88.1981 0.738606L88.1267 0.774374C88.4842 0.774374 88.7702 1.06052 88.9489 1.31089C88.4127 1.34666 87.9479 1.13205 87.4474 1.09628C87.4116 1.06052 87.3401 0.988981 87.2686 0.988981C87.0184 1.09628 86.8039 1.27512 86.5536 1.45396C86.0531 1.95471 85.5168 2.49123 85.3023 3.17082C85.4811 3.20659 85.6956 3.20659 85.8029 3.27813C85.5168 3.45697 85.2666 3.74311 85.0163 3.88618C84.9091 4.27963 84.9448 4.70884 84.9091 5.13806C84.6946 5.45997 84.4086 5.74611 84.2656 6.10379C83.8008 7.57028 83.6936 9.2156 83.7651 10.8967C83.622 11.0398 83.4433 11.1113 83.3003 11.2544V12.7566H83.336C83.4075 12.4347 83.7651 12.2559 84.0153 12.0413H84.0868C84.0511 12.3632 84.0153 12.7209 84.0153 13.0785L83.5863 13.4362C83.1573 13.8297 83.5148 14.3662 83.479 14.8669C83.5148 14.9742 83.5148 15.1888 83.6221 15.1888C83.6578 15.01 83.8366 14.8669 83.9438 14.7239C84.1226 14.6881 84.3013 14.545 84.4443 14.5092C84.3371 14.8669 84.2298 15.2246 84.0868 15.5823C84.0153 15.6181 83.9438 15.6896 83.8723 15.7611C83.8008 15.8327 83.7293 15.94 83.7293 16.0473C84.0511 17.7999 84.5873 19.5168 85.1951 21.1621C84.8018 21.8417 84.5516 22.6643 84.2298 23.3439C84.1941 23.4512 84.1226 23.5585 84.0868 23.6301C83.7651 24.4885 83.6578 25.4542 83.2288 26.2769C83.05 26.1696 82.8713 26.0623 82.6925 25.9907C81.906 25.7404 80.9765 25.8834 80.4045 26.4915C79.904 26.3842 79.3677 26.4915 78.9387 26.7419C78.6527 26.9565 78.4382 27.2069 78.2952 27.5288C78.2237 27.7434 78.1522 27.958 78.1879 28.2441C77.8662 28.4587 77.6874 28.8164 77.5802 29.1741C77.4372 29.961 77.7232 30.7836 78.1522 31.3917L114.725 31.3202Z" fill="#0A1E50"/>
<path fill-rule="evenodd" clip-rule="evenodd" d="M109.865 14.7593C109.865 14.9381 109.722 15.1527 109.829 15.3316C110.008 15.117 110.294 15.1527 110.544 15.0454C111.187 14.9739 111.831 15.1885 112.439 15.3316C112.296 15.0812 112.189 14.8308 112.01 14.5804C111.652 14.5089 111.152 14.7235 111.08 14.2228C110.866 14.0439 110.544 14.187 110.329 14.187C110.151 14.3658 109.972 14.5447 109.865 14.7593Z" fill="#0A1E50"/>
<path fill-rule="evenodd" clip-rule="evenodd" d="M90.0579 14.9388L90.4869 14.5096C90.5227 14.5096 90.5584 14.5096 90.5584 14.5454L90.5227 15.368C90.7372 15.5827 90.9874 15.6184 91.2734 15.6542C91.3092 15.4396 91.4522 15.2965 91.5594 15.0819C91.6309 14.9388 91.5952 14.6885 91.7382 14.5812L91.774 14.6169C91.8097 14.8673 91.8097 15.1177 91.9527 15.3323C91.9527 15.4396 91.9885 15.5827 91.9885 15.69C92.3102 15.69 92.5962 15.6184 92.8465 15.5111C92.8465 15.225 92.918 15.0104 92.9537 14.76C93.0252 14.6885 92.8822 14.5096 93.061 14.5096C93.1682 14.7242 93.347 14.9746 93.4542 15.1892C93.8833 14.76 94.062 14.1877 94.1693 13.6154C94.062 13.4366 93.8475 13.4366 93.7045 13.3293C92.4532 12.9358 90.8444 12.8285 89.6289 13.4723C89.6289 13.9731 89.7362 14.5454 90.0579 14.9388Z" fill="#0A1E50"/>
<path fill-rule="evenodd" clip-rule="evenodd" d="M78.3312 28.745C78.2955 29.3173 78.3312 29.8538 78.367 30.3904C78.4742 30.5692 78.6887 30.7838 78.9032 30.8196L78.939 30.4261C79.0105 29.8896 78.7602 29.3531 79.0462 28.8881C79.2607 28.9596 79.4395 29.0669 79.6182 29.1385C79.6897 28.6377 79.5825 28.1012 79.1177 27.7793L78.3312 28.745Z" fill="#0A1E50"/>
<path fill-rule="evenodd" clip-rule="evenodd" d="M80.1545 27.9584C79.8685 28.8168 79.654 29.8899 80.0115 30.7841C80.226 30.641 80.4048 30.5337 80.5835 30.3549C80.5478 29.6753 80.4405 28.9241 80.8695 28.3519C81.227 28.4592 81.4773 28.8168 81.6203 29.1388C81.8705 28.8168 81.942 28.3876 81.8348 27.9942C81.8348 27.6723 81.4773 27.7438 81.2985 27.6007C81.37 27.3146 81.3343 27.0284 81.6203 26.8496L80.7265 26.9211C80.5478 27.2788 80.2975 27.6007 80.1545 27.9584Z" fill="#0A1E50"/>
<path fill-rule="evenodd" clip-rule="evenodd" d="M81.9805 30.4976C82.0162 30.5691 81.9805 30.6764 82.052 30.7122C82.1592 30.1041 82.6597 29.7107 82.9457 29.1384C83.0887 28.9595 83.053 28.7092 83.2675 28.5661C83.5535 28.5661 83.768 28.7807 84.054 28.7807C84.1255 28.8522 84.0183 28.888 84.0183 28.9953C83.9468 29.4961 83.768 29.9253 83.8038 30.426H83.8395C84.2328 30.0326 84.483 29.5676 84.769 29.1026L84.8048 28.6734C84.8763 28.1726 84.34 27.8507 83.9825 27.6361L84.3043 27.2427L83.8753 27.0996C83.3748 27.1354 82.91 27.35 82.5525 27.7792C82.0877 28.5661 82.0162 29.4961 81.9805 30.4976Z" fill="#0A1E50"/>
<path fill-rule="evenodd" clip-rule="evenodd" d="M83.9805 26.1346C84.1592 26.1703 84.3022 26.063 84.481 26.1346C85.1602 26.3849 85.8753 26.6353 86.3758 27.2076L86.9835 28.7456L87.2695 27.7799L87.055 27.2791C86.8763 26.9214 86.4115 26.9572 86.0898 26.9214C85.9468 26.7784 86.0898 26.5995 86.1255 26.4565C86.2685 25.9199 85.625 25.9557 85.3747 25.7411C85.3747 25.4192 85.0172 25.5265 84.8027 25.4907L84.7312 25.4192C84.6955 25.3477 84.5882 25.3477 84.5167 25.4192C84.5167 25.3834 84.481 25.3834 84.481 25.3477L84.3022 25.3834C84.1235 25.5623 83.9805 25.8484 83.9805 26.1346Z" fill="#0A1E50"/>
<path fill-rule="evenodd" clip-rule="evenodd" d="M84.375 24.4526C84.4108 24.5599 84.4465 24.6314 84.518 24.703C84.8398 24.6314 85.1615 24.381 85.5548 24.5241C86.0553 24.9533 86.5558 25.4183 87.1636 25.6687L87.3781 25.6329C87.5211 25.6687 87.6641 25.6687 87.7356 25.8475C87.8071 26.0621 87.6283 26.1694 87.5568 26.3125C87.8786 26.5629 87.7713 26.9921 87.9501 27.2782L88.4863 26.5629C88.3791 26.241 88.4863 25.7402 88.0216 25.7045C87.8428 25.6329 87.7356 25.4541 87.7713 25.2752C87.4496 24.9891 87.0563 24.846 86.7345 24.5599C86.4843 24.3453 86.3413 24.0234 85.9838 23.9518C85.7693 23.8445 85.519 23.773 85.233 23.7015C84.7683 23.6299 84.7325 24.2022 84.375 24.4526Z" fill="#0A1E50"/>
<path fill-rule="evenodd" clip-rule="evenodd" d="M85.0859 22.9865L85.1574 23.1295C85.5149 23.0938 85.8724 22.9507 86.23 22.9507C86.4802 23.0938 86.802 23.0938 87.0522 23.2011C87.2667 23.4872 87.4812 23.7734 87.7672 23.9522C88.375 24.0237 88.6968 24.6676 88.9113 25.1683V24.9537C88.9828 24.6318 88.9113 24.2741 88.7683 23.988C88.6253 23.8449 88.4108 23.7376 88.2678 23.5945C88.232 23.4872 88.2678 23.4515 88.3035 23.3799C88.089 23.1295 87.7315 22.9865 87.4455 22.8076C87.0522 22.2354 86.3015 22.3784 85.6937 22.2354L85.0859 22.9865Z" fill="#0A1E50"/>
<path fill-rule="evenodd" clip-rule="evenodd" d="M85.0859 17.5853C85.1574 17.8 85.2289 18.0861 85.2647 18.3365C85.4792 17.8715 85.8724 17.6926 86.23 17.2992C86.0155 17.1561 85.7652 17.0846 85.5507 17.0488C85.4077 17.1919 85.1574 17.3707 85.0859 17.5853Z" fill="#0A1E50"/>
<path fill-rule="evenodd" clip-rule="evenodd" d="M86.4102 20.0171L86.7319 19.6952C87.0537 19.3733 87.3397 18.9798 87.3754 18.5149C87.1252 18.3718 86.8392 18.4791 86.5889 18.5506C86.5532 19.0156 86.4459 19.4806 86.4102 20.0171Z" fill="#0A1E50"/>
<path fill-rule="evenodd" clip-rule="evenodd" d="M86.6641 21.0552C87.1646 21.091 87.6651 21.1983 88.0941 20.9122L88.5231 19.5888C88.3801 19.5888 88.2728 19.5172 88.1298 19.553C87.8438 20.161 87.2718 20.7333 86.6641 21.0552Z" fill="#0A1E50"/>
<path fill-rule="evenodd" clip-rule="evenodd" d="M86.8042 16.3332C87.126 16.8339 87.698 17.3704 88.27 17.5135C88.1985 16.9055 87.6623 16.4762 87.412 15.9397V15.7609C87.1975 15.5463 86.9472 15.4032 86.7327 15.2959C86.6612 15.6893 86.7327 16.0113 86.8042 16.3332Z" fill="#0A1E50"/>
<path fill-rule="evenodd" clip-rule="evenodd" d="M88.5898 21.0907C88.9831 21.1623 89.4121 21.0907 89.7696 20.9834C90.3059 20.8761 90.5919 20.2681 90.7706 19.8389H90.1271L89.4121 20.5185C89.1261 20.6973 88.8401 20.9119 88.5898 21.0907Z" fill="#0A1E50"/>
<path fill-rule="evenodd" clip-rule="evenodd" d="M88.5195 15.6895C88.6268 16.2617 88.877 16.7983 89.1988 17.2632L89.2703 16.1544L88.5195 15.6895Z" fill="#0A1E50"/>
<path fill-rule="evenodd" clip-rule="evenodd" d="M90.9524 18.5514C90.9881 18.1938 90.8451 17.7646 90.8094 17.3711C90.5949 17.228 90.2731 17.228 90.0586 17.085C90.0586 17.693 90.4876 18.158 90.9524 18.5514Z" fill="#0A1E50"/>
<path fill-rule="evenodd" clip-rule="evenodd" d="M90.2695 22.2712C90.7343 22.1281 91.199 21.9493 91.5923 21.7347C91.8783 21.3412 92.2716 20.9835 92.3431 20.5186C92.0213 20.6259 91.6996 20.5186 91.3778 20.6616C91.199 21.0193 91.056 21.4128 90.6985 21.6631C90.6628 21.9135 90.3768 22.0923 90.2695 22.2712Z" fill="#0A1E50"/>
<path fill-rule="evenodd" clip-rule="evenodd" d="M90.9844 23.2018L91.5206 23.9171C91.8066 24.0244 92.1999 23.9887 92.4501 23.8098L92.2357 23.166C91.8781 23.3091 91.4134 23.2733 90.9844 23.2018Z" fill="#0A1E50"/>
<path fill-rule="evenodd" clip-rule="evenodd" d="M91.918 17.979L92.1325 18.9448C92.633 18.5155 92.7402 17.9075 92.7402 17.2637C92.4542 17.6214 92.2755 17.8002 91.918 17.979Z" fill="#0A1E50"/>
<path fill-rule="evenodd" clip-rule="evenodd" d="M93.3438 19.6953C93.3438 19.8384 93.3795 19.9815 93.4868 20.0888C94.0588 20.3034 94.1303 20.983 94.6665 21.2691C95.024 21.4122 95.4173 21.2333 95.7033 21.0903C95.4888 20.8399 95.2028 20.661 94.9883 20.3749C94.8453 20.3034 94.6665 20.1961 94.7023 20.0172L93.3438 19.6953Z" fill="#0A1E50"/>
<path fill-rule="evenodd" clip-rule="evenodd" d="M93.8104 23.1658C94.0606 23.4519 94.3824 23.595 94.7399 23.6665C94.6684 23.595 94.7756 23.6665 94.7756 23.6308L94.3466 22.665C94.1321 22.665 93.8819 22.7008 93.7031 22.7008C93.7389 22.8439 93.7746 23.0227 93.8104 23.1658Z" fill="#0A1E50"/>
<path fill-rule="evenodd" clip-rule="evenodd" d="M94.5969 18.6226C94.3824 18.1576 94.3109 17.5496 94.2394 17.0488C94.0249 17.2992 93.7747 17.478 93.5959 17.7642C93.4887 18.3007 94.2752 18.4438 94.5969 18.6226Z" fill="#0A1E50"/>
<path fill-rule="evenodd" clip-rule="evenodd" d="M95.4902 18.1214C95.7405 18.4791 96.3483 18.336 96.67 18.2287C96.527 17.9783 96.0265 17.7995 95.9192 17.5134C95.8835 17.0126 95.7762 16.5119 95.5975 16.0469C95.3472 16.7265 95.0255 17.4418 95.4902 18.1214Z" fill="#0A1E50"/>
<path fill-rule="evenodd" clip-rule="evenodd" d="M95.957 19.6961C96.7078 20.2326 97.4228 20.8764 98.4596 20.626C98.5311 20.5903 98.6741 20.5903 98.6741 20.4829C98.3881 20.3041 98.0663 20.161 97.7446 19.9822L97.3871 19.4814H97.2083C96.815 19.5887 96.386 19.6603 95.957 19.6961Z" fill="#0A1E50"/>
<path fill-rule="evenodd" clip-rule="evenodd" d="M95.9922 25.6688H96.0279C96.4569 25.3111 96.9932 25.2038 97.5295 25.0607C97.6725 25.0965 97.5652 25.2753 97.7082 25.3111C98.03 25.168 98.4232 25.2038 98.745 25.0965C99.1382 25.0965 99.46 25.1322 99.7818 25.2753C100.032 25.5972 100.497 25.5614 100.819 25.7761L100.783 25.2753C100.104 24.4884 99.031 24.4169 98.03 24.4169L97.9942 24.3096C97.744 24.3096 97.4937 24.3453 97.2792 24.4526C96.9574 24.4526 96.6715 24.6315 96.3497 24.703C96.2067 25.0249 96.0637 25.3826 95.9922 25.6688Z" fill="#0A1E50"/>
<path fill-rule="evenodd" clip-rule="evenodd" d="M96.5639 16.6193C96.8499 17.0128 97.279 17.2989 97.7795 17.1916C97.5292 16.9412 97.2432 16.6908 97.2432 16.3332C97.3147 15.6893 96.5997 15.6178 96.2422 15.2959C96.3137 15.7251 96.3137 16.2259 96.5639 16.6193Z" fill="#0A1E50"/>
<path fill-rule="evenodd" clip-rule="evenodd" d="M96.4922 26.9567H96.5637C96.9569 26.7063 97.529 26.8852 97.9222 26.6348C98.1367 26.5275 98.1367 26.8136 98.3155 26.8852C98.673 27.0998 98.7087 27.7794 99.245 27.6005C99.8528 27.9224 99.7098 28.6736 99.7098 29.2101L100.282 28.8524C100.246 28.5663 100.389 28.2086 100.21 27.9582C100.067 27.6363 99.674 27.6005 99.4953 27.3502C99.7098 26.9567 99.2092 26.8136 99.102 26.5275L99.1377 26.4917L99.9243 26.599C100.175 26.7779 100.282 27.064 100.353 27.3144C100.961 27.4217 101.104 28.1013 101.319 28.5663C101.462 28.2801 101.497 27.9224 101.605 27.6363C101.605 27.3859 101.283 27.3859 101.14 27.2786C101.104 26.9209 100.925 26.5633 100.604 26.3129C99.9243 26.134 99.3165 25.7764 98.6015 25.7764L97.9937 25.9552C97.672 26.0267 97.2787 25.9194 97.0284 26.1698C96.5994 26.2771 96.5994 26.7063 96.4922 26.9567Z" fill="#0A1E50"/>
<path fill-rule="evenodd" clip-rule="evenodd" d="M96.8867 23.9525L97.0297 24.0241C97.3157 23.881 97.6375 23.7379 97.9592 23.5948C98.4598 23.4518 98.8173 24.0241 99.2463 23.6664C99.3893 23.5591 99.5323 23.7021 99.6395 23.8094C99.8183 24.1314 100.212 24.0956 100.533 24.2029C100.39 23.7737 100.176 23.2014 99.6395 23.1299C99.425 23.0226 99.1748 23.0583 98.9603 22.9153C98.3882 22.3072 98.0307 23.416 97.423 23.1656C97.2085 23.3802 96.9225 23.5948 96.8867 23.9525Z" fill="#0A1E50"/>
<path fill-rule="evenodd" clip-rule="evenodd" d="M97.0273 27.5287C97.2776 27.7433 97.4921 28.0653 97.8854 28.0295C98.3501 28.2441 98.1356 28.8522 98.3859 29.1741L98.6361 28.9237H98.6004L98.6361 28.8879V28.9237C98.7076 28.7091 98.6004 28.3156 98.4931 28.0653C98.3144 27.958 98.1356 28.0653 97.9569 27.958C97.9211 27.7076 97.7781 27.6003 97.6351 27.4572C97.5278 27.3857 97.3491 27.493 97.2419 27.493L97.0273 27.5287Z" fill="#0A1E50"/>
<path fill-rule="evenodd" clip-rule="evenodd" d="M97.957 18.5508C98.2073 18.9442 98.672 19.1946 99.0296 19.4808C99.3513 19.6238 99.7446 19.6596 100.066 19.5881C99.7446 19.3377 99.4586 19.0515 99.2083 18.7296C99.1011 18.5866 99.0653 18.4077 98.958 18.2646C98.6005 18.3362 98.2073 18.3004 97.957 18.5508Z" fill="#0A1E50"/>
<path fill-rule="evenodd" clip-rule="evenodd" d="M98.3516 15.9042C98.7091 16.3334 99.2096 16.1546 99.6743 16.1546V16.1188L98.9236 15.5107C98.7448 15.5823 98.5303 15.7611 98.3516 15.9042Z" fill="#0A1E50"/>
<path fill-rule="evenodd" clip-rule="evenodd" d="M84.8008 8.96538L85.2298 10.2888C85.2298 9.53767 85.5515 8.89384 85.48 8.14272L85.8018 7.67773L85.1225 7.89234C84.9438 8.21425 84.8008 8.57193 84.8008 8.96538Z" fill="#0A1E50"/>
<path fill-rule="evenodd" clip-rule="evenodd" d="M85.0859 6.67607L85.6579 6.35416V5.45996C85.4077 5.60303 85.2647 5.85341 85.0859 6.06802V6.67607Z" fill="#0A1E50"/>
<path fill-rule="evenodd" clip-rule="evenodd" d="M97.0286 8.00022C96.8856 8.17906 96.6711 8.21483 96.4923 8.2506C96.8141 7.67831 96.9571 6.89142 96.7068 6.2476C96.8856 6.17606 97.0643 6.17606 97.2073 6.06876L97.6006 5.71108C98.1368 5.3534 97.9223 4.63804 98.1368 4.13729C97.8866 3.70807 97.7793 3.20732 97.4218 2.88541H97.4576C97.1716 2.49197 96.5996 2.5635 96.2063 2.34889C95.67 2.17005 95.241 2.52773 94.8478 2.77811C94.669 2.81388 94.7763 3.02848 94.5975 3.02848C94.4903 3.31463 94.383 3.60077 94.3115 3.88691C93.5965 3.77961 92.81 3.85115 92.2022 4.28036C91.8805 4.06575 91.523 3.99422 91.1654 3.92268C90.9152 3.88691 90.5934 3.95845 90.4147 3.81538C90.1287 3.49347 90.0572 2.92118 89.5924 2.84964C89.4136 2.77811 89.3779 2.59927 89.3779 2.4562C89.0561 2.42043 88.7701 2.24159 88.4841 2.20582C88.0194 1.99122 87.6261 2.34889 87.2686 2.5635C87.1256 2.63504 86.9468 2.63504 86.8038 2.74234C86.5536 3.17156 86.3033 3.565 86.1246 4.02999C86.1603 4.38766 86.3391 4.74534 86.5178 5.06725C86.6966 5.53224 87.2329 5.92568 87.6619 6.10452C87.4474 6.81988 87.4474 7.71408 87.6619 8.42944L87.6261 8.46521C87.5546 8.46521 87.4831 8.46521 87.4116 8.42944C87.5189 9.1448 87.8406 9.75285 88.3769 10.2894C88.5556 10.3609 88.5199 10.5755 88.5914 10.7186C88.6271 10.7901 88.6629 10.9332 88.6271 10.969C87.4831 10.9332 86.4463 11.2193 85.5526 11.7559C85.3023 11.8632 85.4096 12.1851 85.4096 12.4354C86.0531 12.0062 86.7681 11.6843 87.5189 11.5412C87.8406 11.5055 88.2339 11.4339 88.5556 11.5412L88.5914 12.1851C87.7334 12.6501 86.7681 12.9004 86.0173 13.6516C86.0173 13.8662 85.9816 14.1523 86.0531 14.3311L86.7323 13.7946C87.3759 13.2939 88.0551 12.8647 88.8059 12.6143C89.0204 12.8647 89.1991 13.115 89.4852 13.2581C89.9499 12.972 90.4147 12.7574 90.9509 12.6143C91.2369 12.4354 91.666 12.6143 91.8447 12.2924L91.9877 11.6128C91.952 11.6128 91.952 11.577 91.9162 11.577C91.5587 11.3624 91.3442 11.0405 91.3799 10.6113C91.2727 10.6828 91.1297 10.7186 90.9867 10.7186C90.8794 10.6828 90.7722 10.647 90.7007 10.5397C90.7007 10.3967 90.6292 10.1821 90.7722 10.0748C91.2369 9.78862 91.8805 9.75285 92.4882 9.82439C92.953 9.89592 93.5965 9.86015 93.7395 10.3967C93.7037 10.5397 93.7395 10.7186 93.5607 10.8259C93.382 10.8974 93.2032 10.8259 93.0602 10.7544C92.953 11.112 92.7385 11.5055 92.3452 11.6485L92.381 12.0778C92.4167 12.2566 92.4525 12.5785 92.7385 12.507C93.4535 12.6858 94.0613 13.0435 94.669 13.4369C94.8835 13.2223 95.0265 13.0077 95.1695 12.7931C96.242 13.1508 97.2073 13.9735 98.1011 14.7246L98.1368 14.1165C97.2788 13.3654 96.3493 12.8289 95.3483 12.3997C95.384 12.1851 95.4198 12.0062 95.4198 11.7916C96.5996 11.8632 97.7078 12.2208 98.6731 12.7931V12.2566C97.6721 11.7201 96.5638 11.3624 95.3483 11.3266C95.3125 11.2551 95.2768 11.1478 95.3125 11.112C95.8845 11.0047 96.3135 10.3967 96.4566 9.86015C96.7426 9.50247 97.2073 9.1448 97.1001 8.60828C97.1001 8.57251 97.1358 8.53674 97.1358 8.46521C97.0286 8.2506 97.0643 8.14329 97.0286 8.00022Z" fill="#0A1E50"/>
<path fill-rule="evenodd" clip-rule="evenodd" d="M98.0273 9.89521L98.6351 9.71637L98.7066 9.39445C98.8854 8.8937 98.5279 8.53603 98.3491 8.14258L98.0273 9.89521Z" fill="#0A1E50"/>
<path fill-rule="evenodd" clip-rule="evenodd" d="M99.5675 12.2198C99.8535 12.5417 100.14 13.0424 100.64 12.8993C100.604 12.6847 100.497 12.5059 100.426 12.3271C100.283 12.184 100.247 11.719 99.9965 11.8978C99.782 11.7548 99.7463 11.5402 99.6033 11.3613C99.5318 11.6117 99.5675 11.9694 99.5675 12.2198Z" fill="#0A1E50"/>
<path fill-rule="evenodd" clip-rule="evenodd" d="M99.6758 14.4018C99.783 14.5448 99.8188 14.7594 99.926 14.9025C100.141 15.0456 100.427 15.0098 100.677 14.9741C100.891 14.9383 101.034 15.1529 101.249 15.0098C100.999 14.831 100.856 14.5448 100.605 14.3302C100.284 14.1156 99.9618 14.3302 99.6758 14.4018Z" fill="#0A1E50"/>
<path fill-rule="evenodd" clip-rule="evenodd" d="M100.068 17.8005C100.569 18.0866 101.212 18.4085 101.891 18.3012C101.963 18.2654 102.106 18.2654 102.106 18.1939C101.677 18.0508 101.248 17.6216 100.819 17.5501C100.569 17.1924 100.247 17.6574 99.9609 17.6216C99.9609 17.6931 100.032 17.7647 100.068 17.8005Z" fill="#0A1E50"/>
<path fill-rule="evenodd" clip-rule="evenodd" d="M101.605 24.3096L101.713 24.5599C101.82 25.3111 102.32 26.0264 102.034 26.8849C102.249 27.0279 102.32 27.3141 102.463 27.4929H102.499C102.678 26.8491 102.535 26.2053 102.463 25.5614C102.535 24.9534 101.927 24.6315 101.605 24.3096Z" fill="#0A1E50"/>
<path fill-rule="evenodd" clip-rule="evenodd" d="M101.711 16.763C102.104 17.0491 102.712 17.0849 103.141 16.9418C102.855 16.7987 102.569 16.6199 102.319 16.4053L101.711 16.763Z" fill="#0A1E50"/>
<path fill-rule="evenodd" clip-rule="evenodd" d="M103.533 19.052C103.497 19.3739 103.712 19.6243 103.926 19.7674C103.998 19.5885 104.141 19.4455 104.141 19.2309C104.069 18.909 103.891 18.6228 103.605 18.4082C103.569 18.6228 103.497 18.8016 103.533 19.052Z" fill="#0A1E50"/>
<path fill-rule="evenodd" clip-rule="evenodd" d="M103.573 22.4137C103.537 22.7714 103.895 22.8072 104.074 22.986C104.217 23.1649 104.002 23.2722 104.002 23.4152C104.288 23.7729 104.431 24.2021 104.431 24.6671C104.538 24.2021 104.717 23.7729 104.789 23.3437C104.753 23.0218 104.252 23.0933 104.324 22.7356C104.467 22.378 104.288 22.0203 104.181 21.6626C104.145 21.6268 104.074 21.5195 104.038 21.5195C103.859 21.8057 103.537 22.0203 103.573 22.4137Z" fill="#0A1E50"/>
<path fill-rule="evenodd" clip-rule="evenodd" d="M104.57 20.6617L104.964 21.4128C105.142 21.377 105.25 21.2339 105.393 21.1266C105.5 20.8047 105.214 20.6259 105.142 20.3755C105.071 20.1967 105.142 19.9463 104.999 19.8032C104.892 19.7317 104.785 19.6602 104.678 19.6602L104.57 20.6617Z" fill="#0A1E50"/>
<path fill-rule="evenodd" clip-rule="evenodd" d="M105.07 18.6943C105.356 18.8732 105.714 19.1593 105.893 19.4812C106.143 20.2324 106.572 20.9119 106.858 21.6273C106.965 22.1281 107.072 22.593 107.18 23.0938C107.215 23.2369 107.215 23.4872 107.394 23.4515C107.466 22.8792 107.573 22.3427 107.573 21.7704C107.394 21.52 107.144 21.4127 106.929 21.2696V21.2339C106.965 21.0908 107.072 20.9477 107.215 20.9835C107.287 20.9119 107.466 20.8404 107.394 20.6973C107.001 20.3039 107.037 19.6601 106.429 19.5528C106.214 19.4812 106.179 19.2309 106.143 19.052C105.857 18.7659 105.428 18.6943 105.07 18.6943Z" fill="#0A1E50"/>
<path fill-rule="evenodd" clip-rule="evenodd" d="M105.395 22.6643C105.788 23.022 105.645 23.5228 105.609 23.9878C105.538 24.2739 105.895 24.0951 106.002 24.2381C106.217 24.56 106.11 25.0608 106.002 25.4542C106.217 25.1681 106.431 24.882 106.574 24.56C106.574 24.417 106.717 24.3812 106.717 24.2381C106.789 24.0235 106.539 24.1308 106.431 24.0951C106.36 24.0593 106.253 24.0235 106.288 23.8804C106.467 23.5228 106.288 23.0578 106.217 22.7001C106.145 22.414 106.253 21.9848 106.11 21.7344C105.931 22.0563 105.252 22.1278 105.395 22.6643Z" fill="#0A1E50"/>
<path fill-rule="evenodd" clip-rule="evenodd" d="M106.109 17.4426C106.753 18.1222 107.253 18.766 107.933 19.4098C107.933 19.1237 107.897 18.8733 107.897 18.5872C107.79 18.3726 107.611 18.2295 107.432 18.0864C106.932 18.0507 106.646 17.3353 106.109 17.4426Z" fill="#0A1E50"/>
<path fill-rule="evenodd" clip-rule="evenodd" d="M107.824 20.9476C107.824 21.0191 107.86 21.0549 107.896 21.1264C108.182 21.5914 108.468 22.0922 108.646 22.5929C108.575 22.0564 108.968 21.3768 108.468 20.9476C108.396 20.7688 108.182 20.8403 108.039 20.8403L107.824 20.9476Z" fill="#0A1E50"/>
<path fill-rule="evenodd" clip-rule="evenodd" d="M109.578 26.3485C109.793 26.4558 110.043 26.2769 110.257 26.1696C110.436 26.1339 110.579 26.2412 110.722 26.3127C110.794 26.42 110.722 26.5273 110.758 26.6346C111.187 26.7419 111.652 26.9207 112.009 27.1711L112.116 27.0638C112.152 26.7419 111.902 26.5273 111.652 26.3485C111.509 26.2412 111.258 26.3127 111.151 26.1696C111.223 26.0623 111.223 25.8835 111.223 25.7404C110.972 25.7404 110.829 25.6689 110.615 25.5616C110.508 25.5258 110.365 25.4185 110.293 25.5616C109.936 25.7762 109.936 26.1696 109.578 26.3485Z" fill="#0A1E50"/>
<path fill-rule="evenodd" clip-rule="evenodd" d="M110.076 17.0852C110.255 17.0494 110.47 16.9779 110.613 16.8348C111.113 16.3698 111.828 16.6917 112.4 16.6917C112.293 16.4771 112.15 16.2983 112.007 16.1194C111.792 16.0479 111.614 15.9406 111.363 15.9406C110.863 15.6545 110.541 16.1552 110.148 16.3698C110.041 16.5844 110.005 16.8706 110.076 17.0852Z" fill="#0A1E50"/>
<path fill-rule="evenodd" clip-rule="evenodd" d="M110.115 18.5867C110.115 18.551 110.115 18.551 110.15 18.551C110.222 18.6225 110.15 18.7656 110.258 18.7656C110.436 18.6583 110.615 18.551 110.794 18.4079C111.294 18.4079 111.58 17.9429 112.081 17.9429C112.903 18.086 113.69 18.2648 114.405 18.6583C114.369 18.1933 113.94 17.7283 113.511 17.5137C113.261 17.4421 113.082 17.5494 112.939 17.6925C112.438 18.0144 112.689 17.2275 112.367 17.2275C111.902 17.3706 111.437 17.5137 110.937 17.4779C110.651 17.5852 110.436 17.8714 110.115 17.8356C110.043 18.086 110.007 18.3721 110.115 18.5867Z" fill="#0A1E50"/>
<path fill-rule="evenodd" clip-rule="evenodd" d="M110.434 20.2325C110.577 20.4113 110.827 20.3755 111.078 20.4113L111.721 20.1609C111.721 20.0536 111.543 20.0179 111.578 19.8748C111.757 19.6602 112.007 19.8032 112.222 19.7317C112.544 19.6959 112.865 19.374 113.151 19.6244C113.151 19.6602 113.151 19.6959 113.151 19.7317C113.044 19.9463 113.223 20.0894 113.402 20.1967C113.759 20.2682 114.117 20.5901 114.474 20.4471C114.438 20.1609 114.367 19.8748 114.295 19.5886C114.009 19.5529 113.795 19.3025 113.509 19.1952C113.366 19.3025 113.223 19.4098 113.08 19.374C112.508 19.231 111.829 18.8733 111.256 19.2667C111.042 19.5171 110.684 19.4456 110.398 19.5529C110.363 19.7675 110.363 20.0179 110.434 20.2325Z" fill="#0A1E50"/>
<path fill-rule="evenodd" clip-rule="evenodd" d="M110.686 24.5963C110.651 24.7036 110.508 24.9182 110.758 24.9897C111.223 24.9897 111.83 24.7751 112.188 25.1328C112.295 25.2401 112.259 25.419 112.259 25.562L112.867 26.0628C112.939 25.7409 113.046 25.4547 113.046 25.1328C113.01 24.8824 112.867 24.6678 112.688 24.5248C112.295 24.5248 112.045 24.0598 111.616 24.0955C111.401 24.0598 111.187 24.2386 110.972 24.2386C110.829 24.3817 110.794 24.489 110.686 24.5963Z" fill="#0A1E50"/>
<path fill-rule="evenodd" clip-rule="evenodd" d="M110.864 21.127C110.971 21.3416 111.078 21.6635 111.257 21.6635C111.686 21.4847 112.329 21.3416 112.794 21.5562C112.973 21.592 112.973 21.7708 112.937 21.8781C113.187 22.0212 113.473 22.1285 113.759 22.3073L113.688 21.8781C113.688 21.4131 113.08 21.3416 113.044 20.8766C112.544 20.6978 112.008 20.662 111.471 20.8051C111.293 20.9482 111.042 20.9482 110.864 20.9839C110.828 21.0555 110.864 21.0912 110.864 21.127Z" fill="#0A1E50"/>
<path fill-rule="evenodd" clip-rule="evenodd" d="M111.007 23.5231C111.293 23.4516 111.472 23.1297 111.794 23.0939C112.258 23.0939 112.687 23.3085 112.973 23.702C113.152 23.8093 113.116 24.1312 113.331 24.1312C113.259 23.7735 113.367 23.4516 113.367 23.0581C113.045 22.5574 112.294 22.9508 112.008 22.3428L111.472 22.3785C111.079 22.4858 111.186 22.9151 111.114 23.237C111.079 23.3443 110.971 23.4158 111.007 23.5231Z" fill="#0A1E50"/>
<path fill-rule="evenodd" clip-rule="evenodd" d="M113.688 26.7418C113.902 27.2068 114.403 27.5287 114.474 28.0653C114.581 27.9222 114.689 27.7791 114.76 27.6003C114.76 27.4572 114.581 27.4572 114.51 27.3499C114.438 27.1711 114.546 26.9922 114.581 26.8134C114.474 26.5272 114.26 26.2769 114.009 26.1338L113.688 26.7418Z" fill="#0A1E50"/>
<path fill-rule="evenodd" clip-rule="evenodd" d="M114.582 25.5616L115.118 26.277C115.333 25.9193 115.333 25.3828 115.261 24.9536C115.226 24.882 115.118 24.739 114.975 24.8105C114.797 25.0251 114.761 25.347 114.582 25.5616Z" fill="#0A1E50"/>
<path fill-rule="evenodd" clip-rule="evenodd" d="M112.438 5.42397C112.616 5.53127 112.831 5.60281 113.045 5.63857C113.188 5.56704 113.403 5.4955 113.582 5.56704C113.868 5.74588 114.189 5.53127 114.511 5.53127C114.225 5.2809 113.903 5.10206 113.582 4.95898C113.188 5.03052 112.831 5.31666 112.438 5.42397Z" fill="#0A1E50"/>
<path fill-rule="evenodd" clip-rule="evenodd" d="M115.332 6.10364C115.725 6.13941 116.011 6.49709 116.262 6.78323C116.583 6.819 116.834 7.06938 117.048 7.31975L116.905 6.92631C116.834 6.53286 116.583 6.24672 116.333 5.9248C115.976 5.96057 115.618 5.96057 115.332 6.10364Z" fill="#0A1E50"/>
<path fill-rule="evenodd" clip-rule="evenodd" d="M87.8415 2.88477L88.056 2.92053C88.628 3.20668 89.5575 3.34975 89.5932 4.17241C89.0212 4.38702 88.4492 4.70893 87.9845 5.17391C87.627 4.81623 86.9119 4.99507 86.8047 4.38702C86.9477 3.77896 87.1622 3.02784 87.8415 2.88477Z" fill="#78B4D7"/>
<path fill-rule="evenodd" clip-rule="evenodd" d="M88.4119 6.6051C89.0912 6.53357 89.7347 6.64087 90.414 6.56934C90.5927 6.64087 90.7715 6.78394 90.843 6.96278C90.8072 7.74968 90.5927 8.5008 90.557 9.32346C90.271 9.46654 89.9492 9.71691 89.8777 10.0388C89.5917 10.1104 89.3772 10.2892 89.0912 10.3965C88.9839 10.1461 88.984 9.78845 89.1985 9.57384C89.4845 9.18039 90.2352 9.25193 90.1637 8.60811C90.3425 8.28619 90.1637 7.89275 90.1637 7.57084C90.0922 7.32046 90.0207 7.64237 89.9135 7.64237C89.6632 7.67814 89.4487 7.71391 89.2342 7.6066C89.0912 7.42777 88.8767 7.32046 88.8409 7.10585C88.6264 6.99855 88.3762 6.85548 88.3047 6.64087L88.4119 6.6051Z" fill="#78B4D7"/>
<path fill-rule="evenodd" clip-rule="evenodd" d="M89.1992 11.4337C89.521 11.4695 89.8427 11.3264 90.1287 11.5052C90.0572 11.6125 89.9142 11.6483 89.807 11.6841L89.3065 11.8987C89.1277 11.8271 89.235 11.541 89.1992 11.4337Z" fill="#78B4D7"/>
<path fill-rule="evenodd" clip-rule="evenodd" d="M90.4867 5.28096C90.8084 5.17366 91.1302 4.95905 91.4877 5.06635C91.2374 5.31673 91.0587 5.63864 90.8799 5.92478L89.8789 5.88902C89.9862 5.63864 90.2722 5.38827 90.4867 5.28096Z" fill="#78B4D7"/>
<path fill-rule="evenodd" clip-rule="evenodd" d="M93.4519 5.03073C93.881 4.9592 93.8452 5.49572 94.2385 5.53148C94.31 5.60302 94.4172 5.71032 94.3815 5.81763C94.167 5.88916 93.8452 5.85339 93.5949 5.92493C93.2732 5.74609 93.4877 5.1738 92.9514 5.20957C92.9157 5.1738 92.8799 5.0665 92.9514 5.03073C93.0587 4.99496 93.2732 4.99496 93.4519 5.03073Z" fill="#78B4D7"/>
<path fill-rule="evenodd" clip-rule="evenodd" d="M93.201 6.99769C93.3798 6.74732 93.6658 6.71155 93.916 6.67578L95.8108 6.71155C95.8823 6.78309 95.7393 6.85462 95.7393 6.92616C95.6321 7.03346 95.4533 7.06923 95.346 7.17653C95.0958 7.17653 95.1315 7.46268 94.9528 7.60575C94.6668 7.89189 94.2735 7.74882 93.9518 7.71305C93.8445 7.64151 93.7015 7.53421 93.6658 7.39114L93.5943 7.46268C93.7015 7.89189 93.6658 8.32111 93.773 8.75032L94.2378 9.03646C94.2378 9.71605 95.0243 9.53721 95.3818 9.89489C95.3103 10.1453 95.1315 10.3599 94.9528 10.5387C94.6668 10.2526 94.345 10.0737 94.0233 9.96643C93.9875 9.57298 93.5585 9.32261 93.3083 9.14377C93.2368 8.42841 93.2368 7.67728 93.0938 6.99769H93.201Z" fill="#78B4D7"/>
<path fill-rule="evenodd" clip-rule="evenodd" d="M93.8824 11.54H94.7762L94.6689 12.005L93.7751 11.6116C93.7394 11.54 93.8109 11.54 93.8824 11.54Z" fill="#78B4D7"/>
<path fill-rule="evenodd" clip-rule="evenodd" d="M95.4548 3.20679L96.0983 2.99219C96.4916 3.17103 96.8134 3.38563 97.1709 3.63601C97.4569 4.13676 97.3854 4.81635 97.2781 5.38864C97.0636 5.60324 96.6346 5.38864 96.4916 5.74632H96.4558C96.2056 5.06673 95.5263 4.4229 94.8828 4.13676C94.9901 3.74331 95.0973 3.4214 95.4548 3.20679Z" fill="#78B4D7"/>
<path fill-rule="evenodd" clip-rule="evenodd" d="M110.828 31.2489H114.761C115.333 31.1773 115.976 31.1773 116.441 30.7481C118.407 31.0343 120.409 30.5693 121.947 29.4962C122.769 28.8524 123.484 28.0655 124.092 27.2429C124.628 26.4917 125.021 25.8122 125.307 24.9895C125.522 24.4887 125.665 23.9522 125.772 23.4157C126.344 20.8762 126.022 18.0148 125.2 15.5825C125.057 15.1176 124.878 14.6883 124.699 14.2949C123.663 12.1488 122.268 9.8239 120.087 8.50049C118.872 7.74936 117.728 6.56902 117.049 5.31714C116.655 4.95947 116.298 4.53025 115.833 4.45871C115.976 4.67332 116.119 4.88793 116.155 5.13831L116.119 5.17407C115.619 5.17407 115.19 4.9237 114.832 4.60179L115.225 4.24411C115.082 4.17257 114.904 4.1368 114.761 4.10104C113.259 3.9222 112.044 4.60179 110.721 4.95947L110.685 5.031C111.507 5.38868 111.65 6.28288 112.151 6.89093C112.258 6.74786 112.473 6.85516 112.616 6.85516C112.866 6.85516 113.08 7.034 113.295 6.96247C113.295 6.74786 113.188 6.60479 113.152 6.42595C113.295 6.35441 113.474 6.42595 113.617 6.42595C114.046 6.67633 114.725 6.39018 115.011 6.96247C114.51 6.99824 114.081 7.10554 113.617 7.21284C113.652 7.39168 113.831 7.53475 113.831 7.71359C113.438 7.53475 113.045 7.46322 112.58 7.39168L112.544 7.46322C113.08 8.10704 113.867 8.50049 114.618 8.7151C115.726 8.96547 116.691 8.42895 117.764 8.64356C120.409 9.85967 122.662 12.6138 123.627 15.2249C123.663 15.3679 123.734 15.4752 123.77 15.6183C124.592 18.0148 124.735 20.9477 123.913 23.4515C123.484 24.4887 122.983 25.4545 122.233 26.3129C121.947 26.6706 121.625 26.9925 121.267 27.2786C120.159 28.1371 118.8 28.5305 117.406 28.1371C117.335 28.0655 117.156 28.0655 117.156 27.9225C117.192 27.7079 117.263 27.4932 117.299 27.3144C117.549 26.1341 117.656 24.8464 117.585 23.5945C117.585 23.523 117.585 23.4872 117.585 23.4157C117.513 21.5915 117.156 19.9462 116.477 18.3724C116.048 17.4782 115.547 16.4767 114.904 15.5825C114.153 14.5095 113.188 13.6153 111.972 13.1503C111.221 12.9357 110.292 12.8999 109.72 13.5438C109.326 13.9014 109.148 14.3664 109.219 14.9029C108.576 15.2964 107.861 15.511 107.11 15.5825C106.931 15.5825 106.717 15.6541 106.538 15.6541C106.359 15.6541 106.18 15.6541 106.002 15.6183C105.072 15.511 104.143 15.0102 103.392 14.438C103.392 14.0445 103.356 13.6868 103.356 13.2934C102.927 13.0788 102.605 12.6853 102.57 12.1846L102.605 12.1488C102.856 12.2204 103.034 12.3277 103.249 12.4707C103.142 11.8984 103.034 11.3262 102.748 10.8254C102.498 10.7181 102.212 10.6108 101.962 10.5035C101.676 10.3247 101.497 9.96697 101.461 9.64506C101.712 9.89544 102.176 9.8239 102.355 10.0743C101.998 9.03701 101.998 7.89243 101.426 6.9267C101.14 6.24711 100.389 5.9252 99.8883 5.42445C99.6738 5.17407 99.6023 4.85216 99.2448 4.81639C98.9588 4.74486 98.923 4.42295 98.8873 4.20834C99.066 4.24411 99.209 4.35141 99.3878 4.38718C98.9588 3.24261 98.6013 1.99073 97.4215 1.27537L97.207 1.38267C96.7422 1.45421 96.2775 1.48998 95.8127 1.48998C96.0272 1.20383 96.349 1.06076 96.635 0.95346C96.3132 0.703085 96.0272 0.667317 95.6339 0.595781C95.3837 0.846156 94.9904 0.95346 94.6687 1.025L94.6329 0.989228C94.6329 0.738852 94.5614 0.381173 94.9547 0.345405C94.5614 0.166566 93.9537 0.238102 93.5604 0.345405C93.4531 0.631549 93.1314 0.881924 93.1671 1.2396C92.9526 1.48998 92.7739 1.77612 92.5594 1.95496C92.5594 1.38267 92.8096 0.881924 92.8811 0.381173C92.5594 0.488477 92.2019 0.667317 91.8801 0.846156C91.3439 0.560013 90.8076 0.238102 90.2356 0.0234943C90.1998 -0.0122736 90.0568 -0.0122736 90.0926 0.0592622C90.5573 0.416941 90.3786 1.06076 90.4501 1.56151L90.1641 1.31114C90.0211 0.917692 89.5921 0.667317 89.5206 0.238102C89.0201 0.345405 88.6983 0.452709 88.2335 0.667317L88.162 0.703084C88.5195 0.703084 88.8055 0.989228 88.9843 1.2396C88.448 1.27537 87.9833 1.06076 87.4828 1.025C87.3755 0.881924 87.3398 0.810388 87.2325 0.810388C86.9823 0.917692 86.7678 1.09653 86.5175 1.27537C86.017 1.77612 85.4807 2.31264 85.2662 2.99223C85.445 3.028 85.6595 3.028 85.7667 3.1353C85.4807 3.31414 85.2305 3.60028 84.9802 3.74336C84.873 4.1368 84.9087 4.56602 84.873 4.99523C84.6585 5.31714 84.3724 5.60329 84.2294 5.96097C83.7647 7.42745 83.6574 9.07277 83.7289 10.7539C83.5859 10.8969 83.3714 10.9685 83.2642 11.0758V12.578H83.2999C83.3714 12.2561 83.7289 12.0773 83.9792 11.8627H84.0507C84.0149 12.1846 83.9792 12.5423 83.9792 12.8999L83.5502 13.2576C83.1212 13.6153 83.4787 14.1876 83.4429 14.6526C83.4787 14.7956 83.4787 14.9745 83.5859 15.0102C83.6217 14.8314 83.8004 14.6883 83.9077 14.5453C84.0864 14.5095 84.2652 14.3664 84.4082 14.3307C84.3009 14.6883 84.1937 15.046 84.0507 15.4037C83.9792 15.4395 83.9077 15.511 83.8362 15.5825C83.7647 15.6541 83.6932 15.7614 83.6932 15.8687C84.0149 17.6213 84.5512 19.3382 85.159 20.9835C84.7657 21.6631 84.5155 22.4857 84.1937 23.1653C84.1579 23.2726 84.0864 23.3799 84.0507 23.4515C83.7289 24.3099 83.6217 25.2756 83.1927 26.0983C83.0139 25.991 82.8352 25.8837 82.6564 25.8122C81.8699 25.5618 80.9404 25.7049 80.3684 26.3129C79.8679 26.2056 79.3316 26.3129 78.9026 26.5633C78.6166 26.7779 78.4021 27.0283 78.2591 27.3502C78.1876 27.5648 78.1161 27.7794 78.1518 28.0655C77.8301 28.2801 77.6513 28.6378 77.5441 28.9955C77.4011 29.7824 77.6513 30.6051 78.1161 31.2131L110.828 31.2489Z" fill="#0A1E50"/>
<path fill-rule="evenodd" clip-rule="evenodd" d="M125.164 15.5829C125.021 15.1179 124.842 14.6887 124.664 14.2953C123.627 12.1492 122.233 9.82426 120.052 8.50085C118.836 7.74973 117.692 6.56939 117.013 5.31751C116.62 4.95983 116.262 4.53062 115.797 4.45908C115.94 4.67369 116.083 4.88829 116.119 5.13867L116.083 5.17444C115.583 5.17444 115.154 4.92406 114.796 4.60215L115.19 4.24447C115.047 4.17294 114.868 4.13717 114.725 4.1014C113.223 3.92256 112.008 4.60215 110.685 4.95983L110.649 5.03137C111.472 5.38904 111.615 6.28324 112.115 6.8913C112.222 6.74823 112.437 6.85553 112.58 6.85553C112.83 6.85553 113.045 7.03437 113.259 6.9986C113.259 6.78399 113.152 6.64092 113.116 6.46208C113.259 6.39055 113.438 6.46208 113.581 6.46208C114.01 6.71246 114.689 6.42631 114.975 6.9986C114.475 7.03437 114.046 7.14167 113.581 7.24898C113.617 7.42782 113.795 7.57089 113.795 7.74973C113.402 7.57089 113.009 7.49935 112.544 7.42782L112.508 7.49935C113.045 8.14317 113.831 8.53662 114.582 8.75123C115.69 9.0016 116.655 8.46508 117.728 8.67969C120.373 9.8958 122.626 12.6499 123.591 15.261C123.627 15.4041 123.698 15.5114 123.734 15.6544C124.556 18.0509 124.699 20.9839 123.877 23.4876C123.448 24.5249 122.948 25.4906 122.197 26.349C121.911 26.7067 121.589 27.0286 121.231 27.3148C120.123 28.1732 118.765 28.5666 117.37 28.1732C117.299 28.1017 117.12 28.1017 117.12 27.9586C117.156 27.744 117.227 27.5294 117.263 27.3505C117.513 26.1344 117.621 24.8826 117.549 23.6307C117.549 23.5591 117.549 23.5234 117.549 23.4518C117.478 21.6277 117.12 19.9823 116.441 18.4086C116.012 17.5144 115.511 16.5129 114.868 15.6187C114.117 14.5456 113.152 13.6514 111.936 13.1864C111.186 12.9718 110.256 12.9361 109.684 13.5799C109.291 13.9376 109.112 14.4026 109.183 14.9391C108.54 15.3325 107.825 15.5471 107.074 15.6187C106.895 15.6187 106.681 15.6902 106.502 15.6902C106.323 15.6902 106.145 15.6902 105.966 15.6544C105.036 15.5471 104.107 15.0464 103.356 14.4741C103.356 14.0806 103.32 13.723 103.32 13.3295C102.891 13.1149 102.57 12.7215 102.534 12.2207L102.57 12.1849C102.82 12.2565 102.999 12.3638 103.213 12.5069C103.106 11.9346 102.999 11.3623 102.713 10.8615C102.462 10.7542 102.176 10.6469 101.926 10.5396C101.64 10.3608 101.461 10.0031 101.426 9.68119C101.676 9.93157 102.141 9.86003 102.319 10.1104C101.962 9.07314 101.962 7.92857 101.39 6.96283C101.104 6.28324 100.353 5.96133 99.8525 5.46058C99.638 5.21021 99.5665 4.88829 99.209 4.85253C98.923 4.78099 98.8873 4.45908 98.8515 4.24447C99.0303 4.28024 99.1733 4.38754 99.352 4.42331C98.923 3.27874 98.5655 2.02686 97.3857 1.3115L97.1712 1.41881C96.7065 1.49034 96.2417 1.52611 95.7769 1.52611C95.9915 1.23997 96.3132 1.0969 96.5992 0.989593C96.2775 0.739217 95.9915 0.703449 95.5982 0.631914C95.3479 0.882289 94.9547 0.989593 94.6329 1.06113L94.5972 1.02536C94.5972 0.774985 94.5257 0.417306 94.9189 0.381538C94.5257 0.202699 93.9179 0.274235 93.5246 0.381538C93.4174 0.667682 93.0956 0.918057 93.1314 1.27574C92.9169 1.52611 92.7381 1.81225 92.5236 1.99109C92.5236 1.41881 92.7739 0.918057 92.8454 0.417306C92.5236 0.52461 92.1661 0.703449 91.8444 0.882289C91.3081 0.596146 90.7718 0.274235 90.1998 0.0596271C90.1641 0.0238592 90.0211 0.0238592 90.0568 0.095395C90.5216 0.453074 90.3428 1.0969 90.4143 1.59765L90.1283 1.34727C89.9853 0.953825 89.5563 0.703449 89.4848 0.274235C88.9843 0.381538 88.6625 0.488842 88.1978 0.703449L88.1263 0.739217C88.4838 0.739217 88.7698 1.02536 88.9485 1.27574C88.4123 1.3115 87.9475 1.0969 87.447 1.06113C87.3755 0.882289 87.3398 0.810753 87.2325 0.810753C86.9823 0.918057 86.7678 1.0969 86.5175 1.27574C86.017 1.77649 85.4807 2.31301 85.2662 2.9926C85.445 3.02836 85.6595 3.02836 85.7667 3.13567C85.4807 3.31451 85.2305 3.60065 84.9802 3.74372C84.873 4.13717 84.9087 4.56638 84.873 4.9956C84.6585 5.31751 84.3724 5.60365 84.2294 5.96133C83.7647 7.42782 83.6574 9.07314 83.7289 10.7542C83.5859 10.8973 83.3714 10.9688 83.2642 11.0761V12.5784H83.2999C83.3714 12.2565 83.7289 12.0776 83.9792 11.863H84.0507C84.0149 12.1849 83.9792 12.5426 83.9792 12.9003L83.5502 13.258C83.1212 13.6157 83.4787 14.1879 83.4429 14.6529C83.4787 14.796 83.4787 14.9748 83.5859 15.0106C83.6217 14.8318 83.8004 14.6887 83.9077 14.5456C84.0864 14.5099 84.2652 14.3668 84.4082 14.331C84.3009 14.6887 84.1937 15.0464 84.0507 15.4041C83.9792 15.4398 83.9077 15.5114 83.8362 15.5829C83.7647 15.6544 83.6932 15.7617 83.6932 15.869C84.0149 17.6217 84.5512 19.3385 85.159 20.9839C84.7657 21.6634 84.5155 22.4861 84.1937 23.1657C84.1579 23.273 84.0864 23.3803 84.0507 23.4518C83.7289 24.3103 83.6217 25.276 83.1927 26.0987C83.0139 25.9914 82.8352 25.8841 82.6564 25.8125C81.8699 25.5621 80.9404 25.7052 80.3684 26.3133C79.8679 26.206 79.3316 26.3133 78.9026 26.5636C78.6166 26.7783 78.4021 27.0286 78.2591 27.3505C78.1876 27.5651 78.1161 27.7798 78.1518 28.0659C77.8301 28.2805 77.6513 28.6382 77.5441 28.9959C77.4011 29.7828 77.6513 30.6054 78.1161 31.2135H91.1293C90.9506 30.9989 90.7718 30.677 90.6288 30.3908C90.3428 29.9616 90.5573 29.3893 90.5216 28.8886C90.7718 28.352 91.0578 27.8155 91.3439 27.279C91.4154 27.1717 91.4511 27.0644 91.5226 26.9571L92.1304 26.7425C92.4521 26.7425 92.7024 26.5279 93.0241 26.5994C93.4174 26.9929 93.4174 26.206 93.8107 26.1702C94.7402 26.0629 95.6339 26.1344 96.1345 26.9213C96.1345 27.0286 96.3132 27.0286 96.2775 27.1359C96.1702 27.1717 96.063 27.1002 95.92 27.1002C95.3479 26.9571 94.7044 26.5994 94.1682 26.9213C94.1324 27.0644 94.1324 27.1717 94.0967 27.3148C94.0609 27.4578 94.0609 27.6009 94.0252 27.7082C94.3827 27.8155 94.7044 28.0659 94.9547 28.352C95.1334 27.9944 95.5267 27.8155 95.8842 27.7082C96.1702 27.7798 96.5277 27.7798 96.778 27.9586C97.2427 28.3878 97.0282 29.1032 96.9567 29.6755C97.3857 29.9258 97.8505 30.0331 98.2795 30.2835C98.065 30.4623 97.8147 30.5339 97.5645 30.6054L96.8495 30.4623C96.778 30.3908 96.635 30.3908 96.5992 30.2835C96.349 30.5339 96.063 30.8558 95.92 31.1777H105.93C105.787 30.8916 105.644 30.6412 105.465 30.355C105.251 29.9258 105.358 29.3178 105.322 28.8528L106.252 27.4221C106.752 27.4221 107.36 27.2075 107.896 27.3148C107.932 27.3148 107.968 27.279 107.968 27.279C108.182 27.1359 108.254 26.7425 108.611 26.7783C109.219 26.5994 109.684 26.8856 110.149 27.1717C110.149 27.2075 110.113 27.2432 110.113 27.279C109.934 27.6009 109.541 27.2432 109.291 27.3505C109.183 27.4578 109.326 27.6009 109.362 27.744C109.469 27.8871 109.255 27.8513 109.183 27.8871C109.04 27.9228 108.862 27.8871 108.754 27.744C108.719 27.7082 108.754 27.6724 108.683 27.6724C108.54 27.8871 108.361 28.1017 108.29 28.352C108.468 28.5309 108.683 28.674 108.754 28.8886C108.933 29.1389 108.611 29.3178 108.576 29.5324C108.54 29.5681 108.468 29.5681 108.468 29.5324C108.325 29.4608 108.182 29.2105 108.004 29.282C107.861 29.9258 108.039 30.6054 107.968 31.2492C108.254 31.3208 108.576 31.2492 108.897 31.2492L109.04 29.8543C109.183 28.9601 109.72 28.209 110.328 27.5294C111.007 27.0644 111.436 27.9944 111.936 28.2805C112.008 28.2805 111.972 28.3878 112.008 28.4236C112.008 28.5666 111.829 28.6382 111.758 28.674C111.436 28.7813 111.221 28.4593 111.043 28.2447C110.864 28.4593 110.792 28.7097 110.578 28.8528L110.649 28.8886C110.9 29.1389 111.114 29.3893 111.186 29.7112C111.15 29.9974 111.007 30.2835 110.757 30.4266C110.542 30.0689 110.399 29.7112 110.256 29.3535C110.256 29.3535 110.256 29.3893 110.22 29.3893C109.827 29.4966 109.72 29.9616 109.648 30.3193C109.684 30.677 109.398 30.82 109.469 31.1777H114.725C115.297 31.1062 115.94 31.1062 116.405 30.677C118.371 30.9631 120.373 30.4981 121.911 29.4251C122.733 28.7813 123.448 27.9944 124.056 27.1717C124.592 26.4206 124.985 25.741 125.271 24.9183C125.486 24.4176 125.629 23.8811 125.736 23.3445C126.308 20.8765 125.986 18.0151 125.164 15.5829Z" fill="#78B4D7"/>
<path fill-rule="evenodd" clip-rule="evenodd" d="M91.3797 29.2455C91.6657 29.0667 92.1304 29.0309 92.202 28.6017C92.0947 28.5302 91.9874 28.3871 91.8444 28.3871L91.5584 28.4587C91.5942 28.2798 91.6657 28.101 91.7372 27.8864L92.7025 27.5645C92.5595 27.9937 92.5237 28.566 92.488 29.0667C92.5595 29.8178 92.7025 30.6047 93.06 31.2485H92.0232C91.8802 30.569 91.1652 30.0682 91.3797 29.2455Z" fill="#78B4D7"/>
<path fill-rule="evenodd" clip-rule="evenodd" d="M93.6692 28.3516H93.7407L94.4557 28.9954L94.5629 28.9596C94.4914 29.7107 94.4557 30.4619 94.4557 31.213H93.7049C93.5619 30.4976 93.2759 29.7107 93.3117 28.9238C93.4189 28.7808 93.4904 28.5304 93.6692 28.3516Z" fill="#78B4D7"/>
<path fill-rule="evenodd" clip-rule="evenodd" d="M95.2385 29.0678C95.3815 28.8889 95.453 28.567 95.7033 28.5312C95.9178 28.5312 96.0966 28.567 96.2396 28.7101C96.4898 29.032 96.2396 29.4612 96.1681 29.7831C96.0608 30.2839 95.8821 30.7846 95.739 31.2496H94.9883L95.2385 29.0678Z" fill="#78B4D7"/>
<path fill-rule="evenodd" clip-rule="evenodd" d="M106.395 28.8529C106.574 29.0675 106.609 29.3537 106.86 29.5325C107.074 29.2464 107.11 28.7814 107.038 28.388L106.824 28.1733C107.11 28.1018 107.396 28.1018 107.646 28.0303C107.539 28.4237 107.289 28.7814 107.36 29.2464C107.36 29.926 107.467 30.5698 107.539 31.2494H106.717C106.431 30.6056 106.145 29.9975 106.145 29.2464C106.216 29.1033 106.288 28.9602 106.395 28.8529Z" fill="#78B4D7"/>
<path fill-rule="evenodd" clip-rule="evenodd" d="M109.865 14.688C109.865 14.8668 109.722 15.0814 109.829 15.2603C110.008 15.0457 110.294 15.0814 110.544 14.9741C111.187 14.9026 111.831 15.1172 112.439 15.2603C112.296 15.0099 112.189 14.7595 112.01 14.5092C111.688 14.4376 111.152 14.6522 111.08 14.1515C110.866 13.9726 110.544 14.1157 110.329 14.1157C110.151 14.2945 110.008 14.4734 109.865 14.688Z" fill="#0A1E50"/>
<path fill-rule="evenodd" clip-rule="evenodd" d="M90.0579 14.9027L90.4869 14.4735C90.5227 14.4735 90.5584 14.4735 90.5584 14.5093L90.5227 15.3319C90.7372 15.5465 90.9874 15.5823 91.2734 15.6181C91.3092 15.4034 91.4522 15.2246 91.5594 15.0458C91.6309 14.9027 91.5952 14.6523 91.7382 14.545L91.774 14.5808C91.8097 14.8312 91.8097 15.0815 91.9527 15.2961C91.9527 15.4034 91.9885 15.5465 91.9885 15.6538C92.3102 15.6538 92.5962 15.5823 92.8465 15.475C92.8465 15.1888 92.918 14.9742 92.9537 14.7239C93.0252 14.6523 92.8822 14.4735 93.061 14.4735C93.1682 14.6881 93.347 14.9385 93.4542 15.1531C93.8833 14.7239 94.062 14.1516 94.1693 13.5793C94.062 13.4004 93.8475 13.4004 93.7045 13.2931C92.4532 12.8997 90.8444 12.7924 89.6289 13.4362C89.6289 13.937 89.7362 14.4735 90.0579 14.9027Z" fill="#0A1E50"/>
<path fill-rule="evenodd" clip-rule="evenodd" d="M78.3664 28.7093C78.3306 29.2815 78.3664 29.8181 78.4021 30.3546C78.5094 30.5334 78.7239 30.748 78.9384 30.7838L78.9741 30.3904C79.0456 29.8538 78.7954 29.3173 79.0814 28.8881C79.2959 28.9596 79.5104 29.0669 79.6534 29.1385C79.7249 28.6377 79.6177 28.1012 79.1529 27.7793L78.3664 28.7093Z" fill="#0A1E50"/>
<path fill-rule="evenodd" clip-rule="evenodd" d="M80.1897 27.9223C79.9036 28.7807 79.6891 29.8537 80.0467 30.7479C80.2612 30.6049 80.4399 30.4976 80.6187 30.3187C80.5829 29.6391 80.4757 28.888 80.9047 28.3157C81.2622 28.423 81.5124 28.7807 81.6554 29.1026C81.9057 28.7807 81.9772 28.3515 81.8699 27.9581C81.8699 27.6361 81.5124 27.7077 81.3337 27.5646C81.4052 27.2785 81.3694 26.9923 81.6554 26.8135L80.7617 26.885C80.5472 27.2427 80.2969 27.5288 80.1897 27.9223Z" fill="#0A1E50"/>
<path fill-rule="evenodd" clip-rule="evenodd" d="M81.9766 30.4614C82.0123 30.533 81.9766 30.6403 82.0481 30.676C82.1553 30.068 82.6558 29.6388 82.9418 29.1022C83.0848 28.9234 83.0491 28.673 83.2636 28.53C83.5496 28.53 83.7641 28.7446 84.0501 28.7446C84.1216 28.8161 84.0144 28.8876 84.0144 28.9592C83.9429 29.4599 83.7641 29.8891 83.7999 30.3899H83.8356C84.2289 29.9607 84.4791 29.5315 84.7651 29.0665L84.8009 28.6373C84.8724 28.1365 84.3361 27.8146 83.9786 27.6L84.3004 27.2065L83.8714 27.0635C83.3708 27.0992 82.9061 27.3139 82.5486 27.7431C82.0838 28.53 82.0123 29.4599 81.9766 30.4614Z" fill="#0A1E50"/>
<path fill-rule="evenodd" clip-rule="evenodd" d="M83.9805 26.0984C84.1592 26.1342 84.3022 26.0269 84.481 26.0984C85.1602 26.3488 85.8753 26.5992 86.3758 27.1715L86.9835 28.7095L87.2695 27.7437L87.055 27.243C86.8763 26.8853 86.4115 26.9211 86.0898 26.8853C85.9468 26.7422 86.0898 26.5634 86.1255 26.4203C86.2685 25.8838 85.625 25.9196 85.3747 25.705C85.3747 25.3831 85.0172 25.4904 84.8027 25.4546L84.7312 25.3831C84.6955 25.3115 84.5882 25.3115 84.5167 25.3831C84.5167 25.3473 84.481 25.3473 84.481 25.3115L84.3022 25.3473C84.1235 25.5261 83.9805 25.7765 83.9805 26.0984Z" fill="#0A1E50"/>
<path fill-rule="evenodd" clip-rule="evenodd" d="M84.4102 24.3822C84.4459 24.4895 84.4817 24.561 84.5532 24.6325C84.8749 24.561 85.1967 24.3106 85.5899 24.4537C86.0904 24.8829 86.591 25.3479 87.1987 25.5625L87.4132 25.5267C87.5562 25.5625 87.6992 25.5625 87.7707 25.7413C87.8422 25.9559 87.6635 26.0632 87.592 26.2063C87.9137 26.4567 87.8065 26.8859 87.9852 27.1721L88.5215 26.4567C88.4142 26.1348 88.5215 25.634 88.0567 25.5983C87.878 25.5267 87.7707 25.3479 87.8065 25.1691C87.4847 24.8829 87.0915 24.7398 86.7697 24.4537C86.5195 24.2391 86.3407 23.9172 86.0189 23.8456C85.8044 23.7026 85.5542 23.6668 85.2682 23.5953C84.7677 23.5595 84.7319 24.1676 84.4102 24.3822Z" fill="#0A1E50"/>
<path fill-rule="evenodd" clip-rule="evenodd" d="M85.1211 22.9507L85.1926 23.0938C85.5501 23.058 85.9076 22.9149 86.2651 22.9149C86.5154 23.058 86.8371 23.058 87.0874 23.1653C87.3019 23.4515 87.5164 23.7376 87.8024 23.9164C88.4102 23.988 88.7319 24.6318 88.9464 25.1326V24.9179C89.0179 24.596 88.9464 24.2384 88.8392 23.9522C88.6962 23.8091 88.4817 23.7018 88.3387 23.5945C88.3029 23.4872 88.3387 23.4515 88.3744 23.3799C88.1599 23.1295 87.8024 22.9865 87.5164 22.8076C87.1231 22.2354 86.3724 22.4142 85.7646 22.2354L85.1211 22.9507Z" fill="#0A1E50"/>
<path fill-rule="evenodd" clip-rule="evenodd" d="M85.0859 17.5492C85.1574 17.7638 85.2289 18.05 85.2647 18.3003C85.4792 17.8354 85.8724 17.6208 86.23 17.2631C86.0155 17.12 85.7652 17.0485 85.5507 17.0127C85.4077 17.1558 85.1574 17.2988 85.0859 17.5492Z" fill="#0A1E50"/>
<path fill-rule="evenodd" clip-rule="evenodd" d="M86.4453 19.9458L86.7671 19.6239C87.0888 19.2662 87.3748 18.9086 87.4106 18.4436C87.1603 18.3005 86.8743 18.4078 86.6241 18.4793C86.5526 18.9801 86.4453 19.4451 86.4453 19.9458Z" fill="#0A1E50"/>
<path fill-rule="evenodd" clip-rule="evenodd" d="M86.6602 20.983C87.1607 21.0187 87.6612 21.126 88.0902 20.8399L88.5192 19.5165C88.3762 19.5165 88.2689 19.445 88.1259 19.4807C87.8399 20.0888 87.3037 20.6968 86.6602 20.983Z" fill="#0A1E50"/>
<path fill-rule="evenodd" clip-rule="evenodd" d="M86.8395 16.298C87.1613 16.7988 87.7333 17.3353 88.3053 17.4784C88.2338 16.8703 87.6975 16.4411 87.4473 15.9046V15.7257C87.2328 15.5111 86.9825 15.368 86.768 15.2607C86.6608 15.6184 86.768 15.9761 86.8395 16.298Z" fill="#0A1E50"/>
<path fill-rule="evenodd" clip-rule="evenodd" d="M88.625 21.0556C89.0183 21.1271 89.4473 21.0556 89.8048 20.9483C90.341 20.8052 90.627 20.2329 90.8058 19.8037H90.1623L89.4473 20.4833C89.1255 20.6264 88.8753 20.841 88.625 21.0556Z" fill="#0A1E50"/>
<path fill-rule="evenodd" clip-rule="evenodd" d="M88.5547 15.6182C88.6619 16.1905 88.9122 16.727 89.234 17.192L89.3055 16.0831L88.5547 15.6182Z" fill="#0A1E50"/>
<path fill-rule="evenodd" clip-rule="evenodd" d="M90.9485 18.4792C90.9842 18.1215 90.8412 17.6923 90.8055 17.2988C90.591 17.1558 90.2692 17.1558 90.0547 17.0127C90.0547 17.6207 90.5194 18.1215 90.9485 18.4792Z" fill="#0A1E50"/>
<path fill-rule="evenodd" clip-rule="evenodd" d="M90.2695 22.236C90.7343 22.093 91.199 21.9141 91.5923 21.6995C91.8783 21.3061 92.2716 20.9484 92.3431 20.4834C91.9856 20.5907 91.6996 20.4834 91.3778 20.6265C91.199 20.9841 91.056 21.3776 90.6985 21.628C90.6628 21.8783 90.4125 22.0214 90.2695 22.236Z" fill="#0A1E50"/>
<path fill-rule="evenodd" clip-rule="evenodd" d="M90.9844 23.1295L91.5206 23.8449C91.8066 23.9522 92.1999 23.9164 92.4501 23.7376L92.2357 23.0938C91.8781 23.2368 91.4134 23.2011 90.9844 23.1295Z" fill="#0A1E50"/>
<path fill-rule="evenodd" clip-rule="evenodd" d="M91.9141 17.9439L92.1286 18.9096C92.6291 18.4804 92.7363 17.8723 92.7363 17.2285C92.4503 17.5504 92.2716 17.765 91.9141 17.9439Z" fill="#0A1E50"/>
<path fill-rule="evenodd" clip-rule="evenodd" d="M93.3828 19.6602C93.3828 19.8032 93.4186 19.9463 93.4901 20.0536C94.0621 20.2682 94.1336 20.9478 94.6698 21.2339C95.0274 21.377 95.4206 21.1982 95.7066 21.0551C95.4921 20.8047 95.2061 20.6259 94.9916 20.3397C94.8486 20.2682 94.6698 20.1609 94.7056 19.9821L93.3828 19.6602Z" fill="#0A1E50"/>
<path fill-rule="evenodd" clip-rule="evenodd" d="M93.8455 23.1297C94.0958 23.4158 94.4175 23.5589 94.7751 23.6304C94.7035 23.5589 94.8108 23.6304 94.8108 23.5946L94.3818 22.6289C94.1673 22.6289 93.917 22.6647 93.7383 22.6647C93.7383 22.8077 93.774 22.9866 93.8455 23.1297Z" fill="#0A1E50"/>
<path fill-rule="evenodd" clip-rule="evenodd" d="M94.5969 18.5865C94.3824 18.1215 94.3109 17.5134 94.2394 17.0127C94.0249 17.2631 93.7747 17.4419 93.5959 17.7281C93.4887 18.2288 94.2752 18.3719 94.5969 18.5865Z" fill="#0A1E50"/>
<path fill-rule="evenodd" clip-rule="evenodd" d="M95.4901 18.0866C95.7404 18.4443 96.3481 18.3012 96.6699 18.2297C96.5269 17.9793 96.0264 17.8005 95.9191 17.5143C95.8834 17.0136 95.7761 16.5128 95.5974 16.0479C95.3471 16.6559 95.0611 17.407 95.4901 18.0866Z" fill="#0A1E50"/>
<path fill-rule="evenodd" clip-rule="evenodd" d="M95.957 19.6599C96.7078 20.1964 97.4228 20.8403 98.4596 20.5899C98.5311 20.5541 98.6741 20.5541 98.6741 20.4468C98.3881 20.268 98.0663 20.0891 97.7446 19.9461L97.3871 19.4453H97.2083C96.815 19.5526 96.386 19.5884 95.957 19.6599Z" fill="#0A1E50"/>
<path fill-rule="evenodd" clip-rule="evenodd" d="M95.9922 25.5975H96.0279C96.4569 25.2398 96.9932 25.1325 97.5295 24.9894C97.6725 25.0252 97.5652 25.204 97.7082 25.2398C98.03 25.0967 98.4232 25.1325 98.745 25.0252C99.1382 25.0252 99.46 25.0609 99.7818 25.204C100.032 25.5259 100.497 25.4902 100.819 25.7048L100.783 25.204C100.104 24.4171 99.031 24.3456 98.03 24.3456L97.9942 24.2383C97.744 24.2383 97.4937 24.274 97.2792 24.3814C96.9574 24.3814 96.6715 24.5602 96.3497 24.6317C96.2067 24.9894 96.0994 25.3113 95.9922 25.5975Z" fill="#0A1E50"/>
<path fill-rule="evenodd" clip-rule="evenodd" d="M96.5639 16.548C96.8499 16.9415 97.279 17.2276 97.7795 17.1203C97.5292 16.8699 97.2432 16.6196 97.2432 16.2619C97.3147 15.6181 96.5997 15.5465 96.2422 15.2246C96.3494 15.6896 96.3137 16.1903 96.5639 16.548Z" fill="#0A1E50"/>
<path fill-rule="evenodd" clip-rule="evenodd" d="M96.4922 26.9206H96.5637C96.9569 26.6702 97.529 26.849 97.8865 26.5987C98.101 26.4914 98.101 26.7775 98.244 26.849C98.6015 27.0636 98.6372 27.7432 99.1735 27.5644C99.7813 27.8863 99.6383 28.6374 99.6383 29.174L100.21 28.8163C100.175 28.5301 100.318 28.1725 100.139 27.9221C99.9958 27.6002 99.6025 27.5644 99.4237 27.314C99.6382 26.9206 99.1377 26.7775 99.0305 26.4914L99.0662 26.4556L99.8528 26.5629C100.103 26.7417 100.21 27.0279 100.282 27.2783C100.89 27.3856 101.033 28.0651 101.247 28.5301C101.39 28.244 101.426 27.8863 101.533 27.6002C101.533 27.3498 101.211 27.3498 101.068 27.2425C101.033 26.849 100.854 26.5271 100.532 26.2768C99.8528 26.0979 99.245 25.7402 98.53 25.7402L97.9222 25.9191C97.5647 25.9906 97.2072 25.8833 96.9569 26.1337C96.6352 26.241 96.5994 26.6344 96.4922 26.9206Z" fill="#0A1E50"/>
<path fill-rule="evenodd" clip-rule="evenodd" d="M96.8867 23.8812L97.0297 23.9528C97.3157 23.8097 97.6375 23.6666 97.9592 23.5236C98.4598 23.3805 98.8173 23.9528 99.2463 23.5951C99.3893 23.4878 99.5323 23.6309 99.6395 23.7382C99.8183 24.0601 100.212 24.0243 100.533 24.1316C100.39 23.7024 100.176 23.1301 99.6395 23.0586C99.425 22.9513 99.1748 22.987 98.9603 22.844C98.3882 22.2359 98.0307 23.3447 97.423 23.0943C97.2085 23.3447 96.9582 23.5593 96.8867 23.8812Z" fill="#0A1E50"/>
<path fill-rule="evenodd" clip-rule="evenodd" d="M97.0273 27.4575C97.2776 27.6721 97.4921 27.994 97.8854 27.9582C98.3501 28.1728 98.1356 28.7809 98.3859 29.1028L98.6361 28.8524H98.6004L98.6361 28.8166V28.8524C98.7076 28.6378 98.6004 28.2443 98.4931 27.994C98.3144 27.8867 98.1356 27.994 97.9569 27.8867C97.9211 27.6363 97.7781 27.529 97.6351 27.3859C97.5278 27.3144 97.3491 27.4217 97.2419 27.4217L97.0273 27.4575Z" fill="#0A1E50"/>
<path fill-rule="evenodd" clip-rule="evenodd" d="M97.957 18.4795C98.2073 18.873 98.672 19.1233 99.0296 19.4095C99.3513 19.5525 99.7446 19.5883 100.066 19.5168C99.7446 19.2664 99.4586 18.9803 99.2083 18.6583C99.1011 18.5153 99.0653 18.3364 98.958 18.1934C98.6005 18.2649 98.2073 18.2649 97.957 18.4795Z" fill="#0A1E50"/>
<path fill-rule="evenodd" clip-rule="evenodd" d="M98.3516 15.8681C98.6733 16.2973 99.2096 16.1184 99.6743 16.1184V16.0827L98.9236 15.4746C98.7448 15.5104 98.5303 15.6892 98.3516 15.8681Z" fill="#0A1E50"/>
<path fill-rule="evenodd" clip-rule="evenodd" d="M84.8008 8.92925L85.2298 10.2527C85.2298 9.50153 85.5873 8.85771 85.48 8.10658L85.8018 7.6416L85.1225 7.85621C84.9795 8.17812 84.8365 8.50003 84.8008 8.92925Z" fill="#0A1E50"/>
<path fill-rule="evenodd" clip-rule="evenodd" d="M85.0859 6.60417L85.6579 6.28226V5.42383C85.4077 5.5669 85.2647 5.81728 85.0859 6.03188V6.60417Z" fill="#0A1E50"/>
<path fill-rule="evenodd" clip-rule="evenodd" d="M97.0286 7.96409C96.8856 8.14293 96.6711 8.1787 96.4923 8.21447C96.8141 7.64218 96.9571 6.85529 96.7068 6.21146C96.8856 6.13993 97.0286 6.13993 97.2073 6.03262L97.6006 5.67494C98.1368 5.31727 97.9223 4.60191 98.1368 4.10116C97.8866 3.67194 97.7793 3.17119 97.4218 2.84928H97.4576C97.1716 2.45583 96.5996 2.52737 96.2063 2.31276C95.67 2.13392 95.241 2.4916 94.8478 2.74198C94.669 2.77774 94.7763 2.99235 94.5975 2.99235C94.4903 3.27849 94.383 3.56464 94.3115 3.85078C93.5965 3.74348 92.81 3.81501 92.2022 4.24423C91.8805 4.02962 91.523 3.95809 91.1654 3.88655C90.9152 3.85078 90.5934 3.92232 90.4147 3.77925C90.1287 3.45733 90.0572 2.88505 89.5924 2.81351C89.4136 2.74198 89.3779 2.56314 89.3779 2.42006C89.0561 2.3843 88.7701 2.20546 88.4841 2.16969C88.0194 1.95508 87.6261 2.31276 87.2686 2.52737C87.1256 2.5989 86.9468 2.5989 86.8038 2.70621C86.5536 3.13542 86.3033 3.52887 86.1246 3.99385C86.1603 4.35153 86.3391 4.70921 86.5178 5.03112C86.6966 5.4961 87.2329 5.88955 87.6619 6.06839C87.4474 6.78375 87.4474 7.67795 87.6619 8.39331L87.6261 8.42907C87.5546 8.42907 87.4831 8.42907 87.4116 8.39331C87.5189 9.10866 87.8406 9.71672 88.3769 10.2532C88.5556 10.3248 88.5199 10.5394 88.5914 10.6825C88.6271 10.754 88.6629 10.8971 88.6271 10.9328C87.4831 10.8971 86.4463 11.1832 85.5526 11.7197C85.3023 11.827 85.4096 12.1489 85.4096 12.3993C86.0531 11.9701 86.7681 11.6482 87.5189 11.5051C87.8406 11.4693 88.2339 11.3978 88.5556 11.5051L88.5914 12.1489C87.7334 12.6139 86.7681 12.8643 86.0173 13.6154C86.0173 13.83 85.9816 14.1162 86.0531 14.295L86.7323 13.7585C87.3759 13.2577 88.0551 12.8285 88.8059 12.5782C89.0204 12.8285 89.1991 13.0789 89.4852 13.222C89.9499 12.9358 90.4147 12.7212 90.9509 12.5782C91.2369 12.3993 91.666 12.5782 91.8447 12.2562L91.952 11.5766C91.9162 11.5766 91.9162 11.5409 91.8805 11.5409C91.523 11.3263 91.3084 11.0044 91.3442 10.5751C91.2369 10.6467 91.0939 10.6825 90.9509 10.6825C90.8437 10.6467 90.7364 10.6109 90.6649 10.5036C90.6649 10.3605 90.5934 10.1459 90.7364 10.0386C91.2012 9.75249 91.8447 9.71672 92.4525 9.78825C92.9172 9.85979 93.5607 9.82402 93.7037 10.3605C93.668 10.5036 93.7037 10.6825 93.525 10.7898C93.3462 10.8613 93.1675 10.7898 93.0245 10.7182C92.9172 11.0759 92.7027 11.4693 92.3095 11.6124L92.3452 12.0416C92.381 12.2205 92.4167 12.5424 92.7027 12.4708C93.4177 12.6497 94.0255 13.0074 94.6333 13.4008C94.8478 13.1862 94.9908 12.9716 95.1338 12.757C96.242 13.1147 97.1716 13.9373 98.0653 14.6885L98.1011 14.0804C97.2431 13.3293 96.3135 12.7928 95.3125 12.3635C95.3483 12.1489 95.384 11.9701 95.4198 11.7555C96.5996 11.827 97.7078 12.1847 98.6731 12.757V12.2205C97.6721 11.684 96.5638 11.3263 95.3483 11.2905C95.3125 11.219 95.2768 11.1117 95.3125 11.0759C95.8845 10.9686 96.3135 10.3605 96.4566 9.82402C96.7426 9.46634 97.2073 9.10866 97.1001 8.57215C97.1001 8.53638 97.1358 8.50061 97.1358 8.42907C97.0286 8.21447 97.0643 8.07139 97.0286 7.96409Z" fill="#0A1E50"/>
<path fill-rule="evenodd" clip-rule="evenodd" d="M98.0625 9.85907L98.6703 9.68023L98.7418 9.35832C98.9205 8.85757 98.563 8.49989 98.3843 8.10645L98.0625 9.85907Z" fill="#0A1E50"/>
<path fill-rule="evenodd" clip-rule="evenodd" d="M99.5664 12.1846C99.8524 12.5065 100.138 13.0073 100.639 12.8642C100.603 12.6496 100.496 12.4707 100.424 12.2919C100.281 12.1488 100.246 11.6839 99.9954 11.8627C99.7809 11.7196 99.7452 11.505 99.6021 11.3262C99.5664 11.5765 99.6022 11.8985 99.5664 12.1846Z" fill="#0A1E50"/>
<path fill-rule="evenodd" clip-rule="evenodd" d="M99.6719 14.3302C99.7791 14.4733 99.8149 14.6879 99.9221 14.831C100.137 14.9741 100.423 14.9383 100.673 14.9025C100.887 14.8668 101.03 15.0814 101.245 14.9383C100.995 14.7595 100.816 14.4733 100.601 14.2587C100.28 14.0799 99.9936 14.2587 99.6719 14.3302Z" fill="#0A1E50"/>
<path fill-rule="evenodd" clip-rule="evenodd" d="M100.064 17.7643C100.565 18.0505 101.208 18.3724 101.888 18.2651C101.959 18.2293 102.102 18.2293 102.102 18.1578C101.673 18.0147 101.244 17.5855 100.815 17.5139C100.565 17.1563 100.243 17.6212 99.957 17.5855C99.957 17.657 100.029 17.6928 100.064 17.7643Z" fill="#0A1E50"/>
<path fill-rule="evenodd" clip-rule="evenodd" d="M101.605 24.2734L101.713 24.5238C101.82 25.2749 102.32 25.9903 102.034 26.8487C102.249 26.9918 102.32 27.2779 102.463 27.4568H102.499C102.678 26.813 102.535 26.1691 102.463 25.5253C102.535 24.9173 101.963 24.5596 101.605 24.2734Z" fill="#0A1E50"/>
<path fill-rule="evenodd" clip-rule="evenodd" d="M101.711 16.7268C102.104 17.013 102.712 17.0487 103.141 16.9057C102.855 16.7626 102.569 16.5837 102.319 16.3691L101.711 16.7268Z" fill="#0A1E50"/>
<path fill-rule="evenodd" clip-rule="evenodd" d="M103.535 18.9798C103.499 19.3017 103.714 19.552 103.928 19.6951C104 19.5163 104.143 19.3374 104.143 19.1586C104.071 18.8367 103.893 18.5505 103.607 18.3359C103.571 18.5505 103.535 18.7652 103.535 18.9798Z" fill="#0A1E50"/>
<path fill-rule="evenodd" clip-rule="evenodd" d="M103.569 22.3432C103.533 22.7008 103.891 22.7366 104.069 22.9155C104.212 23.0943 103.998 23.2016 103.998 23.3447C104.284 23.7023 104.427 24.1316 104.427 24.5965C104.534 24.1316 104.713 23.7381 104.749 23.2731C104.713 22.9512 104.212 23.0228 104.284 22.6651C104.427 22.3074 104.248 21.9497 104.141 21.592C104.105 21.5563 104.034 21.449 103.998 21.4847C103.891 21.7709 103.533 21.9855 103.569 22.3432Z" fill="#0A1E50"/>
<path fill-rule="evenodd" clip-rule="evenodd" d="M104.57 20.5894L104.964 21.3405C105.142 21.3048 105.25 21.1617 105.357 21.0544C105.464 20.7325 105.178 20.5536 105.107 20.3032C105.035 20.1244 105.107 19.874 104.964 19.731C104.856 19.6594 104.749 19.5879 104.642 19.5879L104.57 20.5894Z" fill="#0A1E50"/>
<path fill-rule="evenodd" clip-rule="evenodd" d="M105.07 18.623C105.356 18.8019 105.714 19.088 105.893 19.4099C106.143 20.1611 106.572 20.8407 106.858 21.556C106.965 22.0568 107.072 22.5217 107.18 23.0225C107.215 23.1656 107.215 23.4159 107.394 23.3802C107.466 22.8079 107.573 22.2714 107.573 21.6991C107.394 21.4487 107.144 21.3414 106.929 21.1983V21.1626C106.965 21.0553 107.072 20.8764 107.215 20.9122C107.287 20.8407 107.466 20.7691 107.394 20.6261C107.001 20.2326 107.037 19.5888 106.429 19.4815C106.214 19.4099 106.179 19.1596 106.143 18.9807C105.857 18.7304 105.428 18.6588 105.07 18.623Z" fill="#0A1E50"/>
<path fill-rule="evenodd" clip-rule="evenodd" d="M105.428 22.6282C105.786 22.9859 105.678 23.4866 105.643 23.9516C105.571 24.2378 105.929 24.0589 106.036 24.202C106.25 24.5239 106.143 25.0247 106.036 25.4181C106.25 25.132 106.465 24.8458 106.608 24.5239C106.608 24.4166 106.751 24.3451 106.751 24.202C106.822 23.9874 106.572 24.0947 106.465 24.0589C106.393 24.0232 106.286 23.9874 106.322 23.8443C106.501 23.4866 106.322 23.0217 106.25 22.664C106.179 22.3778 106.286 21.9486 106.143 21.6982C105.929 21.9844 105.249 22.0559 105.428 22.6282Z" fill="#0A1E50"/>
<path fill-rule="evenodd" clip-rule="evenodd" d="M106.109 17.407C106.753 18.0866 107.253 18.7304 107.933 19.3742C107.933 19.0881 107.897 18.8377 107.897 18.5515C107.79 18.3369 107.611 18.1939 107.432 18.0508C106.932 17.9793 106.646 17.2997 106.109 17.407Z" fill="#0A1E50"/>
<path fill-rule="evenodd" clip-rule="evenodd" d="M107.824 20.9124C107.824 20.984 107.86 21.0555 107.896 21.0913C108.182 21.5563 108.468 22.057 108.646 22.5578C108.575 22.0213 108.968 21.3417 108.468 20.9124C108.396 20.7336 108.182 20.8051 108.039 20.8051L107.824 20.9124Z" fill="#0A1E50"/>
<path fill-rule="evenodd" clip-rule="evenodd" d="M109.574 26.2772C109.789 26.3845 110.039 26.2056 110.253 26.0983C110.432 26.0626 110.575 26.1699 110.718 26.2414C110.79 26.3487 110.718 26.456 110.754 26.5633C111.183 26.6706 111.612 26.8495 112.005 27.0998L112.113 26.9925C112.148 26.6706 111.898 26.456 111.648 26.2772C111.505 26.2056 111.255 26.2414 111.147 26.0983C111.219 25.991 111.219 25.8122 111.219 25.6691C110.968 25.6691 110.825 25.5976 110.611 25.4903C110.468 25.4545 110.361 25.3472 110.253 25.4903C109.967 25.7407 109.932 26.0983 109.574 26.2772Z" fill="#0A1E50"/>
<path fill-rule="evenodd" clip-rule="evenodd" d="M110.113 17.0129C110.292 16.9771 110.471 16.9056 110.649 16.7625C111.15 16.2976 111.865 16.6195 112.437 16.6195C112.33 16.4049 112.187 16.226 112.044 16.0472C111.829 15.9756 111.65 15.8683 111.4 15.8683C110.9 15.5822 110.578 16.0829 110.185 16.2976C110.042 16.5122 110.006 16.8341 110.113 17.0129Z" fill="#0A1E50"/>
<path fill-rule="evenodd" clip-rule="evenodd" d="M110.112 18.5519C110.112 18.5162 110.112 18.5162 110.147 18.5162C110.219 18.5877 110.147 18.7308 110.255 18.7308C110.433 18.6235 110.612 18.5162 110.791 18.3731C111.291 18.3731 111.577 17.9081 112.078 17.9081C112.9 18.0512 113.687 18.23 114.402 18.6235C114.366 18.1585 113.937 17.6935 113.508 17.5147C113.258 17.4431 113.079 17.5504 112.936 17.6935C112.435 18.0154 112.686 17.2285 112.364 17.2285C111.899 17.3716 111.434 17.5147 110.934 17.4789C110.648 17.5862 110.433 17.8723 110.112 17.8366C110.076 18.0154 110.04 18.3016 110.112 18.5519Z" fill="#0A1E50"/>
<path fill-rule="evenodd" clip-rule="evenodd" d="M110.469 20.1602C110.612 20.339 110.863 20.3033 111.113 20.339L111.756 20.0887C111.756 19.9814 111.578 19.9456 111.613 19.8025C111.792 19.5879 112.042 19.731 112.257 19.6594C112.579 19.6237 112.865 19.3018 113.186 19.5164C113.186 19.5521 113.186 19.5879 113.186 19.6594C113.079 19.8741 113.258 20.0171 113.437 20.1244C113.794 20.196 114.152 20.5179 114.509 20.3748C114.473 20.0887 114.402 19.8025 114.33 19.5164C114.044 19.4806 113.83 19.2302 113.544 19.1229C113.437 19.2302 113.258 19.3375 113.115 19.3018C112.543 19.1587 111.864 18.801 111.292 19.1945C111.077 19.4448 110.72 19.3733 110.434 19.4806C110.362 19.6952 110.398 19.9456 110.469 20.1602Z" fill="#0A1E50"/>
<path fill-rule="evenodd" clip-rule="evenodd" d="M110.686 24.5602C110.651 24.6675 110.508 24.8821 110.758 24.9536C111.223 24.9536 111.83 24.739 112.188 25.0967C112.295 25.204 112.259 25.3828 112.259 25.5259L112.867 26.0267C112.939 25.7047 113.046 25.4186 113.046 25.0967C113.01 24.8463 112.867 24.6317 112.653 24.4886C112.259 24.4886 112.009 24.0236 111.58 24.0594C111.366 24.0236 111.151 24.2025 110.937 24.2025C110.865 24.3098 110.794 24.4529 110.686 24.5602Z" fill="#0A1E50"/>
<path fill-rule="evenodd" clip-rule="evenodd" d="M110.864 21.0909C110.971 21.3055 111.078 21.6274 111.257 21.6274C111.686 21.4485 112.329 21.3055 112.794 21.5201C112.973 21.5558 112.973 21.7347 112.937 21.842C113.187 21.9851 113.473 22.0924 113.759 22.2712L113.688 21.842C113.688 21.377 113.08 21.3055 113.044 20.8405C112.544 20.6616 112.008 20.6259 111.471 20.7689C111.293 20.912 111.042 20.912 110.864 20.9478C110.828 20.9836 110.864 21.0193 110.864 21.0909Z" fill="#0A1E50"/>
<path fill-rule="evenodd" clip-rule="evenodd" d="M111.008 23.4508C111.294 23.3793 111.473 23.0574 111.794 23.0216C112.259 23.0216 112.688 23.2362 112.974 23.6297C113.153 23.737 113.117 24.0589 113.332 24.0589C113.26 23.7012 113.367 23.3793 113.367 22.9859C113.046 22.4851 112.295 22.8786 112.009 22.2705L111.473 22.3063C111.079 22.4136 111.187 22.8428 111.151 23.1647C111.079 23.272 111.008 23.3435 111.008 23.4508Z" fill="#0A1E50"/>
<path fill-rule="evenodd" clip-rule="evenodd" d="M113.688 26.7067C113.902 27.1717 114.403 27.4936 114.474 28.0301C114.581 27.887 114.689 27.744 114.76 27.5651C114.76 27.422 114.581 27.422 114.51 27.3147C114.438 27.1359 114.546 26.9571 114.581 26.7782C114.474 26.4921 114.26 26.2417 114.009 26.0986L113.688 26.7067Z" fill="#0A1E50"/>
<path fill-rule="evenodd" clip-rule="evenodd" d="M114.617 25.5265L115.153 26.2418C115.368 25.8842 115.368 25.3476 115.296 24.9184C115.261 24.8469 115.153 24.7038 115.01 24.7754C114.796 24.99 114.76 25.2761 114.617 25.5265Z" fill="#0A1E50"/>
<path fill-rule="evenodd" clip-rule="evenodd" d="M112.434 5.35268C112.612 5.45998 112.791 5.53152 113.041 5.56729C113.184 5.49575 113.399 5.42421 113.578 5.49575C113.864 5.67459 114.185 5.45998 114.507 5.45998C114.221 5.20961 113.899 5.03077 113.578 4.8877C113.184 4.95923 112.863 5.24537 112.434 5.35268Z" fill="#0A1E50"/>
<path fill-rule="evenodd" clip-rule="evenodd" d="M115.332 6.06849C115.725 6.10426 116.011 6.46193 116.262 6.74808C116.583 6.78385 116.834 7.03422 117.048 7.2846L116.941 6.89115C116.869 6.4977 116.619 6.21156 116.369 5.88965C115.976 5.88965 115.654 5.92542 115.332 6.06849Z" fill="#0A1E50"/>
<path fill-rule="evenodd" clip-rule="evenodd" d="M87.8766 2.81348L88.0911 2.84924C88.6631 3.13539 89.5926 3.27846 89.6284 4.10112C89.0564 4.31573 88.4844 4.63764 88.0196 5.10262C87.6621 4.74494 86.9471 4.92378 86.8398 4.31573C86.9471 3.74344 87.1616 2.99232 87.8766 2.81348Z" fill="#78B4D7"/>
<path fill-rule="evenodd" clip-rule="evenodd" d="M88.4119 6.56897C89.0912 6.49744 89.7347 6.60474 90.414 6.5332C90.5927 6.60474 90.7715 6.74781 90.843 6.92665C90.8072 7.71354 90.5927 8.46467 90.557 9.28733C90.271 9.39464 89.9492 9.68078 89.8777 10.0027C89.5917 10.0742 89.3772 10.2531 89.0912 10.3604C88.9839 10.11 88.984 9.75231 89.1985 9.53771C89.4845 9.14426 90.2352 9.2158 90.1637 8.57197C90.3425 8.25006 90.1637 7.85662 90.1637 7.5347C90.0922 7.28433 90.0207 7.60624 89.9135 7.60624C89.6632 7.64201 89.4487 7.67778 89.2342 7.57047C89.0912 7.39163 88.8767 7.28433 88.8409 7.06972C88.6264 6.96242 88.3762 6.81935 88.3047 6.60474L88.4119 6.56897Z" fill="#78B4D7"/>
<path fill-rule="evenodd" clip-rule="evenodd" d="M89.2338 11.3624C89.5556 11.3982 89.8774 11.2551 90.1634 11.4339C90.0919 11.5413 89.9489 11.577 89.8416 11.6128L89.3411 11.8274C89.1266 11.7916 89.2338 11.5055 89.2338 11.3624Z" fill="#78B4D7"/>
<path fill-rule="evenodd" clip-rule="evenodd" d="M90.5218 5.20967C90.8436 5.10237 91.1653 4.88776 91.5228 4.99507C91.2726 5.24544 91.0938 5.56735 90.9151 5.85349L89.9141 5.81773C89.9856 5.56735 90.2716 5.35274 90.5218 5.20967Z" fill="#78B4D7"/>
<path fill-rule="evenodd" clip-rule="evenodd" d="M93.4519 4.95926C93.881 4.88772 93.8452 5.42424 94.2385 5.46001C94.31 5.53154 94.4172 5.63885 94.3815 5.74615C94.167 5.81769 93.8452 5.78192 93.5949 5.85345C93.2732 5.67461 93.4877 5.10233 92.9514 5.1381C92.9157 5.10233 92.8799 4.99502 92.9514 4.95926C93.0944 4.92349 93.3089 4.95926 93.4519 4.95926Z" fill="#78B4D7"/>
<path fill-rule="evenodd" clip-rule="evenodd" d="M93.201 6.96254C93.3798 6.71216 93.6658 6.67639 93.916 6.64062L95.8108 6.67639C95.8823 6.74793 95.7393 6.81946 95.7393 6.891C95.6321 6.9983 95.4533 7.03407 95.346 7.14138C95.0958 7.14138 95.1315 7.42752 94.9528 7.57059C94.6668 7.85673 94.2735 7.71366 93.9518 7.67789C93.8445 7.60636 93.7015 7.49905 93.6658 7.35598L93.5943 7.42752C93.7015 7.85673 93.6658 8.28595 93.773 8.71516L94.2378 9.00131C94.2378 9.6809 95.0243 9.50206 95.3818 9.85974C95.3103 10.1101 95.1315 10.3247 94.9528 10.5036C94.6668 10.2174 94.345 10.0386 94.0233 9.93127C93.9875 9.53783 93.5585 9.28745 93.3083 9.10861C93.2368 8.39325 93.2368 7.64213 93.0938 6.96254H93.201Z" fill="#78B4D7"/>
<path fill-rule="evenodd" clip-rule="evenodd" d="M93.8846 11.5056H94.7784L94.6711 11.9706L93.7773 11.6129C93.7773 11.5056 93.8488 11.4698 93.8846 11.5056Z" fill="#78B4D7"/>
<path fill-rule="evenodd" clip-rule="evenodd" d="M95.49 3.13551L96.1335 2.9209C96.5268 3.09974 96.8485 3.31435 97.206 3.56472C97.492 4.06547 97.4205 4.74506 97.3133 5.31735C97.0988 5.53196 96.6698 5.31735 96.5268 5.67503H96.491C96.2407 4.99544 95.5615 4.35161 94.918 4.06547C95.0252 3.70779 95.1325 3.35011 95.49 3.13551Z" fill="#78B4D7"/>
</svg>
