<svg width="164" height="48" viewBox="0 0 164 48" fill="none" xmlns="http://www.w3.org/2000/svg">
<path d="M67.4384 28.4885H63.8232V16.2256H60V32.0563H67.4384V28.4885Z" fill="white"/>
<path d="M82.096 25.7197V16.2241H78.2857V25.7197C78.2857 27.5057 77.4178 28.7624 75.6102 28.7624C73.7309 28.7624 72.8845 27.5273 72.8845 25.7398V16.2241H69.0742V25.7398C69.0742 29.7021 71.1099 32.3518 75.5729 32.3518C79.9083 32.3532 82.096 29.5429 82.096 25.7197Z" fill="white"/>
<path d="M98.2387 16.2241H94.5518V25.7871L88.604 16.2241H84.666V32.0563H88.35V22.697L94.4571 32.0563H98.2387V16.2241Z" fill="white"/>
<path d="M105.195 16.2241L99.6572 32.0563H103.407L104.711 28.2804H109.698L111.026 32.0563H115.078L109.22 16.2241H105.195ZM105.804 25.0799L107.202 21.0759L108.599 25.0799H105.804Z" fill="white"/>
<path d="M114.46 19.7934H117.115V32.0577H120.933V19.7934H123.567V16.2241H114.46V19.7934Z" fill="white"/>
<path d="M133.269 19.7934V16.2241H125.764V32.0577H133.337V28.4884H129.587V25.7656H133.155V22.2408H129.587V19.7934H133.269Z" fill="white"/>
<path d="M143.793 19.4969C144.92 19.5012 146.005 19.9258 146.835 20.6862L149.101 17.8041C147.617 16.5273 145.706 15.8573 143.75 15.929C138.69 15.929 135.397 19.5873 135.397 24.1622C135.397 28.7371 138.551 32.3537 143.817 32.3537C145.775 32.3982 147.67 31.6579 149.079 30.2965L146.835 27.5951C146.011 28.3483 144.936 28.7715 143.819 28.7844C141.165 28.7844 139.403 26.7487 139.403 24.1277C139.403 21.5082 140.977 19.4969 143.793 19.4969Z" fill="white"/>
<path d="M160.176 22.172H154.685V16.2256H150.862V32.0563H154.685V25.813H160.176V32.0563H163.999V16.2256H160.176V22.172Z" fill="white"/>
<path d="M45.3336 2.6665H2.66602V45.3341H45.3336V2.6665Z" fill="white"/>
<path d="M27.3578 19.6226H18.9941V28.3793H27.3578V19.6226Z" fill="url(#paint0_radial_204_21723)"/>
<path d="M48.0014 0H0V48H48V0H48.0014ZM36.4903 19.6209H32.1635V30.8954C32.1635 32.2855 31.0876 33.4116 29.7606 33.4116H16.5911C15.2641 33.4116 14.1881 32.2855 14.1881 30.8954V17.1046C14.1881 15.716 15.2641 14.5898 16.5911 14.5898H36.4903C37.8158 14.5898 38.8932 15.716 38.8932 17.1046C38.8932 18.4933 37.8173 19.6209 36.4903 19.6209Z" fill="url(#paint1_radial_204_21723)"/>
<defs>
<radialGradient id="paint0_radial_204_21723" cx="0" cy="0" r="1" gradientUnits="userSpaceOnUse" gradientTransform="translate(0.0770374 -0.0209727) scale(39.1891 39.1891)">
<stop stop-color="#E62631"/>
<stop offset="0.5" stop-color="#AE1920"/>
<stop offset="1" stop-color="#9B1919"/>
</radialGradient>
<radialGradient id="paint1_radial_204_21723" cx="0" cy="0" r="1" gradientUnits="userSpaceOnUse" gradientTransform="translate(0.0783281 -0.0211909) scale(39.1891 39.1891)">
<stop stop-color="#E62631"/>
<stop offset="0.5" stop-color="#AE1920"/>
<stop offset="1" stop-color="#9B1919"/>
</radialGradient>
</defs>
</svg>
