<svg width="140" height="40" viewBox="0 0 140 40" fill="none" xmlns="http://www.w3.org/2000/svg">
<path d="M37.5117 37.4988V2.50098L2.51392 2.50098V37.4988H37.5117Z" fill="white"/>
<path d="M59.5418 16.7772H56.5292V6.55762H53.3438V19.751H59.5418V16.7772Z" fill="white"/>
<path d="M71.7651 14.4701V6.55762H68.5902V14.4701C68.5902 15.9588 67.8635 17.0065 66.3572 17.0065C64.7945 17.0065 64.0889 15.9764 64.0889 14.4878V6.55762H60.9141V14.4878C60.9141 17.7896 62.6144 19.998 66.3325 19.998C69.9343 19.998 71.7651 17.6556 71.7651 14.4701Z" fill="white"/>
<path d="M85.2046 19.751V6.55762H82.1355V14.5266L77.1792 6.55762H73.8984V19.751H76.9675V11.9514L82.0579 19.751H85.2046Z" fill="white"/>
<path d="M91.0126 6.55762L86.3984 19.751H89.5275L90.614 16.6044H94.7695L95.8772 19.751H99.2497L94.3709 6.55762H91.0126ZM91.5276 13.9375L92.6918 10.6003L93.8559 13.9375H91.5276Z" fill="white"/>
<path d="M98.7305 9.53142H100.939V19.751H104.124V9.53142H106.318V6.55762H98.7305V9.53142Z" fill="white"/>
<path d="M114.403 9.53142V6.55762H108.148V19.751H114.459V16.7772H111.334V14.5089H114.304V11.5704H111.334V9.53142H114.403Z" fill="white"/>
<path d="M123.171 9.28483C124.11 9.28882 125.014 9.64217 125.707 10.2761L127.594 7.87377C126.357 6.80912 124.763 6.25098 123.132 6.31103C118.92 6.31103 116.172 9.35891 116.172 13.1723C116.172 16.9857 118.803 19.9983 123.192 19.9983C124 20.0165 124.803 19.8744 125.556 19.5801C126.309 19.2858 126.995 18.8453 127.577 18.2839L125.707 16.0332C125.019 16.6609 124.123 17.0136 123.192 17.0245C120.977 17.0245 119.509 15.3277 119.509 13.1441C119.509 10.9605 120.825 9.28483 123.171 9.28483Z" fill="white"/>
<path d="M129.062 6.55762V19.751H132.248V14.5442H136.823V19.751H140.009V6.55762H136.823V11.514H132.248V6.55762H129.062Z" fill="white"/>
<path d="M22.8144 16.3506H15.8438V23.6458H22.8144V16.3506Z" fill="url(#paint0_linear_780_33483)"/>
<path d="M40.0141 0H0V40H40.0141V0ZM30.4224 16.3506H26.8101V25.7448C26.8215 26.2885 26.6171 26.8145 26.2416 27.2079C25.8661 27.6012 25.3501 27.8299 24.8064 27.8437H13.839C13.2953 27.8299 12.7793 27.6012 12.4038 27.2079C12.0283 26.8145 11.8239 26.2885 11.8353 25.7448V14.2517C11.8239 13.7083 12.0284 13.1827 12.404 12.7899C12.7796 12.3971 13.2956 12.1692 13.839 12.1563H30.4189C30.926 12.2254 31.3909 12.476 31.7275 12.8616C32.0641 13.2471 32.2496 13.7416 32.2496 14.2535C32.2496 14.7653 32.0641 15.2598 31.7275 15.6454C31.3909 16.0309 30.926 16.2815 30.4189 16.3506H30.4224Z" fill="url(#paint1_linear_780_33483)"/>
<path d="M55.2205 30.4755C54.9744 30.4985 54.7271 30.446 54.5116 30.325C54.2961 30.204 54.1225 30.0203 54.014 29.7982L53.3438 30.151C53.6612 30.9341 54.3315 31.2093 55.2063 31.2093C56.1588 31.2093 57.0019 30.8001 57.0019 29.8476C57.0019 28.8281 56.1729 28.5953 55.2804 28.4859C54.7654 28.4224 54.328 28.3201 54.328 27.9462C54.328 27.6287 54.6137 27.3783 55.2134 27.3783C55.4079 27.3715 55.6011 27.4111 55.7772 27.4939C55.9533 27.5768 56.1071 27.7004 56.2258 27.8545L56.8679 27.5264C56.5433 26.8668 55.8554 26.6763 55.1887 26.6763C54.402 26.6763 53.5342 27.029 53.5342 27.9215C53.5342 28.881 54.3385 29.1139 55.2134 29.2162C55.7814 29.2797 56.2011 29.4419 56.2011 29.8476C56.2011 30.2992 55.7355 30.4755 55.2205 30.4755Z" fill="white"/>
<path d="M60.6328 26.8135H59.832V31.089H60.6328V26.8135Z" fill="white"/>
<path d="M68.1197 31.0928V26.8208H67.1955L65.8585 28.6587L64.5215 26.8208H63.5938V31.0928H64.4016V27.9849L65.7633 29.8475H65.922L67.3119 27.992V31.0928H68.1197Z" fill="white"/>
<path d="M71.8785 29.8296H73.0885C73.2932 29.8395 73.4977 29.8078 73.6897 29.7363C73.8817 29.6648 74.0572 29.555 74.2055 29.4137C74.3538 29.2723 74.4719 29.1024 74.5526 28.914C74.6333 28.7257 74.6749 28.5229 74.6749 28.318C74.6749 28.1132 74.6333 27.9104 74.5526 27.7221C74.4719 27.5337 74.3538 27.3638 74.2055 27.2224C74.0572 27.0811 73.8817 26.9713 73.6897 26.8998C73.4977 26.8283 73.2932 26.7966 73.0885 26.8065H71.0742V31.089H71.8785V29.8296ZM71.8785 27.5755H73.0885C73.1922 27.5684 73.2963 27.5827 73.3942 27.6175C73.4922 27.6523 73.5819 27.7069 73.6579 27.7779C73.7339 27.8488 73.7944 27.9347 73.8359 28.03C73.8773 28.1254 73.8986 28.2282 73.8986 28.3322C73.8986 28.4361 73.8773 28.539 73.8359 28.6343C73.7944 28.7297 73.7339 28.8155 73.6579 28.8864C73.5819 28.9574 73.4922 29.012 73.3942 29.0468C73.2963 29.0816 73.1922 29.0959 73.0885 29.0888H71.8785V27.5755Z" fill="white"/>
<path d="M77.3984 26.8135V31.089H80.404V30.3411H78.2063V26.8135H77.3984Z" fill="white"/>
<path d="M83.9805 26.8135H83.1797V31.089H83.9805V26.8135Z" fill="white"/>
<path d="M90.0066 27.5934V26.8208H86.9375V31.0893H87.7418V29.5053H89.8866V28.761H87.7418V27.5934H90.0066Z" fill="white"/>
<path d="M95.1548 31.089V29.3216L96.8587 26.8488V26.8135H95.8851L94.7492 28.5773L93.6626 26.8135H92.7031V26.8488L94.347 29.3216V31.089H95.1548Z" fill="white"/>
<path d="M105.046 31.089V29.3216L106.75 26.8488V26.8135H105.78L104.644 28.5773L103.557 26.8135H102.598V26.8488L104.242 29.3216V31.089H105.046Z" fill="white"/>
<path d="M109.113 28.9798C109.095 29.2734 109.14 29.5674 109.244 29.8426C109.348 30.1177 109.509 30.3677 109.717 30.576C109.924 30.7844 110.174 30.9463 110.449 31.0512C110.723 31.1561 111.017 31.2015 111.311 31.1845C112.814 31.1845 113.491 30.0804 113.505 28.9762C113.524 28.6808 113.48 28.3849 113.377 28.1074C113.274 27.8299 113.114 27.5772 112.907 27.3654C112.7 27.1536 112.451 26.9876 112.177 26.878C111.902 26.7684 111.607 26.7177 111.311 26.7291C109.833 26.7291 109.113 27.858 109.113 28.9798ZM112.711 28.9798C112.711 29.6853 112.32 30.4402 111.3 30.4402C110.281 30.4402 109.914 29.6888 109.889 28.9868C109.865 28.2848 110.288 27.4523 111.3 27.4523C112.313 27.4523 112.722 28.2672 112.711 28.9868V28.9798Z" fill="white"/>
<path d="M116.298 26.8208V29.269C116.279 29.5238 116.314 29.7798 116.403 30.0196C116.491 30.2593 116.63 30.4773 116.81 30.6587C116.99 30.84 117.207 30.9805 117.446 31.0707C117.685 31.1608 117.941 31.1984 118.196 31.181C119.272 31.181 120.048 30.5319 120.048 29.269V26.8208H119.237V29.269C119.237 29.9992 118.859 30.4472 118.178 30.4472C117.497 30.4472 117.074 30.038 117.074 29.269V26.8208H116.298Z" fill="white"/>
<path d="M126.613 28.2284C126.613 27.4912 126.08 26.8174 125.075 26.8174H123.039V31.0894H123.847V29.6571H124.619L125.868 31.0894H126.824V31.0329L125.53 29.5725C125.847 29.5269 126.135 29.3629 126.336 29.1135C126.536 28.8641 126.635 28.5479 126.613 28.2284ZM125.075 28.934H123.847V27.5688H125.075C125.168 27.562 125.262 27.5747 125.351 27.6059C125.44 27.6372 125.521 27.6863 125.59 27.7504C125.659 27.8144 125.714 27.892 125.751 27.9782C125.789 28.0644 125.808 28.1574 125.808 28.2514C125.808 28.3454 125.789 28.4384 125.751 28.5246C125.714 28.6108 125.659 28.6883 125.59 28.7523C125.521 28.8164 125.44 28.8656 125.351 28.8968C125.262 28.9281 125.168 28.9407 125.075 28.934Z" fill="white"/>
<path d="M133.594 26.8135H132.793V31.089H133.594V26.8135Z" fill="white"/>
<path d="M136.491 27.5472H137.846V31.0749H138.653V27.5472H140.008V26.8135H136.48L136.491 27.5472Z" fill="white"/>
<defs>
<linearGradient id="paint0_linear_780_33483" x1="-0.379898" y1="0.289211" x2="39.7682" y2="40.4409" gradientUnits="userSpaceOnUse">
<stop stop-color="#EA212E"/>
<stop offset="0.5" stop-color="#AE151E"/>
<stop offset="1" stop-color="#9B0F17"/>
</linearGradient>
<linearGradient id="paint1_linear_780_33483" x1="-0.0388048" y1="-0.052914" x2="40.1094" y2="40.0952" gradientUnits="userSpaceOnUse">
<stop stop-color="#EA212E"/>
<stop offset="0.5" stop-color="#AE151E"/>
<stop offset="1" stop-color="#9B0F17"/>
</linearGradient>
</defs>
</svg>
