<svg width="173" height="32" viewBox="0 0 173 32" fill="none" xmlns="http://www.w3.org/2000/svg">
<path d="M47.1175 14.9413C48.4056 13.3591 49.9021 11.7191 51.8153 9.88368C53.7265 8.04924 55.4303 6.61552 57.0774 5.37727C58.8998 4.01041 61.2228 3.96158 63.0144 5.37163C64.6604 6.61089 66.3672 8.04357 68.2804 9.882C70.1926 11.7164 71.6891 13.3545 72.9762 14.9357C74.4926 16.797 74.4866 18.7691 72.9703 20.6304C71.6822 22.2127 70.1857 23.8507 68.2735 25.6861C66.3623 27.5226 64.6634 28.9522 63.0154 30.1865C61.1879 31.5603 58.9118 31.5583 57.0844 30.1865C55.4364 28.9502 53.7325 27.5166 51.8223 25.6821C49.9091 23.8457 48.4196 22.2137 47.1295 20.6304C45.7068 18.8847 45.6588 16.6621 47.1175 14.9413Z" fill="#78B4D7"/>
<path d="M45.7779 18.1585C45.9484 19.0468 46.3631 19.7876 47.051 20.631C48.3421 22.2122 49.9074 23.8463 51.8216 25.6817C53.7308 27.5172 55.4346 28.9508 57.0826 30.1881C57.8533 30.7683 58.7197 31.1093 59.5731 31.191C57.8214 30.7673 55.2512 28.0695 56.615 23.1942C57.9121 18.5613 59.9978 15.1725 61.0466 13.0948L61.0775 13.036C63.1961 9.04214 60.2032 7.67727 57.8513 9.68119C59.5193 7.38514 63.3337 3.63949 64.6607 2.26664C65.9817 0.887818 65.0385 -0.517916 62.4065 0.188945C56.9899 1.82799 50.2533 6.91856 47.1138 12.9054C46.065 14.9054 45.6173 16.6471 45.7779 18.1585Z" fill="#0A3269"/>
<path d="M89.968 14.867L88.9531 19.2786H84.4288L85.1695 16.0683C85.4995 14.6596 85.9232 13.201 87.0129 12.3287C87.656 11.8441 88.1804 11.7464 88.5234 11.7464C89.8354 11.7464 90.0737 12.9099 90.0996 13.3496C90.1494 13.9797 89.9959 14.6735 89.968 14.867ZM89.7217 7.61894C85.6381 7.63872 80.1158 8.53912 79.0171 13.9098L74.9375 31.5534H81.5943L83.34 23.9903H87.8713L86.1156 31.5534H92.5831L96.6737 13.8331C97.6726 8.18419 92.0277 7.60896 89.7217 7.61894ZM154.221 0.000976562H147.522L146.435 4.71273H153.134L154.221 0.000976562ZM145.72 7.81433L140.239 31.5534H146.935L152.417 7.81433H145.72ZM108.68 7.81433H102.103L96.6218 31.5534H103.199C103.199 31.5534 106.61 16.832 106.875 15.6287C107.131 14.4233 107.716 13.201 108.77 12.4254C109.322 12.0864 109.758 11.9907 110 11.9907C110.962 11.9907 111.73 12.7643 111.798 13.6387C111.82 13.9258 111.712 14.512 111.564 15.0464L107.754 31.5534H114.362C114.362 31.5534 117.923 16.1232 118.173 15.0464C118.409 13.9687 119.056 13.0544 119.94 12.4712C120.076 12.3774 120.534 12.0864 121.077 12.0864C121.996 12.0864 122.695 12.9099 122.765 13.7364C122.793 14.0754 122.719 14.3655 122.571 15.0933L118.773 31.5534H125.482L129.449 14.3655C130.442 10.0595 126.781 7.61894 124.468 7.61894C122.044 7.61894 120.212 9.07451 118.48 10.5321C117.552 9.27092 116.854 8.39656 115.31 7.86517C114.52 7.61902 113.842 7.61903 113.588 7.61903C111.538 7.61903 109.838 8.73263 108.186 9.94993L108.68 7.81433ZM172.874 11.55C172.692 9.31875 171.17 7.61894 168.541 7.61894C166.953 7.61894 164.328 8.14832 162.681 9.75743L163.13 7.81433H156.431L150.949 31.5534H157.649L161.226 16.0683C161.556 14.6596 161.927 13.201 163.024 12.3287C163.668 11.8441 164.191 11.7464 164.533 11.7464C165.756 11.7464 166.085 12.9099 166.122 13.3496C166.165 13.9797 165.991 14.6596 165.953 14.851L162.097 31.5534H168.615L172.705 13.8331C172.892 13.0206 172.932 12.3286 172.874 11.55ZM136.784 0.000976562L129.499 31.5534H136.228L143.512 0.000976562H136.784Z" fill="#78B4D7"/>
<path d="M18.4511 7.25293L12.4642 24.2355L6.65584 7.25293H0V31.3968H3.94804V12.9297L9.72355 29.7817H13.7693L19.6585 13.175V31.3968H24.2914V7.25293H18.4511Z" fill="#78B4D7"/>
<path d="M28.9746 31.1841V27.0407C31.5738 28.1284 33.798 28.6717 35.6474 28.6717C36.9405 28.6717 37.9604 28.3836 38.7062 27.8073C39.4509 27.2311 39.8238 26.4485 39.8238 25.4585C39.8238 24.6748 39.5895 24.0138 39.1219 23.4764C38.6543 22.9371 37.768 22.299 36.463 21.5593L34.8478 20.662C32.6834 19.4437 31.155 18.2772 30.2637 17.1626C29.3714 16.048 28.9258 14.7459 28.9258 13.2554C28.9258 11.2654 29.6576 9.6663 31.1201 8.45894C32.5827 7.25161 34.5159 6.64844 36.9196 6.64844C38.8447 6.64844 41.0142 6.92568 43.4289 7.47993V11.3462C40.9593 10.422 39.0073 9.96039 37.5716 9.96039C36.463 9.96039 35.5736 10.2077 34.9047 10.7021C34.2357 11.1976 33.9017 11.8467 33.9017 12.6512C33.9017 13.3152 34.135 13.8975 34.6026 14.397C35.0702 14.8974 35.9515 15.5126 37.2456 16.2403L38.9744 17.2035C41.3023 18.5085 42.9064 19.7099 43.7878 20.8085C44.6681 21.9072 45.1088 23.2452 45.1088 24.8224C45.1088 27.0626 44.2773 28.8193 42.6123 30.0914C40.9484 31.3636 38.6543 31.9996 35.7282 31.9996C33.792 31.9996 31.5409 31.7275 28.9746 31.1841Z" fill="#78B4D7"/>
</svg>
