<svg width="54" height="64" viewBox="0 0 54 64" fill="none" xmlns="http://www.w3.org/2000/svg">
<mask id="mask0_339_106841" style="mask-type:luminance" maskUnits="userSpaceOnUse" x="0" y="0" width="54" height="64">
<path d="M53.5045 0H0V64H53.5045V0Z" fill="white"/>
</mask>
<g mask="url(#mask0_339_106841)">
<path d="M14.1161 38.5707C13.3761 39.085 9.48661 40.4374 9.48661 35.8469V20.9898H4.83817V35.6374C4.83817 46.3422 16.2411 42.9326 18.7645 41.1993V21.0088H14.1161V38.5707ZM0 5.98025V37.5231C0 52.3422 10.6629 56.8374 26.7143 63.8279C42.7087 56.8374 53.4286 52.3803 53.4286 37.5231V5.98025C36.865 -2.81975 13.3192 -1.10547 0 5.98025ZM50.9621 37.5231C50.9621 49.9041 43.3917 53.7517 26.7143 61.1422C9.99888 53.7326 2.44754 49.9041 2.44754 37.5231V19.466C17 6.05644 35.404 5.18025 50.9621 6.62787V37.5231ZM21.1362 22.1898V52.5898H25.7846V42.7803C29.2567 43.8279 35.9922 42.4183 35.9922 31.5612C35.9922 17.6374 24.4944 19.9993 21.1362 22.1898ZM25.7846 38.9517V24.6279C26.9799 24.0183 31.2489 22.8183 31.2489 31.6755C31.2489 41.3517 26.0692 39.066 25.7846 38.9517ZM37.0357 26.6088C37.0547 33.3707 44.3784 32.685 44.4542 36.666C44.5301 40.0183 40.1284 39.9422 37.2255 37.3707V41.6755C42.3862 44.7422 48.875 42.8374 49.0647 36.8945C49.3114 29.5422 41.3616 30.2469 41.4565 26.4374C41.5324 23.5422 45.8013 23.5041 48.3627 26.1136V22.0564C44.3214 18.8945 37.0168 20.7231 37.0357 26.6088Z" fill="#78B4D7"/>
</g>
</svg>
