<?xml version="1.0" standalone="no"?>
<!DOCTYPE svg PUBLIC "-//W3C//DTD SVG 20010904//EN"
 "http://www.w3.org/TR/2001/REC-SVG-20010904/DTD/svg10.dtd">
<svg version="1.0" xmlns="http://www.w3.org/2000/svg"
 width="700.000000pt" height="700.000000pt" viewBox="0 0 700.000000 700.000000"
 preserveAspectRatio="xMidYMid meet">
<metadata>
Created by potrace 1.14, written by Peter Selinger 2001-2017
</metadata>
<g transform="translate(0.000000,700.000000) scale(0.100000,-0.100000)"
fill="#000000" stroke="none">
<path d="M0 3500 l0 -3500 3500 0 3500 0 0 3500 0 3500 -3500 0 -3500 0 0
-3500z m5440 1392 c109 -37 202 -127 237 -227 28 -78 24 -196 -9 -266 -29 -64
-86 -131 -138 -164 -77 -48 -86 -49 -465 -55 l-360 -5 -5 -870 -5 -870 -27
-57 c-34 -73 -103 -142 -176 -176 l-57 -27 -1040 0 -1040 0 -57 28 c-72 35
-149 119 -180 195 l-23 57 0 1080 0 1080 23 57 c45 112 160 208 273 227 87 14
3006 8 3049 -7z"/>
<path d="M2770 3500 l0 -640 610 0 610 0 0 640 0 640 -610 0 -610 0 0 -640z"/>
</g>
</svg>
