<svg width="24" height="24" viewBox="0 0 24 24" fill="none" xmlns="http://www.w3.org/2000/svg">
<path d="M5.20232 1.6155C7.95386 3.96159 10.9135 8.71849 12.0001 11.2713C13.0868 8.71868 16.0462 3.96154 18.7978 1.6155C20.7832 -0.0773515 24 -1.38718 24 2.78076C24 3.61316 23.5798 9.77331 23.3333 10.7734C22.4767 14.2504 19.355 15.1372 16.5782 14.6004C21.432 15.5387 22.6667 18.6464 20.0001 21.7542C14.9357 27.6564 12.7211 20.2733 12.1534 18.3815C12.0494 18.0346 12.0007 17.8724 12 18.0103C11.9993 17.8724 11.9506 18.0346 11.8466 18.3815C11.2791 20.2733 9.06454 27.6566 3.99987 21.7542C1.33323 18.6464 2.56794 15.5385 7.42179 14.6004C4.64492 15.1372 1.5232 14.2503 0.666658 10.7734C0.420196 9.77322 0 3.61306 0 2.78076C0 -1.38718 3.21689 -0.0773515 5.20218 1.6155H5.20232Z" fill="#78B4D7"/>
</svg>
