<svg width="24" height="24" viewBox="0 0 24 24" fill="none" xmlns="http://www.w3.org/2000/svg">
<path d="M23.9344 7.0561C23.8782 5.78088 23.672 4.90416 23.3766 4.1445C23.0718 3.33813 22.603 2.61618 21.9888 2.01602C21.3886 1.40653 20.6619 0.932923 19.8648 0.632938C19.1008 0.33753 18.2286 0.131313 16.9534 0.0750883C15.6687 0.0141019 15.2608 0 12.0024 0C8.74392 0 8.33606 0.0141019 7.0561 0.0703262C5.78088 0.126551 4.90416 0.332952 4.14468 0.628176C3.33813 0.932923 2.61618 1.40177 2.01602 2.01602C1.40653 2.61618 0.933106 3.34289 0.632938 4.13992C0.33753 4.90416 0.131313 5.77613 0.0750883 7.05134C0.0141019 8.33606 0 8.74392 0 12.0024C0 15.2608 0.0141019 15.6687 0.0703262 16.9487C0.126551 18.2239 0.332952 19.1006 0.628358 19.8602C0.933106 20.6666 1.40653 21.3886 2.01602 21.9888C2.61618 22.5983 3.34289 23.0718 4.13992 23.3718C4.90416 23.6672 5.77613 23.8735 7.05149 23.9297C8.33131 23.9861 8.73936 24 11.9978 24C15.2563 24 15.6641 23.9861 16.9441 23.9297C18.2193 23.8735 19.096 23.6672 19.8555 23.3718C21.4684 22.7482 22.7436 21.473 23.3672 19.8602C23.6625 19.096 23.8689 18.2239 23.9251 16.9487C23.9813 15.6687 23.9954 15.2608 23.9954 12.0024C23.9954 8.74392 23.9906 8.33606 23.9344 7.0561ZM21.7732 16.8549C21.7215 18.027 21.5246 18.66 21.3606 19.0819C20.9573 20.1275 20.1275 20.9573 19.0819 21.3606C18.66 21.5246 18.0224 21.7215 16.8549 21.773C15.589 21.8294 15.2094 21.8433 12.0072 21.8433C8.80493 21.8433 8.4205 21.8294 7.1592 21.773C5.98709 21.7215 5.35416 21.5246 4.93219 21.3606C4.41189 21.1682 3.93828 20.8635 3.55387 20.465C3.15535 20.0758 2.8506 19.607 2.6583 19.0867C2.49421 18.6647 2.29733 18.027 2.24587 16.8597C2.18946 15.5938 2.17554 15.2139 2.17554 12.0117C2.17554 8.80949 2.18946 8.42506 2.24587 7.16395C2.29733 5.99184 2.49421 5.35891 2.6583 4.93694C2.8506 4.41647 3.15535 3.94304 3.55863 3.55845C3.94762 3.15993 4.41647 2.85518 4.93694 2.66306C5.35891 2.49897 5.99659 2.30209 7.16395 2.25045C8.42981 2.19422 8.80968 2.18012 12.0117 2.18012C15.2187 2.18012 15.5984 2.19422 16.8597 2.25045C18.0318 2.30209 18.6647 2.49897 19.0867 2.66306C19.607 2.85518 20.0806 3.15993 20.465 3.55845C20.8635 3.94762 21.1682 4.41647 21.3606 4.93694C21.5246 5.35891 21.7215 5.99645 21.7732 7.16395C21.8294 8.42986 21.8435 8.80949 21.8435 12.0117C21.8435 15.2139 21.8294 15.589 21.7732 16.8549Z" fill="#78B4D7"/>
<path d="M11.9973 5.83594C8.59366 5.83594 5.83203 8.59738 5.83203 12.0012C5.83203 15.4051 8.59366 18.1665 11.9973 18.1665C15.4012 18.1665 18.1626 15.4051 18.1626 12.0012C18.1626 8.59738 15.4012 5.83594 11.9973 5.83594ZM11.9973 16.0005C9.7892 16.0005 7.99808 14.2095 7.99808 12.0012C7.99808 9.79291 9.7892 8.00199 11.9973 8.00199C14.2057 8.00199 15.9966 9.79291 15.9966 12.0012C15.9966 14.2095 14.2057 16.0005 11.9973 16.0005Z" fill="#78B4D7"/>
<path d="M19.8475 5.59264C19.8475 6.38748 19.2031 7.03192 18.4081 7.03192C17.6132 7.03192 16.9688 6.38748 16.9688 5.59264C16.9688 4.79761 17.6132 4.15332 18.4081 4.15332C19.2031 4.15332 19.8475 4.79761 19.8475 5.59264Z" fill="#78B4D7"/>
</svg>
