<svg width="25" height="24" viewBox="0 0 25 24" fill="none" xmlns="http://www.w3.org/2000/svg">
<g clip-path="url(#clip0_1580_975)">
<path fill-rule="evenodd" clip-rule="evenodd" d="M12.4796 0.489586C9.62937 0.488634 6.87187 1.50675 4.70077 3.36166C2.52968 5.21658 1.08679 7.78717 0.630429 10.6131C0.174068 13.4392 0.734037 16.3361 2.21008 18.7852C3.68613 21.2343 5.98185 23.0758 8.68627 23.9798C9.28238 24.0916 9.50496 23.7184 9.50496 23.401C9.50496 23.0836 9.49502 22.1635 9.48902 21.1556C6.15072 21.8861 5.44732 19.7345 5.44732 19.7345C4.90084 18.3373 4.11398 17.97 4.11398 17.97C3.02506 17.2216 4.19743 17.2375 4.19743 17.2375C5.40163 17.3234 6.03547 18.479 6.03547 18.479C7.10654 20.3233 8.84323 19.7904 9.52876 19.477C9.63609 18.6985 9.94608 18.1677 10.2899 17.8662C7.62513 17.5609 4.82337 16.527 4.82337 11.9084C4.80552 10.7109 5.24822 9.55269 6.05932 8.67493C5.93414 8.36959 5.52283 7.14407 6.17457 5.48146C6.17457 5.48146 7.18204 5.15809 9.47515 6.71893C11.4423 6.17604 13.5189 6.17604 15.486 6.71893C17.7752 5.15809 18.7826 5.48146 18.7826 5.48146C19.4344 7.14206 19.025 8.36758 18.8999 8.67493C19.7102 9.55303 20.1523 10.7112 20.1338 11.9084C20.1338 16.5389 17.3281 17.5589 14.6555 17.8563C15.0866 18.2295 15.4702 18.964 15.4702 20.0878C15.4702 21.7005 15.4562 22.9998 15.4562 23.397C15.4562 23.7164 15.6708 24.0936 16.2789 23.9738C18.9823 23.0685 21.2768 21.2264 22.7516 18.7772C24.2264 16.3279 24.7853 13.4314 24.3283 10.606C23.8713 7.78071 22.4281 5.21094 20.2572 3.35665C18.0863 1.50238 15.3293 0.484646 12.4796 0.485596V0.489586Z" fill="#1D1D1F"/>
</g>
<defs>
<clipPath id="clip0_1580_975">
<rect width="24.96" height="24" fill="white"/>
</clipPath>
</defs>
</svg>
