<svg width="52" height="49" viewBox="0 0 52 49" fill="none" xmlns="http://www.w3.org/2000/svg">
<path fill-rule="evenodd" clip-rule="evenodd" d="M25.9996 0.999663C20.0616 0.997719 14.3168 3.07638 9.79367 6.86349C5.27057 10.6506 2.26455 15.8989 1.3138 21.6686C0.363049 27.4384 1.52965 33.3529 4.60475 38.3532C7.67984 43.3535 12.4626 47.1131 18.0968 48.9589C19.3387 49.1871 19.8024 48.4251 19.8024 47.7771C19.8024 47.1292 19.7817 45.2506 19.7692 43.1927C12.8144 44.6842 11.349 40.2913 11.349 40.2913C10.2105 37.4388 8.5712 36.6889 8.5712 36.6889C6.30261 35.1608 8.74506 35.1934 8.74506 35.1934C11.2538 35.3686 12.5743 37.7281 12.5743 37.7281C14.8057 41.4934 18.4238 40.4054 19.852 39.7656C20.0756 38.1763 20.7214 37.0924 21.4376 36.477C15.8861 35.8536 10.0491 33.7427 10.0491 24.313C10.0119 21.8682 10.9342 19.5035 12.624 17.7114C12.3632 17.088 11.5063 14.5859 12.8641 11.1914C12.8641 11.1914 14.963 10.5312 19.7403 13.7179C23.8386 12.6095 28.1647 12.6095 32.263 13.7179C37.032 10.5312 39.1309 11.1914 39.1309 11.1914C40.4887 14.5818 39.6359 17.0839 39.3751 17.7114C41.0634 19.5042 41.9843 21.8688 41.9459 24.313C41.9459 33.7671 36.1006 35.8495 30.5326 36.4567C31.4309 37.2187 32.2299 38.7183 32.2299 41.0126C32.2299 44.3052 32.2009 46.9581 32.2009 47.769C32.2009 48.421 32.648 49.1912 33.9148 48.9467C39.5469 47.0983 44.327 43.3373 47.3995 38.3368C50.472 33.3362 51.6364 27.4225 50.6843 21.6541C49.7322 15.8857 46.7257 10.6391 42.203 6.85325C37.6802 3.06745 31.9364 0.989576 25.9996 0.991517V0.999663Z" fill="white"/>
</svg>
