<svg width="25" height="24" viewBox="0 0 25 24" fill="none" xmlns="http://www.w3.org/2000/svg">
<g clip-path="url(#clip0_1580_985)">
<path d="M24.8944 7.0561C24.8382 5.78088 24.6319 4.90416 24.3365 4.1445C24.0318 3.33813 23.563 2.61618 22.9487 2.01602C22.3485 1.40653 21.6219 0.932923 20.8248 0.632938C20.0607 0.33753 19.1886 0.131313 17.9134 0.0750883C16.6286 0.0141019 16.2208 0 12.9624 0C9.70388 0 9.29603 0.0141019 8.01606 0.0703262C6.74084 0.126551 5.86412 0.332952 5.10464 0.628176C4.29809 0.932923 3.57614 1.40177 2.97598 2.01602C2.36649 2.61618 1.89307 3.34289 1.5929 4.13992C1.29749 4.90416 1.09127 5.77613 1.03505 7.05134C0.974063 8.33606 0.959961 8.74392 0.959961 12.0024C0.959961 15.2608 0.974063 15.6687 1.03029 16.9487C1.08651 18.2239 1.29291 19.1006 1.58832 19.8602C1.89307 20.6666 2.36649 21.3886 2.97598 21.9888C3.57614 22.5983 4.30285 23.0718 5.09988 23.3718C5.86412 23.6672 6.73609 23.8735 8.01145 23.9297C9.29127 23.9861 9.69932 24 12.9578 24C16.2162 24 16.6241 23.9861 17.9041 23.9297C19.1793 23.8735 20.0559 23.6672 20.8155 23.3718C22.4284 22.7482 23.7036 21.473 24.3272 19.8602C24.6224 19.096 24.8288 18.2239 24.885 16.9487C24.9413 15.6687 24.9554 15.2608 24.9554 12.0024C24.9554 8.74392 24.9506 8.33606 24.8944 7.0561ZM22.7331 16.8549C22.6815 18.027 22.4846 18.66 22.3205 19.0819C21.9172 20.1275 21.0874 20.9573 20.0419 21.3606C19.6199 21.5246 18.9824 21.7215 17.8149 21.773C16.549 21.8294 16.1693 21.8433 12.9671 21.8433C9.76489 21.8433 9.38046 21.8294 8.11916 21.773C6.94705 21.7215 6.31412 21.5246 5.89215 21.3606C5.37185 21.1682 4.89824 20.8635 4.51383 20.465C4.11531 20.0758 3.81056 19.607 3.61826 19.0867C3.45417 18.6647 3.25729 18.027 3.20583 16.8597C3.14942 15.5938 3.1355 15.2139 3.1355 12.0117C3.1355 8.80949 3.14942 8.42506 3.20583 7.16395C3.25729 5.99184 3.45417 5.35891 3.61826 4.93694C3.81056 4.41647 4.11531 3.94304 4.51859 3.55845C4.90758 3.15993 5.37643 2.85518 5.89691 2.66306C6.31887 2.49897 6.95655 2.30209 8.12391 2.25045C9.38977 2.19422 9.76964 2.18012 12.9717 2.18012C16.1787 2.18012 16.5583 2.19422 17.8196 2.25045C18.9917 2.30209 19.6247 2.49897 20.0466 2.66306C20.567 2.85518 21.0405 3.15993 21.425 3.55845C21.8234 3.94762 22.1282 4.41647 22.3205 4.93694C22.4846 5.35891 22.6815 5.99645 22.7331 7.16395C22.7894 8.42986 22.8035 8.80949 22.8035 12.0117C22.8035 15.2139 22.7894 15.589 22.7331 16.8549Z" fill="#1D1D1F"/>
<path d="M12.9622 5.83716C9.55851 5.83716 6.79688 8.5986 6.79688 12.0025C6.79688 15.4063 9.55851 18.1677 12.9622 18.1677C16.3661 18.1677 19.1275 15.4063 19.1275 12.0025C19.1275 8.5986 16.3661 5.83716 12.9622 5.83716ZM12.9622 16.0017C10.754 16.0017 8.96292 14.2108 8.96292 12.0025C8.96292 9.79413 10.754 8.00321 12.9622 8.00321C15.1705 8.00321 16.9615 9.79413 16.9615 12.0025C16.9615 14.2108 15.1705 16.0017 12.9622 16.0017Z" fill="#1D1D1F"/>
<path d="M20.8104 5.59338C20.8104 6.38821 20.166 7.03266 19.371 7.03266C18.5761 7.03266 17.9316 6.38821 17.9316 5.59338C17.9316 4.79834 18.5761 4.15405 19.371 4.15405C20.166 4.15405 20.8104 4.79834 20.8104 5.59338Z" fill="#1D1D1F"/>
</g>
<defs>
<clipPath id="clip0_1580_985">
<rect width="24" height="24" fill="white" transform="translate(0.959961)"/>
</clipPath>
</defs>
</svg>
