<svg width="649" height="640" viewBox="0 0 649 640" fill="none" xmlns="http://www.w3.org/2000/svg">
<path d="M-302.579 46.0134C-302.579 22.6372 -283.605 3.69482 -260.191 3.69482H542.217C565.607 3.69482 584.605 22.6372 584.605 46.0134V547.628H-302.604V46.0134H-302.579Z" fill="#F3F3F3" stroke="#444444" stroke-width="3" stroke-miterlimit="10"/>
<path d="M-363.299 547.628V565.955C-363.299 616.944 -321.898 636.305 -270.801 636.305H552.801C603.874 636.305 645.299 616.944 645.299 565.955V547.628H-363.299Z" fill="#F3F3F3" stroke="#444444" stroke-width="3" stroke-miterlimit="10"/>
<path d="M533.951 71.6558H-241.489V517.675H533.951V71.6558Z" stroke="#444444" stroke-width="3" stroke-miterlimit="10"/>
<path d="M504.319 125.847H-211.882V488.092H504.319V125.847Z" fill="#F3F3F3"/>
<path d="M145.281 296.87H-84.8418V307.216H145.281V296.87Z" fill="#F0777E"/>
<path d="M237.829 296.87H161.787V307.216H237.829V296.87Z" fill="#F0777E"/>
<path d="M430.795 296.87H259.344V307.216H430.795V296.87Z" fill="#F0777E"/>
<path d="M75.1858 194.99H-95.5498V205.336H75.1858V194.99Z" fill="#424242"/>
<path d="M228.379 194.99H95.8369V205.336H228.379V194.99Z" fill="#424242"/>
<path d="M34.5492 262.902H-28.5391V273.248H34.5492V262.902Z" fill="#F3F3F3"/>
<path d="M266.572 262.902H163.021V273.248H266.572V262.902Z" fill="#F3F3F3"/>
<path d="M143.233 262.902H55.3975V273.248H143.233V262.902Z" fill="#424242"/>
<path d="M31.6874 432.718H-18.2256V443.064H31.6874V432.718Z" fill="#424242"/>
<path d="M470.246 364.806H-87.5068V375.152H470.246V364.806Z" fill="#424242"/>
</svg>
