<svg width="50" height="50" viewBox="0 0 50 50" fill="none" xmlns="http://www.w3.org/2000/svg">
<g clip-path="url(#clip0)">
<path d="M49.9874 50V49.9979H49.9999V31.6604C49.9999 22.6896 48.0687 15.7792 37.5811 15.7792C32.5395 15.7792 29.1561 18.5458 27.7749 21.1688H27.6291V16.6167H17.6853V49.9979H28.0395V33.4688C28.0395 29.1167 28.8645 24.9083 34.2541 24.9083C39.5645 24.9083 39.6436 29.875 39.6436 33.7479V50H49.9874Z" fill="white"/>
<path d="M0.824951 16.6187H11.1916V50H0.824951V16.6187Z" fill="white"/>
<path d="M6.00417 0C2.68958 0 0 2.68958 0 6.00417C0 9.31875 2.68958 12.0646 6.00417 12.0646C9.31875 12.0646 12.0083 9.31875 12.0083 6.00417C12.0062 2.68958 9.31667 0 6.00417 0V0Z" fill="white"/>
</g>
<defs>
<clipPath id="clip0">
<rect width="50" height="50" fill="white"/>
</clipPath>
</defs>
</svg>
