<svg width="414" height="43" viewBox="0 0 573 67" fill="none" xmlns="http://www.w3.org/2000/svg">
    <g filter="url(#filter0_d_37_746)">
    <path d="M28.3681 49.4106C21.818 50.007 15.5886 46.5203 12.7029 40.602L4 45.1898C8.12241 55.3747 16.8253 58.9532 28.1848 58.9532C40.5521 58.9532 51.4994 53.6313 51.4994 41.2443C51.4994 27.9856 40.7353 24.9576 29.1467 23.5354C22.4593 22.7096 16.7795 21.3791 16.7795 16.5161C16.7795 12.387 20.4897 9.12971 28.2764 9.12971C33.4066 8.9462 38.3077 11.2401 41.4224 15.3232L49.7588 11.0566C45.5448 2.47741 36.6129 0 27.9558 0C17.7414 0 6.47345 4.5878 6.47345 16.1949C6.47345 28.6737 16.9169 31.7017 28.2764 33.0321C35.651 33.8579 41.1017 35.9683 41.1017 41.2443C41.1017 47.1167 35.0555 49.4106 28.3681 49.4106Z" fill="#323235"/>
    <path d="M98.6325 1.78928H88.2349V57.3934H98.6325V1.78928Z" fill="#323235"/>
    <path d="M195.829 57.4392V1.88098H183.829L166.469 25.7834L149.109 1.88098H137.062V57.4392H147.551V17.0207L165.232 41.2443H167.293L185.34 17.1125V57.4392H195.829Z" fill="#323235"/>
    <path d="M244.657 41.0149H260.368C271.224 41.5195 280.431 33.1698 280.935 22.2967C281.438 11.4236 273.102 2.20214 262.246 1.69748C261.605 1.69748 260.964 1.69748 260.368 1.69748H234.214V57.3933H244.657V41.0149ZM244.657 11.6989H260.368C265.773 11.3318 270.491 15.415 270.858 20.8745C271.224 26.2881 267.147 31.0135 261.697 31.3805C261.239 31.3805 260.781 31.3805 260.368 31.3805H244.657V11.6989Z" fill="#323235"/>
    <path d="M316.341 1.78928V57.3934H355.367V47.6672H326.831V1.78928H316.341Z" fill="#323235"/>
    <path d="M401.768 1.78928H391.37V57.3934H401.768V1.78928Z" fill="#323235"/>
    <path d="M480.001 11.9283V1.88098H440.151V57.3933H450.595V36.7941H478.444V27.1139H450.595V11.9283H480.001Z" fill="#323235"/>
    <path d="M546.876 57.3934V34.4085L569 2.24806V1.78928H556.358L541.609 24.7283L527.501 1.78928H515.042V2.24806L536.387 34.4085V57.3934H546.876Z" fill="#323235"/>
    </g>
    <defs>
    <filter id="filter0_d_37_746" x="0" y="0" width="573" height="66.9532" filterUnits="userSpaceOnUse" color-interpolation-filters="sRGB">
    <feFlood flood-opacity="0" result="BackgroundImageFix"/>
    <feColorMatrix in="SourceAlpha" type="matrix" values="0 0 0 0 0 0 0 0 0 0 0 0 0 0 0 0 0 0 127 0" result="hardAlpha"/>
    <feOffset dy="4"/>
    <feGaussianBlur stdDeviation="2"/>
    <feComposite in2="hardAlpha" operator="out"/>
    <feColorMatrix type="matrix" values="0 0 0 0 0 0 0 0 0 0 0 0 0 0 0 0 0 0 0.15 0"/>
    <feBlend mode="normal" in2="BackgroundImageFix" result="effect1_dropShadow_37_746"/>
    <feBlend mode="normal" in="SourceGraphic" in2="effect1_dropShadow_37_746" result="shape"/>
    </filter>
    </defs>
</svg>