<svg width="25" height="24" viewBox="0 0 25 24" fill="none" xmlns="http://www.w3.org/2000/svg">
<g clip-path="url(#clip0_1580_989)">
<mask id="mask0_1580_989" style="mask-type:luminance" maskUnits="userSpaceOnUse" x="0" y="0" width="25" height="24">
<path d="M24.96 0H0.959961V24H24.96V0Z" fill="white"/>
</mask>
<g mask="url(#mask0_1580_989)">
<path d="M24.96 4.5585C24.0674 4.95 23.1165 5.20949 22.1249 5.33549C23.1449 4.7265 23.9234 3.7695 24.2894 2.616C23.3385 3.183 22.2885 3.5835 21.1694 3.807C20.2665 2.8455 18.9794 2.25 17.5754 2.25C14.8514 2.25 12.6585 4.461 12.6585 7.17149C12.6585 7.56149 12.6914 7.93651 12.7725 8.29349C8.68196 8.094 5.06246 6.13349 2.63096 3.147C2.20646 3.8835 1.95746 4.7265 1.95746 5.634C1.95746 7.338 2.83496 8.84851 4.14296 9.72298C3.35246 9.708 2.57696 9.47851 1.91996 9.11702C1.91996 9.132 1.91996 9.15149 1.91996 9.17098C1.91996 11.562 3.62546 13.548 5.86196 14.0055C5.46146 14.115 5.02496 14.1675 4.57196 14.1675C4.25696 14.1675 3.93896 14.1495 3.64046 14.0835C4.27796 16.032 6.08698 17.4645 8.23796 17.511C6.56396 18.8205 4.43846 19.6095 2.13746 19.6095C1.73396 19.6095 1.34696 19.5915 0.959961 19.542C3.13946 20.9475 5.72246 21.75 8.50796 21.75C17.562 21.75 22.512 14.25 22.512 7.74898C22.512 7.53149 22.5045 7.32149 22.494 7.11302C23.4705 6.42 24.2909 5.55451 24.96 4.5585Z" fill="#1D1D1F"/>
</g>
</g>
<defs>
<clipPath id="clip0_1580_989">
<rect width="24" height="24" fill="white" transform="translate(0.959961)"/>
</clipPath>
</defs>
</svg>
