<svg width="25" height="20" viewBox="0 0 25 20" fill="none" xmlns="http://www.w3.org/2000/svg">
<path d="M24.96 2.5585C24.0674 2.95 23.1165 3.20949 22.1249 3.33549C23.1449 2.7265 23.9234 1.7695 24.2894 0.616C23.3385 1.183 22.2885 1.5835 21.1694 1.807C20.2665 0.845502 18.9794 0.25 17.5754 0.25C14.8514 0.25 12.6585 2.461 12.6585 5.17149C12.6585 5.56149 12.6914 5.93651 12.7725 6.29349C8.68196 6.094 5.06246 4.13349 2.63096 1.147C2.20646 1.8835 1.95746 2.7265 1.95746 3.634C1.95746 5.338 2.83496 6.84851 4.14296 7.72298C3.35246 7.708 2.57696 7.47851 1.91996 7.11702C1.91996 7.132 1.91996 7.15149 1.91996 7.17098C1.91996 9.562 3.62546 11.548 5.86196 12.0055C5.46146 12.115 5.02496 12.1675 4.57196 12.1675C4.25696 12.1675 3.93896 12.1495 3.64046 12.0835C4.27796 14.032 6.08698 15.4645 8.23796 15.511C6.56396 16.8205 4.43846 17.6095 2.13746 17.6095C1.73396 17.6095 1.34696 17.5915 0.959961 17.542C3.13946 18.9475 5.72246 19.75 8.50796 19.75C17.562 19.75 22.512 12.25 22.512 5.74898C22.512 5.53149 22.5045 5.32149 22.494 5.11302C23.4705 4.42 24.2909 3.55451 24.96 2.5585Z" fill="#1D1D1F"/>
</svg>
