<svg width="414" height="76" viewBox="0 0 573 113" fill="none" xmlns="http://www.w3.org/2000/svg">
    <g filter="url(#filter0_d_37_737)">
    <path d="M61.1006 101.871V60.5836L100.841 2.81469V1.9906H78.2144L51.721 43.1953L26.3795 1.9906H4V2.81469L42.3414 60.5836V101.871H61.1006Z" fill="#323235"/>
    <path d="M155.967 52.5899C154.321 79.3729 174.726 102.448 201.466 104.096C203.359 104.178 205.334 104.178 207.226 104.096C242.276 104.096 258.073 78.3016 258.402 52.5075C260.13 25.23 239.396 1.74334 212.245 0.0951581C210.599 0.0127488 208.954 -0.0696605 207.226 0.0951581C172.752 0.0951581 155.967 26.4661 155.967 52.6723V52.5899ZM239.89 52.5899C239.89 69.0717 230.757 86.7073 206.979 86.7073C183.201 86.7073 174.644 69.1542 174.068 52.7547C173.492 36.3553 183.365 16.9067 206.979 16.9067C230.593 16.9067 240.137 35.9432 239.89 52.7547V52.5899Z" fill="#323235"/>
    <path d="M323.484 2.15533V59.3474C321.757 82.2572 338.87 102.283 361.744 104.013C363.718 104.178 365.693 104.178 367.75 104.013C392.844 104.013 410.945 88.8499 410.945 59.3474V2.15533H392.022V59.3474C392.022 76.4061 383.218 86.8721 367.338 86.8721C351.459 86.8721 341.585 77.3126 341.585 59.3474V2.15533H323.484Z" fill="#323235"/>
    <path d="M564.063 35.0367C564.063 17.8131 551.639 2.07294 528.19 2.07294H480.716V101.871H499.557V68.4124H517.576L546.702 101.871H569V100.552L538.804 66.4346C554.107 64.2096 565.133 50.5296 564.063 35.0367ZM528.19 51.5185H499.557V19.6261H528.19C536.994 18.9668 544.645 25.642 545.221 34.4598C545.88 43.2776 539.215 50.9417 530.412 51.5185C529.671 51.5185 528.848 51.5185 528.108 51.5185H528.19Z" fill="#323235"/>
    </g>
    <defs>
    <filter id="filter0_d_37_737" x="0" y="0" width="573" height="112.158" filterUnits="userSpaceOnUse" color-interpolation-filters="sRGB">
    <feFlood flood-opacity="0" result="BackgroundImageFix"/>
    <feColorMatrix in="SourceAlpha" type="matrix" values="0 0 0 0 0 0 0 0 0 0 0 0 0 0 0 0 0 0 127 0" result="hardAlpha"/>
    <feOffset dy="4"/>
    <feGaussianBlur stdDeviation="2"/>
    <feComposite in2="hardAlpha" operator="out"/>
    <feColorMatrix type="matrix" values="0 0 0 0 0 0 0 0 0 0 0 0 0 0 0 0 0 0 0.15 0"/>
    <feBlend mode="normal" in2="BackgroundImageFix" result="effect1_dropShadow_37_737"/>
    <feBlend mode="normal" in="SourceGraphic" in2="effect1_dropShadow_37_737" result="shape"/>
    </filter>
    </defs>
</svg>