<svg width="1728" height="485" viewBox="0 0 1728 485" fill="none" xmlns="http://www.w3.org/2000/svg">
<g opacity="0.48" clip-path="url(#clip0_600_102689)">
<mask id="mask0_600_102689" style="mask-type:luminance" maskUnits="userSpaceOnUse" x="0" y="0" width="1728" height="485">
<path d="M1728 0H0V485H1728V0Z" fill="white"/>
</mask>
<g mask="url(#mask0_600_102689)">
<path d="M52.7645 36.5386C55.2155 36.3064 57.7824 36.323 60.2002 35.9249C61.6575 35.6761 62.9494 34.9794 64.3901 34.6974C69.1265 33.7685 74.3233 33.9344 79.1259 33.6026C89.0787 32.9391 99.0317 32.3752 109.017 32.0766C135.746 31.3136 162.773 32.5742 188.757 39.3585C196.474 41.3821 204.257 43.9034 212.223 43.4721C220.42 43.0243 228.088 39.5077 235.474 35.8917C243.754 31.8444 251.786 26.8848 260.481 23.8327C261.855 23.3516 263.097 22.7545 264.306 21.9251C270.483 17.6788 275.981 12.9514 282.755 9.51777C300.988 0.262012 322.599 -2.72372 342.439 2.70035C377.166 12.1883 403.498 46.5242 403.697 82.5686C426.103 86.4666 445.462 104.381 451.11 126.459C491.352 126.608 531.561 133.475 569.568 146.695C574.453 148.387 579.852 150.195 584.638 148.271C589.738 146.214 592.355 140.724 594.955 135.864C610.936 105.973 642.815 86.0685 676.383 81.6397C709.935 77.1943 744.578 87.3292 772.533 106.454C778.594 110.601 784.589 115.262 791.71 117.087C803.517 120.139 815.64 114.881 827.315 111.331C858.283 101.893 891.438 104.298 923.698 106.77C941.153 108.113 962.266 112.111 968.095 128.632C988.63 123.291 1009.18 117.949 1029.72 112.625C1043.32 109.092 1056.93 105.559 1070.52 102.026C1077.31 100.267 1084.07 98.31 1090.89 96.7342C1097.24 95.2745 1103.1 98.2105 1109.51 95.5233C1120.59 90.8955 1130.44 83.8292 1141.83 79.9146C1152.66 76.1824 1162.62 71.0735 1173.8 68.2205C1185.01 65.3509 1196.83 62.4813 1207.98 65.5997C1219.12 68.7181 1228.81 80.18 1225.71 91.3433C1237.04 89.0211 1249.43 92.9025 1257.43 101.263C1265.43 109.623 1268.75 122.196 1265.96 133.425C1281.36 124.535 1298.5 118.729 1316.1 116.241C1324.78 115.014 1333.57 114.599 1342.33 115.014C1346.46 115.213 1351.41 115.096 1355.38 116.291C1361.16 118.032 1364.16 123.722 1371.46 122.677C1375.77 122.063 1379.1 118.712 1382.23 115.694C1396.42 101.976 1414.5 90.8457 1434.21 90.431C1453.93 90.0163 1474.68 103.17 1477.86 122.66C1486.38 118.596 1496.79 118.779 1505.17 123.141C1518.09 110.734 1539.55 108.412 1554.8 117.8C1550.02 93.284 1559.14 66.512 1577.91 50.0573C1581.86 46.574 1586.24 43.5882 1590.87 41.1001C1600.56 35.9249 1611.41 32.9889 1622.37 32.4913C1627.85 32.2425 1633.35 32.6074 1638.75 33.6026C1641.4 34.1003 1644.08 35.2282 1646.73 35.5268C1647.72 35.6429 1648.67 35.4273 1649.66 35.4438C1656.04 35.5268 1662.79 37.4675 1669.04 38.6618L1751.03 54.1876V490H-4.12048L-4.12109 50.1568C13.9299 44.4176 33.6537 38.413 52.7479 36.5386H52.7645Z" fill="url(#paint0_linear_600_102689)"/>
</g>
</g>
<defs>
<linearGradient id="paint0_linear_600_102689" x1="858.537" y1="334.033" x2="858.537" y2="-404.453" gradientUnits="userSpaceOnUse">
<stop stop-color="#068A9C"/>
<stop offset="0.13" stop-color="#06748A"/>
<stop offset="0.39" stop-color="#064E6C"/>
<stop offset="0.63" stop-color="#063256"/>
<stop offset="0.84" stop-color="#062149"/>
<stop offset="0.99" stop-color="#061C45"/>
</linearGradient>
<clipPath id="clip0_600_102689">
<rect width="1728" height="485" fill="white"/>
</clipPath>
</defs>
</svg>
