<svg width="24" height="24" viewBox="0 0 24 24" fill="none" xmlns="http://www.w3.org/2000/svg">
<path d="M1 22H23" stroke="#78B4D7" stroke-width="1.5" stroke-miterlimit="10" stroke-linecap="round" stroke-linejoin="round"/>
<path d="M19.7812 22.0098V17.5498" stroke="#78B4D7" stroke-width="1.5" stroke-miterlimit="10" stroke-linecap="round" stroke-linejoin="round"/>
<path d="M19.8016 10.8896C18.5816 10.8896 17.6016 11.8697 17.6016 13.0897V15.3596C17.6016 16.5796 18.5816 17.5596 19.8016 17.5596C21.0216 17.5596 22.0016 16.5796 22.0016 15.3596V13.0897C22.0016 11.8697 21.0216 10.8896 19.8016 10.8896Z" stroke="#78B4D7" stroke-width="1.5" stroke-miterlimit="10" stroke-linecap="round" stroke-linejoin="round"/>
<path d="M2.10156 21.9998L2.10156 6.02979C2.10156 4.01979 3.10161 3.00977 5.09161 3.00977L11.3216 3.00977C13.3116 3.00977 14.3016 4.01979 14.3016 6.02979V21.9998" stroke="#78B4D7" stroke-width="1.5" stroke-miterlimit="10" stroke-linecap="round" stroke-linejoin="round"/>
<path d="M5.80078 8.25H10.7508" stroke="#78B4D7" stroke-width="1.5" stroke-miterlimit="10" stroke-linecap="round" stroke-linejoin="round"/>
<path d="M5.80078 12H10.7508" stroke="#78B4D7" stroke-width="1.5" stroke-miterlimit="10" stroke-linecap="round" stroke-linejoin="round"/>
<path d="M8.25 22V18.25" stroke="#78B4D7" stroke-width="1.5" stroke-miterlimit="10" stroke-linecap="round" stroke-linejoin="round"/>
</svg>
