<svg width="87" height="14" viewBox="0 0 87 14" fill="none" xmlns="http://www.w3.org/2000/svg">
<path d="M6.94449 10.6249H3.96209V0.405273H0.808594V13.5987H6.94449V10.6249Z" fill="#161618"/>
<path d="M19.0469 8.31777V0.405273H15.9039V8.31777C15.9039 9.80297 15.1845 10.8507 13.6933 10.8507C12.2021 10.8507 11.4477 9.82417 11.4477 8.33547V0.405273H8.30469V8.33547C8.30469 11.6338 9.98799 13.8457 13.6688 13.8457C17.2344 13.8316 19.0469 11.4998 19.0469 8.31777Z" fill="#161618"/>
<path d="M32.3529 13.5987V0.405273H29.3146V8.37427L24.408 0.405273H21.1602V13.5987H24.1984V5.79907L29.2378 13.5987H32.3529Z" fill="#161618"/>
<path d="M38.0992 0.405273L33.5312 13.5987H36.629L37.7046 10.4521H41.8185L42.9149 13.5987H46.2535L41.4238 0.405273H38.0992ZM38.609 7.78157L39.7615 4.44447L40.9139 7.78157H38.609Z" fill="#161618"/>
<path d="M45.7383 3.37907H47.9244V13.5987H51.078V3.37907H53.25V0.405273H45.7383V3.37907Z" fill="#161618"/>
<path d="M61.2545 3.37907V0.405273H55.0625V13.5987H61.3105V10.6249H58.2165V8.35307H61.1565V5.41807H58.2165V3.37907H61.2545Z" fill="#161618"/>
<path d="M69.9368 3.12854C70.8658 3.13214 71.7628 3.48484 72.4478 4.11984L74.3158 1.72104C73.0898 0.655738 71.5148 0.0948385 69.8988 0.154739C65.7288 0.154739 63.0078 3.20614 63.0078 7.01954C63.0078 10.8329 65.6138 13.8314 69.9578 13.8314C71.5748 13.8667 73.1358 13.2494 74.2988 12.117L72.4478 9.86634C71.7668 10.4943 70.8798 10.8435 69.9578 10.8576C67.7648 10.8576 66.3118 9.16084 66.3118 6.97724C66.3118 4.79364 67.6148 3.12854 69.9368 3.12854Z" fill="#161618"/>
<path d="M75.7695 0.405273V13.5987H78.9235V8.39187H83.4525V13.5987H86.6065V0.405273H83.4525V5.36167H78.9235V0.405273H75.7695Z" fill="#161618"/>
</svg>
