<svg width="599" height="33" viewBox="0 0 599 33" fill="none" xmlns="http://www.w3.org/2000/svg">
<path d="M13.2271 27.818C9.67167 28.1418 6.29032 26.2492 4.72395 23.0367L0 25.527C2.23766 31.0554 6.96161 32.9978 13.1276 32.9978C19.8406 32.9978 25.7828 30.1091 25.7828 23.3853C25.7828 16.1885 19.9401 14.5449 13.6497 13.7729C10.0198 13.3247 6.93675 12.6025 6.93675 9.96278C6.93675 7.72154 8.95065 5.95344 13.1773 5.95344C15.962 5.85383 18.6223 7.09897 20.313 9.31531L24.838 6.99936C22.5507 2.34255 17.7024 0.997803 13.0033 0.997803C7.45887 0.997803 1.3426 3.48808 1.3426 9.78846C1.3426 16.562 7.01134 18.2056 13.1773 18.9278C17.1803 19.376 20.139 20.5215 20.139 23.3853C20.139 26.5729 16.8571 27.818 13.2271 27.818Z" fill="#090909"/>
<path d="M51.3675 1.96899H45.7236V32.1511H51.3675V1.96899Z" fill="#090909"/>
<path d="M104.127 32.1758V2.01855H97.6126L88.1895 14.9929L78.7665 2.01855H72.2275V32.1758H77.9211V10.2365L87.5182 23.3851H88.6371L98.433 10.2863V32.1758H104.127Z" fill="#090909"/>
<path d="M130.631 23.2608H139.159C145.051 23.5348 150.049 19.0025 150.322 13.1005C150.596 7.19857 146.071 2.19312 140.178 1.91919C139.83 1.91919 139.482 1.91919 139.159 1.91919H124.962V32.1511H130.631V23.2608ZM130.631 7.34798H139.159C142.092 7.14876 144.653 9.3651 144.852 12.3285C145.051 15.2671 142.838 17.832 139.88 18.0313C139.631 18.0313 139.382 18.0313 139.159 18.0313H130.631V7.34798Z" fill="#090909"/>
<path d="M169.537 1.96899V32.1511H190.72V26.8717H175.231V1.96899H169.537Z" fill="#090909"/>
<path d="M215.91 1.96899H210.267V32.1511H215.91V1.96899Z" fill="#090909"/>
<path d="M258.377 7.47225V2.01855H236.746V32.1509H242.415V20.9695H257.531V15.7151H242.415V7.47225H258.377Z" fill="#090909"/>
<path d="M294.674 32.1511V19.6748L306.683 2.21802V1.96899H299.821L291.815 14.4204L284.157 1.96899H277.395V2.21802L288.981 19.6748V32.1511H294.674Z" fill="#090909"/>
<path d="M352.287 31.781V19.3047L364.296 1.8479V1.59888H357.459L349.453 14.0502L341.795 1.59888H335.032V1.8479L346.618 19.3047V31.781H352.287Z" fill="#090909"/>
<path d="M380.955 16.8894C380.458 24.9827 386.624 31.9555 394.704 32.4536C395.276 32.4785 395.873 32.4785 396.444 32.4536C407.036 32.4536 411.81 24.659 411.909 16.8644C412.431 8.62165 406.166 1.52437 397.961 1.02631C397.464 1.00141 396.967 0.976508 396.444 1.02631C386.027 1.02631 380.955 8.99519 380.955 16.9143V16.8894ZM406.315 16.8894C406.315 21.8699 403.555 27.1991 396.37 27.1991C389.184 27.1991 386.599 21.8948 386.425 16.9392C386.251 11.9835 389.234 6.10647 396.37 6.10647C403.505 6.10647 406.39 11.859 406.315 16.9392V16.8894Z" fill="#090909"/>
<path d="M431.577 1.64893V18.9314C431.055 25.8544 436.227 31.9057 443.139 32.4287C443.735 32.4785 444.332 32.4785 444.954 32.4287C452.537 32.4287 458.007 27.8466 458.007 18.9314V1.64893H452.288V18.9314C452.288 24.0863 449.628 27.2489 444.829 27.2489C440.031 27.2489 437.047 24.3602 437.047 18.9314V1.64893H431.577Z" fill="#090909"/>
<path d="M504.274 11.5851C504.274 6.38044 500.52 1.62402 493.434 1.62402H479.088V31.7812H484.782V21.6707H490.226L499.028 31.7812H505.766V31.3828L496.641 21.073C501.266 20.4007 504.597 16.2668 504.274 11.5851ZM493.434 16.5657H484.782V6.9283H493.434C496.094 6.72908 498.406 8.7462 498.58 11.4108C498.779 14.0754 496.765 16.3913 494.105 16.5657C493.881 16.5657 493.633 16.5657 493.409 16.5657H493.434Z" fill="#090909"/>
<path d="M553.478 1.59888H547.834V31.781H553.478V1.59888Z" fill="#090909"/>
<path d="M573.913 6.77864H583.461V31.6814H589.154V6.77864H598.702V1.59888H573.839L573.913 6.77864Z" fill="#090909"/>
</svg>
